<svg id="Layer_1" data-name="Layer 1" xmlns="http://www.w3.org/2000/svg" viewBox="0 0 1296.07 619.47"><title>leap-logo</title><polygon points="52.86 447.19 52.86 436.51 5 436.51 5 499.1 53.13 499.1 53.13 488.51 18.2 488.51 18.2 471.61 48.58 471.61 48.58 461.2 18.2 461.2 18.2 447.19 52.86 447.19"/><path d="M-246.1,513.65l16.28-44.91h-12.37L-249.83,492c-1.37,4.29-2,7.18-2,7.18H-252s-.73-2.89-2.09-7.18l-7.46-23.28h-12.55l16.19,44.91Z" transform="translate(328.36 -14.54)"/><path d="M-180.49,491.24c0-13.4-9.92-23.73-24.39-23.73s-24.38,10.33-24.38,23.73S-219.35,515-204.88,515-180.49,504.63-180.49,491.24Zm-36.22,0c0-8.76,4.19-14.71,11.83-14.71s11.83,6,11.83,14.71-4.28,14.62-11.83,14.62S-216.71,500-216.71,491.24Z" transform="translate(328.36 -14.54)"/><rect x="153.78" y="436.51" width="12.37" height="62.6"/><path d="M-138.18,514.87c6.55,0,10.19-2.36,13.38-6.48h.27v5.26h11.92V468.74H-125v25.91c0,6-3.55,10.16-9.38,10.16-5.27,0-7.73-2.89-7.73-8.15V468.74h-12.28v29.93C-154.37,508.48-148.55,514.87-138.18,514.87Z" transform="translate(328.36 -14.54)"/><path d="M-88.22,513.74c4.92,0,7.74-.18,7.74-.18v-8.75s-2.1.08-3.64.08c-2.73,0-4.64-1.14-4.64-4.46V476.61h8v-7.87h-8v-14h-12.1v14h-6.46v7.87h6.46V503C-100.86,511.46-94.22,513.74-88.22,513.74Z" transform="translate(328.36 -14.54)"/><rect x="253.97" y="436.51" width="12.37" height="10.68"/><rect x="253.97" y="454.19" width="12.37" height="44.91"/><path d="M-31.89,467.51c-14.47,0-24.39,10.33-24.39,23.73S-46.36,515-31.89,515s24.38-10.33,24.38-23.72S-17.43,467.51-31.89,467.51Zm0,38.35c-7.65,0-11.83-5.87-11.83-14.62s4.18-14.71,11.83-14.71,11.82,6,11.82,14.71S-24.34,505.86-31.89,505.86Z" transform="translate(328.36 -14.54)"/><path d="M40.54,513.65V484.32c0-9.8-6.46-16.81-16.11-16.81-6.37,0-10.65,2.54-13.83,7.35h-.27v-6.12H-1.77v44.91H10.6V488.17c0-6.13,4-10.33,9.46-10.33,5.19,0,8.1,3.42,8.1,8.23v27.58Z" transform="translate(328.36 -14.54)"/><path d="M64.66,486.51c-10.38,1.4-18.75,4.55-18.75,14.44,0,8.93,6.74,13.75,16.29,13.75,8,0,11.37-2.63,13.74-6h.18c.27,2,.73,4.11,1.45,5H89.49v-.44c-1.09-.79-1.63-2.8-1.63-6.22V484.14c0-10.5-5.64-16.54-19.66-16.54-13.64,0-19.74,6.92-20.1,14.8h11c.36-4.3,3.18-6.31,9-6.31,5.19,0,7.83,2.1,7.83,5.34C75.94,484.85,72.39,485.46,64.66,486.51Zm11.55,4.55v6.74c0,4.38-3.91,8.58-11,8.58-4.37,0-7.28-1.49-7.28-5.69s3.19-5.6,9.65-7C70.66,493,74,492.28,76.21,491.06Z" transform="translate(328.36 -14.54)"/><path d="M95.69,468.74v44.91h12.37V491.76c0-9.45,5.83-13.57,13.92-12.78h.28V468.56a8.48,8.48,0,0,0-2.92-.35c-5.45,0-8.64,2.63-11.46,7.71h-.27v-7.18Z" transform="translate(328.36 -14.54)"/><path d="M133.45,519h-4.37v9.37h7.28c9.46,0,12.92-3.6,16.47-13.58l16.28-46H156.65L150.1,489c-1.46,4.11-2.73,9.8-2.73,9.8h-.18s-1.55-5.69-3-9.8l-6.92-20.22h-13l12.56,31.95c2.64,6.83,3.54,9.72,3.54,12.17C140.36,516.54,138.37,519,133.45,519Z" transform="translate(328.36 -14.54)"/><polygon points="561.72 488.51 531.15 488.51 531.15 436.51 517.95 436.51 517.95 499.1 561.72 499.1 561.72 488.51"/><path d="M259.3,467.51c-13.65,0-23,10.33-23,23.64S245,515,260.48,515c12,0,19.38-6.74,21.11-14.71H269.4c-1.37,3.42-4.18,5.52-9,5.52-7,0-11-4.29-11.91-11.21h33.84C282.32,478.54,274.31,467.51,259.3,467.51Zm-10.65,18.82c1.09-5.86,4.28-9.63,10.83-9.63,5.64,0,9.55,3.94,9.92,9.63Z" transform="translate(328.36 -14.54)"/><path d="M315.8,508.66H316c.27,2,.73,4.11,1.45,5h11.92v-.44c-1.09-.79-1.64-2.8-1.64-6.22V484.14c0-10.5-5.64-16.54-19.65-16.54-13.65,0-19.74,6.92-20.1,14.8h11c.37-4.3,3.19-6.31,9-6.31,5.19,0,7.82,2.1,7.82,5.34,0,3.42-3.54,4-11.28,5.08-10.37,1.4-18.74,4.55-18.74,14.44,0,8.93,6.73,13.75,16.29,13.75C310.07,514.7,313.44,512.07,315.8,508.66Zm-18-8c0-4.2,3.18-5.6,9.64-7,3.1-.7,6.46-1.41,8.65-2.63v6.74c0,4.38-3.92,8.58-11,8.58C300.7,506.38,297.79,504.89,297.79,500.69Z" transform="translate(328.36 -14.54)"/><path d="M347.75,474.34h-.28v-5.6H335.56v59.62h12.37V508.57h.18c2.64,3.85,6.92,6.39,13.47,6.39,12,0,20.19-9.19,20.19-23.72,0-14-7.91-23.73-20.28-23.73A16.48,16.48,0,0,0,347.75,474.34Zm10.73,2.8c7.65,0,10.74,5.95,10.74,14.45s-4,13.48-10.28,13.48c-7.37,0-11.28-5.34-11.28-13.48S350.75,477.14,358.48,477.14Z" transform="translate(328.36 -14.54)"/><polygon points="1.64 552.24 21.2 552.24 21.2 604.16 34.39 604.16 34.39 552.24 53.95 552.24 53.95 541.56 1.64 541.56 1.64 552.24"/><path d="M-242.55,572.56c-6.37,0-10.19,2.37-13.56,7.09h-.27V556.1h-12.37v62.6h12.37V593.22c0-6.12,4-10.33,9.46-10.33,5.18,0,8.1,3.42,8.1,8.23V618.7h12.37V589.37C-226.45,579.57-232.91,572.56-242.55,572.56Z" transform="translate(328.36 -14.54)"/><path d="M-198.06,572.56c-13.64,0-23,10.33-23,23.64S-212.34,620-196.87,620c12,0,19.38-6.74,21.11-14.7H-188c-1.36,3.41-4.18,5.51-9,5.51-7,0-11-4.29-11.92-11.21H-175C-175,583.59-183,572.56-198.06,572.56Zm-10.64,18.82c1.09-5.86,4.28-9.62,10.83-9.62,5.64,0,9.55,3.94,9.91,9.62Z" transform="translate(328.36 -14.54)"/><polygon points="188.54 576.67 218.93 576.67 218.93 566.25 188.54 566.25 188.54 552.24 223.21 552.24 223.21 541.56 175.35 541.56 175.35 604.16 223.48 604.16 223.48 593.56 188.54 593.56 188.54 576.67"/><path d="M-76,591.38c-6.64-1.31-12.83-1.66-12.83-5.51,0-3.24,3.19-5,8-5,5.28,0,8.46,1.75,9,6.57h11.19c-.91-9-7.74-14.89-20-14.89-10.64,0-19,4.64-19,14.36s8.2,12,16.57,13.57c6.36,1.23,12.28,1.66,12.28,6,0,3.16-3.1,5.17-8.55,5.17s-9.38-2.28-10.19-7.44H-101c.73,9.54,8.28,15.84,21.84,15.84,11.64,0,19.65-5.42,19.65-14.44C-59.56,595.06-68.2,593-76,591.38Z" transform="translate(328.36 -14.54)"/><path d="M-31.89,591.38c-6.65-1.31-12.83-1.66-12.83-5.51,0-3.24,3.18-5,8-5,5.28,0,8.47,1.75,9,6.57h11.19c-.91-9-7.73-14.89-20-14.89-10.64,0-19,4.64-19,14.36s8.19,12,16.56,13.57c6.37,1.23,12.28,1.66,12.28,6,0,3.16-3.09,5.17-8.55,5.17s-9.37-2.28-10.19-7.44H-56.92c.73,9.54,8.29,15.84,21.84,15.84,11.65,0,19.65-5.42,19.65-14.44C-15.43,595.06-24.07,593-31.89,591.38Z" transform="translate(328.36 -14.54)"/><path d="M11.33,572.56c-13.65,0-23,10.33-23,23.64S-3,620,12.51,620c12,0,19.38-6.74,21.11-14.7H21.43c-1.37,3.41-4.18,5.51-9,5.51-7,0-11-4.29-11.91-11.21H34.35C34.35,583.59,26.34,572.56,11.33,572.56ZM.68,591.38c1.09-5.86,4.28-9.62,10.83-9.62,5.64,0,9.55,3.94,9.92,9.62Z" transform="translate(328.36 -14.54)"/><path d="M66.29,572.56c-6.37,0-10.65,2.54-13.83,7.36h-.27v-6.13H40.09V618.7H52.46V593.22c0-6.12,4-10.33,9.46-10.33,5.19,0,8.1,3.42,8.1,8.23V618.7H82.4V589.37C82.4,579.57,75.94,572.56,66.29,572.56Z" transform="translate(328.36 -14.54)"/><path d="M111.43,610.47c-7.56,0-11.11-5.69-11.11-14.18,0-8.67,3.83-14.18,11.28-14.18a8.46,8.46,0,0,1,8.56,6.91h12.1c-1.64-9.71-9.1-16.46-21.2-16.46-14.19,0-23.29,10.33-23.29,23.73S97,620,111.7,620c12.46,0,20.2-7.61,21-17.15H120.8C120,607.93,116.43,610.47,111.43,610.47Z" transform="translate(328.36 -14.54)"/><path d="M158.83,572.56c-13.64,0-23,10.33-23,23.64S144.55,620,160,620c12,0,19.38-6.74,21.1-14.7H168.94c-1.37,3.41-4.19,5.51-9,5.51-7,0-11-4.29-11.92-11.21h33.84C181.85,583.59,173.84,572.56,158.83,572.56Zm-10.64,18.82c1.09-5.86,4.28-9.62,10.83-9.62,5.64,0,9.55,3.94,9.92,9.62Z" transform="translate(328.36 -14.54)"/><path d="M225,572.56c-14.46,0-24.38,10.33-24.38,23.73S210.53,620,225,620s24.38-10.33,24.38-23.72S239.46,572.56,225,572.56Zm0,38.35c-7.64,0-11.82-5.87-11.82-14.62s4.18-14.71,11.82-14.71,11.83,5.95,11.83,14.71S232.54,610.91,225,610.91Z" transform="translate(328.36 -14.54)"/><path d="M257.84,569.76v4h-6.36V582h6.36V618.7h12.38V582h8.37v-8.23h-8.37v-3.33c0-4.64,2.55-5.34,8.37-5.08v-9.19C266.67,555,257.84,558.82,257.84,569.76Z" transform="translate(328.36 -14.54)"/><path d="M339.92,588.93c0,4.38.36,10.86.36,10.86h-.18s-2.45-5.34-4.55-8.75L313.9,556.1H300.53v62.6h13V586.39c0-4.37-.36-10.94-.36-10.94h.18s2.55,5.34,4.64,8.67l22.2,34.58h12.74V556.1h-13Z" transform="translate(328.36 -14.54)"/><path d="M401.61,589.2c0-10.51-5.64-16.55-19.65-16.55-13.65,0-19.74,6.92-20.11,14.8h11c.37-4.29,3.18-6.31,9-6.31,5.19,0,7.83,2.11,7.83,5.34,0,3.42-3.55,4-11.29,5.08C368,593,359.67,596.11,359.67,606c0,8.93,6.73,13.75,16.29,13.75,8,0,11.37-2.63,13.74-6h.17c.28,2,.73,4.11,1.46,5h11.92v-.44c-1.09-.79-1.64-2.8-1.64-6.21ZM390,602.86c0,4.37-3.91,8.57-11,8.57-4.37,0-7.28-1.49-7.28-5.69s3.18-5.6,9.65-7c3.09-.7,6.45-1.4,8.64-2.63Z" transform="translate(328.36 -14.54)"/><path d="M424.37,605.48V581.67h8v-7.88h-8v-14h-12.1v14h-6.46v7.88h6.46V608c0,8.49,6.64,10.77,12.64,10.77,4.92,0,7.74-.18,7.74-.18v-8.75s-2.1.08-3.64.08C426.28,609.94,424.37,608.8,424.37,605.48Z" transform="translate(328.36 -14.54)"/><path d="M467.77,599.7c0,6-3.55,10.16-9.37,10.16-5.28,0-7.73-2.89-7.73-8.14V573.79H438.38v29.94c0,9.8,5.82,16.2,16.2,16.2,6.55,0,10.19-2.37,13.37-6.48h.27v5.25h11.92V573.79H467.77Z" transform="translate(328.36 -14.54)"/><path d="M500.35,581h-.27v-7.18H488.16V618.7h12.37V596.81c0-9.45,5.83-13.56,13.93-12.78h.27V573.61a8.46,8.46,0,0,0-2.91-.35C506.36,573.26,503.17,575.89,500.35,581Z" transform="translate(328.36 -14.54)"/><path d="M539.48,572.56c-13.65,0-23,10.33-23,23.64S525.2,620,540.66,620c12,0,19.38-6.74,21.11-14.7H549.58c-1.37,3.41-4.19,5.51-9,5.51-7,0-11-4.29-11.92-11.21h33.84C562.49,583.59,554.49,572.56,539.48,572.56Zm-10.64,18.82c1.09-5.86,4.27-9.62,10.82-9.62,5.64,0,9.56,3.94,9.92,9.62Z" transform="translate(328.36 -14.54)"/><rect x="911.88" y="541.56" width="12.37" height="10.68"/><rect x="911.88" y="559.24" width="12.37" height="44.91"/><path d="M626,591.38c-6.64-1.31-12.83-1.66-12.83-5.51,0-3.24,3.18-5,8-5,5.27,0,8.46,1.75,9,6.57h11.19c-.91-9-7.73-14.89-20-14.89-10.64,0-19,4.64-19,14.36s8.18,12,16.55,13.57c6.37,1.23,12.28,1.66,12.28,6,0,3.16-3.09,5.17-8.55,5.17s-9.37-2.28-10.19-7.44H601c.73,9.54,8.28,15.84,21.83,15.84,11.65,0,19.66-5.42,19.66-14.44C642.49,595.06,633.84,593,626,591.38Z" transform="translate(328.36 -14.54)"/><path d="M692.81,609.6c-10.92,0-17.84-9.2-17.84-22,0-12.43,5.73-22.06,17.74-22.06,7.65,0,12.56,4.11,13.74,10.42h13.1c-1.36-11.91-10.82-21.1-26.84-21.1-19.19,0-31.2,14.18-31.2,32.74,0,18.82,13,32.39,31.3,32.39,9,0,15.28-2.62,19.74-6.65a21.84,21.84,0,0,0,7.19-14.8H706.82C706,605.13,700.54,609.6,692.81,609.6Z" transform="translate(328.36 -14.54)"/><path d="M751.77,572.56c-6.36,0-10.19,2.37-13.55,7.09H738V556.1H725.57v62.6H738V593.22c0-6.12,4-10.33,9.46-10.33,5.18,0,8.09,3.42,8.09,8.23V618.7h12.38V589.37C767.88,579.57,761.42,572.56,751.77,572.56Z" transform="translate(328.36 -14.54)"/><path d="M815.2,589.2c0-10.51-5.65-16.55-19.66-16.55-13.64,0-19.74,6.92-20.11,14.8h11c.36-4.29,3.18-6.31,9-6.31,5.19,0,7.83,2.11,7.83,5.34,0,3.42-3.55,4-11.28,5.08-10.38,1.4-18.75,4.55-18.75,14.44,0,8.93,6.74,13.75,16.29,13.75,8,0,11.37-2.63,13.74-6h.18c.27,2,.72,4.11,1.45,5h11.92v-.44c-1.09-.79-1.63-2.8-1.63-6.21Zm-11.65,13.66c0,4.37-3.91,8.57-11,8.57-4.37,0-7.28-1.49-7.28-5.69s3.19-5.6,9.65-7c3.09-.7,6.46-1.4,8.64-2.63Z" transform="translate(328.36 -14.54)"/><path d="M849.23,572.56c-6.37,0-10.64,2.54-13.83,7.36h-.27v-6.13H823V618.7H835.4V593.22c0-6.12,4-10.33,9.46-10.33,5.19,0,8.1,3.42,8.1,8.23V618.7h12.37V589.37C865.33,579.57,858.88,572.56,849.23,572.56Z" transform="translate(328.36 -14.54)"/><path d="M904,578.51h-.18c-2.82-3.76-7.1-6-12.92-6-11.82,0-20.19,8.58-20.19,22,0,13.57,10.19,21.45,20.55,21.45a15.33,15.33,0,0,0,12.2-5.26h.27v4.9c0,6.13-3.37,9.37-10.37,9.37-5.74,0-8.37-2.19-9.38-5H871.71c1.28,8.76,9.1,14,21.84,14,6.91,0,12.92-1.58,16.83-5.08,3.46-3.06,5.55-7.35,5.55-13.66V573.79H904Zm-10.64,27.93c-6.37,0-10.56-4.46-10.56-12.08s4.19-12.25,10.47-12.25c7.46,0,11.09,5.6,11.09,12.16S901.19,606.44,893.37,606.44Z" transform="translate(328.36 -14.54)"/><path d="M945.78,610.82c-7,0-11-4.29-11.92-11.21h33.85c0-16-8-27.05-23-27.05-13.65,0-23,10.33-23,23.64S930.41,620,945.87,620c12,0,19.38-6.74,21.11-14.7H954.79C953.42,608.72,950.6,610.82,945.78,610.82Zm-.91-29.06c5.64,0,9.56,3.94,9.92,9.62H934.05C935.14,585.52,938.32,581.76,944.87,581.76Z" transform="translate(328.36 -14.54)"/><polygon points="682.19 296.07 403.62 296.07 531.39 50.42 557.41 0 491.38 0 337.37 296.07 95.84 296.07 143.16 205.02 286.33 205.02 315.94 148.04 172.78 148.04 220.1 56.98 363.27 56.98 392.88 0 183.49 0 0 353.05 652.58 353.05 682.19 296.07"/><path d="M288.46,78.35a37.77,37.77,0,0,0,12.15,7.77,39.63,39.63,0,0,0,15,2.85,39.18,39.18,0,0,0,27.1-10.62,35.33,35.33,0,0,0,8.15-11.76,37,37,0,0,0,2.95-14.84,37.06,37.06,0,0,0-2.95-14.84,35.44,35.44,0,0,0-8.15-11.76,39.11,39.11,0,0,0-27.1-10.61,39.82,39.82,0,0,0-15,2.84,37.94,37.94,0,0,0-12.15,7.77,35.83,35.83,0,0,0-8.07,11.76,36.89,36.89,0,0,0-2.95,14.84,36.82,36.82,0,0,0,2.95,14.84A35.72,35.72,0,0,0,288.46,78.35Zm-1.67-39.13a28.56,28.56,0,0,1,6.54-9.92,31.43,31.43,0,0,1,22.3-8.92,32.22,32.22,0,0,1,12.47,2.39A30.26,30.26,0,0,1,338,29.3a29.38,29.38,0,0,1,6.46,9.92,33.21,33.21,0,0,1,2.32,12.53,33.23,33.23,0,0,1-2.32,12.54,30.18,30.18,0,0,1-6.46,10,29.69,29.69,0,0,1-9.92,6.61,32.21,32.21,0,0,1-12.47,2.38,31.7,31.7,0,0,1-12.39-2.38,30.8,30.8,0,0,1-9.91-6.61,29.32,29.32,0,0,1-6.54-10,33.23,33.23,0,0,1-2.32-12.54A33.21,33.21,0,0,1,286.79,39.22Z" transform="translate(328.36 -14.54)"/><path d="M310.36,56.83h5.44c3.93,0,6.07,1.74,6.39,5.22q.31,2.94.64,5.77c.21,1.9.58,3,1.11,3.31h10.88v-.77c-.86-.41-1.26-1.62-1.2-3.62a28.48,28.48,0,0,0-.72-6.68A12.57,12.57,0,0,0,331,55.52,7.22,7.22,0,0,0,326.82,53v-.3q7-2.31,7-9.38a9.78,9.78,0,0,0-4.31-8.54,17.75,17.75,0,0,0-10.39-3H299.33V71.13h11Zm0-16.61h6.87q5.76,0,5.76,4.46t-5.76,4.46h-6.87Z" transform="translate(328.36 -14.54)"/></svg>