<svg id="Layer_1" data-name="Layer 1" xmlns="http://www.w3.org/2000/svg" viewBox="0 0 1859.17 313.33"><title>420atoa_logo</title><path d="M147.63,2861.19a2.42,2.42,0,0,1-2.41-2.42V2716.65a9.72,9.72,0,0,0-9.71-9.71H-148.73a9.71,9.71,0,0,0-9.71,9.71v142.12a2.43,2.43,0,0,1-2.42,2.42,2.43,2.43,0,0,1-2.42-2.42V2743.15a157.16,157.16,0,0,1-49.83,80.19,156.59,156.59,0,0,1-102,37.85,156.17,156.17,0,0,1-105.83-41.25,156.45,156.45,0,0,1-49.23-93A79.75,79.75,0,0,1-545.46,2784l-13.14,0h-65c-42.83,0-78.2-34.47-79.49-77.12h-72.32c1.31,82.52,69.11,149.41,151.81,149.41h77.12a75,75,0,0,0,74.7-73.74,2.42,2.42,0,0,1,2.41-2.38,2.45,2.45,0,0,1,1.73.72,2.44,2.44,0,0,1,.7,1.73c-.56,43.29-36.24,78.51-79.54,78.51H-623.6A156.27,156.27,0,0,1-728.27,2821a156.6,156.6,0,0,1-49.58-89,156.55,156.55,0,0,1-49.59,89,156.23,156.23,0,0,1-104.66,40.2c-85.36,0-155.33-69.07-156.64-154.25h-229a74.79,74.79,0,0,0-74.7,74.71v65a9.71,9.71,0,0,0,9.71,9.71h219.24a75,75,0,0,0,74.7-73.74,2.42,2.42,0,0,1,2.41-2.38,2.45,2.45,0,0,1,1.73.72,2.44,2.44,0,0,1,.7,1.73c-.56,43.29-36.24,78.51-79.54,78.51h-232.37a1.43,1.43,0,0,1-1.42-1.42v-78.12a79.64,79.64,0,0,1,17.63-49.87,80.15,80.15,0,0,1,34.68-24.84h-114.89a9.72,9.72,0,0,0-9.71,9.7v142.13a2.42,2.42,0,0,1-2.41,2.42,2.42,2.42,0,0,1-2.42-2.42V2716.65a9.72,9.72,0,0,0-9.71-9.71H-1707.7a1.41,1.41,0,0,1-1.38-1.09,1.42,1.42,0,0,1,.74-1.6l311.52-155.69a2.42,2.42,0,0,1,1.08-.26,2.42,2.42,0,0,1,2.17,1.34,2.42,2.42,0,0,1-1.08,3.24L-1693.1,2702.1h209a9.72,9.72,0,0,0,9.71-9.71v-64A2.42,2.42,0,0,1-1472,2626a2.41,2.41,0,0,1,2.41,2.42v64a9.72,9.72,0,0,0,9.71,9.71h296.37a74.19,74.19,0,0,0,53.06-22.16,74.16,74.16,0,0,0,21.64-53.28c-.39-40.79-34.34-74-75.67-74h-153.28a75,75,0,0,0-74.7,73.74,2.41,2.41,0,0,1-2.41,2.38,2.38,2.38,0,0,1-1.72-.72,2.39,2.39,0,0,1-.7-1.73c.55-43.29,36.23-78.5,79.53-78.5h153.16c44.06,0,80.23,35.35,80.63,78.8a79.64,79.64,0,0,1-17.41,50.33,80.06,80.06,0,0,1-34.9,25.11h47.5c1.31-85.18,71.28-154.24,156.64-154.24a156.22,156.22,0,0,1,104.66,40.19,156.55,156.55,0,0,1,49.59,89,156.6,156.6,0,0,1,49.58-89,156.26,156.26,0,0,1,104.67-40.19,156.26,156.26,0,0,1,104.66,40.19,156.6,156.6,0,0,1,49.58,89,156.64,156.64,0,0,1,49.44-88.91,156.28,156.28,0,0,1,104.39-40.32h.84a156.28,156.28,0,0,1,104.39,40.32,156.64,156.64,0,0,1,49.44,88.91,156.6,156.6,0,0,1,49.58-89A156.26,156.26,0,0,1-6.61,2547.86c85.77,0,156,69.72,156.65,155.46a1.34,1.34,0,0,1,0,.2v155.25A2.42,2.42,0,0,1,147.63,2861.19Zm-614.54-154.25c1.3,82.52,69.1,149.41,151.8,149.41s150.5-66.89,151.8-149.41Zm-570.77,106.58a150.87,150.87,0,0,0,105.58,42.83c82.7,0,150.5-66.89,151.8-149.41H-931.1Zm-46.22-106.58a150.93,150.93,0,0,0,42.8,103.16l103.17-103.16Zm385.65,0a75,75,0,0,0,74.65,72.29h65a9.72,9.72,0,0,0,9.71-9.71v-52.87a9.71,9.71,0,0,0-9.71-9.71Zm163.9,0a9.71,9.71,0,0,0-9.71,9.71v62.52c39-1.26,71-33.24,72.23-72.23Zm679.54-4.84c-1.3-82.51-69.1-149.41-151.8-149.41h0c-82.7,0-150.5,66.9-151.81,149.41Zm-308.5,0c-1.27-80-66.07-146.15-145.83-149.28L-237,2625a2.43,2.43,0,0,1,.71,1.71,2.43,2.43,0,0,1-.71,1.71,2.41,2.41,0,0,1-1.71.71,2.39,2.39,0,0,1-1.71-.71l-74.71-74.71-74.71,74.71a2.37,2.37,0,0,1-1.71.71,2.41,2.41,0,0,1-1.71-.71,2.43,2.43,0,0,1,0-3.42l72.17-72.16c-79.76,3.13-144.57,69.24-145.84,149.28Zm-308.49,0c-1.3-82.51-69.1-149.41-151.8-149.41s-150.5,66.9-151.81,149.41h72.32c1.29-42.65,36.66-77.12,79.49-77.12s78.19,34.47,79.48,77.12Zm-77.16,0a75,75,0,0,0-74.64-72.29,75,75,0,0,0-74.65,72.29Zm-231.34,0a150.88,150.88,0,0,0-42.8-103.16L-926.26,2702.1Zm-152.8,0,106.58-106.58a150.85,150.85,0,0,0-105.58-42.83c-82.7,0-150.5,66.9-151.8,149.41Z" transform="translate(1709.12 -2547.86)"/></svg>