<svg id="Layer_1" data-name="Layer 1" xmlns="http://www.w3.org/2000/svg" viewBox="0 0 1133.86 575.4"><title>chronic</title><path d="M355.05,559.82a12.87,12.87,0,0,1-3.67-9.62,13.7,13.7,0,1,1,13.35,13.35A13.65,13.65,0,0,1,355.05,559.82Zm40.06,0a12.88,12.88,0,0,1-3.68-9.62,13.71,13.71,0,1,1,13.36,13.35A13.63,13.63,0,0,1,395.11,559.82Z" transform="translate(-137.81 -478.01)"/><path d="M470.74,564.36a13.71,13.71,0,0,1-9.68-3.74,12.87,12.87,0,0,1-3.67-9.62,13.7,13.7,0,1,1,13.35,13.36Zm0,40a13.67,13.67,0,0,1-9.68-3.74,12.83,12.83,0,0,1-3.67-9.61,13.71,13.71,0,1,1,13.35,13.35Zm40.06,0a13.67,13.67,0,0,1-9.68-3.74,12.83,12.83,0,0,1-3.67-9.61,13.7,13.7,0,1,1,13.35,13.35Z" transform="translate(-137.81 -478.01)"/><path d="M577.83,564.22a13.65,13.65,0,0,1-9.68-3.74,12.83,12.83,0,0,1-3.67-9.61,13.7,13.7,0,1,1,13.35,13.35Zm0,40.06a13.7,13.7,0,0,1-9.68-3.74,12.85,12.85,0,0,1-3.67-9.61,13.7,13.7,0,1,1,13.35,13.35Zm0,39.52a13.65,13.65,0,0,1-9.68-3.74,12.83,12.83,0,0,1-3.67-9.61q0-6,3.67-9.35a15.7,15.7,0,0,1,19.36,0q3.68,3.35,3.67,9.35a12.61,12.61,0,0,1-13.35,13.35Zm40-39.52a13.71,13.71,0,0,1-9.68-3.74,12.89,12.89,0,0,1-3.67-9.61,13.71,13.71,0,1,1,13.35,13.35Z" transform="translate(-137.81 -478.01)"/><path d="M675.36,560.22a12.91,12.91,0,0,1-3.67-9.62A13.71,13.71,0,1,1,685.05,564,13.67,13.67,0,0,1,675.36,560.22Zm0,79.84a12.87,12.87,0,0,1-3.67-9.61c0-4,1.23-7.16,3.67-9.48a15.25,15.25,0,0,1,19.37,0c2.44,2.32,3.67,5.47,3.67,9.48a12.61,12.61,0,0,1-13.35,13.35A13.68,13.68,0,0,1,675.36,640.06Zm40.06-39.79a12.83,12.83,0,0,1-3.67-9.61A13.7,13.7,0,1,1,725.1,604,13.67,13.67,0,0,1,715.42,600.27Z" transform="translate(-137.81 -478.01)"/><path d="M782.31,560.48a12.87,12.87,0,0,1-3.67-9.61A13.71,13.71,0,1,1,792,564.22,13.68,13.68,0,0,1,782.31,560.48Zm0,79.85a12.89,12.89,0,0,1-3.67-9.61q0-6,3.67-9.48a15.22,15.22,0,0,1,19.37,0q3.66,3.46,3.67,9.48A12.61,12.61,0,0,1,792,644.07,13.72,13.72,0,0,1,782.31,640.33Zm40.06-79.85a12.83,12.83,0,0,1-3.67-9.61,13.7,13.7,0,1,1,13.35,13.35A13.67,13.67,0,0,1,822.37,560.48Zm0,40.06a12.85,12.85,0,0,1-3.67-9.61,13.7,13.7,0,1,1,13.35,13.35A13.71,13.71,0,0,1,822.37,600.54Z" transform="translate(-137.81 -478.01)"/><path d="M899.48,603.61a13.65,13.65,0,0,1-9.68-3.74,12.85,12.85,0,0,1-3.67-9.61,13.7,13.7,0,1,1,13.35,13.35Zm40.06-40.06a13.63,13.63,0,0,1-9.68-3.73,12.88,12.88,0,0,1-3.68-9.62,13.71,13.71,0,1,1,13.36,13.35Z" transform="translate(-137.81 -478.01)"/><path d="M996.48,559.82a12.87,12.87,0,0,1-3.67-9.62,13.7,13.7,0,1,1,13.35,13.35A13.66,13.66,0,0,1,996.48,559.82Zm40.06,0a12.87,12.87,0,0,1-3.67-9.62,13.7,13.7,0,1,1,13.35,13.35A13.65,13.65,0,0,1,1036.54,559.82Z" transform="translate(-137.81 -478.01)"/><path d="M141.48,676.65a12.87,12.87,0,0,1-3.67-9.62,13.69,13.69,0,1,1,13.35,13.36A13.71,13.71,0,0,1,141.48,676.65Zm40.06,0a12.87,12.87,0,0,1-3.67-9.62,13.69,13.69,0,1,1,13.35,13.36A13.7,13.7,0,0,1,181.54,676.65Z" transform="translate(-137.81 -478.01)"/><path d="M247.63,677.05a12.85,12.85,0,0,1-3.67-9.61,13.7,13.7,0,1,1,13.35,13.35A13.71,13.71,0,0,1,247.63,677.05Zm0,79.85a12.87,12.87,0,0,1-3.67-9.62q0-6,3.67-9.48a15.24,15.24,0,0,1,19.36,0q3.67,3.48,3.67,9.48a12.61,12.61,0,0,1-13.35,13.35A13.66,13.66,0,0,1,247.63,756.9Zm40.06-39.79a12.87,12.87,0,0,1-3.67-9.62,13.7,13.7,0,1,1,13.35,13.35A13.65,13.65,0,0,1,287.69,717.11Z" transform="translate(-137.81 -478.01)"/><path d="M354.58,677.32a12.87,12.87,0,0,1-3.67-9.62,13.7,13.7,0,1,1,13.35,13.35A13.66,13.66,0,0,1,354.58,677.32Zm0,79.84a12.85,12.85,0,0,1-3.67-9.61c0-4,1.22-7.16,3.67-9.48a15.24,15.24,0,0,1,19.36,0c2.45,2.32,3.67,5.47,3.67,9.48a12.61,12.61,0,0,1-13.35,13.35A13.67,13.67,0,0,1,354.58,757.16Zm40.06-79.84A12.87,12.87,0,0,1,391,667.7a13.7,13.7,0,1,1,13.35,13.35A13.65,13.65,0,0,1,394.64,677.32Zm0,40a12.85,12.85,0,0,1-3.67-9.61,13.7,13.7,0,1,1,13.35,13.35A13.65,13.65,0,0,1,394.64,717.37Z" transform="translate(-137.81 -478.01)"/><path d="M469.88,680.79a13.68,13.68,0,0,1-9.68-3.74,12.85,12.85,0,0,1-3.68-9.61,13.71,13.71,0,1,1,13.36,13.35Zm40.05,0a13.71,13.71,0,0,1-9.68-3.74,12.85,12.85,0,0,1-3.67-9.61,13.7,13.7,0,1,1,13.35,13.35Zm0,40.05a13.66,13.66,0,0,1-9.68-3.73,12.87,12.87,0,0,1-3.67-9.62,13.7,13.7,0,1,1,13.35,13.35Z" transform="translate(-137.81 -478.01)"/><path d="M578.3,720.44a13.63,13.63,0,0,1-9.68-3.73,12.88,12.88,0,0,1-3.68-9.62,13.71,13.71,0,1,1,13.36,13.35Zm40.05-40.05a13.71,13.71,0,0,1-9.68-3.74A12.87,12.87,0,0,1,605,667a13.69,13.69,0,1,1,13.35,13.36Z" transform="translate(-137.81 -478.01)"/><path d="M685,721a13.7,13.7,0,0,1-9.68-3.74,12.85,12.85,0,0,1-3.67-9.61A13.7,13.7,0,1,1,685,721Zm0,39.79A13.7,13.7,0,0,1,675.3,757a12.86,12.86,0,0,1-3.67-9.62q0-6,3.67-9.47a15.2,15.2,0,0,1,19.36,0q3.68,3.46,3.67,9.47A12.61,12.61,0,0,1,685,760.77ZM725,680.92a13.68,13.68,0,0,1-9.69-3.74,12.87,12.87,0,0,1-3.67-9.61A13.71,13.71,0,1,1,725,680.92ZM725,721a13.72,13.72,0,0,1-9.69-3.74,12.89,12.89,0,0,1-3.67-9.61A13.71,13.71,0,1,1,725,721Z" transform="translate(-137.81 -478.01)"/><path d="M791.39,720.44a13.66,13.66,0,0,1-9.68-3.73,12.87,12.87,0,0,1-3.67-9.62,13.71,13.71,0,1,1,13.35,13.35Zm40.06-40.05a13.71,13.71,0,0,1-9.68-3.74A12.87,12.87,0,0,1,818.1,667a13.69,13.69,0,1,1,13.35,13.36Z" transform="translate(-137.81 -478.01)"/><path d="M888,677.05a12.85,12.85,0,0,1-3.68-9.61,13.71,13.71,0,1,1,13.36,13.35A13.68,13.68,0,0,1,888,677.05Zm0,79.85a12.88,12.88,0,0,1-3.68-9.62q0-6,3.68-9.48a15.24,15.24,0,0,1,19.36,0q3.66,3.48,3.67,9.48a12.61,12.61,0,0,1-13.35,13.35A13.63,13.63,0,0,1,888,756.9Zm40-39.79a12.87,12.87,0,0,1-3.67-9.62,13.7,13.7,0,1,1,13.35,13.35A13.66,13.66,0,0,1,928.05,717.11Z" transform="translate(-137.81 -478.01)"/><path d="M995,677.32a12.88,12.88,0,0,1-3.68-9.62,13.71,13.71,0,1,1,13.36,13.35A13.63,13.63,0,0,1,995,677.32Zm0,79.84a12.85,12.85,0,0,1-3.68-9.61c0-4,1.23-7.16,3.68-9.48a15.24,15.24,0,0,1,19.36,0c2.44,2.32,3.67,5.47,3.67,9.48a12.61,12.61,0,0,1-13.35,13.35A13.64,13.64,0,0,1,995,757.16Zm40-79.84a12.87,12.87,0,0,1-3.67-9.62,13.7,13.7,0,1,1,13.35,13.35A13.66,13.66,0,0,1,1035,677.32Zm0,40a12.85,12.85,0,0,1-3.67-9.61,13.7,13.7,0,1,1,13.35,13.35A13.67,13.67,0,0,1,1035,717.37Z" transform="translate(-137.81 -478.01)"/><path d="M1111.31,720.44a13.65,13.65,0,0,1-9.68-3.73,12.87,12.87,0,0,1-3.67-9.62,13.7,13.7,0,1,1,13.35,13.35Zm0,39.79a13.65,13.65,0,0,1-9.68-3.73,12.87,12.87,0,0,1-3.67-9.62q0-6,3.67-9.48a15.24,15.24,0,0,1,19.36,0q3.67,3.48,3.67,9.48a12.61,12.61,0,0,1-13.35,13.35Zm40.06-79.84a13.68,13.68,0,0,1-9.68-3.74A12.88,12.88,0,0,1,1138,667a13.7,13.7,0,1,1,13.36,13.36Z" transform="translate(-137.81 -478.01)"/><path d="M1208.58,717.51a12.87,12.87,0,0,1-3.67-9.62,13.69,13.69,0,1,1,13.35,13.36A13.7,13.7,0,0,1,1208.58,717.51Zm40.06,0a12.88,12.88,0,0,1-3.68-9.62,13.7,13.7,0,1,1,13.36,13.36A13.68,13.68,0,0,1,1248.64,717.51Z" transform="translate(-137.81 -478.01)"/><path d="M327.94,793.48a12.85,12.85,0,0,1-3.67-9.61,13.7,13.7,0,1,1,13.35,13.35A13.71,13.71,0,0,1,327.94,793.48Zm0,40.32a12.83,12.83,0,0,1-3.67-9.61,13.7,13.7,0,1,1,13.35,13.35A13.63,13.63,0,0,1,327.94,833.8Z" transform="translate(-137.81 -478.01)"/><path d="M434.63,793.88a12.85,12.85,0,0,1-3.68-9.61,13.71,13.71,0,1,1,13.36,13.35A13.68,13.68,0,0,1,434.63,793.88Zm0,79.85a12.88,12.88,0,0,1-3.68-9.62q0-6,3.68-9.48a15.24,15.24,0,0,1,19.36,0q3.66,3.48,3.67,9.48a12.62,12.62,0,0,1-13.35,13.36A13.68,13.68,0,0,1,434.63,873.73Zm40.05-39.79a12.87,12.87,0,0,1-3.67-9.62,13.69,13.69,0,1,1,13.35,13.36A13.71,13.71,0,0,1,474.68,833.94Z" transform="translate(-137.81 -478.01)"/><path d="M549.79,797.62a13.68,13.68,0,0,1-9.68-3.74,12.85,12.85,0,0,1-3.67-9.61,13.7,13.7,0,1,1,13.35,13.35Zm40.05,0a13.71,13.71,0,0,1-9.68-3.74,12.89,12.89,0,0,1-3.67-9.61,13.71,13.71,0,1,1,13.35,13.35Zm0,40.06a13.71,13.71,0,0,1-9.68-3.74,12.91,12.91,0,0,1-3.67-9.62,13.7,13.7,0,1,1,13.35,13.36Z" transform="translate(-137.81 -478.01)"/><path d="M657.27,797.62a13.71,13.71,0,0,1-9.68-3.74,12.85,12.85,0,0,1-3.67-9.61,13.7,13.7,0,1,1,13.35,13.35Zm0,79.71a13.8,13.8,0,0,1-9.68-3.67q-3.68-3.54-3.67-9.55t3.67-9.48a15.24,15.24,0,0,1,19.36,0q3.67,3.48,3.67,9.48a12.87,12.87,0,0,1-3.67,9.62A13.23,13.23,0,0,1,657.27,877.33Zm40.06-79.71a13.7,13.7,0,0,1-9.68-3.74,12.85,12.85,0,0,1-3.67-9.61,13.7,13.7,0,1,1,13.35,13.35Zm0,40.06a13.7,13.7,0,0,1-9.68-3.74,12.87,12.87,0,0,1-3.67-9.62,13.69,13.69,0,1,1,13.35,13.36Zm0,39.52a13.83,13.83,0,0,1-9.68-3.67Q684,870,684,864t3.67-9.48a15.24,15.24,0,0,1,19.36,0q3.68,3.48,3.67,9.48a12.83,12.83,0,0,1-3.67,9.61A13.21,13.21,0,0,1,697.33,877.2Z" transform="translate(-137.81 -478.01)"/><path d="M809.15,793.08a12.85,12.85,0,0,1-3.67-9.61,13.7,13.7,0,1,1,13.35,13.35A13.71,13.71,0,0,1,809.15,793.08Z" transform="translate(-137.81 -478.01)"/><path d="M916.5,794.15a12.86,12.86,0,0,1-3.67-9.62,13.69,13.69,0,1,1,13.35,13.36A13.71,13.71,0,0,1,916.5,794.15Zm0,79.85a12.87,12.87,0,0,1-3.67-9.62q0-6,3.67-9.48a15.24,15.24,0,0,1,19.36,0q3.67,3.48,3.68,9.48a12.62,12.62,0,0,1-13.36,13.35A13.66,13.66,0,0,1,916.5,874Zm40.06-79.85a12.86,12.86,0,0,1-3.67-9.62,13.69,13.69,0,1,1,13.35,13.36A13.71,13.71,0,0,1,956.56,794.15Zm0,40.05a12.83,12.83,0,0,1-3.67-9.61,13.7,13.7,0,1,1,13.35,13.35A13.63,13.63,0,0,1,956.56,834.2Z" transform="translate(-137.81 -478.01)"/><path d="M1031.8,797.62a13.7,13.7,0,0,1-9.68-3.74,12.85,12.85,0,0,1-3.67-9.61,13.7,13.7,0,1,1,13.35,13.35Zm40.06,0a13.68,13.68,0,0,1-9.68-3.74,12.85,12.85,0,0,1-3.68-9.61,13.71,13.71,0,1,1,13.36,13.35Zm0,40.06a13.68,13.68,0,0,1-9.68-3.74,12.88,12.88,0,0,1-3.68-9.62,13.7,13.7,0,1,1,13.36,13.36Z" transform="translate(-137.81 -478.01)"/><path d="M301,910.31a12.83,12.83,0,0,1-3.67-9.61,13.7,13.7,0,1,1,13.35,13.35A13.67,13.67,0,0,1,301,910.31Zm0,40.33A12.87,12.87,0,0,1,297.3,941a13.69,13.69,0,1,1,13.35,13.36A13.71,13.71,0,0,1,301,950.64Z" transform="translate(-137.81 -478.01)"/><path d="M417.34,914.45a13.64,13.64,0,0,1-9.68-3.74A12.84,12.84,0,0,1,404,901.1a13.71,13.71,0,1,1,13.36,13.35Zm0,79.85a13.68,13.68,0,0,1-9.68-3.74A12.85,12.85,0,0,1,404,981q0-6,3.68-9.48a15.2,15.2,0,0,1,19.36,0q3.66,3.46,3.67,9.48a12.61,12.61,0,0,1-13.35,13.35Zm40.05-.13a13.71,13.71,0,0,1-9.68-3.74,12.87,12.87,0,0,1-3.67-9.62q0-6,3.67-9.48a15.24,15.24,0,0,1,19.36,0q3.68,3.48,3.68,9.48a12.64,12.64,0,0,1-13.36,13.36Z" transform="translate(-137.81 -478.01)"/><path d="M525.22,954.11a13.71,13.71,0,0,1-9.68-3.74,12.85,12.85,0,0,1-3.67-9.61,13.7,13.7,0,1,1,13.35,13.35Zm40.06-40.06a13.65,13.65,0,0,1-9.68-3.74,12.83,12.83,0,0,1-3.67-9.61,13.7,13.7,0,1,1,13.35,13.35Z" transform="translate(-137.81 -478.01)"/><path d="M622.62,910.71A12.87,12.87,0,0,1,619,901.1a13.71,13.71,0,1,1,13.35,13.35A13.67,13.67,0,0,1,622.62,910.71Zm0,40.06a12.89,12.89,0,0,1-3.67-9.61,13.71,13.71,0,1,1,13.35,13.35A13.71,13.71,0,0,1,622.62,950.77Zm0,39.52a12.89,12.89,0,0,1-3.67-9.61q0-6,3.67-9.35a15.71,15.71,0,0,1,19.37,0q3.66,3.34,3.67,9.35A12.61,12.61,0,0,1,632.3,994,13.67,13.67,0,0,1,622.62,990.29Z" transform="translate(-137.81 -478.01)"/><path d="M737.52,914.45a13.65,13.65,0,0,1-9.68-3.74,12.83,12.83,0,0,1-3.67-9.61,13.7,13.7,0,1,1,13.35,13.35Zm40.06,0a13.64,13.64,0,0,1-9.68-3.74,12.84,12.84,0,0,1-3.68-9.61,13.71,13.71,0,1,1,13.36,13.35Zm0,40.06a13.68,13.68,0,0,1-9.68-3.74,12.85,12.85,0,0,1-3.68-9.61,13.71,13.71,0,1,1,13.36,13.35Z" transform="translate(-137.81 -478.01)"/><path d="M845.94,954.11a13.68,13.68,0,0,1-9.68-3.74,12.85,12.85,0,0,1-3.67-9.61,13.7,13.7,0,1,1,13.35,13.35Zm40-40.06a13.67,13.67,0,0,1-9.68-3.74,12.83,12.83,0,0,1-3.67-9.61A13.71,13.71,0,1,1,886,914.05Z" transform="translate(-137.81 -478.01)"/><path d="M942.94,911a12.85,12.85,0,0,1-3.67-9.61,13.7,13.7,0,1,1,13.35,13.35A13.7,13.7,0,0,1,942.94,911Zm0,79.85a12.87,12.87,0,0,1-3.67-9.62q0-6,3.67-9.48a15.24,15.24,0,0,1,19.36,0q3.68,3.48,3.67,9.48a12.62,12.62,0,0,1-13.35,13.36A13.7,13.7,0,0,1,942.94,990.83ZM983,911a12.85,12.85,0,0,1-3.67-9.61,13.7,13.7,0,1,1,13.35,13.35A13.68,13.68,0,0,1,983,911ZM983,951a12.87,12.87,0,0,1-3.67-9.62,13.69,13.69,0,1,1,13.35,13.36A13.68,13.68,0,0,1,983,951Z" transform="translate(-137.81 -478.01)"/><path d="M1059.7,915a13.71,13.71,0,0,1-9.68-3.74,12.87,12.87,0,0,1-3.67-9.62A13.69,13.69,0,1,1,1059.7,915Zm0,40a13.63,13.63,0,0,1-9.68-3.74,12.83,12.83,0,0,1-3.67-9.61A13.7,13.7,0,1,1,1059.7,955Zm40.06-40a13.7,13.7,0,0,1-9.68-3.74,12.87,12.87,0,0,1-3.67-9.62A13.69,13.69,0,1,1,1099.76,915Zm0,40a13.61,13.61,0,0,1-9.68-3.74,12.83,12.83,0,0,1-3.67-9.61A13.7,13.7,0,1,1,1099.76,955Z" transform="translate(-137.81 -478.01)"/><path d="M336.09,541.89c0-36.21,22.55-63.88,58.58-63.88,30.06,0,47.83,17.93,50.39,41.16h-24.6c-2.22-12.3-11.44-20.32-25.79-20.32-22.54,0-33.3,18.78-33.3,43,0,24.93,13,42.87,33.47,42.87,14.52,0,24.77-8.72,26.31-21.52H445.4a43.26,43.26,0,0,1-13.49,28.86c-8.37,7.86-20.16,13-37.07,13C360.51,605.08,336.09,578.61,336.09,541.89Z" transform="translate(-137.81 -478.01)"/><path d="M458.2,480.4H483v47.82h48V480.4h24.77V602.52H531v-53.8H483v53.8H458.2Z" transform="translate(-137.81 -478.01)"/><path d="M574.51,480.4h56c23.57,0,39.29,13.66,39.29,34,0,14.34-6.66,25.27-22.38,29.54v.52c11.28,3.24,17.08,9.73,18.62,24.59,1.71,17.25,1,30.4,5.3,32.28v1.2H647.61c-3.07-1.37-3.41-15-4.44-28.18-1-13.33-8.54-20.84-23.91-20.84h-20v49H574.51Zm24.77,54h26.3c13.49,0,20.16-7,20.16-16.74,0-9.9-6.32-17.25-19.47-17.25h-27Z" transform="translate(-137.81 -478.01)"/><path d="M680.4,541.71c0-36.55,22.89-63.7,58.93-63.7s58.75,27.15,58.75,63.7-22.72,63.54-58.75,63.54S680.4,578.26,680.4,541.71Zm92.4,0c0-24.42-10.93-43.38-33.3-43.38s-33.82,19-33.82,43.38c0,24.26,11.44,43.22,33.82,43.22S772.8,566,772.8,541.71Z" transform="translate(-137.81 -478.01)"/><path d="M811.57,480.4h25.11l40.65,68.15c3.92,6.66,8.54,17.08,8.54,17.08h.34s-.69-12.64-.69-21.18V480.4H910V602.52H886l-41.68-67.47c-3.93-6.49-8.71-16.91-8.71-16.91h-.34S836,531,836,539.49v63H811.57Z" transform="translate(-137.81 -478.01)"/><path d="M928.9,480.4h24.77V602.52H928.9Z" transform="translate(-137.81 -478.01)"/><path d="M967.33,541.89c0-36.21,22.54-63.88,58.58-63.88,30.06,0,47.82,17.93,50.39,41.16h-24.6c-2.22-12.3-11.44-20.32-25.79-20.32-22.54,0-33.3,18.78-33.3,43,0,24.93,13,42.87,33.47,42.87,14.52,0,24.77-8.72,26.31-21.52h24.25a43.27,43.27,0,0,1-13.5,28.86c-8.36,7.86-20.15,13-37.06,13C991.75,605.08,967.33,578.61,967.33,541.89Z" transform="translate(-137.81 -478.01)"/><path d="M181.27,691.33c0-36.21,22.54-63.88,58.58-63.88,30.06,0,47.82,17.93,50.39,41.16h-24.6c-2.22-12.3-11.44-20.32-25.79-20.32-22.54,0-33.3,18.78-33.3,43,0,24.93,13,42.87,33.47,42.87,14.52,0,24.77-8.71,26.3-21.52h24.26a43.25,43.25,0,0,1-13.5,28.86c-8.36,7.86-20.15,13-37.06,13C205.69,754.52,181.27,728.05,181.27,691.33Z" transform="translate(-137.81 -478.01)"/><path d="M298.09,691.16c0-36.55,22.89-63.71,58.92-63.71s58.76,27.16,58.76,63.71S393.05,754.69,357,754.69,298.09,727.71,298.09,691.16Zm92.4,0c0-24.43-10.93-43.38-33.31-43.38s-33.81,19-33.81,43.38c0,24.25,11.44,43.21,33.81,43.21S390.49,715.41,390.49,691.16Z" transform="translate(-137.81 -478.01)"/><path d="M429.26,629.84h25.1L495,698c3.93,6.66,8.54,17.08,8.54,17.08h.34s-.68-12.64-.68-21.18v-64h24.42V752H503.72L462.05,684.5c-3.93-6.49-8.71-16.91-8.71-16.91H453s.68,12.81.68,21.35v63H429.26Z" transform="translate(-137.81 -478.01)"/><path d="M546.42,629.84h47.65c32.62,0,53.63,26.3,53.63,62.34,0,19.82-6.66,37.24-19.47,48C619.18,747.69,607.39,752,592,752h-45.6Zm43.89,100.77c23.23,0,32.28-14.17,32.28-38.43S612,651,591,651H571.18v79.59Z" transform="translate(-137.81 -478.01)"/><path d="M661.36,629.84h24.77V752H661.36Z" transform="translate(-137.81 -478.01)"/><path d="M698.76,629.84H797v20.84H760.25V752H735.48V650.68H698.76Z" transform="translate(-137.81 -478.01)"/><path d="M809.6,629.84h24.77V752H809.6Z" transform="translate(-137.81 -478.01)"/><path d="M848,691.16c0-36.55,22.89-63.71,58.93-63.71s58.75,27.16,58.75,63.71S943,754.69,907,754.69,848,727.71,848,691.16Zm92.4,0c0-24.43-10.93-43.38-33.3-43.38s-33.82,19-33.82,43.38c0,24.25,11.44,43.21,33.82,43.21S940.43,715.41,940.43,691.16Z" transform="translate(-137.81 -478.01)"/><path d="M979.2,629.84h25.11L1045,698c3.92,6.66,8.53,17.08,8.53,17.08h.35s-.69-12.64-.69-21.18v-64h24.43V752h-23.91L1012,684.5c-3.93-6.49-8.71-16.91-8.71-16.91h-.34s.68,12.81.68,21.35v63H979.2Z" transform="translate(-137.81 -478.01)"/><path d="M1090.89,714.22h24.26c1.71,14.68,10.07,20.49,27.5,20.49,12.63,0,23.74-4.44,23.74-15.71,0-12-11.62-14.35-30.23-18.62-21.87-5-41.85-10.76-41.85-36.21,0-24.08,19.64-36.55,46.8-36.55,27.5,0,45.26,13.49,47.14,38.09h-23.74c-1.37-12.3-10.93-18.45-23.57-18.45-13.32,0-22,5.64-22,14.35,0,9.91,8.53,12.81,26.64,16.74,25.11,5.46,45.6,11.44,45.6,37.74,0,24.77-20,38.6-47.48,38.6C1110.54,754.69,1091.75,740,1090.89,714.22Z" transform="translate(-137.81 -478.01)"/><path d="M1203.28,675.79h24.93v24.76h-24.93Zm0,51.41h24.93V752h-24.93Z" transform="translate(-137.81 -478.01)"/><path d="M303.47,779.28h54.65c13.15,0,23.23,3.25,29.55,8.89,6.66,6,9.74,13.32,9.74,22.88,0,12.47-7.69,20.5-19.13,24.43V836c13.49,3.93,22.71,15.2,22.71,30.23,0,11.44-3.58,19.3-10.76,25.45-7,6.15-17.76,9.73-30.74,9.73h-56Zm51.58,49.19c10.76,0,18.1-5.12,18.1-14.68,0-9.06-6.66-14.35-17.59-14.35H328.23v29Zm-26.82,52.44h28.53c11.95,0,19.12-6.66,19.12-16.57,0-11.61-8.53-17.59-19.81-17.59H328.23Z" transform="translate(-137.81 -478.01)"/><path d="M411.06,840.6c0-36.55,22.89-63.71,58.93-63.71s58.75,27.16,58.75,63.71S506,904.14,470,904.14,411.06,877.15,411.06,840.6Zm92.4,0c0-24.42-10.93-43.38-33.3-43.38s-33.82,19-33.82,43.38c0,24.25,11.44,43.21,33.82,43.21S503.46,864.85,503.46,840.6Z" transform="translate(-137.81 -478.01)"/><path d="M542.23,779.28h47.65c32.62,0,53.63,26.31,53.63,62.35,0,19.81-6.66,37.23-19.47,48-9,7.51-20.84,11.78-36.21,11.78h-45.6Zm43.9,100.77c23.22,0,32.28-14.17,32.28-38.42s-10.59-41.17-31.6-41.17H567v79.59Z" transform="translate(-137.81 -478.01)"/><path d="M678.69,854.26l-40.64-75h27l18.45,36.21c3.75,7.35,8,17.42,8,17.42h.35s4.61-10.07,8.19-17.42l18.11-36.21h26l-40.65,75V901.4H678.69Z" transform="translate(-137.81 -478.01)"/><path d="M816.52,779.28h25.62l43,122.12H859.39l-8.2-26H807.13l-8,26H774Zm-3.58,77.2h32.28L834.29,821.3c-2-6.49-5-18.79-5-18.79H829s-3.07,12.3-5.12,18.79Z" transform="translate(-137.81 -478.01)"/><path d="M895.43,779.28h25.1l40.65,68.15c3.93,6.66,8.54,17.08,8.54,17.08h.34s-.68-12.64-.68-21.18V779.28h24.43V901.4H969.89l-41.67-67.46c-3.93-6.49-8.71-16.91-8.71-16.91h-.34s.68,12.81.68,21.35v63H895.43Z" transform="translate(-137.81 -478.01)"/><path d="M1012.59,779.28h47.65c32.62,0,53.63,26.31,53.63,62.35,0,19.81-6.66,37.23-19.47,48-9.05,7.51-20.84,11.78-36.21,11.78h-45.6Zm43.89,100.77c23.23,0,32.28-14.17,32.28-38.42s-10.59-41.17-31.59-41.17h-19.82v79.59Z" transform="translate(-137.81 -478.01)"/><path d="M333,928.73h54.65c13.15,0,23.23,3.24,29.55,8.88,6.66,6,9.73,13.32,9.73,22.89,0,12.46-7.68,20.49-19.12,24.42v.51c13.49,3.93,22.71,15.2,22.71,30.23,0,11.45-3.59,19.3-10.76,25.45-7,6.15-17.76,9.74-30.74,9.74H333Zm51.58,49.19c10.76,0,18.1-5.13,18.1-14.69,0-9.05-6.66-14.35-17.59-14.35H357.78v29Zm-26.82,52.43H386.3c12,0,19.13-6.66,19.13-16.57,0-11.61-8.54-17.59-19.81-17.59H357.78Z" transform="translate(-137.81 -478.01)"/><path d="M444,1011.56V928.73h24.76v82.83c0,12.64,6.32,21.52,22.89,21.52,15.72,0,23.06-9.22,23.06-21.86V928.73H539.5v82.83c0,26.14-16,41.34-47.31,41.34C460.6,1052.9,444,1038,444,1011.56Z" transform="translate(-137.81 -478.01)"/><path d="M557.44,928.73H582.2v122.12H557.44Z" transform="translate(-137.81 -478.01)"/><path d="M601.16,928.73h24.76v101.45h57.39v20.67H601.16Z" transform="translate(-137.81 -478.01)"/><path d="M696.63,928.73h47.65c32.62,0,53.63,26.3,53.63,62.34,0,19.81-6.66,37.23-19.47,48-9.05,7.52-20.84,11.79-36.21,11.79h-45.6Zm43.89,100.77c23.23,0,32.28-14.18,32.28-38.43s-10.59-41.16-31.6-41.16H721.39v79.59Z" transform="translate(-137.81 -478.01)"/><path d="M811.57,928.73h24.76v122.12H811.57Z" transform="translate(-137.81 -478.01)"/><path d="M855.29,928.73H880.4l40.65,68.14c3.92,6.67,8.54,17.08,8.54,17.08h.34s-.69-12.63-.69-21.17v-64h24.43v122.12H929.76l-41.68-67.47c-3.93-6.49-8.71-16.91-8.71-16.91H879s.68,12.81.68,21.35v63H855.29Z" transform="translate(-137.81 -478.01)"/><path d="M1061.09,1034.45h-.34c-8.37,14-19.81,19-34.33,19-18.44,0-32.79-6.66-42.87-17.76-10.07-11.28-15.88-27-15.88-45.44,0-20.32,7.17-38.08,20-49.87,9.91-9.05,22.89-14,39.29-14,30.74,0,48.33,16.91,52.26,40.82H1055c-2.74-11.79-11.79-20.33-27.5-20.33-23.06,0-34.5,19.13-34.5,43.38,0,24.94,13.15,43.22,34.16,43.22,19,0,31.42-14.18,31.42-27.67v-.69h-29.37V985.94h51.41v64.91H1062Z" transform="translate(-137.81 -478.01)"/></svg>