<svg id="Layer_1" data-name="Layer 1" xmlns="http://www.w3.org/2000/svg" viewBox="0 0 2592.67 489.01"><title>logo</title><path d="M-604.52,417.6h224.6A11.5,11.5,0,0,0-369.3,409l19.82-86.39c1.09-4.77-1.89-8.63-6.66-8.63h-17.28A11.48,11.48,0,0,0-384,322.58l-5.13,22.34a11.35,11.35,0,0,1-3.93,6.11l-36.26,29.49a10.81,10.81,0,0,1-6.69,2.53H-498a6.82,6.82,0,0,1-5.53-2.53L-526.24,351a7.22,7.22,0,0,1-1.13-6.11l22.14-96.5a11.35,11.35,0,0,1,3.93-6.11L-465,212.82a11.24,11.24,0,0,0,3.93-6.11l5.13-22.34c1.1-4.77-1.88-8.63-6.65-8.63H-549a11.5,11.5,0,0,0-10.62,8.63l-21,91.45a7.23,7.23,0,0,0,1.13,6.1l22.73,29.5a7.22,7.22,0,0,1,1.12,6.1l-6.28,27.4a11.35,11.35,0,0,1-3.93,6.11l-36.26,29.49a11.32,11.32,0,0,0-3.94,6.11L-611.17,409C-612.27,413.74-609.29,417.6-604.52,417.6Z" transform="translate(999.17 -175.74)"/><path d="M-357.38,417.6H-271A11.5,11.5,0,0,0-260.37,409l4-17.28c1.1-4.77-1.88-8.64-6.65-8.64h-17.28c-4.77,0-7.75-3.87-6.66-8.63l13.06-56.9a11.22,11.22,0,0,1,3.93-6.1l121.22-98.6a11.35,11.35,0,0,0,3.93-6.11l5.13-22.34c1.09-4.77-1.89-8.63-6.66-8.63H-267.33a11.48,11.48,0,0,0-10.61,8.63l-4,17.28c-1.09,4.77,1.88,8.64,6.65,8.64H-258c4.76,0,7.74,3.86,6.65,8.63l-4,17.29a11.49,11.49,0,0,1-10.61,8.63h-22.34a10.81,10.81,0,0,0-6.69,2.53l-36.26,29.49a11.3,11.3,0,0,0-3.93,6.11L-364,409C-365.13,413.74-362.15,417.6-357.38,417.6Z" transform="translate(999.17 -175.74)"/><path d="M-234.12,317.52l-21,91.45c-1.1,4.77,1.88,8.63,6.65,8.63h126a10.83,10.83,0,0,0,6.69-2.53L47.94,281.92a11.33,11.33,0,0,0,3.93-6.1l13.05-56.9a11.5,11.5,0,0,1,10.62-8.63H92.82a11.51,11.51,0,0,0,10.62-8.64l4-17.28c1.1-4.77-1.88-8.63-6.65-8.63H48.92a11.49,11.49,0,0,0-10.62,8.63l-13,56.89a11.32,11.32,0,0,1-3.94,6.11l-163.7,133.15a10.81,10.81,0,0,1-6.69,2.53h-22.34c-4.76,0-7.74-3.87-6.65-8.63l5.13-22.34A11.3,11.3,0,0,1-169,346L-5.31,212.82a11.3,11.3,0,0,0,3.93-6.11l5.13-22.34c1.09-4.77-1.89-8.63-6.66-8.63H-89.29a11.49,11.49,0,0,0-10.62,8.63L-105,206.71a11.3,11.3,0,0,1-3.93,6.11l-121.22,98.6A11.33,11.33,0,0,0-234.12,317.52Z" transform="translate(999.17 -175.74)"/><path d="M115.36,210.29h17.29c4.77,0,7.74,3.86,6.65,8.63l-4,17.29a11.51,11.51,0,0,1-10.62,8.63H102.38a10.81,10.81,0,0,0-6.69,2.53L59.43,276.86A11.3,11.3,0,0,0,55.5,283L41.28,344.92A11.24,11.24,0,0,1,37.35,351L1.09,380.52a11.35,11.35,0,0,0-3.93,6.11L-8,409c-1.1,4.77,1.88,8.63,6.65,8.63H119.63A11.5,11.5,0,0,0,130.25,409l4-17.28c1.1-4.77-1.88-8.64-6.65-8.64H110.28c-4.77,0-7.75-3.87-6.66-8.63l13.06-56.9a11.27,11.27,0,0,1,3.93-6.1l121.22-98.6a11.35,11.35,0,0,0,3.93-6.11l5.13-22.34c1.09-4.77-1.89-8.63-6.66-8.63H123.29a11.48,11.48,0,0,0-10.61,8.63l-4,17.28C107.62,206.42,110.6,210.29,115.36,210.29Z" transform="translate(999.17 -175.74)"/><path d="M258.85,210.29h5.06c7.7,0,9.42,9.3,2.73,14.74l-21.25,17.28a11.35,11.35,0,0,0-3.93,6.11l-22.14,96.5a11.35,11.35,0,0,1-3.93,6.11l-36.26,29.49a10.81,10.81,0,0,1-6.69,2.53H150.1a11.51,11.51,0,0,0-10.62,8.64l-4,17.28c-1.1,4.77,1.88,8.63,6.65,8.63h86.39A11.5,11.5,0,0,0,239.18,409l5.12-22.34a11.35,11.35,0,0,1,3.93-6.11L284.49,351a11.3,11.3,0,0,0,3.93-6.11L295.06,316a8,8,0,0,0,0-3.86l-16.7-61.71c-.9-3.33.67-7.34,3.91-10l26.65-21.68c5.12-4.17,11.89-3,13.32,2.24l33,121.93c.9,3.33-.67,7.34-3.9,10l-34,27.62a11.3,11.3,0,0,0-3.93,6.11L308.28,409c-1.09,4.77,1.89,8.63,6.65,8.63h56.9a10.79,10.79,0,0,0,6.68-2.53l36.26-29.49a11.32,11.32,0,0,0,3.94-6.11l30.07-131.05a11.3,11.3,0,0,1,3.93-6.11L489,212.82a11.35,11.35,0,0,0,3.93-6.11L498,184.37c1.09-4.77-1.89-8.63-6.66-8.63H439.54a11.49,11.49,0,0,0-10.62,8.63l-21.34,93c-2.09,9.12-15,12-17.24,3.87L363.09,180.51a6.52,6.52,0,0,0-6.63-4.77H266.77a11.49,11.49,0,0,0-10.61,8.63l-4,17.28C251.1,206.42,254.08,210.29,258.85,210.29Z" transform="translate(999.17 -175.74)"/><path d="M488.6,248.42l-28.91,126a11.5,11.5,0,0,1-10.62,8.63H431.79a11.51,11.51,0,0,0-10.62,8.64l-4,17.28c-1.09,4.77,1.88,8.63,6.65,8.63H653.52a10.83,10.83,0,0,0,6.69-2.53l36.26-29.49a11.35,11.35,0,0,0,3.93-6.11l14.21-62a7.19,7.19,0,0,0-1.13-6.1l-22.72-29.5a6.82,6.82,0,0,0-5.53-2.53H593.79A11.5,11.5,0,0,0,583.17,288l-4,17.28c-1.09,4.77,1.89,8.64,6.66,8.64H608.2a6.79,6.79,0,0,1,5.52,2.53l20,25.91c2.6,3.37,1.35,8.84-2.8,12.21L599,380.52a10.81,10.81,0,0,1-6.69,2.53h-62a6.82,6.82,0,0,1-5.53-2.53L502.14,351a7.22,7.22,0,0,1-1.13-6.11l21-91.44a11.51,11.51,0,0,1,10.62-8.64H555a10.81,10.81,0,0,0,6.69-2.53l36.26-29.49a10.79,10.79,0,0,1,6.68-2.53h22.34c4.77,0,7.75,3.86,6.66,8.63l-4,17.29c-1.09,4.76,1.89,8.63,6.66,8.63H688.1a11.51,11.51,0,0,0,10.62-8.63l5.12-22.34a7.25,7.25,0,0,0-1.12-6.11L680,178.27a6.82,6.82,0,0,0-5.53-2.53h-126a11.49,11.49,0,0,0-10.62,8.63l-5.13,22.34a11.3,11.3,0,0,1-3.93,6.11l-36.26,29.49A11.35,11.35,0,0,0,488.6,248.42Z" transform="translate(999.17 -175.74)"/><path d="M983.18,383.05H965.89a11.5,11.5,0,0,0-10.61,8.64l-4,17.28c-1.09,4.77,1.89,8.63,6.66,8.63h86.38A11.49,11.49,0,0,0,1055,409l5.13-22.34a7.25,7.25,0,0,0-1.13-6.11L1036.23,351a7.25,7.25,0,0,1-1.12-6.11l22.15-96.5a11.3,11.3,0,0,1,3.93-6.11l29-23.55c5.13-4.17,11.89-3,13.32,2.24l33,121.93c.9,3.33-.67,7.34-3.9,10l-34,27.62a11.3,11.3,0,0,0-3.93,6.11L1089.52,409c-1.09,4.77,1.89,8.63,6.66,8.63h56.89a10.83,10.83,0,0,0,6.69-2.53L1196,385.58a11.35,11.35,0,0,0,3.93-6.11L1230,248.42a11.3,11.3,0,0,1,3.93-6.11l36.26-29.49a11.3,11.3,0,0,0,3.93-6.11l5.13-22.34c1.09-4.77-1.89-8.63-6.66-8.63h-51.83a11.5,11.5,0,0,0-10.62,8.63l-21.34,93c-2.09,9.12-15,12-17.24,3.87l-27.25-100.72a6.52,6.52,0,0,0-6.63-4.77H1048a11.49,11.49,0,0,0-10.62,8.63l-4,17.28c-1.09,4.77,1.89,8.64,6.66,8.64h5.07c7.69,0,9.41,9.3,2.72,14.74l-21.25,17.28a11.35,11.35,0,0,0-3.93,6.11l-28.91,126A11.49,11.49,0,0,1,983.18,383.05Z" transform="translate(999.17 -175.74)"/><path d="M769.35,415.07a6.8,6.8,0,0,0,5.52,2.53h126A11.5,11.5,0,0,0,911.49,409l4-17.28a11.51,11.51,0,0,1,10.62-8.64h22.34a10.81,10.81,0,0,0,6.69-2.53L991.36,351a11.35,11.35,0,0,0,3.93-6.11l22.14-96.5a7.22,7.22,0,0,0-1.13-6.11l-49.35-64a6.79,6.79,0,0,0-5.52-2.53H864.92a10.79,10.79,0,0,0-6.68,2.53l-78.74,64a11.32,11.32,0,0,0-3.94,6.11L745.49,379.47a7.25,7.25,0,0,0,1.13,6.11Zm26.55-104.7,6.29-27.4a11.3,11.3,0,0,1,3.93-6.11l78.74-64a10.81,10.81,0,0,1,6.69-2.53h62a6.82,6.82,0,0,1,5.53,2.53l22.72,29.49a7.22,7.22,0,0,1,1.13,6.11l-14.22,62a11.18,11.18,0,0,1-3.93,6.1L928.47,346a10.79,10.79,0,0,1-6.68,2.53H899.45a11.49,11.49,0,0,0-10.62,8.63l-4,17.29a11.49,11.49,0,0,1-10.61,8.63H851.91a6.82,6.82,0,0,1-5.53-2.53l-49.35-64A7.22,7.22,0,0,1,795.9,310.37Z" transform="translate(999.17 -175.74)"/><path d="M-834,630.19h-17.28c-4.77,0-7.75-3.87-6.66-8.64l28.91-126a11.35,11.35,0,0,1,3.93-6.11L-788.79,460a10.79,10.79,0,0,1,6.68-2.53h22.34c4.77,0,7.75,3.86,6.66,8.63l-4,17.28c-1.09,4.77,1.89,8.64,6.66,8.64h17.28a11.49,11.49,0,0,0,10.61-8.64l11.9-51.83c1.09-4.77-1.89-8.63-6.66-8.63H-976.44A11.49,11.49,0,0,0-987,431.51l-11.9,51.83c-1.09,4.77,1.89,8.64,6.66,8.64h22.34a10.79,10.79,0,0,0,6.68-2.53L-927,460a10.79,10.79,0,0,1,6.68-2.53h56.89c4.77,0,7.75,3.86,6.66,8.63l-5.13,22.34a11.3,11.3,0,0,1-3.93,6.11L-902.09,524a11.35,11.35,0,0,0-3.93,6.11l-14.21,61.95a11.35,11.35,0,0,1-3.93,6.11l-36.27,29.49a11.35,11.35,0,0,0-3.93,6.11l-5.12,22.34c-1.1,4.77,1.88,8.63,6.65,8.63h120.94a11.5,11.5,0,0,0,10.62-8.63l4-17.28C-826.21,634.06-829.19,630.19-834,630.19Z" transform="translate(999.17 -175.74)"/><path d="M-517.72,630.19H-535c-4.77,0-7.75-3.87-6.65-8.64l5.12-22.34a7.22,7.22,0,0,0-1.12-6.1l-22.73-29.5a7.23,7.23,0,0,1-1.13-6.1l21-91.45a11.5,11.5,0,0,1,10.62-8.63h17.28A11.51,11.51,0,0,0-502,448.79l4-17.28c1.1-4.77-1.88-8.63-6.65-8.63H-527a10.86,10.86,0,0,0-6.69,2.52L-570,454.9a11.33,11.33,0,0,0-3.93,6.1L-579,483.34A11.51,11.51,0,0,1-589.66,492H-676c-4.77,0-7.75-3.87-6.65-8.64l4-17.28a11.5,11.5,0,0,1,10.62-8.63h17.28a11.51,11.51,0,0,0,10.62-8.64l4-17.28c1.1-4.77-1.88-8.63-6.65-8.63h-51.83a11.49,11.49,0,0,0-10.62,8.63l-13.06,56.89a11.24,11.24,0,0,1-3.93,6.11L-758.61,524a11.35,11.35,0,0,0-3.93,6.11l-14.21,61.95a11.35,11.35,0,0,1-3.93,6.11l-36.26,29.49a11.24,11.24,0,0,0-3.93,6.11L-826,656.11c-1.1,4.77,1.88,8.63,6.65,8.63h120.94a11.5,11.5,0,0,0,10.62-8.63l4-17.28c1.1-4.77-1.88-8.64-6.65-8.64h-17.28c-4.77,0-7.75-3.87-6.66-8.64l13.06-56.89a11.27,11.27,0,0,1,3.93-6.1l36.26-29.5a10.81,10.81,0,0,1,6.69-2.53h56.89c4.77,0,7.75,3.87,6.65,8.64l-13,56.89a7.22,7.22,0,0,0,1.13,6.11l22.72,29.49a7.22,7.22,0,0,1,1.13,6.11l-5.12,22.34c-1.1,4.77,1.88,8.63,6.65,8.63h51.83A11.49,11.49,0,0,0-515,656.11l4-17.28C-510,634.06-512.95,630.19-517.72,630.19Z" transform="translate(999.17 -175.74)"/><path d="M-257.56,422.88h-224.6a11.48,11.48,0,0,0-10.61,8.63l-5.13,22.34a11.35,11.35,0,0,1-3.93,6.11l-36.26,29.49a11.3,11.3,0,0,0-3.93,6.11l-14.22,61.95a7.23,7.23,0,0,0,1.13,6.1l49.35,64a7.25,7.25,0,0,1,1.13,6.11l-5.13,22.34c-1.09,4.77,1.89,8.63,6.66,8.63h160.55a10.79,10.79,0,0,0,6.68-2.53l36.27-29.49a11.35,11.35,0,0,0,3.93-6.11l5.12-22.34c1.1-4.77-1.88-8.63-6.65-8.63h-17.28a11.49,11.49,0,0,0-10.62,8.63l-4,17.28a11.49,11.49,0,0,1-10.61,8.64h-91.45a6.79,6.79,0,0,1-5.52-2.53l-39.94-51.83c-4.2-5.44,1.79-14.74,9.48-14.74h74.18a11.51,11.51,0,0,0,10.62-8.64l4-17.28c1.09-4.77-1.88-8.64-6.65-8.64h-86.39c-4.77,0-7.75-3.86-6.65-8.63l4-17.28A11.51,11.51,0,0,1-463.46,492h120.94c4.77,0,7.75,3.87,6.65,8.64l-4,17.28c-1.1,4.77,1.88,8.63,6.65,8.63h17.28a11.5,11.5,0,0,0,10.62-8.63l5.12-22.34a11.32,11.32,0,0,1,3.94-6.11L-260,460a11.35,11.35,0,0,0,3.93-6.11l5.12-22.34C-249.81,426.74-252.79,422.88-257.56,422.88Z" transform="translate(999.17 -175.74)"/><path d="M31,604.27c1.09-4.77-1.89-8.63-6.66-8.63H2a10.79,10.79,0,0,0-6.68,2.53L-41,627.66a10.83,10.83,0,0,1-6.69,2.53h-96.5a6.82,6.82,0,0,1-5.53-2.53l-39.94-51.83c-4.19-5.44,1.79-14.74,9.49-14.74H-106c4.77,0,7.75,3.86,6.66,8.63l-4,17.28c-1.09,4.77,1.89,8.64,6.65,8.64h17.29A11.49,11.49,0,0,0-68.73,587l11.89-51.81c1.1-4.78-1.89-8.65-6.67-8.64l-121,.25c-4.78,0-7.77-3.86-6.67-8.64l4-17.33a11.5,11.5,0,0,1,10.54-8.64l22.5-.18a10.84,10.84,0,0,0,6.61-2.53l36.3-29.52a10.81,10.81,0,0,1,6.69-2.53h62A6.79,6.79,0,0,1-37,460l22.73,29.49a7.25,7.25,0,0,1,1.13,6.11l-5.13,22.34c-1.09,4.77,1.89,8.63,6.66,8.63H5.62a11.48,11.48,0,0,0,10.61-8.63L29.29,461a7.23,7.23,0,0,0-1.13-6.1L5.43,425.4a6.81,6.81,0,0,0-5.52-2.52H-165.7a10.86,10.86,0,0,0-6.69,2.52l-36.26,29.5a11.33,11.33,0,0,0-3.93,6.1l-38,165.61a7.25,7.25,0,0,0,1.13,6.11l22.73,29.49a6.79,6.79,0,0,0,5.52,2.53H-21a10.81,10.81,0,0,0,6.69-2.53l36.26-29.49a11.3,11.3,0,0,0,3.93-6.11Z" transform="translate(999.17 -175.74)"/><path d="M994,425.4a6.83,6.83,0,0,0-5.53-2.52H822.86a10.86,10.86,0,0,0-6.69,2.52l-36.26,29.5A11.27,11.27,0,0,0,776,461L738,626.61a7.22,7.22,0,0,0,1.13,6.11l22.72,29.49a6.82,6.82,0,0,0,5.53,2.53H933a10.79,10.79,0,0,0,6.68-2.53l36.27-29.49a11.35,11.35,0,0,0,3.93-6.11L985,604.27c1.1-4.77-1.88-8.63-6.65-8.63h-23a10.81,10.81,0,0,0-6.69,2.53L912.4,627.66a10.81,10.81,0,0,1-6.69,2.53H844.39a6.79,6.79,0,0,1-5.52-2.53l-22.73-29.49a6.82,6.82,0,0,0-5.53-2.53H788.27c-4.77,0-7.74-3.87-6.65-8.64l4-17.28a11.48,11.48,0,0,1,10.61-8.63H917.14a11.51,11.51,0,0,0,10.62-8.64l4-17.26c1.09-4.78-1.89-8.65-6.67-8.64l-121,.25c-4.78,0-7.77-3.86-6.67-8.64l4-17.33a11.52,11.52,0,0,1,10.55-8.64l22.49-.18a10.86,10.86,0,0,0,6.62-2.53L877.35,460a10.79,10.79,0,0,1,6.68-2.53h62a6.82,6.82,0,0,1,5.53,2.53l22.73,29.49a7.25,7.25,0,0,1,1.12,6.11l-5.12,22.34c-1.1,4.77,1.88,8.63,6.65,8.63h17.28a11.49,11.49,0,0,0,10.62-8.63l13.06-56.9a7.23,7.23,0,0,0-1.13-6.1Z" transform="translate(999.17 -175.74)"/><path d="M518.59,595.64H463.42a10.79,10.79,0,0,0-6.68,2.53l-36.26,29.49a10.83,10.83,0,0,1-6.69,2.53H350.11a6.8,6.8,0,0,1-5.52-2.53l-22.73-29.49a7.25,7.25,0,0,1-1.13-6.11l5.13-22.34a11.49,11.49,0,0,1,10.62-8.63H457.42A11.5,11.5,0,0,0,468,552.45l11.9-51.83C481,495.85,478,492,473.27,492H456a11.51,11.51,0,0,0-10.62,8.64l-4,17.37a11.5,11.5,0,0,1-10.6,8.63l-91.27.19a6.76,6.76,0,0,1-5.74-2.81L316,498.07c-2.33-3.4-1-8.66,3-11.93L351.22,460a10.81,10.81,0,0,1,6.69-2.53H486.26a6.79,6.79,0,0,1,5.52,2.53l22.73,29.49a7.25,7.25,0,0,1,1.13,6.11l-5.13,22.34c-1.09,4.77,1.89,8.63,6.66,8.63h17.28a11.5,11.5,0,0,0,10.62-8.63l13-56.9a7.19,7.19,0,0,0-1.13-6.1l-22.72-29.5a6.84,6.84,0,0,0-5.53-2.52H328.58a10.86,10.86,0,0,0-6.69,2.52l-36.26,29.5a11.33,11.33,0,0,0-3.93,6.1l-6.29,27.4a7.25,7.25,0,0,0,1.13,6.11L299.27,524a7.25,7.25,0,0,1,1.13,6.11l-22.15,96.5a7.25,7.25,0,0,0,1.13,6.11l22.73,29.49a6.8,6.8,0,0,0,5.52,2.53H473.24a10.81,10.81,0,0,0,6.69-2.53l36.26-29.49a11.35,11.35,0,0,0,3.93-6.11l5.13-22.34C526.34,599.5,523.36,595.64,518.59,595.64Z" transform="translate(999.17 -175.74)"/><path d="M294,524l-22.73-29.49a7.25,7.25,0,0,1-1.13-6.11l6.29-27.4a7.23,7.23,0,0,0-1.13-6.1l-22.73-29.5a6.81,6.81,0,0,0-5.52-2.52H52a11.49,11.49,0,0,0-10.62,8.63l-11.9,51.83c-1.09,4.77,1.89,8.64,6.66,8.64H53.37A11.51,11.51,0,0,0,64,483.34l4-17.28a11.5,11.5,0,0,1,10.62-8.63H95.85c4.77,0,7.75,3.86,6.66,8.63l-21,91.45a11.27,11.27,0,0,1-3.93,6.1l-36.26,29.5a11.33,11.33,0,0,0-3.93,6.1l-13,56.9c-1.1,4.77,1.88,8.63,6.65,8.63H226.1a10.81,10.81,0,0,0,6.69-2.53l36.26-29.49a11.3,11.3,0,0,0,3.93-6.11l22.14-96.5A7.25,7.25,0,0,0,294,524ZM234,495.56l-22.15,96.5a11.3,11.3,0,0,1-3.93,6.11l-36.26,29.49a10.79,10.79,0,0,1-6.68,2.53H73.48c-4.77,0-7.75-3.87-6.65-8.64L72,599.21a11.33,11.33,0,0,1,3.93-6.1l36.26-29.5a11.22,11.22,0,0,0,3.93-6.1l21-91.45a11.49,11.49,0,0,1,10.61-8.63h56.9a6.8,6.8,0,0,1,5.52,2.53l22.73,29.49A7.25,7.25,0,0,1,234,495.56Z" transform="translate(999.17 -175.74)"/><path d="M745.79,558.56l-22.72-29.5a6.82,6.82,0,0,0-5.53-2.53H626.1a11.5,11.5,0,0,0-10.62,8.64L603.59,587c-1.1,4.77,1.88,8.64,6.65,8.64h17.28A11.51,11.51,0,0,0,638.14,587l4-17.28a11.5,11.5,0,0,1,10.62-8.63h51.83c4.77,0,7.75,3.86,6.66,8.63l-5.13,22.34a11.3,11.3,0,0,1-3.93,6.11l-36.26,29.49a10.81,10.81,0,0,1-6.69,2.53h-62a6.79,6.79,0,0,1-5.52-2.53L569,598.17a7.25,7.25,0,0,1-1.13-6.11l21-91.44A11.51,11.51,0,0,1,599.47,492h22.34a10.81,10.81,0,0,0,6.69-2.53L664.76,460a10.81,10.81,0,0,1,6.69-2.53h22.34c4.77,0,7.75,3.86,6.65,8.63l-4,17.28c-1.1,4.77,1.88,8.64,6.65,8.64H755a11.5,11.5,0,0,0,10.62-8.64L770.71,461a7.23,7.23,0,0,0-1.13-6.1l-22.73-29.5a6.82,6.82,0,0,0-5.52-2.52H610.27a10.86,10.86,0,0,0-6.69,2.52l-36.26,29.5a11.33,11.33,0,0,0-3.93,6.1l-7.11,31L525.39,626.61a7.25,7.25,0,0,0,1.13,6.11l22.73,29.49a6.79,6.79,0,0,0,5.52,2.53H685.83a10.79,10.79,0,0,0,6.68-2.53l36.27-29.49a11.35,11.35,0,0,0,3.93-6.11l14.21-62A7.19,7.19,0,0,0,745.79,558.56Z" transform="translate(999.17 -175.74)"/><path d="M1270.81,598.17a11.35,11.35,0,0,0,3.93-6.11l22.14-96.5a7.22,7.22,0,0,0-1.13-6.11L1246.4,425.4a6.79,6.79,0,0,0-5.52-2.52h-96.51a10.77,10.77,0,0,0-6.68,2.52l-78.75,64.05a11.35,11.35,0,0,0-3.93,6.11l-30.07,131.05a7.25,7.25,0,0,0,1.13,6.11l22.73,29.49a6.79,6.79,0,0,0,5.52,2.53h126a11.5,11.5,0,0,0,10.62-8.63l4-17.28a11.51,11.51,0,0,1,10.62-8.64h22.34a10.83,10.83,0,0,0,6.69-2.53Zm-62.89-5.06a10.79,10.79,0,0,1-6.69,2.53h-22.34a11.49,11.49,0,0,0-10.61,8.63l-4,17.28a11.5,11.5,0,0,1-10.61,8.64h-56.9a6.8,6.8,0,0,1-5.52-2.53l-22.73-29.49a7.25,7.25,0,0,1-1.13-6.11l6.29-27.4a11.27,11.27,0,0,1,3.93-6.1l78.74-64a10.81,10.81,0,0,1,6.69-2.53H1220c4.77,0,7.75,3.87,6.66,8.64L1221.49,523a7.19,7.19,0,0,0,1.13,6.1l20,25.92c2.6,3.37,1.34,8.84-2.8,12.21Z" transform="translate(999.17 -175.74)"/><path d="M1586.61,422.88H1327.47a11.49,11.49,0,0,0-10.62,8.63l-5.13,22.34a7.25,7.25,0,0,0,1.13,6.11l22.73,29.49a7.28,7.28,0,0,1,1.13,6.11l-6.64,28.93a10.82,10.82,0,0,1-1.8,3.87l-47.75,65.45a10.65,10.65,0,0,0-1.8,3.87l-5.48,23.87a11.5,11.5,0,0,1-10.62,8.64h-17.28a11.49,11.49,0,0,0-10.61,8.64l-4,17.28c-1.09,4.77,1.89,8.63,6.66,8.63h120.93a11.49,11.49,0,0,0,10.62-8.63l4-17.28c1.09-4.77-1.89-8.64-6.66-8.64H1349c-4.77,0-7.75-3.87-6.65-8.64l5.48-23.87a10.62,10.62,0,0,1,1.79-3.87l45.6-62.5a11.33,11.33,0,0,1,8.82-4.78h55.13c4.77,0,7.75,3.87,6.66,8.64l-4,17.28c-1.09,4.77,1.89,8.64,6.65,8.64h17.29a11.49,11.49,0,0,0,10.61-8.64l5.95-25.92,6-25.91c1.09-4.77-1.89-8.64-6.66-8.64h-91.44a6.82,6.82,0,0,1-5.53-2.53l-13.31-17.28c-4.2-5.44,1.79-14.74,9.48-14.74h113.79a6.82,6.82,0,0,1,5.53,2.53l22.72,29.49a6.82,6.82,0,0,0,5.53,2.53h22.34a11.49,11.49,0,0,0,10.61-8.64l11.9-51.83C1594.36,426.74,1591.38,422.88,1586.61,422.88Z" transform="translate(999.17 -175.74)"/></svg>