<?xml version="1.0" encoding="utf-8"?>
<!-- Generator: Adobe Illustrator 23.0.1, SVG Export Plug-In . SVG Version: 6.00 Build 0)  -->
<svg version="1.1" id="Layer_1" xmlns="http://www.w3.org/2000/svg" xmlns:xlink="http://www.w3.org/1999/xlink" x="0px" y="0px"
	 viewBox="0 0 2355.8 489" style="enable-background:new 0 0 2355.8 489;" xml:space="preserve">
<title>logo</title>
<g>
	<path d="M237.1,240.8h223.4c3.9,0,7.4-2.7,8.3-6.6l19.7-86.3c1.2-5.3-2.8-10.3-8.3-10.3h-17c-3.9,0-7.4,2.7-8.3,6.6l-5.7,25
		c-0.4,1.8-1.4,3.5-2.9,4.7l-37.6,30.7c-1.5,1.2-3.4,1.9-5.3,1.9h-61.6c-2.6,0-5.1-1.2-6.7-3.3l-21.6-27.9c-1.5-2-2.1-4.6-1.6-7.1
		l22-96.5c0.4-1.8,1.4-3.5,2.9-4.7l37.7-30.7c1.5-1.2,2.5-2.8,2.9-4.7l4.8-21.2C383.4,5,379.4,0,374,0h-85.8c-3.9,0-7.4,2.7-8.3,6.6
		l-21.1,92.7c-0.6,2.5,0,5.1,1.6,7.1l21.7,28.1c1.5,2,2.1,4.6,1.6,7.1l-6.3,27.7c-0.4,1.8-1.4,3.5-2.9,4.7l-37.7,30.7
		c-1.5,1.2-2.5,2.8-2.9,4.7l-4.8,21.2C227.6,235.7,231.7,240.8,237.1,240.8z"/>
	<path d="M485.3,240.8h85.8c3.9,0,7.4-2.7,8.3-6.6l4-17.5c1.2-5.3-2.8-10.3-8.3-10.3h-13.2c-5.4,0-9.5-5-8.3-10.3l12.7-55.6
		c0.4-1.8,1.4-3.5,2.9-4.7l122.2-99.5c1.5-1.2,2.5-2.8,2.9-4.7l4.8-21.2C700.4,5,696.4,0,691,0H570.7c-3.9,0-7.4,2.7-8.3,6.6
		l-4,17.5c-1.2,5.3,2.8,10.3,8.3,10.3h13.2c5.4,0,9.5,5,8.3,10.3l-4,17.5c-0.9,3.8-4.3,6.6-8.3,6.6h-24.6c-1.9,0-3.8,0.7-5.3,1.9
		l-37.6,30.7c-1.5,1.2-2.5,2.8-2.9,4.7l-28.4,124.4C475.8,235.7,479.9,240.8,485.3,240.8z"/>
	<path d="M608.2,140.4l-20.5,90c-1.2,5.3,2.8,10.3,8.3,10.3h124c1.9,0,3.8-0.7,5.3-1.9L889.6,105c1.5-1.2,2.5-2.8,2.9-4.7L906.1,41
		c0.9-3.8,4.3-6.6,8.3-6.6h20.9c3.9,0,7.4-2.7,8.3-6.6l4-17.5C948.6,5,944.6,0,939.2,0h-51.4c-3.9,0-7.4,2.7-8.3,6.6L866,66
		c-0.4,1.8-1.4,3.5-2.9,4.7L698.7,204.5c-1.5,1.2-3.4,1.9-5.3,1.9h-20.8c-5.4,0-9.5-5-8.3-10.3l4.8-21.2c0.4-1.8,1.4-3.5,2.9-4.7
		L836.5,36.2c1.5-1.2,2.5-2.8,2.9-4.7l4.8-21.2C845.5,5,841.4,0,836,0h-85.8c-3.9,0-7.4,2.7-8.3,6.6l-5.7,25
		c-0.4,1.8-1.4,3.5-2.9,4.7l-122.2,99.5C609.6,136.9,608.6,138.6,608.2,140.4z"/>
	<path d="M960,34.4h13.2c5.4,0,9.5,5,8.3,10.3l-4,17.5c-0.9,3.8-4.3,6.6-8.3,6.6h-24.6c-1.9,0-3.8,0.7-5.3,1.9l-37.6,30.7
		c-1.5,1.2-2.5,2.8-2.9,4.7l-14.4,63.1c-0.4,1.8-1.4,3.5-2.9,4.7l-37.7,30.7c-1.5,1.2-2.5,2.8-2.9,4.7l-4.8,21.2
		c-1.2,5.3,2.8,10.3,8.3,10.3h120.2c3.9,0,7.4-2.7,8.3-6.6l4-17.5c1.2-5.3-2.8-10.3-8.2-10.3l-13.2,0c-5.4,0-9.5-5-8.2-10.3
		l12.7-55.6c0.4-1.8,1.4-3.5,2.9-4.7l122.2-99.5c1.5-1.2,2.5-2.8,2.9-4.7l4.8-21.2c1.2-5.3-2.8-10.3-8.3-10.3H964
		c-3.9,0-7.4,2.7-8.3,6.6l-4,17.5C950.5,29.4,954.6,34.4,960,34.4z"/>
	<path d="M1105,34.4L1105,34.4c8,0,11.5,10,5.3,15L1088.8,67c-1.5,1.2-2.5,2.8-2.9,4.7l-22.2,97.5c-0.4,1.8-1.4,3.5-2.9,4.7
		l-37.6,30.7c-1.5,1.2-3.4,1.9-5.3,1.9l-24.6,0c-3.9,0-7.4,2.7-8.2,6.6l-4,17.5c-1.2,5.3,2.8,10.3,8.3,10.3h85.8
		c3.9,0,7.4-2.7,8.3-6.6l5.7-25c0.4-1.8,1.4-3.5,2.9-4.7l37.7-30.7c1.5-1.2,2.5-2.8,2.9-4.7l6.7-29.5c0.3-1.4,0.3-2.8-0.1-4.1
		l-16.7-61.4c-0.9-3.2,0.2-6.7,2.8-8.8l27.9-22.7c4.7-3.9,11.9-1.6,13.5,4.3l32.6,119.7c0.9,3.2-0.2,6.7-2.8,8.8l-35.7,29.1
		c-1.5,1.2-2.5,2.8-2.9,4.7l-4.8,21.2c-1.2,5.3,2.8,10.3,8.3,10.3h55.2c1.9,0,3.8-0.7,5.3-1.9l37.6-30.7c1.5-1.2,2.5-2.8,2.9-4.7
		l30.1-131.9c0.4-1.8,1.4-3.5,2.9-4.7l37.7-30.7c1.5-1.2,2.5-2.8,2.9-4.7l4.8-21.2c1.2-5.3-2.8-10.3-8.3-10.3H1281
		c-3.9,0-7.4,2.7-8.3,6.6l-22.3,98c-2,8.6-14.1,8.8-16.4,0.3l-26.8-98.7c-1-3.7-4.3-6.2-8.2-6.2l-90,0c-3.9,0-7.4,2.7-8.3,6.6
		l-4,17.5C1095.6,29.4,1099.6,34.4,1105,34.4z"/>
	<path d="M1334.1,71.6l-29.2,128.2c-0.9,3.8-4.3,6.6-8.3,6.6h-20.9c-3.9,0-7.4,2.7-8.3,6.6l-4,17.5c-1.2,5.3,2.8,10.3,8.3,10.3H1499
		c1.9,0,3.8-0.7,5.3-1.9l37.6-30.7c1.5-1.2,2.5-2.8,2.9-4.7l14.1-62.1c0.6-2.5,0-5.1-1.6-7.1l-21.6-27.9c-1.6-2.1-4.1-3.3-6.7-3.3
		h-92.3c-3.9,0-7.4,2.7-8.3,6.6l-4,17.5c-1.2,5.3,2.8,10.3,8.3,10.3h19.6c2.6,0,5.1,1.2,6.7,3.3l19,24.6c2.8,3.6,2.2,8.8-1.4,11.7
		l-33.5,27.3c-1.5,1.2-3.4,1.9-5.3,1.9h-61.6c-2.6,0-5.1-1.2-6.7-3.3l-21.6-27.9c-1.5-2-2.1-4.6-1.6-7.1l21.1-92.7
		c0.9-3.8,4.3-6.6,8.3-6.6h24.6c1.9,0,3.8-0.7,5.3-1.9l37.6-30.6c1.5-1.2,3.4-1.9,5.3-1.9l20.8,0c5.4,0,9.5,5,8.3,10.3l-3.1,13.7
		c-1.2,5.3,2.8,10.3,8.3,10.3h51.4c3.9,0,7.4-2.7,8.3-6.6l5.5-23.9c0.6-2.5,0-5.1-1.6-7.1L1525,3.3c-1.6-2.1-4.1-3.3-6.7-3.3h-126.7
		c-3.9,0-7.4,2.7-8.3,6.6l-5.7,25c-0.4,1.8-1.4,3.5-2.9,4.7L1337.1,67C1335.6,68.1,1334.6,69.8,1334.1,71.6z"/>
	<path d="M1835,206.4l-20.9,0c-3.9,0-7.4,2.7-8.3,6.6l-4,17.5c-1.2,5.3,2.8,10.3,8.3,10.3h85.8c3.9,0,7.4-2.7,8.3-6.6l5.5-23.9
		c0.6-2.5,0-5.1-1.6-7.1l-21.7-28.1c-1.5-2-2.1-4.6-1.6-7.1l22-96.5c0.4-1.8,1.4-3.5,2.9-4.7l29.9-24.3c4.7-3.9,11.9-1.6,13.5,4.3
		l32.6,119.7c0.9,3.2-0.2,6.7-2.8,8.8l-35.7,29.1c-1.5,1.2-2.5,2.8-2.9,4.7l-4.8,21.2c-1.2,5.3,2.8,10.3,8.3,10.3h55.2
		c1.9,0,3.8-0.7,5.3-1.9l37.6-30.7c1.5-1.2,2.5-2.8,2.9-4.7l30.1-131.9c0.4-1.8,1.4-3.5,2.9-4.7l37.7-30.7c1.5-1.2,2.5-2.8,2.9-4.7
		l4.8-21.2c1.2-5.3-2.8-10.3-8.3-10.3h-51.4c-3.9,0-7.4,2.7-8.3,6.6l-22.3,98c-2,8.6-14.1,8.8-16.4,0.3l-26.8-98.7
		c-1-3.7-4.3-6.2-8.2-6.2l-90,0c-3.9,0-7.4,2.7-8.2,6.6l-4,17.5c-1.2,5.3,2.8,10.3,8.3,10.3c8,0,11.5,10,5.3,15L1875.3,67
		c-1.5,1.2-2.5,2.8-2.9,4.7l-29.2,128.2C1842.3,203.7,1838.9,206.4,1835,206.4z"/>
	<path d="M1617.5,237.5c1.6,2.1,4.1,3.3,6.7,3.3l126.7,0c3.9,0,7.4-2.7,8.3-6.6l4.8-21.2c0.9-3.8,4.3-6.6,8.2-6.6l24.6,0
		c1.9,0,3.8-0.7,5.3-1.9l37.6-30.7c1.5-1.2,2.5-2.8,2.9-4.7l22-96.5c0.6-2.5,0-5.1-1.6-7.1l-48.1-62.3c-1.6-2.1-4.1-3.3-6.7-3.3h-96
		c-1.9,0-3.8,0.7-5.3,1.9L1627.1,67c-1.5,1.2-2.5,2.8-2.9,4.7l-29.8,130.9c-0.6,2.5,0,5.1,1.6,7.1L1617.5,237.5z M1644.4,133.7
		l6.3-27.7c0.4-1.8,1.4-3.5,2.9-4.7l79.9-65.1c1.5-1.2,3.4-1.9,5.3-1.9h61.6c2.6,0,5.1,1.2,6.7,3.3l21.6,27.9c1.5,2,2.1,4.6,1.6,7.1
		l-14.1,62.1c-0.4,1.8-1.4,3.5-2.9,4.7l-37.6,30.7c-1.5,1.2-3.4,1.9-5.3,1.9h-24.6c-3.9,0-7.4,2.7-8.2,6.6l-4.8,21.2
		c-0.9,3.8-4.3,6.6-8.3,6.6h-23.5c-2.6,0-5.1-1.2-6.7-3.3l-48.1-62.3C1644.5,138.8,1643.9,136.2,1644.4,133.7z"/>
	<path d="M2034.1,422.1c1.5-1.2,2.5-2.8,2.9-4.7l22-96.5c0.6-2.5,0-5.1-1.6-7.1l-48.1-62.3c-1.6-2.1-4.1-3.3-6.7-3.3h-96
		c-1.9,0-3.8,0.7-5.3,1.9l-79.9,65.1c-1.5,1.2-2.5,2.8-2.9,4.7l-29.8,130.9c-0.6,2.5,0,5.1,1.6,7.1l21.6,27.9
		c1.6,2.1,4.1,3.3,6.7,3.3l126.7,0c3.9,0,7.4-2.7,8.3-6.6l4.8-21.2c0.9-3.9,4.3-6.6,8.2-6.6l24.6,0c1.9,0,3.8-0.7,5.3-1.9
		L2034.1,422.1z M1969.9,418.3c-1.5,1.2-3.4,1.9-5.3,1.9h-24.6c-3.9,0-7.4,2.7-8.2,6.6l-4.8,21.2c-0.9,3.9-4.3,6.6-8.3,6.6h-57.9
		c-2.6,0-5.1-1.2-6.7-3.3l-21.6-27.9c-1.5-2-2.1-4.6-1.6-7.1l6.3-27.7c0.4-1.8,1.4-3.5,2.9-4.7l79.9-65.1c1.5-1.2,3.4-1.9,5.3-1.9
		h55.2c5.4,0,9.5,5,8.3,10.3l-4.6,20.2c-0.6,2.5,0,5.1,1.6,7.1l19.1,24.7c2.8,3.6,2.2,8.8-1.4,11.7L1969.9,418.3z"/>
	<path d="M215.1,282.6h20.8c5.4,0,9.5,5,8.3,10.3l-3.1,13.7c-1.2,5.3,2.8,10.3,8.3,10.3h17c3.9,0,7.4-2.7,8.3-6.6l11.8-51.9
		c1.2-5.3-2.8-10.3-8.3-10.3H20.3c-3.9,0-7.4,2.7-8.3,6.6L0.2,306.7C-1,312,3,317,8.5,317h20.8c1.9,0,3.8-0.7,5.3-1.9l37.6-30.6
		c1.5-1.2,3.4-1.9,5.3-1.9h55.2c5.4,0,9.5,5,8.3,10.3l-4.8,21.2c-0.4,1.8-1.4,3.5-2.9,4.7l-37.7,30.7c-1.5,1.2-2.5,2.8-2.9,4.7
		l-14.4,63.1c-0.4,1.8-1.4,3.5-2.9,4.7l-37.7,30.7c-1.5,1.2-2.5,2.8-2.9,4.7l-4.8,21.2c-1.2,5.3,2.8,10.3,8.3,10.3h120.2
		c3.9,0,7.4-2.7,8.3-6.6l4-17.5c1.2-5.3-2.8-10.3-8.3-10.3h-13.2c-5.4,0-9.5-5-8.3-10.3l28.4-124.4c0.4-1.8,1.4-3.5,2.9-4.7
		l37.6-30.7C211.3,283.3,213.2,282.6,215.1,282.6z"/>
	<path d="M479.3,454.6h-13.2c-5.4,0-9.5-5-8.3-10.3l4.6-20.2c0.6-2.5,0-5.1-1.6-7.1L439.2,389c-1.5-2-2.1-4.6-1.6-7.1l21.1-92.7
		c0.9-3.8,4.3-6.6,8.3-6.6H488c3.9,0,7.4-2.7,8.3-6.6l4-17.5c1.2-5.3-2.8-10.3-8.3-10.3h-20.8c-1.9,0-3.8,0.7-5.3,1.9l-37.6,30.7
		c-1.5,1.2-2.5,2.8-2.9,4.7l-5.7,25c-0.9,3.8-4.3,6.6-8.3,6.6h-85.8c-5.4,0-9.5-5-8.3-10.3l4-17.5c0.9-3.8,4.3-6.6,8.3-6.6h20.9
		c3.9,0,7.4-2.7,8.3-6.6l4-17.5c1.2-5.3-2.8-10.3-8.3-10.3h-51.4c-3.9,0-7.4,2.7-8.3,6.6l-13.5,59.4c-0.4,1.8-1.4,3.5-2.9,4.7
		l-37.7,30.7c-1.5,1.2-2.5,2.8-2.9,4.7l-14.4,63.1c-0.4,1.8-1.4,3.5-2.9,4.7l-37.7,30.7c-1.5,1.2-2.5,2.8-2.9,4.7l-4.8,21.2
		c-1.2,5.3,2.8,10.3,8.3,10.3h120.2c3.9,0,7.4-2.7,8.3-6.6l4-17.5c1.2-5.3-2.8-10.3-8.3-10.3h-13.2c-5.4,0-9.5-5-8.3-10.3l12.7-55.6
		c0.4-1.8,1.4-3.5,2.9-4.7l37.6-30.7c1.5-1.2,3.4-1.9,5.3-1.9h55.2c5.4,0,9.5,5,8.3,10.3l-12.4,54.6c-0.6,2.5,0,5.1,1.6,7.1
		l21.7,28.1c1.5,2,2.1,4.6,1.6,7.1l-4.6,20.2c-1.2,5.3,2.8,10.3,8.3,10.3h51.4c3.9,0,7.4-2.7,8.3-6.6l4-17.5
		C488.8,459.7,484.7,454.6,479.3,454.6z"/>
	<path d="M740.2,248.2H516.7c-3.9,0-7.4,2.7-8.3,6.6l-5.7,25c-0.4,1.8-1.4,3.5-2.9,4.7l-37.7,30.7c-1.5,1.2-2.5,2.8-2.9,4.7
		l-14.1,62.1c-0.6,2.5,0,5.1,1.6,7.1l48.2,62.5c1.5,2,2.1,4.6,1.6,7.1l-4.6,20.2c-1.2,5.3,2.8,10.3,8.3,10.3h158.4
		c1.9,0,3.8-0.7,5.3-1.9l37.6-30.7c1.5-1.2,2.5-2.8,2.9-4.7l4.8-21.2c1.2-5.3-2.8-10.3-8.3-10.3h-17c-3.9,0-7.4,2.7-8.3,6.6
		l-4.8,21.2c-0.9,3.9-4.3,6.6-8.3,6.6h-92.3c-2.6,0-5.1-1.2-6.7-3.3l-40-51.9c-4.3-5.6-0.3-13.6,6.7-13.6h79.2
		c3.9,0,7.4-2.7,8.3-6.6l4-17.5c1.2-5.3-2.8-10.3-8.3-10.3h-82c-5.4,0-9.5-5-8.3-10.3l4-17.5c0.9-3.9,4.3-6.6,8.3-6.6h120.2
		c5.4,0,9.5,5,8.3,10.3l-3.1,13.7c-1.2,5.3,2.8,10.3,8.3,10.3h17c3.9,0,7.4-2.7,8.3-6.6l5.7-25c0.4-1.8,1.4-3.5,2.9-4.7l37.7-30.7
		c1.5-1.2,2.5-2.8,2.9-4.7l4.8-21.2C749.6,253.3,745.6,248.2,740.2,248.2z"/>
	<path d="M1025.4,420.2h-20.8c-1.9,0-3.8,0.7-5.3,1.9l-37.6,30.6c-1.5,1.2-3.4,1.9-5.3,1.9h-96c-2.6,0-5.1-1.2-6.7-3.3l-40-51.9
		c-4.3-5.6-0.3-13.6,6.7-13.6h75.4c5.4,0,9.5,5,8.3,10.3l-3.1,13.7c-1.2,5.3,2.8,10.3,8.3,10.3h17c3.9,0,7.4-2.7,8.3-6.6l11.8-51.9
		c1.2-5.3-2.8-10.4-8.3-10.3l-116.4,0.2c-5.4,0-9.5-5-8.3-10.3l4-17.5c0.9-3.8,4.3-6.5,8.2-6.6l24.8-0.2c1.9,0,3.8-0.7,5.3-1.9
		l37.6-30.6c1.5-1.2,3.4-1.9,5.3-1.9H960c2.6,0,5.1,1.2,6.7,3.3l21.6,27.9c1.5,2,2.1,4.6,1.6,7.1l-4.6,20.2
		c-1.2,5.3,2.8,10.3,8.3,10.3h17c3.9,0,7.4-2.7,8.3-6.6l13.3-58.3c0.6-2.5,0-5.1-1.6-7.1l-21.6-27.9c-1.6-2.1-4.1-3.3-6.7-3.3H837.4
		c-1.9,0-3.8,0.7-5.3,1.9l-37.6,30.7c-1.5,1.2-2.5,2.8-2.9,4.7l-37.7,165.3c-0.6,2.5,0,5.1,1.6,7.1l21.6,27.9
		c1.6,2.1,4.1,3.3,6.7,3.3h199.2c1.9,0,3.8-0.7,5.3-1.9l37.6-30.7c1.5-1.2,2.5-2.8,2.9-4.7l4.8-21.2
		C1034.9,425.3,1030.8,420.2,1025.4,420.2z"/>
	<path d="M1753.6,251.5c-1.6-2.1-4.1-3.3-6.7-3.3h-164.8c-1.9,0-3.8,0.7-5.3,1.9l-37.6,30.7c-1.5,1.2-2.5,2.8-2.9,4.7l-37.7,165.3
		c-0.6,2.5,0,5.1,1.6,7.1l21.6,27.9c1.6,2.1,4.1,3.3,6.7,3.3h164.8c1.9,0,3.8-0.7,5.3-1.9l37.6-30.7c1.5-1.2,2.5-2.8,2.9-4.7
		l4.8-21.2c1.2-5.3-2.8-10.3-8.3-10.3h-21.4c-1.9,0-3.8,0.7-5.3,1.9l-37.6,30.6c-1.5,1.2-3.4,1.9-5.3,1.9h-61
		c-2.6,0-5.1-1.2-6.7-3.3l-21.5-27.8c-1.6-2.1-4.1-3.3-6.7-3.3h-19.6c-5.4,0-9.5-5-8.3-10.3l4-17.5c0.9-3.8,4.3-6.6,8.3-6.6h124.1
		c3.9,0,7.4-2.7,8.3-6.6l4-17.5c1.2-5.3-2.8-10.4-8.3-10.3l-116.4,0.2c-5.4,0-9.5-5-8.3-10.3l4-17.5c0.9-3.8,4.3-6.5,8.2-6.6
		l24.8-0.2c1.9,0,3.8-0.7,5.3-1.9l37.6-30.6c1.5-1.2,3.4-1.9,5.3-1.9h61.6c2.6,0,5.1,1.2,6.7,3.3l21.6,27.9c1.5,2,2.1,4.6,1.6,7.1
		l-4.6,20.2c-1.2,5.3,2.8,10.3,8.3,10.3h17c3.9,0,7.4-2.7,8.3-6.6l13.3-58.3c0.6-2.5,0-5.1-1.6-7.1L1753.6,251.5z"/>
	<path d="M1297.5,348.3l-21.7-28.1c-1.5-2-2.1-4.6-1.6-7.1l6.1-26.6c0.6-2.5,0-5.1-1.6-7.1l-21.6-27.9c-1.6-2.1-4.1-3.3-6.7-3.3
		H1055c-3.9,0-7.4,2.7-8.3,6.6l-11.8,51.9c-1.2,5.3,2.8,10.3,8.3,10.3h17c3.9,0,7.4-2.7,8.3-6.6l4.8-21.2c0.9-3.8,4.3-6.6,8.3-6.6
		h17c5.4,0,9.5,5,8.3,10.3l-20.5,90c-0.4,1.8-1.4,3.5-2.9,4.7l-37.7,30.7c-1.5,1.2-2.5,2.8-2.9,4.7l-12.7,55.6
		c-1.2,5.3,2.8,10.3,8.3,10.3h192.8c1.9,0,3.8-0.7,5.3-1.9l37.6-30.7c1.5-1.2,2.5-2.8,2.9-4.7l22-96.5
		C1299.6,352.8,1299,350.3,1297.5,348.3z M1238.1,320.9l-22,96.5c-0.4,1.8-1.4,3.5-2.9,4.7l-37.6,30.7c-1.5,1.2-3.4,1.9-5.3,1.9
		h-89.6c-5.4,0-9.5-5-8.3-10.3l4.8-21.2c0.4-1.8,1.4-3.5,2.9-4.7l37.7-30.7c1.5-1.2,2.5-2.8,2.9-4.7l21.4-93.8
		c0.9-3.8,4.3-6.6,8.3-6.6h57.9c2.6,0,5.1,1.2,6.7,3.3l21.6,27.9C1238.1,315.9,1238.6,318.4,1238.1,320.9z"/>
	<path d="M1503.5,382.7l-24.1-31.2v0h-34.4h-68.8l0,0.2l-7.8,34.2l-5.5,24.1c-1.2,5.3,2.8,10.3,8.3,10.3h17c3.9,0,7.4-2.7,8.3-6.6
		l4.8-21.2c0.9-3.8,4.3-6.6,8.3-6.6h51.4c5.4,0,9.5,5,8.3,10.3l-4.8,21.2c-0.4,1.8-1.4,3.5-2.9,4.7l-37.6,30.7
		c-1.5,1.2-3.4,1.9-5.3,1.9l-61.6,0c-2.6,0-5.1-1.2-6.7-3.3l-21.6-27.9c-1.5-2-2.1-4.6-1.6-7.1l7-30.5l7-30.5
		c0.5-2.3,0.1-4.7-1.3-6.7l-17.3-25.2c-2.5-3.6-1.8-8.6,1.6-11.3l33.9-27.6c1.5-1.2,3.4-1.9,5.3-1.9h127.7c2.6,0,5.1,1.2,6.7,3.3
		l13.1,16.9c4.4,5.7,13.4,3.7,14.9-3.3l3-13c0.6-2.5,0-5.1-1.6-7.1l-24.1-31.2v0l-137.6,0h-31.4c-1.9,0-3.8,0.7-5.3,1.9l-37.6,30.7
		c-1.5,1.2-2.5,2.8-2.9,4.7l-6.3,27.7c-0.6,2.5,0,5.1,1.6,7.1l21.7,28.1c1.5,2,2.1,4.6,1.6,7.1l-21.7,95.4c-0.6,2.5,0,5.1,1.6,7.1
		l21.6,27.9c1.6,2.1,4.1,3.3,6.7,3.3l133.4,0l0,0l40-32.6c1.5-1.2,2.5-2.8,2.9-4.7l7.2-31.6l7-30.5
		C1505.6,387.2,1505,384.7,1503.5,382.7z"/>
	<path d="M2347.5,248.2h-257.8c-3.9,0-7.4,2.7-8.3,6.6l-5.5,23.9c-0.6,2.5,0,5.1,1.6,7.1l21.7,28.1c1.5,2,2.1,4.6,1.6,7.1l-6.6,28.8
		c-0.3,1.1-0.7,2.2-1.4,3.1l-48,66c-0.7,0.9-1.2,2-1.4,3.1l-6,26.1c-0.9,3.9-4.3,6.6-8.3,6.6l-20.9,0c-3.9,0-7.4,2.7-8.3,6.6
		l-4,17.5c-1.2,5.3,2.8,10.3,8.3,10.3h120.2c3.9,0,7.4-2.7,8.3-6.6l4-17.5c1.2-5.3-2.8-10.3-8.3-10.3h-13.2c-5.4,0-9.5-5-8.3-10.3
		l5.1-22.4c0.3-1.1,0.7-2.2,1.4-3.1l46.5-63.9c1.6-2.2,4.1-3.5,6.8-3.5h53.9c5.4,0,9.5,5,8.3,10.3l-3.1,13.7
		c-1.2,5.3,2.8,10.3,8.3,10.3h17c3.9,0,7.4-2.7,8.3-6.6l6.3-27.8l5.5-24.1c1.2-5.3-2.8-10.3-8.3-10.3h-88.4c-2.6,0-5.1-1.2-6.7-3.3
		l-13.5-17.5c-4.3-5.6-0.3-13.6,6.7-13.6h116.2c2.6,0,5.1,1.2,6.7,3.3l21.5,27.8c1.6,2.1,4.1,3.3,6.7,3.3h23.5
		c3.9,0,7.4-2.7,8.3-6.6l11.8-51.9C2357,253.3,2353,248.2,2347.5,248.2z"/>
</g>
</svg>
