<svg id="Layer_1" data-name="Layer 1" xmlns="http://www.w3.org/2000/svg" viewBox="0 0 804.63 185.42"><path d="M-187.95,377.79h-3.94v11.88h.9v-4.91h3a4.34,4.34,0,0,0,2.94-.94,3.16,3.16,0,0,0,1.09-2.55,3.16,3.16,0,0,0-1.09-2.55A4.39,4.39,0,0,0-187.95,377.79Zm2.26,5.44a3.6,3.6,0,0,1-2.37.68H-191v-5.29h2.93a3.6,3.6,0,0,1,2.37.69,2.46,2.46,0,0,1,.82,2A2.44,2.44,0,0,1-185.69,383.23Z" transform="translate(192.25 -204.44)"/><path d="M-173.71,378.36a5.47,5.47,0,0,0-2.9-.75,5.48,5.48,0,0,0-2.91.75,5,5,0,0,0-1.9,2.12,7.48,7.48,0,0,0-.66,3.25,7.45,7.45,0,0,0,.66,3.25,4.93,4.93,0,0,0,1.9,2.13,5.57,5.57,0,0,0,2.91.74,5.56,5.56,0,0,0,2.9-.74,4.87,4.87,0,0,0,1.9-2.13,7.31,7.31,0,0,0,.67-3.25,7.34,7.34,0,0,0-.67-3.25A4.89,4.89,0,0,0-173.71,378.36Zm1.08,8.19a4.12,4.12,0,0,1-1.57,1.84,4.54,4.54,0,0,1-2.41.64,4.49,4.49,0,0,1-2.41-.64,4.16,4.16,0,0,1-1.56-1.84,6.66,6.66,0,0,1-.55-2.82,6.62,6.62,0,0,1,.55-2.81,4.16,4.16,0,0,1,1.56-1.84,4.49,4.49,0,0,1,2.41-.64,4.54,4.54,0,0,1,2.41.64,4.12,4.12,0,0,1,1.57,1.84,6.62,6.62,0,0,1,.55,2.81A6.66,6.66,0,0,1-172.63,386.55Z" transform="translate(192.25 -204.44)"/><path d="M-160.61,383.31a3.15,3.15,0,0,0,.75-2.15,3.09,3.09,0,0,0-1-2.47,4.2,4.2,0,0,0-2.83-.9h-4.41v11.88h.9v-5.14h3.56l3.4,5.14h1.06l-3.45-5.25A3.61,3.61,0,0,0-160.61,383.31Zm-3.15.37h-3.49v-5.06h3.49a3.27,3.27,0,0,1,2.2.66,2.34,2.34,0,0,1,.77,1.88,2.31,2.31,0,0,1-.77,1.87A3.32,3.32,0,0,1-163.76,383.68Z" transform="translate(192.25 -204.44)"/><polygon points="33.75 174.19 38.08 174.19 38.08 185.24 38.98 185.24 38.98 174.19 43.32 174.19 43.32 173.36 33.75 173.36 33.75 174.19"/><path d="M-138.54,385.16a4.07,4.07,0,0,1-.94,2.89,3.62,3.62,0,0,1-2.74,1,3.63,3.63,0,0,1-2.75-1,4.07,4.07,0,0,1-.94-2.89v-7.37h-.9v7.55a4.44,4.44,0,0,0,1.2,3.35,4.65,4.65,0,0,0,3.39,1.16,4.62,4.62,0,0,0,3.39-1.16,4.48,4.48,0,0,0,1.19-3.35v-7.55h-.9Z" transform="translate(192.25 -204.44)"/><path d="M-129.47,384.71h4v.66a3.81,3.81,0,0,1-.43,1.79,3.26,3.26,0,0,1-1.33,1.35,4.42,4.42,0,0,1-2.2.52,4,4,0,0,1-3.27-1.42,5.89,5.89,0,0,1-1.18-3.88,6.61,6.61,0,0,1,.56-2.81,4.25,4.25,0,0,1,1.57-1.84,4.32,4.32,0,0,1,2.34-.64,4.49,4.49,0,0,1,2.47.64,3.47,3.47,0,0,1,1.4,1.88l.83-.43a4.4,4.4,0,0,0-1.73-2.2,5.54,5.54,0,0,0-3-.72,5.36,5.36,0,0,0-2.85.75,5,5,0,0,0-1.89,2.13,7.22,7.22,0,0,0-.68,3.24,7.44,7.44,0,0,0,.66,3.24,4.9,4.9,0,0,0,1.87,2.14,5.35,5.35,0,0,0,2.83.74,5.17,5.17,0,0,0,2.57-.58,3.52,3.52,0,0,0,1.52-1.67l0,2.07h.72v-5.81h-4.88Z" transform="translate(192.25 -204.44)"/><path d="M-118.19,377.79l-4.75,11.88h1l1.47-3.72h5.69l1.49,3.72h1l-4.75-11.88Zm-2,7.33,2.07-5.22.44-1.22h0l.44,1.26,2.07,5.18Z" transform="translate(192.25 -204.44)"/><polygon points="82.99 173.36 82.09 173.36 82.09 185.24 90.12 185.24 90.12 184.41 82.99 184.41 82.99 173.36"/><rect x="240.65" y="173.36" width="0.9" height="11.88"/><polygon points="253.58 182.77 253.61 184.27 252.71 182.66 246.43 173.36 245.3 173.36 245.3 185.24 246.16 185.24 246.16 175.82 246.11 174.33 246.12 174.33 247.01 175.91 253.31 185.24 254.42 185.24 254.42 173.36 253.58 173.36 253.58 182.77"/><polygon points="256.69 174.19 261.03 174.19 261.03 185.24 261.93 185.24 261.93 174.19 266.27 174.19 266.27 173.36 256.69 173.36 256.69 174.19"/><polygon points="269.43 179.62 275.14 179.62 275.14 178.78 269.43 178.78 269.43 174.19 276.65 174.19 276.65 173.36 268.53 173.36 268.53 185.24 276.94 185.24 276.94 184.41 269.43 184.41 269.43 179.62"/><path d="M94.84,383.31a3.15,3.15,0,0,0,.76-2.15,3.07,3.07,0,0,0-1.06-2.47,4.2,4.2,0,0,0-2.83-.9H87.3v11.88h.9v-5.14h3.56l3.4,5.14h1.07l-3.46-5.25A3.55,3.55,0,0,0,94.84,383.31Zm-3.15.37H88.2v-5.06h3.49a3.3,3.3,0,0,1,2.21.66,2.34,2.34,0,0,1,.76,1.88A2.3,2.3,0,0,1,93.9,383,3.35,3.35,0,0,1,91.69,383.68Z" transform="translate(192.25 -204.44)"/><path d="M106.94,385.16a4.07,4.07,0,0,1-.94,2.89,4.33,4.33,0,0,1-5.49,0,4.07,4.07,0,0,1-.94-2.89v-7.37h-.9v7.55a4.44,4.44,0,0,0,1.2,3.35,5.53,5.53,0,0,0,6.78,0,4.48,4.48,0,0,0,1.19-3.35v-7.55h-.9Z" transform="translate(192.25 -204.44)"/><polygon points="311.97 182.77 312 184.27 311.1 182.66 304.82 173.36 303.69 173.36 303.69 185.24 304.55 185.24 304.55 175.82 304.5 174.33 304.52 174.33 305.4 175.91 311.7 185.24 312.81 185.24 312.81 173.36 311.97 173.36 311.97 182.77"/><rect x="316.56" y="173.36" width="0.9" height="11.88"/><polygon points="325.49 182.56 324.86 184.39 324.23 182.56 320.72 173.36 319.74 173.36 324.33 185.24 325.4 185.24 329.97 173.36 329.01 173.36 325.49 182.56"/><polygon points="333.15 179.62 338.86 179.62 338.86 178.78 333.15 178.78 333.15 174.19 340.37 174.19 340.37 173.36 332.25 173.36 332.25 185.24 340.66 185.24 340.66 184.41 333.15 184.41 333.15 179.62"/><path d="M158.56,383.31a3.15,3.15,0,0,0,.76-2.15,3.1,3.1,0,0,0-1.06-2.47,4.2,4.2,0,0,0-2.83-.9H151v11.88h.9v-5.14h3.56l3.4,5.14H160l-3.46-5.25A3.55,3.55,0,0,0,158.56,383.31Zm-3.15.37h-3.49v-5.06h3.49a3.3,3.3,0,0,1,2.21.66,2.34,2.34,0,0,1,.76,1.88,2.3,2.3,0,0,1-.76,1.87A3.35,3.35,0,0,1,155.41,383.68Z" transform="translate(192.25 -204.44)"/><path d="M169.88,384.53a7.61,7.61,0,0,0-3.29-1.16,12.12,12.12,0,0,1-2.26-.56,2.58,2.58,0,0,1-1.16-.77,1.81,1.81,0,0,1-.34-1.13,2.08,2.08,0,0,1,.4-1.26,2.65,2.65,0,0,1,1.18-.88,4.62,4.62,0,0,1,1.82-.33,4.24,4.24,0,0,1,2.35.58,3.49,3.49,0,0,1,1.34,1.85l.77-.63c-.75-1.75-2.25-2.63-4.48-2.63a5.41,5.41,0,0,0-2.29.46,3.7,3.7,0,0,0-1.52,1.24,2.94,2.94,0,0,0-.53,1.69,2.58,2.58,0,0,0,.43,1.53,3,3,0,0,0,1.39,1,12.47,12.47,0,0,0,2.65.71,7.1,7.1,0,0,1,2.78.9,1.75,1.75,0,0,1,.8,1.51,2,2,0,0,1-1,1.73,4.63,4.63,0,0,1-2.53.63,5,5,0,0,1-2.69-.68,3.23,3.23,0,0,1-1.45-2l-.79.61a3.8,3.8,0,0,0,1.75,2.1,7.06,7.06,0,0,0,5.49.34,3.63,3.63,0,0,0,1.58-1.14,2.77,2.77,0,0,0,.55-1.7A2.48,2.48,0,0,0,169.88,384.53Z" transform="translate(192.25 -204.44)"/><rect x="365.93" y="173.36" width="0.9" height="11.88"/><polygon points="369.1 174.19 373.44 174.19 373.44 185.24 374.34 185.24 374.34 174.19 378.68 174.19 378.68 173.36 369.1 173.36 369.1 174.19"/><polygon points="383.97 179.68 380.37 173.36 379.31 173.36 383.52 180.61 383.52 185.24 384.42 185.24 384.42 180.61 388.63 173.36 387.57 173.36 383.97 179.68"/><polygon points="538.82 185.24 539.72 185.24 539.72 179.62 545.42 179.62 545.42 178.78 539.72 178.78 539.72 174.19 546.92 174.19 546.92 173.36 538.82 173.36 538.82 185.24"/><rect x="549.33" y="173.36" width="0.9" height="11.88"/><polygon points="554.87 173.36 553.97 173.36 553.97 185.24 562 185.24 562 184.41 554.87 184.41 554.87 173.36"/><polygon points="570.39 182.38 569.81 184.18 569.8 184.18 569.2 182.36 565.62 173.36 564.27 173.36 564.27 185.24 565.13 185.24 565.13 176.38 565.03 174.22 565.04 174.22 569.38 185.24 570.21 185.24 574.55 174.22 574.57 174.22 574.46 176.38 574.46 185.24 575.32 185.24 575.32 173.36 573.97 173.36 570.39 182.38"/><polygon points="727.82 185.24 728.71 185.24 728.71 179.62 734.42 179.62 734.42 178.78 728.71 178.78 728.71 174.19 735.91 174.19 735.91 173.36 727.82 173.36 727.82 185.24"/><polygon points="739.23 179.62 744.93 179.62 744.93 178.78 739.23 178.78 739.23 174.19 746.45 174.19 746.45 173.36 738.33 173.36 738.33 185.24 746.73 185.24 746.73 184.41 739.23 184.41 739.23 179.62"/><path d="M564.44,384.53a7.66,7.66,0,0,0-3.3-1.16,12.12,12.12,0,0,1-2.26-.56,2.64,2.64,0,0,1-1.16-.77,1.81,1.81,0,0,1-.34-1.13,2.08,2.08,0,0,1,.4-1.26,2.7,2.7,0,0,1,1.18-.88,4.65,4.65,0,0,1,1.82-.33,4.22,4.22,0,0,1,2.35.58,3.49,3.49,0,0,1,1.34,1.85l.78-.63c-.76-1.75-2.25-2.63-4.49-2.63a5.44,5.44,0,0,0-2.29.46,3.61,3.61,0,0,0-1.51,1.24,2.87,2.87,0,0,0-.53,1.69,2.65,2.65,0,0,0,.42,1.53,3.08,3.08,0,0,0,1.39,1,12.47,12.47,0,0,0,2.65.71,7,7,0,0,1,2.78.9,1.75,1.75,0,0,1,.8,1.51,2,2,0,0,1-1,1.73A4.61,4.61,0,0,1,561,389a5,5,0,0,1-2.69-.68,3.23,3.23,0,0,1-1.45-2L556,387a3.84,3.84,0,0,0,1.75,2.1,6.29,6.29,0,0,0,3.16.74,6.22,6.22,0,0,0,2.33-.4,3.58,3.58,0,0,0,1.58-1.14,2.78,2.78,0,0,0,.56-1.7A2.51,2.51,0,0,0,564.44,384.53Z" transform="translate(192.25 -204.44)"/><polygon points="758.47 174.19 762.81 174.19 762.81 185.24 763.71 185.24 763.71 174.19 768.04 174.19 768.04 173.36 758.47 173.36 758.47 174.19"/><rect x="770.31" y="173.36" width="0.9" height="11.88"/><polygon points="782.77 173.36 779.24 182.56 778.61 184.39 777.98 182.56 774.47 173.36 773.5 173.36 778.09 185.24 779.15 185.24 783.72 173.36 782.77 173.36"/><path d="M596,377.79l-4.75,11.88h1L593.7,386h5.69l1.49,3.72h1l-4.75-11.88Zm-2,7.33,2.07-5.22.44-1.22h0l.44,1.26,2.07,5.18Z" transform="translate(192.25 -204.44)"/><polygon points="797.2 173.36 796.3 173.36 796.3 185.24 804.33 185.24 804.33 184.41 797.2 184.41 797.2 173.36"/><path d="M-135.83,356.27a12.19,12.19,0,0,1-4.68,6.66,14,14,0,0,1-8.16,2.34,14.21,14.21,0,0,1-7.83-2.13,13.88,13.88,0,0,1-5.16-6.12,22.19,22.19,0,0,1-1.83-9.39,22.08,22.08,0,0,1,1.86-9.4,13.89,13.89,0,0,1,5.25-6.11,14.39,14.39,0,0,1,7.83-2.14,13.48,13.48,0,0,1,7.83,2.11,11.91,11.91,0,0,1,4.41,6.3l2.94-1.38q-3.49-9.78-15.36-9.78a17.69,17.69,0,0,0-9.42,2.49,16.37,16.37,0,0,0-6.3,7.11,24.54,24.54,0,0,0-2.22,10.8,24.54,24.54,0,0,0,2.22,10.8,16.37,16.37,0,0,0,6.3,7.11,17.8,17.8,0,0,0,9.48,2.48,17.49,17.49,0,0,0,10-2.79,14.7,14.7,0,0,0,5.85-7.82Z" transform="translate(192.25 -204.44)"/><rect x="68.24" y="123.39" width="3" height="39.6"/><polygon points="111.32 154.77 111.44 159.75 108.44 154.41 87.5 123.39 83.72 123.39 83.72 162.99 86.6 162.99 86.6 131.61 86.42 126.63 86.48 126.63 89.42 131.91 110.42 162.99 114.14 162.99 114.14 123.39 111.32 123.39 111.32 154.77"/><polygon points="129.62 144.27 148.64 144.27 148.64 141.45 129.62 141.45 129.62 126.15 153.68 126.15 153.68 123.39 126.62 123.39 126.62 162.99 154.64 162.99 154.64 160.23 129.62 160.23 129.62 144.27"/><polygon points="183.74 153.45 181.82 159.45 181.76 159.45 179.78 153.39 167.84 123.39 163.34 123.39 163.34 162.99 166.22 162.99 166.22 133.47 165.86 126.27 165.92 126.27 180.38 162.99 183.14 162.99 197.6 126.27 197.66 126.27 197.3 133.47 197.3 162.99 200.18 162.99 200.18 123.39 195.68 123.39 183.74 153.45"/><path d="M31.14,327.83,15.3,367.43h3.18L23.4,355h19l5,12.42h3.18l-15.84-39.6Zm-6.6,24.42,6.9-17.4,1.44-4.08h.06l1.44,4.2,6.9,17.28Z" transform="translate(192.25 -204.44)"/><polygon points="295.1 160.23 270.08 160.23 270.08 144.27 289.1 144.27 289.1 141.45 270.08 141.45 270.08 126.15 294.13 126.15 294.13 123.39 267.08 123.39 267.08 162.99 295.1 162.99 295.1 160.23"/><path d="M138.09,332.12a14.41,14.41,0,0,1,7.83-2.14,13.46,13.46,0,0,1,7.83,2.11,11.86,11.86,0,0,1,4.41,6.3L161.1,337q-3.48-9.78-15.36-9.78a17.72,17.72,0,0,0-9.42,2.49,16.43,16.43,0,0,0-6.3,7.11,27.38,27.38,0,0,0,0,21.6,16.43,16.43,0,0,0,6.3,7.11A17.83,17.83,0,0,0,145.8,368a17.47,17.47,0,0,0,10-2.79,14.65,14.65,0,0,0,5.85-7.82l-3-1.14a12.14,12.14,0,0,1-4.68,6.66,14,14,0,0,1-8.16,2.34,14.21,14.21,0,0,1-7.83-2.13,13.94,13.94,0,0,1-5.16-6.12,22.35,22.35,0,0,1-1.83-9.39,22.08,22.08,0,0,1,1.86-9.4A14,14,0,0,1,138.09,332.12Z" transform="translate(192.25 -204.44)"/><path d="M195.87,329.72a20.1,20.1,0,0,0-19.38,0,16.35,16.35,0,0,0-6.33,7.08,27.53,27.53,0,0,0,0,21.66,16.4,16.4,0,0,0,6.33,7.08,20.17,20.17,0,0,0,19.38,0,16.4,16.4,0,0,0,6.33-7.08,27.53,27.53,0,0,0,0-21.66A16.35,16.35,0,0,0,195.87,329.72Zm3.6,27.3a13.74,13.74,0,0,1-5.25,6.12,14.89,14.89,0,0,1-8,2.13,14.74,14.74,0,0,1-8-2.13A13.81,13.81,0,0,1,173,357a25,25,0,0,1,0-18.79,13.83,13.83,0,0,1,5.22-6.11,14.75,14.75,0,0,1,8-2.14,14.9,14.9,0,0,1,8,2.14,13.77,13.77,0,0,1,5.25,6.11,25,25,0,0,1,0,18.79Z" transform="translate(192.25 -204.44)"/><polygon points="434.23 154.77 434.35 159.75 431.35 154.41 410.42 123.39 406.63 123.39 406.63 162.99 409.51 162.99 409.51 131.61 409.33 126.63 409.39 126.63 412.33 131.91 433.33 162.99 437.05 162.99 437.05 123.39 434.23 123.39 434.23 154.77"/><polygon points="477.01 141.45 452.54 141.45 452.54 123.39 449.54 123.39 449.54 162.99 452.54 162.99 452.54 144.27 477.01 144.27 477.01 162.99 480.01 162.99 480.01 123.39 477.01 123.39 477.01 141.45"/><polygon points="495.49 144.27 514.51 144.27 514.51 141.45 495.49 141.45 495.49 126.15 519.55 126.15 519.55 123.39 492.49 123.39 492.49 162.99 520.51 162.99 520.51 160.23 495.49 160.23 495.49 144.27"/><path d="M367.2,357.41l-3-1.14a12.14,12.14,0,0,1-4.68,6.66,14,14,0,0,1-8.16,2.34,14.21,14.21,0,0,1-7.83-2.13,13.94,13.94,0,0,1-5.16-6.12,22.35,22.35,0,0,1-1.83-9.39,22.08,22.08,0,0,1,1.86-9.4,14,14,0,0,1,5.25-6.11,14.41,14.41,0,0,1,7.83-2.14,13.46,13.46,0,0,1,7.83,2.11,11.86,11.86,0,0,1,4.41,6.3l2.94-1.38q-3.48-9.78-15.36-9.78a17.72,17.72,0,0,0-9.42,2.49,16.43,16.43,0,0,0-6.3,7.11,27.38,27.38,0,0,0,0,21.6,16.43,16.43,0,0,0,6.3,7.11,17.83,17.83,0,0,0,9.48,2.48,17.47,17.47,0,0,0,10-2.79A14.65,14.65,0,0,0,367.2,357.41Z" transform="translate(192.25 -204.44)"/><rect x="568.27" y="123.39" width="3" height="39.6"/><polygon points="604.15 153.45 602.23 159.45 602.17 159.45 600.19 153.39 588.25 123.39 583.75 123.39 583.75 162.99 586.63 162.99 586.63 133.47 586.27 126.27 586.33 126.27 600.79 162.99 603.55 162.99 618.01 126.27 618.07 126.27 617.71 133.47 617.71 162.99 620.59 162.99 620.59 123.39 616.09 123.39 604.15 153.45"/><polygon points="636.07 144.27 655.09 144.27 655.09 141.45 636.07 141.45 636.07 126.15 660.13 126.15 660.13 123.39 633.07 123.39 633.07 162.99 661.09 162.99 661.09 160.23 636.07 160.23 636.07 144.27"/><polygon points="697.39 154.77 697.51 159.75 694.51 154.41 673.57 123.39 669.79 123.39 669.79 162.99 672.67 162.99 672.67 131.61 672.49 126.63 672.55 126.63 675.49 131.91 696.49 162.99 700.21 162.99 700.21 123.39 697.39 123.39 697.39 154.77"/><polygon points="739.69 123.39 707.77 123.39 707.77 126.15 722.23 126.15 722.23 162.99 725.23 162.99 725.23 126.15 739.69 126.15 739.69 123.39"/><path d="M586.86,347.63a24.6,24.6,0,0,0-2.22-10.83,16.35,16.35,0,0,0-6.33-7.08,20.1,20.1,0,0,0-19.38,0,16.35,16.35,0,0,0-6.33,7.08,27.53,27.53,0,0,0,0,21.66,16.4,16.4,0,0,0,6.33,7.08,20.17,20.17,0,0,0,19.38,0,16.4,16.4,0,0,0,6.33-7.08A24.63,24.63,0,0,0,586.86,347.63Zm-5,9.39a13.74,13.74,0,0,1-5.25,6.12,14.89,14.89,0,0,1-8,2.13,14.74,14.74,0,0,1-8-2.13,13.81,13.81,0,0,1-5.22-6.12,25,25,0,0,1,0-18.79,13.83,13.83,0,0,1,5.22-6.11,14.75,14.75,0,0,1,8-2.14,14.9,14.9,0,0,1,8,2.14,13.77,13.77,0,0,1,5.25,6.11,25,25,0,0,1,0,18.79Z" transform="translate(192.25 -204.44)"/><polygon points="16.66 144.73 8.83 144.73 8.83 136.9 7.83 136.9 7.83 144.73 0 144.73 0 145.73 7.83 145.73 7.83 153.56 8.83 153.56 8.83 145.73 16.66 145.73 16.66 144.73"/><polygon points="796.8 144.73 796.8 136.9 795.8 136.9 795.8 144.73 787.97 144.73 787.97 145.73 795.8 145.73 795.8 153.56 796.8 153.56 796.8 145.73 804.63 145.73 804.63 144.73 796.8 144.73"/><path d="M-127,210.5l-.3,2.66-1-.06c-3-.2-5.72-.3-8.1-.3-.72,0-1.43,0-2.13,0a44.89,44.89,0,0,0-16.29,18.79q-6,12.58-6,29.42c0,.72,0,1.42,0,2.13,0,.33,0,.67,0,1,0,.18,0,.35,0,.53v.09l0,.58c0,.24,0,.48,0,.72a75.86,75.86,0,0,0,.91,8.2c.07.41.14.82.22,1.22a60.36,60.36,0,0,0,4,13.16c2-1.5,4.15-2.93,6.41-4.3.28-.17.56-.32.83-.49a58.36,58.36,0,0,1-3.56-16.2l-.09-1.35c-.11-1.72-.19-3.48-.19-5.29,0-1.18,0-2.33.08-3.47,0-.49.06-1,.09-1.46a56.82,56.82,0,0,1,4.9-20.65,38.14,38.14,0,0,1,14.3-16.67,39.28,39.28,0,0,1,21.33-5.8q12.67,0,20.82,5.41a60.2,60.2,0,0,1,10.47-2.25Q-91.55,205.49-112,205.47a49.63,49.63,0,0,0-21.67,4.65c1.78.06,3.64.16,5.59.3Z" transform="translate(192.25 -204.44)"/><path d="M-125.35,307.64a5.48,5.48,0,0,1-3.16-1,2.55,2.55,0,0,0-.07.56c0,1.74,1.62,3.59,4.83,5.49,3.37,2,8.26,3,14.55,3A52.2,52.2,0,0,0-89.86,312c.85-.41,1.69-.85,2.51-1.31.31-.17.61-.35.91-.53l1.18-.73c.2-.14.41-.27.62-.4l.23-.17a40.11,40.11,0,0,0,15.7-21.16l-8.17-3.1a38.22,38.22,0,0,1-3.33,7.78,5.5,5.5,0,0,1,2.37,1.3,5,5,0,0,1,1.7,3.79A4.78,4.78,0,0,1-77.59,301a5,5,0,0,1-3.62,1.4,4.84,4.84,0,0,1-4.51-2.91c-.48.46-1,.91-1.48,1.35-.35.29-.72.57-1.08.85s-.88.7-1.35,1l-.13.08c-.32.22-.65.41-1,.62-5.89,3.76-12.92,5.67-21.12,5.67a43,43,0,0,1-12.05-1.64A5.77,5.77,0,0,1-125.35,307.64Z" transform="translate(192.25 -204.44)"/><path d="M-76,234.83l2.71-1.27,3.09-1.45c-.18-.5-.38-1-.57-1.45s-.29-.74-.44-1.09a40.06,40.06,0,0,0-6.52-10.75,45.1,45.1,0,0,0-10.05,1.82,33.71,33.71,0,0,1,9.57,15.23Z" transform="translate(192.25 -204.44)"/><path d="M-137.75,309.76l.08.06c.32.19.66.36,1,.55a44.84,44.84,0,0,0,10.6,4.41,13.27,13.27,0,0,1-6-6.69c-.11-.31-.23-.63-.32-1s-.1-.45-.14-.68-.13-.7-.17-1.06-.08-.85-.08-1.29c0-.2,0-.4,0-.6l-.38-.22a38,38,0,0,1-14-16.67l-.14-.33-.13.08a71.29,71.29,0,0,0-7,4.72,44.75,44.75,0,0,0,15,17.55c.33.23.67.45,1,.67S-138,309.62-137.75,309.76Z" transform="translate(192.25 -204.44)"/><path d="M-39.54,228.12v-21h-8.17v27.71l0,0A44.25,44.25,0,0,1-39.54,228.12Z" transform="translate(192.25 -204.44)"/><path d="M-47.71,306.87V315h8.17v-39.8q-4,6.19-8.17,11.41Z" transform="translate(192.25 -204.44)"/><path d="M-39.54,233.6a51.55,51.55,0,0,0-4.8,4.3c-1.25,1.29-2.37,2.55-3.37,3.8v30c.71-1.05,6.76-9.89,8.17-11.76Z" transform="translate(192.25 -204.44)"/><path d="M-8.37,215.93h.16l.05.1c2.59-.59,5.17-1.11,7.72-1.53l-5-7.39h-10.3V218c2.47-.71,4.93-1.34,7.36-1.9Z" transform="translate(192.25 -204.44)"/><path d="M-15.73,257.33a60,60,0,0,0,7.85-8V232.93a96,96,0,0,0-7.85,8Z" transform="translate(192.25 -204.44)"/><path d="M-15.73,261.1v21.33c2.56-2.55,5.18-5.29,7.85-8.19V253.88a55.47,55.47,0,0,1-6.85,6.48C-15.06,260.62-15.4,260.85-15.73,261.1Z" transform="translate(192.25 -204.44)"/><path d="M-8.26,219.07c-2.52.65-5,1.4-7.47,2.23v12.82c1.28-1,2.6-2.05,4-3.07s2.57-1.87,3.83-2.74Z" transform="translate(192.25 -204.44)"/><path d="M-15.73,315h7.85v-36.7q-4,4.15-7.85,7.86Z" transform="translate(192.25 -204.44)"/><path d="M67.13,207.11H59.44v36.16c2.62-2.62,5.18-5.05,7.69-7.32Z" transform="translate(192.25 -204.44)"/><path d="M38,271.39l-.59-.87-.43-.64-.59-.87-8.88-13.16-1.65,7.46c-.29,1.34-.62,2.69-1,4.07l5.86,8.67.59.87.41.61.59.88L57,315H67.13V239.42c-2.47,2.32-5,4.87-7.69,7.62v45.53l.33,13.57L51.6,291.59Z" transform="translate(192.25 -204.44)"/><path d="M108.76,207.11H89.84v10.11A41.61,41.61,0,0,1,97.33,212,65.33,65.33,0,0,1,108.76,207.11Z" transform="translate(192.25 -204.44)"/><path d="M99.85,214.63h2.68a45.63,45.63,0,0,1,11.54-1.54,25.1,25.1,0,0,1,9,1.54h27c1.24-.68,2.52-1.34,3.85-2a91.43,91.43,0,0,1,9.66-4.15v-1.37h-44A52.32,52.32,0,0,0,99.85,214.63Z" transform="translate(192.25 -204.44)"/><path d="M98,295.86V273c-.76.76-1.5,1.54-2.23,2.35q-3.37,3.79-5.94,7.34v29.46a23.8,23.8,0,0,0,9,1.52,52.73,52.73,0,0,0,12.83-1.63l1.26-.33,1.58-.45,1.26-.41a66.61,66.61,0,0,0,8.42-3.41H98Z" transform="translate(192.25 -204.44)"/><path d="M98,215.9l-.29.21L98,216Z" transform="translate(192.25 -204.44)"/><path d="M159.51,214.63h4v-2.29Q161.56,213.36,159.51,214.63Z" transform="translate(192.25 -204.44)"/><path d="M143.35,259c0-.85-1.74-1.42-2.49-1.63a22.09,22.09,0,0,0-5.87-.85h-.33a11.24,11.24,0,0,0,7.32,3.11C143.35,259.63,143.35,259.22,143.35,259Z" transform="translate(192.25 -204.44)"/><path d="M144.66,261.4a4.87,4.87,0,0,1-2.75.84c-3.86,0-7.52-1.83-10.87-5.44A59.65,59.65,0,0,0,109.75,264h40.06V256.3h-5.25a3.25,3.25,0,0,1,1.55,2.63A2.89,2.89,0,0,1,144.66,261.4Z" transform="translate(192.25 -204.44)"/><path d="M185.74,315h7.84V273.89q-4,4.32-7.84,8.21Z" transform="translate(192.25 -204.44)"/><path d="M237.58,268.66c-1.87,2.25-3.76,4.56-5.7,7L258.46,315h10.13V235.69c-2.46,2.16-5,4.55-7.68,7.19v49.69l.32,13.57-8.17-14.55Z" transform="translate(192.25 -204.44)"/><path d="M268.59,207.11h-7.68v32.16q3.93-3.75,7.68-6.92Z" transform="translate(192.25 -204.44)"/><path d="M188.49,214.1a13,13,0,0,1-2.75,7.44v56.69q3.84-4,7.84-8.54V229.5l-.49-13.57h.16l8,14.38L212.55,247c2-2.47,3.9-4.8,5.68-7L196,207.11H185.74v1A7.27,7.27,0,0,1,188.49,214.1Z" transform="translate(192.25 -204.44)"/><path d="M293.62,231.54q-6,12.35-6,29.09c.41-.49.81-1,1.23-1.48,2.58-3,5.31-6,8.15-8.79a54,54,0,0,1,4.26-14.9,37.64,37.64,0,0,1,14.21-16.67c1-.63,2.06-1.19,3.13-1.73.42-.2.84-.41,1.26-.6s.81-.34,1.22-.51l1.28-.5A43.62,43.62,0,0,1,337.25,213a44.32,44.32,0,0,1,13.83,2.08,88.88,88.88,0,0,1,11.63-3.33c-7.26-4.16-15.74-6.27-25.46-6.27q-15.19,0-26.39,6.79c-.47.28-.91.59-1.36.89s-1.12.73-1.66,1.12c-.36.26-.7.53-1,.8-.51.4-1,.8-1.52,1.21A45.62,45.62,0,0,0,293.62,231.54Z" transform="translate(192.25 -204.44)"/><path d="M369.71,223.67a10.09,10.09,0,0,0-7-2.75l-.52,0a36.11,36.11,0,0,1,3.64,3.25c.64.65,1.24,1.33,1.83,2a39.7,39.7,0,0,1,4.95,7.57c.07-.85.12-1.69.12-2.51C372.73,228,371.74,225.49,369.71,223.67Z" transform="translate(192.25 -204.44)"/><path d="M380.57,241c-.6,0-1.49,0-2.65-.08l-.85,0-.3-2.63h3.28a21.36,21.36,0,0,0,3.43-.28,53.49,53.49,0,0,0-2.6-6.42A45,45,0,0,0,366,213.81a69,69,0,0,0-10.65,2.95q1.66.78,3.24,1.71a20.48,20.48,0,0,1,4.07-.46,13,13,0,0,1,8.73,3.41,11.9,11.9,0,0,1,3.94,9.41,37.27,37.27,0,0,1-.76,7.3A63.23,63.23,0,0,1,378.43,261q0,14.7-5,25.57a37.46,37.46,0,0,1-14.3,16.67q-9.31,5.81-21.9,5.8A41.7,41.7,0,0,1,319,305.23c-.35-.16-.71-.32-1.05-.5l-.47-.25-1-.56c-.37-.22-.75-.41-1.11-.64a37.59,37.59,0,0,1-14.21-16.67,58.69,58.69,0,0,1-4.92-22.3c-.71.93-1.42,1.87-2.12,2.81-2,2.69-3.81,5.25-5.46,7.71a58.82,58.82,0,0,0,4.9,15.7,44.78,44.78,0,0,0,15.27,18c.31.22.63.42.95.63l.51.33.51.34.46.25q11,6.51,25.93,6.53,15.19,0,26.39-6.78a44.67,44.67,0,0,0,17.24-19.29q6-12.5,6.05-29.49a74.63,74.63,0,0,0-2.63-20.38A21.74,21.74,0,0,1,380.57,241Z" transform="translate(192.25 -204.44)"/><path d="M434.31,286.62l-4.52-11.83q-2.66,3.13-5.89,6.76l4,10.43C430,290.28,432.16,288.5,434.31,286.62Z" transform="translate(192.25 -204.44)"/><path d="M479.53,208.62l2.1,2.31-6.2,6.26L457.48,264l-.92,2.4-.72,1.88-.91,2.38-7.66,20-5.72,16.67-5.72-16.67-.46-1.21q-3.22,2.84-6.27,5.32a5.47,5.47,0,0,1,.16.7l7,18.23a33.52,33.52,0,0,0,3.35.18,41.67,41.67,0,0,0,7.52-.72L464,269.39a39.15,39.15,0,0,1-.51-6.22c0-.52,0-1,0-1.52s0-1,.07-1.53.09-.8.13-1.19c.06-.57.13-1.14.22-1.69a29.11,29.11,0,0,1,5.57-13.31,21.21,21.21,0,0,1,6.49-5.76L488,207.11H479.3L478.21,210c.19-.2.38-.38.58-.57Z" transform="translate(192.25 -204.44)"/><path d="M410.91,247.93l9.82,25.4,4.57-6.4c.31-.44.65-.89,1-1.34l-7.67-20.09A30.78,30.78,0,0,1,410.91,247.93Z" transform="translate(192.25 -204.44)"/><path d="M528.77,207.11h-9.64l-1.87,4.66A47.9,47.9,0,0,1,529.14,208Z" transform="translate(192.25 -204.44)"/><path d="M489.38,303l.37-.93.21-.53.37-.94L496,286.25c-4.31,3.91-13,11.24-13,11.24l-.09.07-.18.45-.39,1L476,315h8.66Z" transform="translate(192.25 -204.44)"/><path d="M503.22,248.58l-.49-.48-17.68,44.21c3.48-2.9,7.85-6.76,13.06-11.55,2.89-2.65,5.43-5,7.65-7.14h-4.61l7.3-18.41A41.56,41.56,0,0,0,503.22,248.58Z" transform="translate(192.25 -204.44)"/><path d="M-147.2,263.06l-.89.82a162.92,162.92,0,0,0,38.77-8.94q21.07-7.49,32.08-16.05a51.82,51.82,0,0,0,5.62-5l-3.79,1.78c-.62.57-1.26,1.16-1.94,1.76Q-87.21,246-108,253.78A154.8,154.8,0,0,1-147.2,263.06Z" transform="translate(192.25 -204.44)"/><path d="M-120.92,298.17a6.26,6.26,0,0,1,.56.74q7-6.5,7-13.66a7.42,7.42,0,0,0-3-5.95,12.15,12.15,0,0,0-7.88-2.45q-9.88,0-22.81,7.45l-.87.52-.71.41c-2.31,1.4-4.48,2.85-6.51,4.37-.28.21-.54.43-.82.65A57.61,57.61,0,0,0-169.8,305l.52.3a60,60,0,0,1,13.5-14.53l.82-.64a74.92,74.92,0,0,1,6.94-4.66l.26-.14c.29-.18.58-.34.88-.51q12.88-7.39,22.58-7.4a12.13,12.13,0,0,1,7,2.16,6.7,6.7,0,0,1,3.16,5.81q0,5.74-6.24,12.22Z" transform="translate(192.25 -204.44)"/><path d="M-185,259q7.25,5.91,20.78,5.92c.61,0,1.43,0,2.42-.05,0-.2,0-.41,0-.61-1,0-1.89.06-2.55.06q-12.9,0-19.66-5.69t-6.75-11.95q0-10.95,13.74-22.9,13.11-11.38,38.18-11.91c.66,0,1.32,0,2,0h.45q3.65,0,8.17.29l.07-.67c-2.62-.19-5.09-.3-7.39-.35l-2,0h0q-24.9,0-39.77,9.79t-14.87,24.09Q-192.25,253-185,259Z" transform="translate(192.25 -204.44)"/><path d="M-161.66,267a85,85,0,0,0-8.66,10.25q-6.24,8.47-7.84,13.23a29,29,0,0,0-1.6,9.29,14.28,14.28,0,0,0,4.83,11.3q4.83,4.24,14.72,4.24t21.37-5l-.73-.48a55.62,55.62,0,0,1-21.53,4.77q-8.1,0-12.23-3.57t-4.13-8.12q0-10.43,16.79-27.68A75.65,75.65,0,0,1-161.66,267Z" transform="translate(192.25 -204.44)"/><path d="M-90.87,219.48a124.79,124.79,0,0,0-25.36,11.59,194.64,194.64,0,0,0-34.84,25.5c-.08,1.46-.14,2.94-.14,4.47s.05,2.91.13,4.32l1.28-1.3.89-.82,11.82-10.72a215.09,215.09,0,0,1,32-25,72.5,72.5,0,0,1,15.19-7.34l1.17-.37a46.28,46.28,0,0,1,10.16-2l1.25-.08c.61,0,1.22,0,1.82,0a9.48,9.48,0,0,1,5.69,1.64,4.72,4.72,0,0,1,2.27,3.87q0,2.85-2.55,6.46c.22.53.44,1.07.64,1.62,2.11-2.76,3.17-5.36,3.17-7.78a5.89,5.89,0,0,0-2.49-4.73,10.31,10.31,0,0,0-6.58-2c-.89,0-1.81,0-2.73.11l-1.3.1a57.57,57.57,0,0,0-10.32,2.06Z" transform="translate(192.25 -204.44)"/><path d="M-38.53,271.72c.77-1.25,1.55-2.52,2.32-3.82l.53-.89a201.43,201.43,0,0,1,19-26.43l1-1.14a92.35,92.35,0,0,1,7.85-7.86c.33-.3.67-.58,1-.87,1-.89,2.09-1.73,3.12-2.49l.89-.64-.58-1c-1.13.72-2.29,1.47-3.45,2.27l-1,.68c-1.09.76-2.17,1.53-3.28,2.36-1.59,1.18-3.11,2.37-4.57,3.55l-1,.83a93.44,93.44,0,0,0-10.11,9.61q-4.65,5.19-11.69,14.47l-1,1.33c-1.24,1.66-4.33,6.1-4.33,6.1-1.29,2-2.57,3.91-3.84,5.78-.33.49-.67,1-1,1.47q-15.81,22.92-29,31.67c-1.79,1.19-3.6,2.27-5.41,3.25l.14.12a14.59,14.59,0,0,0,2,1.19q3.65-1.53,7.43-3.45,12.77-6.43,24.78-21.54c.34-.42.68-.83,1-1.26q4.13-5.33,8.17-11.68Z" transform="translate(192.25 -204.44)"/><path d="M-84.73,312.75c-.19-.12-.39-.23-.58-.36-.37-.27-.72-.55-1.06-.83-1.08.5-2.17,1-3.26,1.41a52.94,52.94,0,0,1-19.57,3.77c-1.65,0-3.2-.07-4.66-.2a24.77,24.77,0,0,1-10.41-3c-3.54-2.1-5.32-4.22-5.32-6.35a4,4,0,0,1,.06-.55,7.29,7.29,0,0,1,.34-1.23l.07-.18c0-.12.08-.22.13-.35a1.45,1.45,0,0,0,.18.17,6.44,6.44,0,0,0,.81.69,4.52,4.52,0,0,0,2.65.85,4.72,4.72,0,0,0,1.47-.24,4.82,4.82,0,0,0,2-1.21,4.57,4.57,0,0,0,1.45-3.31,4.22,4.22,0,0,0-.24-1.32,4.45,4.45,0,0,0-.44-.94,5.86,5.86,0,0,0-.53-.73c-.12-.13-.22-.26-.35-.39a3.68,3.68,0,0,0-.38-.31,5,5,0,0,0-3.31-1.21,5.44,5.44,0,0,0-4.43,2.08,7.5,7.5,0,0,0-1.61,3.91,10,10,0,0,0-.09,1.12v0c0,.26,0,.5,0,.75s.06.74.12,1.09.09.46.14.69a8.51,8.51,0,0,0,.3,1A12.15,12.15,0,0,0-125.5,314a23.48,23.48,0,0,0,4.12,1.84,36.52,36.52,0,0,0,10.53,1.79c.68,0,1.37.05,2.08.05Q-97.68,317.64-84.73,312.75Z" transform="translate(192.25 -204.44)"/><path d="M-48.72,266.4v-.92a15.53,15.53,0,0,1-2.43-1.93,10.54,10.54,0,0,1-3.57-7.9q0-6.74,6-14.31c.33-.4.66-.81,1-1.22.82-1,1.69-1.94,2.65-2.92a51.38,51.38,0,0,1,5.52-4.88c.33-.26.67-.51,1-.76A80.78,80.78,0,0,1-18,221c.43-.16.86-.29,1.3-.44l1-.34c2.46-.82,4.93-1.56,7.43-2.2l1.12-.27c2.59-.63,5.21-1.17,7.86-1.6L1.79,216a109.52,109.52,0,0,1,16.49-1.26,73.27,73.27,0,0,1,7.66.45A86.08,86.08,0,0,0,6.83,221l-1.28.6-.92.43-.57-.84L1.31,217.1q-4,.65-8,1.59l3.59,6.45.49.88.54,1,.49.89,1.36,2.43,13.14,19.45.59.88.52.76.59.88,3.62,5.36q1.59-4.39,3.9-9.66l-1.9-2.81-.59-.88-.44-.65-.59-.87-13-19.26-.57-.84.9-.47a66.31,66.31,0,0,1,23.54-6.79V215a78.07,78.07,0,0,0-12-1,108.44,108.44,0,0,0-16.17,1.26l-1.11.16c-2.58.41-5.19.93-7.83,1.52l-.68.15c-2.44.56-4.91,1.21-7.4,1.93l-1,.29c-.72.22-1.44.41-2.16.64a82,82,0,0,0-19.64,8.71c-.34.21-.68.43-1,.66a42.2,42.2,0,0,0-7.41,6.17c-.26.27-.51.55-.76.82s-.68.77-1,1.15Q-56,246-56,254.15a13.52,13.52,0,0,0,3.46,9.25A13.06,13.06,0,0,0-48.72,266.4Z" transform="translate(192.25 -204.44)"/><path d="M-6.88,251.13A50.38,50.38,0,0,0-.53,240.91l-.67-.3a44.08,44.08,0,0,1-5.68,9.13c-.32.4-.67.8-1,1.2a61.79,61.79,0,0,1-7.44,7.37l-.41.33c-.33.28-.67.55-1,.81a33.7,33.7,0,0,1-17.68,7.44l-.55.89a35.86,35.86,0,0,0,18.23-7.18c.33-.25.67-.49,1-.75l.37-.28a54.06,54.06,0,0,0,7.48-7.24C-7.55,251.93-7.2,251.54-6.88,251.13Z" transform="translate(192.25 -204.44)"/><path d="M-15.73,284.74c2.58-2.48,5.19-5.13,7.85-7.92.33-.36.67-.7,1-1.06q9.78-10.38,20.27-23.53l-.53-.78Q9.13,256,4.92,261.09q-6.07,7.31-11.8,13.56l-1,1.08q-4,4.33-7.85,8.13l-1,1a145.34,145.34,0,0,1-20.56,17.09l-1.24.8v.7q3.16-2.07,6.4-4.51a179.3,179.3,0,0,0,15.4-13.23C-16.4,285.38-16.06,285.07-15.73,284.74Z" transform="translate(192.25 -204.44)"/><path d="M-87.33,295.92a9.49,9.49,0,0,0-2.42,5.61c.56-.4,1.11-.8,1.63-1.24.3-1.45,1-2.18,2.11-2.18l.21,0c.19,0,.38,0,.61.05a5.54,5.54,0,0,0,.21.54,3.91,3.91,0,0,0,3.77,2.66,4,4,0,0,0,2.92-1.12,3.78,3.78,0,0,0,1.15-2.82,4,4,0,0,0-1.38-3.05,4.65,4.65,0,0,0-2.23-1.15,4.64,4.64,0,0,0-1-.11h-.14A7.29,7.29,0,0,0-87.33,295.92Z" transform="translate(192.25 -204.44)"/><path d="M93.65,219.44c1.46-.65,2.92-1.23,4.36-1.74l1-.35a49.92,49.92,0,0,1,6.61-1.72,44.54,44.54,0,0,1,8.15-.79,23.88,23.88,0,0,1,6.2.79,20.19,20.19,0,0,1,4.57,1.82c3.17,1.73,4.76,3.47,4.76,5.2,0,.84-.3,1.26-.88,1.26a2.61,2.61,0,0,1-.92-.37,2.87,2.87,0,0,0-1.36-.37,3.63,3.63,0,0,0-2.5,1.08,3.43,3.43,0,0,0-1.18,2.64,3.17,3.17,0,0,0,1,2.34,3.4,3.4,0,0,0,2.45,1,4.33,4.33,0,0,0,3.42-1.64,5.79,5.79,0,0,0,1.42-3.88q0-4.41-4.8-7.51a18.29,18.29,0,0,0-3.09-1.57,20.26,20.26,0,0,0-3.42-1,26.5,26.5,0,0,0-5.42-.53,42.72,42.72,0,0,0-6.63.53,48,48,0,0,0-4.85,1q-1.77.47-3.57,1.08l-1,.35c-1,.35-2,.73-3,1.14C94.57,218.61,94.1,219,93.65,219.44Z" transform="translate(192.25 -204.44)"/><path d="M20.32,243.46l13.61-17.24.44.22A136.14,136.14,0,0,0,25.52,243c-.79,1.68-1.52,3.29-2.21,4.86-.17.37-.33.73-.48,1.09q-2.32,5.31-3.86,9.71c-.15.4-.28.8-.42,1.19-.27.81-.53,1.61-.76,2.37a229.85,229.85,0,0,0-5.16,22.6Q9.84,299.6,7.57,304.73A51.24,51.24,0,0,1,2,314.32l1,.74,19.69-26Q27,283.48,31,278.36l-.41-.61q-1.57,2-3.17,4.08L7,308.29l-.37-.14Q19,285.52,23.75,267.57c.12-.44.23-.87.34-1.31.27-1.06.52-2.12.75-3.17l1.86-8.38.05-.24.24-1.13Q32.72,226,41.66,216.18l-.6-.37a36.24,36.24,0,0,0-3.64,4.54q-5.68,7.85-17.53,22.47Z" transform="translate(192.25 -204.44)"/><path d="M-48.72,308.5q-12,5.75-22.41,5.74a23.26,23.26,0,0,1-9.85-1.9q-.6-.29-1.17-.6a16.36,16.36,0,0,1-1.39-.88l-.54-.42c-.14-.11-.29-.22-.42-.34l-1.16.74.31.24c.21.16.4.33.62.49.37.26.77.5,1.16.73a13.08,13.08,0,0,0,1.17.62,24.82,24.82,0,0,0,11,2.21q10.69,0,22.7-5.84Z" transform="translate(192.25 -204.44)"/><path d="M84.29,223.89a101,101,0,0,0-9.7,7q-3.16,2.56-6.46,5.54l-1,.9q-3.76,3.44-7.69,7.38l-1,1q-9.88,10-20.83,23.38l.43.64q11-13.32,20.4-23.09l1-1q4-4.1,7.69-7.53l1-.94c2.12-1.94,4.18-3.74,6.16-5.37a102.49,102.49,0,0,1,9.49-6.93C83.94,224.5,84.11,224.19,84.29,223.89Z" transform="translate(192.25 -204.44)"/><path d="M89.84,223.54v46.32a48.07,48.07,0,0,1,8.17-5.5V264h.75a95.36,95.36,0,0,1,21.43-7.68H98V218.78a62.67,62.67,0,0,0-6.53,2.81C90.89,222.24,90.35,222.89,89.84,223.54Z" transform="translate(192.25 -204.44)"/><path d="M88.83,246.58v-1.35q-4.6-4.23-4.61-9.4a20.61,20.61,0,0,1,4.61-12.66l.27-.33c.24-.31.48-.61.74-.92s.68-.78,1-1.17.76-.79,1.17-1.19q1.13-1.11,2.43-2.19Q96.1,216,98,214.68l0,0,0,0a50.16,50.16,0,0,1,16.7-7.52c1.52-.39,3.08-.73,4.68-1A79.07,79.07,0,0,1,133.21,205v-.52a81.85,81.85,0,0,0-16.81,1.66c-1.42.3-2.82.63-4.19,1a65.18,65.18,0,0,0-14.39,5.8,39.92,39.92,0,0,0-8,5.65c-.35.33-.68.66-1,1s-.66.71-1,1.07a24.92,24.92,0,0,0-1.65,2.1c-.23.32-.44.66-.65,1-.37.6-.71,1.2-1,1.82a20.43,20.43,0,0,0-2.1,9.16Q82.43,241.29,88.83,246.58Z" transform="translate(192.25 -204.44)"/><path d="M99,250.35v.9a42.15,42.15,0,0,0,8.69.84,99.55,99.55,0,0,0,19.05-2.35l-.15-.63a90.56,90.56,0,0,1-17.94,2.24A43.17,43.17,0,0,1,99,250.35Z" transform="translate(192.25 -204.44)"/><path d="M135.83,315h30.33v-7.51H130a80.81,80.81,0,0,1-10.56,4.91c-.52.2-1,.39-1.57.57l-1.61.54-1.49.46c-1.33.39-2.65.74-4,1h25.08Z" transform="translate(192.25 -204.44)"/><path d="M154.32,213.53c-.73.36-1.42.73-2.12,1.1s-1.28.66-1.9,1q-10.89,6-16.68,12.6-6.81,7.83-6.81,15.77a17,17,0,0,0,.82,4.9v.66a14.39,14.39,0,0,0,3.35,5.5l-1.21.23c-1.75.32-3.45.65-5.1,1A105.09,105.09,0,0,0,101,264c-1,.49-2,1-2.94,1.53a45,45,0,0,0-8.17,5.68l-.31.27c-.24.21-.46.44-.7.65q-11.67,11-11.68,23.84a19.38,19.38,0,0,0,5.39,13.42,16.46,16.46,0,0,0,6.29,4.2l1,.37a25.17,25.17,0,0,0,4.52,1,34.74,34.74,0,0,0,4.8.32,50,50,0,0,0,5.58-.32,55.76,55.76,0,0,0,8.69-1.7l1.41-.4,1.58-.5,1.44-.5a76.67,76.67,0,0,0,10-4.41c.62-.33,1.24-.66,1.86-1l1.71-1q16.76-9.81,16.76-21.64a8.91,8.91,0,0,0-3-6.65q-3-2.87-8.29-2.86-11.67,0-25.61,9A85.13,85.13,0,0,0,99,292.72v.71a81.36,81.36,0,0,1,12.67-9.78q13.94-8.81,25.46-8.81a10.14,10.14,0,0,1,7.28,2.53,8.3,8.3,0,0,1,2.68,6.32q0,11.52-16.24,21.26c-.87.52-1.74,1-2.6,1.49-.63.35-1.26.68-1.88,1a72.07,72.07,0,0,1-9.38,4.06l-1.37.45-1.6.49-1.31.37a53.74,53.74,0,0,1-13.94,1.87,25.15,25.15,0,0,1-9-1.44c-.35-.13-.68-.28-1-.43a15,15,0,0,1-3.2-1.92q-4.75-3.79-4.76-9,0-8.47,8-19.54l1-1.35c1.54-2.05,3.26-4.15,5.19-6.32q1.45-1.62,3-3.1c.34-.32.67-.65,1-1a55.89,55.89,0,0,1,7.16-5.65c.52-.34,1-.68,1.57-1A58.8,58.8,0,0,1,128,256.3c1.12-.21,2.26-.41,3.41-.57.18.2.36.38.54.57,3.12,3.27,6.43,4.93,9.95,4.93a3.91,3.91,0,0,0,2.19-.66,2,2,0,0,0,1-1.64c0-1-.85-1.85-2.55-2.63l-.33-.16a13.74,13.74,0,0,0-3.18-.85,33.72,33.72,0,0,0-5.4-.37l-1.84.07q-2-1.86-2.09-5.87l.08-.66q1.86-12.75,18.6-26.9a97.22,97.22,0,0,1,7.72-5.93c.51-.35,1-.68,1.51-1a58.88,58.88,0,0,1,5.92-3.43c.34-.16.67-.33,1-.48a30.66,30.66,0,0,1,13-3.31,11.55,11.55,0,0,1,6.68,1.74,5.47,5.47,0,0,1,.52.4,6.18,6.18,0,0,1,1,1,5.14,5.14,0,0,1,1,3.12,10.54,10.54,0,0,1-1,4.3,17.37,17.37,0,0,1-1,1.88q-3.47,5.58-12.92,12-14.62,9.87-41,16.33c0,.22-.06.45-.08.68q25.75-6.06,41.08-16.33,9.09-6.1,12.88-11.34c.37-.51.71-1,1-1.52a11.08,11.08,0,0,0,1.74-5.58,6.33,6.33,0,0,0-1.74-4.58,7,7,0,0,0-1-.86l-.08-.06a12.61,12.61,0,0,0-7.28-1.93,40,40,0,0,0-12.82,2.53l-1,.35A92,92,0,0,0,154.32,213.53Zm-19.33,42a22.64,22.64,0,0,1,5.7.79l.44.1c2.15.6,3.23,1.46,3.23,2.6s-.79,1.64-2.38,1.64c-3.09,0-6.1-1.46-9-4.34-.22-.22-.43-.41-.64-.64Q134.1,255.51,135,255.51Z" transform="translate(192.25 -204.44)"/><path d="M111.35,298.11a4.75,4.75,0,0,1,.81.07q1.11,3.19,4,3.2a4,4,0,0,0,2.92-1.12,3.77,3.77,0,0,0,1.14-2.82,4,4,0,0,0-1.37-3.05,4.64,4.64,0,0,0-3.23-1.26,7.29,7.29,0,0,0-5.58,2.79,9.48,9.48,0,0,0-2.45,6.5,10.65,10.65,0,0,0,.76,4H110a9.85,9.85,0,0,1-.93-4.24C109.06,299.47,109.83,298.11,111.35,298.11Z" transform="translate(192.25 -204.44)"/><path d="M325.79,223.91a2.61,2.61,0,0,1-.92-.37,2.87,2.87,0,0,0-1.36-.37,3.63,3.63,0,0,0-2.5,1.08,3.43,3.43,0,0,0-1.18,2.64,3.17,3.17,0,0,0,1,2.34,3.69,3.69,0,0,0,1.21.78,3.63,3.63,0,0,0,1.24.22,3,3,0,0,0,.31,0,4.34,4.34,0,0,0,3.11-1.61,7.11,7.11,0,0,0,.47-.65,5.61,5.61,0,0,0,.72-1.62,6.45,6.45,0,0,0,.22-1.61q0-4.41-4.79-7.51c-.35-.23-.72-.44-1.09-.64l-1.2.46c.29.14.57.28.84.43,3.17,1.73,4.76,3.47,4.76,5.2C326.67,223.49,326.37,223.91,325.79,223.91Z" transform="translate(192.25 -204.44)"/><path d="M236.56,267.15q-2.81,3.38-5.69,7l-.66.83c-1.78,2.23-3.57,4.51-5.39,6.87l-20.45,26.46-.37-.14q14-25.5,18.19-45.06h0l-4.85-7.19q-1.31,3.42-2.19,6.34a229.85,229.85,0,0,0-5.16,22.6q-2.79,14.76-5.06,19.89a51.24,51.24,0,0,1-5.54,9.59l1,.74,19.69-26q5.44-7.11,10.58-13.49l.66-.82c1.94-2.41,3.83-4.71,5.7-7l.67-.81q12.1-14.48,22.24-24.53c.34-.33.67-.67,1-1q4-3.92,7.68-7.12l1-.87c.69-.59,1.37-1.17,2-1.73q17.21-14.1,33.19-16.42c.36-.29.73-.57,1.1-.85q-16.26,2.09-34,16.39c-.78.63-1.56,1.29-2.35,1.95l-1,.87q-3.75,3.21-7.68,7l-1,1a321.34,321.34,0,0,0-22.67,24.72Z" transform="translate(192.25 -204.44)"/><path d="M212.47,248.7q-4.69,5.76-10.2,12.39c-2.61,3.15-5.17,6.13-7.68,9l-1,1.14q-4,4.5-7.84,8.48l-1,1q-13.29,13.65-24.66,21.2-3.78,2.51-7.43,4.5H154a111.59,111.59,0,0,0,11.24-7.51,188.82,188.82,0,0,0,19.5-17.23l1-1c2.57-2.61,5.19-5.35,7.84-8.26l1-1.11q8.63-9.54,17.81-21.15l.57-.72.65-.83,5.62-7.12.65-.83,11.39-14.44.45.22A136.14,136.14,0,0,0,222.88,243l-.56,1.23,3,4.51q5.49-23.58,13.66-32.58l-.6-.37a36.24,36.24,0,0,0-3.64,4.54q-5.13,7.08-15.29,19.7c-.22.27-.44.55-.67.82-1.78,2.22-3.67,4.55-5.68,7Z" transform="translate(192.25 -204.44)"/><path d="M217.78,254.77l4.72,7,.77,1.15,7,10.37q2.88-3.6,5.7-7l-10.15-15-.78-1.14-3.23-4.79-.66-1-1.33-2-5.62,7.12,2.89,4.27Z" transform="translate(192.25 -204.44)"/><path d="M323.48,300.29q-2.57,1.89-5,3.56l.49.23c1.82-1.26,3.7-2.6,5.63-4.05A174.44,174.44,0,0,0,360.24,265q10.75-14.43,13.29-26.71c.12-.61.24-1.21.33-1.81a35.13,35.13,0,0,0,.47-5.62,10.88,10.88,0,0,0-3.61-8.65,11.9,11.9,0,0,0-8.06-3.16,18.39,18.39,0,0,0-2.81.24c-.47.08-1,.17-1.43.28a40.17,40.17,0,0,0-11.52,4.9A47.12,47.12,0,0,0,331.65,239q-6.09,9.09-6.09,17.18a9.67,9.67,0,0,0,2.12,6.46,7.55,7.55,0,0,0,6.13,2.52q10.11,0,20.78-11.68a46.6,46.6,0,0,0,12-26.9c-.14-.17-.3-.32-.44-.49q-.5,7.58-5.16,16.85a44.14,44.14,0,0,1-12.77,15.69q-7.86,5.94-14.56,5.94a7.33,7.33,0,0,1-5.22-2,7.73,7.73,0,0,1-2.16-5.9q0-10.47,13-23.57,11-11.08,20.15-12.78c.5-.09,1-.16,1.48-.21a14.82,14.82,0,0,1,1.75-.11,11.17,11.17,0,0,1,7.67,3,10.64,10.64,0,0,1,3.35,8.36,33.65,33.65,0,0,1-.27,4.21c-.08.63-.18,1.26-.29,1.9q-2.34,13-14.34,28.5A179.86,179.86,0,0,1,323.48,300.29Z" transform="translate(192.25 -204.44)"/><path d="M308.84,309.69q-10.86,5.74-19,5.75a15.37,15.37,0,0,1-9.92-3.56,11.22,11.22,0,0,1-4.43-9.14q0-10,12.14-28.15c.26-.39.54-.79.81-1.18,1.5-2.21,3.13-4.5,4.9-6.89q1.42-1.92,2.9-3.8l1-1.24a168,168,0,0,1,36.3-34.37,97.76,97.76,0,0,1,19.08-10.41l1.41-.54A69.59,69.59,0,0,1,364.8,213l1.4-.28a60.21,60.21,0,0,1,10.8-1q8.78,0,14.58,3.71a13.44,13.44,0,0,1,3.81,3.59l.52-.43a14.46,14.46,0,0,0-3.66-3.45q-5.88-3.93-15.54-3.94a65.78,65.78,0,0,0-11.28,1l-1.43.26a86.38,86.38,0,0,0-11.43,3.1c-.5.17-1,.36-1.49.54a124.35,124.35,0,0,0-19.69,9.31c-.87.51-1.74,1-2.6,1.54a7,7,0,0,1-1.28,2.27,5.36,5.36,0,0,1-4.19,2,4.68,4.68,0,0,1-1.07-.14,157.78,157.78,0,0,0-24.33,19.72c-.39.38-.77.76-1.15,1.15q-3.75,3.79-7.19,7.83c-.68.8-1.34,1.59-2,2.38-.34.42-.66.83-1,1.24q-14.21,18-14.22,33.23a21.88,21.88,0,0,0,4.5,13.63q4.5,5.91,13.35,5.91,7.88,0,19.11-6.16Z" transform="translate(192.25 -204.44)"/><path d="M384.77,238.74c-.32.08-.65.13-1,.19a22.62,22.62,0,0,1-3.73.31H377.9l.07.66c1.14.06,2,.08,2.6.08a20.47,20.47,0,0,0,3.44-.29c.33-.05.66-.13,1-.2a18.59,18.59,0,0,0,3.77-1.27l.9-.44c.29-.15.57-.32.85-.48s.58-.33.87-.52.88-.59,1.31-.92q5.43-4.12,5.43-10.22a12.29,12.29,0,0,0-.75-4.3l-.59.5a12,12,0,0,1,.59,3.76,11.62,11.62,0,0,1-5.24,9.86c-.31.23-.64.44-1,.65l-.89.53c-.28.16-.55.32-.84.47s-.61.28-.92.41A19.25,19.25,0,0,1,384.77,238.74Z" transform="translate(192.25 -204.44)"/><path d="M399.16,217.51l.38,1,.37,1,9.37,24.24a35.23,35.23,0,0,0,7.77-2.29l-9.85-25.83-.37-1-.33-.87-.35-.94L404,207.11h-8.82l3.65,9.45Z" transform="translate(192.25 -204.44)"/><path d="M468.66,253.73c-.26.6-.51,1.22-.73,1.85s-.44,1.38-.61,2.1a27.5,27.5,0,0,0-.72,4.92l2.69-7,.94-2.43.7-1.83.93-2.41.28-.73a23.71,23.71,0,0,0-1.56,2.06A22.91,22.91,0,0,0,468.66,253.73Z" transform="translate(192.25 -204.44)"/><path d="M395.63,221.51l.77-.68.55-.45.81-.63c.3-.23.61-.45.92-.67l-.38-1c-.36.24-.7.49-1,.75s-.54.4-.8.61l-.52.42-.78.69q-6.27,5.7-6.28,13.24a11,11,0,0,0,.26,2.31c.3-.15.58-.31.86-.47a11,11,0,0,1-.23-2.26Q389.77,226.84,395.63,221.51Z" transform="translate(192.25 -204.44)"/><path d="M433.56,232.91l-.3-.45A66.25,66.25,0,0,1,418.34,242l-.92.39a36.28,36.28,0,0,1-7.77,2.31q-.51.09-1,.15a28,28,0,0,1-3.84.28,17.37,17.37,0,0,1-10.64-3.26,11.25,11.25,0,0,1-3.21-3.62c-.28.16-.56.32-.84.46a14.28,14.28,0,0,0,4.17,4.64,19.76,19.76,0,0,0,12.08,4,25.94,25.94,0,0,0,3.17-.2c.34,0,.68-.1,1-.16a29.64,29.64,0,0,0,7.72-2.4c.3-.14.6-.3.9-.45A52.65,52.65,0,0,0,433.56,232.91Z" transform="translate(192.25 -204.44)"/><path d="M428.72,293.74q3-2.5,6.27-5.34l.8-.71q8.55-7.62,18.27-17.59l.72-1.89q-10.59,10.86-17.32,17l-2,1.75-.8.71c-2.15,1.88-4.27,3.66-6.38,5.35l0,0,.08.12A4.82,4.82,0,0,1,428.72,293.74Z" transform="translate(192.25 -204.44)"/><path d="M536.07,281.14h13.62L563.25,315h8.66l-20.68-51.7-.42-1.05-2.3-5.74-.4-1-5.06-12.64-.39-1-.19-.48-.4-1-11.82-29.55a37.66,37.66,0,0,0-9.13,2.25,46.41,46.41,0,0,0-5.36,2.44l-11.67,29.18a45,45,0,0,1,5.7,7.15l10.15-25.61,3.93-11.11H524L528,226.55l7.72,19.32.39,1,.18.45.4,1,5.43,13.6.4,1,2.45,6.13.42,1.06,1.4,3.51h-4.37C540.16,276.23,538.05,278.75,536.07,281.14Z" transform="translate(192.25 -204.44)"/><path d="M485.23,236.93q-2,1.95-4.19,4.11l-1.71,1.71q-3.15,3.17-6.6,6.74l-.7,1.82q5.07-5.26,8.93-9.17l1.43-1.44c1.38-1.4,2.63-2.64,3.75-3.74.34-.32.66-.64,1-.94,1.14-1.1,2.13-2,3-2.79a164.79,164.79,0,0,1,15.72-12.67A84.68,84.68,0,0,1,515,214.8l1.36-.71a46.85,46.85,0,0,1,4.43-2,38.43,38.43,0,0,1,9.11-2.27l1-.11c.84-.07,1.67-.11,2.49-.11q5.43,0,8.44,2.27a6.55,6.55,0,0,1,3,5.31c0,1-.32,1.49-1,1.49a3.79,3.79,0,0,0-6.84,2.23,3.46,3.46,0,0,0,1.16,2.53,3.84,3.84,0,0,0,2.78,1.11,5.18,5.18,0,0,0,3.94-1.89,6.61,6.61,0,0,0,1.71-4.58,8.21,8.21,0,0,0-3.49-6.72q-3.5-2.71-9.74-2.72a23.64,23.64,0,0,0-2.85.19c-.34,0-.68.07-1,.13a46.88,46.88,0,0,0-12.18,3.84l-.62.3c-.45.21-.89.42-1.34.65a96.9,96.9,0,0,0-18.3,12.39q-4.68,3.89-10.83,9.79Z" transform="translate(192.25 -204.44)"/><path d="M416.08,303.12l.63-.43.89-.59.23-.15,1.52-1.06a5.35,5.35,0,0,1-.62-.77l-1.08.75-.25.16-.93.62-.69.46-.9.6a121.39,121.39,0,0,1-13.07,7.63,39.16,39.16,0,0,1-11.75,3.75l-.22-.59a318.69,318.69,0,0,0,28.22-27q2.47-2.69,4.68-5.15l.75-.85q3.25-3.64,5.89-6.78l.74-.88q3.93-4.71,6.41-8.22l6.76-9.5q10.56-14.72,16.55-22.18a183.38,183.38,0,0,1,12.75-14.3l2-2,1.76-1.78,3.91-3.95-.74-.81q-1.1,1.09-2.16,2.13c-.57.55-1.13,1.08-1.7,1.61q-17.49,16.38-30.71,16.4a5.63,5.63,0,0,1-3.05-.74,2.18,2.18,0,0,1-1.19-1.86,7.69,7.69,0,0,1,.71-2.19,7.9,7.9,0,0,0,.71-3q0-3.72-5.65-7.59T421.74,211a41.84,41.84,0,0,0-14.29,2.43l.31.83a37.11,37.11,0,0,1,13.46-2.52,27.18,27.18,0,0,1,11.48,2.19q4.73,2.21,4.72,4.5a6.68,6.68,0,0,1-1.08,2.42,7,7,0,0,0-1.07,3.53q0,2.38,2.56,4.57a10.47,10.47,0,0,0,7,2.19q10.26,0,23.71-10l.37.29L440.1,251.09a171,171,0,0,0-12.68,14.65c-.25.33-.48.65-.71,1l-.59.8-5,6.94-.7,1-5.12,7.16q-9.58,13.31-15.54,20.06a85.66,85.66,0,0,1-12.26,11.59l.67,1q11.44-1.5,27-11.58Z" transform="translate(192.25 -204.44)"/><path d="M535.26,299.82c-5.29,4.41-11.87,6.91-19.7,7.55l-.51.72c8.5-.81,15.43-3.37,20.73-7.75Z" transform="translate(192.25 -204.44)"/><path d="M490.87,302l-.21.55a60.37,60.37,0,0,0,14.37,4.6l.4-.56a54.31,54.31,0,0,1-12.1-3.52C492.47,302.69,491.66,302.33,490.87,302Z" transform="translate(192.25 -204.44)"/><path d="M543.47,241.15a207.41,207.41,0,0,1,22.42-16.59q19.49-12.09,33.9-13.43l.15.52q-15.09,8.17-42.45,35.61-4.2,4.2-8.21,8.41l2.27,5.69q18.15-20.79,30.84-32.3l20.9-19a58.49,58.49,0,0,0-20.11,4.79,139.4,139.4,0,0,0-23.91,13.35,200.88,200.88,0,0,0-16,12.44Z" transform="translate(192.25 -204.44)"/><path d="M535.26,247.56q-8.58,7.51-19.32,17.44l.21.78q10.29-9.87,19.29-17.76Z" transform="translate(192.25 -204.44)"/><path d="M509.57,255.11a44,44,0,0,1,4.95,11.2l.22.72a42.81,42.81,0,0,1,.83,5.58h.76a30.24,30.24,0,0,0-1.14-6.92A58.91,58.91,0,0,0,510,254c-.22-.36-.45-.7-.67-1a43.66,43.66,0,0,0-5.65-7.27c-.25-.27-.5-.55-.76-.8l-.07-.08q-7-6.85-15.38-7.77c-1,1-2.12,2.08-3.34,3.31a22.16,22.16,0,0,1,3.3-.26q8,0,14.92,6.23l.79.73c.27.26.54.53.8.8a42.7,42.7,0,0,1,5,6.16C509.14,254.39,509.35,254.75,509.57,255.11Z" transform="translate(192.25 -204.44)"/><path d="M418.39,295.28a9.71,9.71,0,0,0,.7,3.37,5.39,5.39,0,0,0,.49.89,4.15,4.15,0,0,0,.64.74,4,4,0,0,0,.88.6,5.06,5.06,0,0,0,2.27.5A4.86,4.86,0,0,0,426.9,300a4.58,4.58,0,0,0,1.45-3.42,6.69,6.69,0,0,0-.08-.91c0-.07,0-.15,0-.22a5.13,5.13,0,0,0-.32-1,6.4,6.4,0,0,0-.43-.76v0a6.15,6.15,0,0,0-.61-.76,3,3,0,0,0-.23-.27,5.73,5.73,0,0,0-4.16-1.67,6.76,6.76,0,0,0-4.87,2.19,8.19,8.19,0,0,0-2.19,6.06,11.88,11.88,0,0,0,.15,1.9l.78-.53c0-.19,0-.38,0-.57a7.29,7.29,0,0,1,1.78-4.74Z" transform="translate(192.25 -204.44)"/><path d="M446.47,314.92c.38-.06.77-.15,1.16-.22q16.33-3.1,34-17.44s1.56-1.19,2-1.59q6.15-5.13,13.16-11.54l1.71-1.58.44-.41,1.08-1q3.84-3.58,7.92-7.52l1-1c1.58-1.53,3.18-3.1,4.82-4.71,0-.23-.11-.47-.17-.72-1.41,1.49-3.21,3.29-5.43,5.43l-1,1q-3.45,3.28-8,7.52l-.4.36-1.39,1.27q-8,7.34-13.13,11.48l-1.59,1.27c-.35.27-11.83,9.2-19.9,13.25A58.64,58.64,0,0,1,447.9,314c-.39.08-.77.13-1.15.19a42.2,42.2,0,0,1-7.1.64c-1,0-2-.06-2.94-.14l-1.12-.1a28.86,28.86,0,0,1-12.22-4.21c-3.18-2-5.26-4.25-6.29-6.73l-.65.43a15.9,15.9,0,0,0,6.24,6.81,28.65,28.65,0,0,0,13.25,4.54c.91.08,1.83.14,2.77.14a47,47,0,0,0,7.52-.62Z" transform="translate(192.25 -204.44)"/><path d="M473.09,245.75a18.69,18.69,0,0,1,1.61-1.38,20,20,0,0,1,4.08-2.49c1.73-1.73,3.39-3.38,5-4.93a16.8,16.8,0,0,0-6.95,1.91c-.48.25-.94.53-1.4.83a21.12,21.12,0,0,0-5.1,4.85,27.78,27.78,0,0,0-5.11,11.36c-.12.6-.24,1.2-.33,1.82-.06.39-.1.8-.14,1.2s-.13,1.08-.17,1.64c-.05.85-.09,1.72-.09,2.61a38.47,38.47,0,0,0,.25,4.3c.08.68.18,1.36.29,2q2.39,14,15.38,26.54l.53-.42q-13.87-12.88-15.24-27.86c-.07-.81-.12-1.62-.14-2.44,0-.29,0-.58,0-.87a30.32,30.32,0,0,1,.47-5.4c.11-.63.23-1.25.39-1.86s.3-1.05.47-1.57a22.32,22.32,0,0,1,.93-2.44,23.26,23.26,0,0,1,4-6.15C472.22,246.58,472.65,246.16,473.09,245.75Z" transform="translate(192.25 -204.44)"/><path d="M534.76,281.14q3-3.58,6.29-7.52l.85-1,2.28-2.69-2.46-6.18q-4.07,4.44-7.93,8.87l-.88,1q-3.25,3.76-6.38,7.52l-.83,1q-8.13,9.87-15.27,19.69l-.59-.3a79,79,0,0,0,6-19.39h-.67q-1.51,10.5-7.69,22.86a24.73,24.73,0,0,1-2,3.31L501.43,314h8.11l4.76-6.54q5.93-8.78,19.63-25.34Z" transform="translate(192.25 -204.44)"/><path d="M515.35,281.14h9.9q3.11-3.76,6.36-7.52H509.46q-4.05,3.93-7.89,7.52h13.78Z" transform="translate(192.25 -204.44)"/></svg>