<svg id="Layer_1" data-name="Layer 1" xmlns="http://www.w3.org/2000/svg" viewBox="0 0 1918.86 912.97"><polygon points="59.85 898.47 72.18 889.5 56.94 889.5 52.22 875 47.51 889.5 32.26 889.5 42.96 897.27 0 897.27 0 902.03 43.44 902.03 39.89 912.97 51.86 904.27 51.86 906.79 56.06 906.79 64.56 912.97 62.55 906.79 103.72 906.79 103.72 902.03 61.01 902.03 59.85 898.47"/><polygon points="1420.66 898.47 1433 889.5 1417.75 889.5 1413.04 875 1408.32 889.5 1393.08 889.5 1405.41 898.47 1404.25 902.03 1400.25 902.03 1400.25 906.79 1402.71 906.79 1400.7 912.97 1409.19 906.79 1416.88 906.79 1425.37 912.97 1423.37 906.79 1452.11 906.79 1452.11 902.03 1421.82 902.03 1420.66 898.47"/><polygon points="513.45 898.47 525.79 889.5 510.54 889.5 505.83 875 501.12 889.5 485.87 889.5 498.2 898.47 497.04 902.03 466.75 902.03 466.75 906.79 495.5 906.79 493.49 912.97 501.99 906.79 509.67 906.79 518.16 912.97 516.16 906.79 518.61 906.79 518.61 902.03 514.61 902.03 513.45 898.47"/><rect x="155.58" y="902.03" width="51.86" height="4.76"/><rect x="259.31" y="902.03" width="51.86" height="4.76"/><rect x="363.03" y="902.03" width="51.86" height="4.76"/><rect x="570.47" y="902.03" width="51.86" height="4.76"/><rect x="674.2" y="902.03" width="51.86" height="4.76"/><rect x="777.92" y="902.03" width="51.86" height="4.76"/><rect x="881.64" y="902.03" width="51.86" height="4.76"/><rect x="985.36" y="902.03" width="51.86" height="4.76"/><rect x="1089.08" y="902.03" width="51.86" height="4.76"/><rect x="1192.81" y="902.03" width="51.86" height="4.76"/><rect x="1296.53" y="902.03" width="51.86" height="4.76"/><rect x="1503.97" y="902.03" width="51.86" height="4.76"/><rect x="1607.7" y="902.03" width="51.86" height="4.76"/><rect x="1711.42" y="902.03" width="51.86" height="4.76"/><polygon points="1856.31 906.79 1854.31 912.97 1862.8 906.79 1867 906.79 1867 904.27 1878.98 912.97 1875.42 902.03 1918.86 902.03 1918.86 897.27 1875.9 897.27 1886.6 889.5 1871.35 889.5 1866.64 875 1861.93 889.5 1846.68 889.5 1859.02 898.47 1857.86 902.03 1815.14 902.03 1815.14 906.79 1856.31 906.79"/><rect x="103.72" y="897.28" width="51.86" height="4.76"/><rect x="207.44" y="897.28" width="51.86" height="4.76"/><rect x="311.17" y="897.28" width="51.86" height="4.76"/><rect x="414.89" y="897.28" width="51.86" height="4.76"/><rect x="518.61" y="897.28" width="51.86" height="4.76"/><rect x="622.33" y="897.28" width="51.86" height="4.76"/><rect x="726.06" y="897.28" width="51.86" height="4.76"/><rect x="829.78" y="897.28" width="51.86" height="4.76"/><polygon points="968.69 897.27 979.39 889.5 964.14 889.5 959.43 875 954.72 889.5 939.47 889.5 950.17 897.27 933.5 897.27 933.5 902.03 950.65 902.03 947.1 912.97 959.43 904 971.77 912.97 968.22 902.03 985.36 902.03 985.36 897.27 968.69 897.27"/><rect x="1037.22" y="897.28" width="51.86" height="4.76"/><rect x="1140.95" y="897.28" width="51.86" height="4.76"/><rect x="1244.67" y="897.28" width="51.86" height="4.76"/><rect x="1348.39" y="897.28" width="51.86" height="4.76"/><rect x="1452.11" y="897.28" width="51.86" height="4.76"/><rect x="1555.84" y="897.28" width="51.86" height="4.76"/><rect x="1659.56" y="897.28" width="51.86" height="4.76"/><rect x="1763.28" y="897.28" width="51.86" height="4.76"/><polygon points="29.34 571.36 58.67 571.36 58.67 666.88 88 666.88 88 730.57 88 762.41 231.01 762.41 231.01 730.57 99.01 730.57 99.01 666.88 91.67 666.88 91.67 571.36 84.34 571.36 84.34 475.83 77 475.83 77 380.31 84.34 380.31 84.34 284.78 91.67 284.78 91.67 189.26 99.01 189.26 99.01 125.57 231.01 125.57 231.01 93.73 99.01 93.73 88 93.73 88 125.57 88 189.26 58.67 189.26 58.67 284.78 29.34 284.78 29.34 380.31 0 380.31 0 475.83 29.34 475.83 29.34 571.36"/><polygon points="493.24 666.88 504.24 666.88 504.24 571.36 515.25 571.36 515.25 475.83 526.25 475.83 526.25 380.31 537.25 380.31 537.25 284.78 548.25 284.78 548.25 189.26 559.25 189.26 559.25 189.26 570.25 189.26 570.25 93.73 559.25 93.73 559.25 93.73 482.24 93.73 482.24 189.26 482.24 284.78 482.24 380.31 482.24 380.31 482.24 475.83 482.24 571.36 482.24 666.88 482.24 762.41 493.24 762.41 493.24 666.88"/><polygon points="581.25 284.78 581.25 380.31 592.25 380.31 592.25 284.78 581.25 284.78 581.25 189.26 570.25 189.26 570.25 284.78 581.25 284.78"/><polygon points="603.25 475.83 603.25 380.31 592.25 380.31 592.25 475.83 603.25 475.83 603.25 571.36 614.25 571.36 614.25 475.83 603.25 475.83"/><rect x="614.25" y="571.36" width="11" height="95.53"/><polygon points="625.25 762.41 636.25 762.41 713.26 762.41 713.26 666.88 713.26 571.36 713.26 475.83 713.26 380.31 713.26 380.31 713.26 284.78 713.26 189.26 713.26 93.73 702.26 93.73 702.26 189.26 691.25 189.26 691.25 284.78 680.25 284.78 680.25 380.31 669.25 380.31 669.25 475.83 658.25 475.83 658.25 571.36 647.25 571.36 647.25 666.88 636.25 666.88 625.25 666.88 625.25 762.41"/><path d="M815.84,609.52h29.33v95.53h29.34v95.52h55V705.05h29.33V609.52h29.34V514h29.33V418.47H988.18V322.94H958.84V227.42H929.51V131.89h-55v95.53H845.17v95.52H815.84v95.53H786.5V514h29.34Zm47.66-191h7.34V322.94h7.33V227.42h7.34V163.74h33v63.68h7.33v95.52h7.34v95.53h7.33V514h-7.33v95.52h-7.34v95.53h-7.33v63.68h-33V705.05h-7.34V609.52h-7.33V514H863.5Z" transform="translate(419.11 -38.16)"/><polygon points="1465.06 284.78 1483.4 284.78 1483.4 380.31 1501.73 380.31 1501.73 475.83 1520.07 475.83 1520.07 571.36 1538.4 571.36 1538.4 666.88 1556.73 666.88 1556.73 762.41 1567.74 762.41 1633.74 762.41 1633.74 666.88 1641.07 666.88 1641.07 571.36 1648.41 571.36 1648.41 475.83 1655.74 475.83 1655.74 380.31 1663.08 380.31 1663.08 284.78 1670.41 284.78 1670.41 189.26 1677.74 189.26 1677.74 93.73 1666.74 93.73 1666.74 189.26 1648.41 189.26 1648.41 284.78 1630.07 284.78 1630.07 380.31 1611.74 380.31 1611.74 475.83 1593.4 475.83 1593.4 571.36 1575.07 571.36 1575.07 666.88 1567.74 666.88 1560.4 666.88 1560.4 571.36 1553.07 571.36 1553.07 475.83 1545.73 475.83 1545.73 380.31 1538.4 380.31 1538.4 284.78 1531.07 284.78 1531.07 189.26 1523.73 189.26 1523.73 93.73 1446.73 93.73 1446.73 189.26 1465.06 189.26 1465.06 284.78"/><path d="M1268.74,800.57h77V705.05h7.33V609.52h7.34V514h7.33V482.15h33V514h7.33v95.52h7.34v95.53h7.33v95.52h77V705.05h-18.34V609.52h-18.33V514h-18.34V418.47h-18.33V322.94h-18.34V227.42h-18.33V131.89h-11v95.53h-18.33v95.52h-18.34v95.53h-18.33V514h-18.34v95.52h-18.33v95.53h-18.34Zm99-382.1h7.33V322.94h7.34V227.42h3.66v95.52h7.34v95.53h7.33v31.84h-33Z" transform="translate(419.11 -38.16)"/><polygon points="975.49 666.88 986.49 666.88 986.49 571.36 997.49 571.36 997.49 475.83 1008.49 475.83 1008.49 380.31 1019.49 380.31 1019.49 284.78 1030.49 284.78 1030.49 189.26 1041.49 189.26 1041.49 189.26 1052.49 189.26 1052.49 93.73 1041.49 93.73 1041.49 93.73 964.49 93.73 964.49 189.26 964.49 284.78 964.49 380.31 964.49 380.31 964.49 475.83 964.49 571.36 964.49 666.88 964.49 762.41 975.49 762.41 975.49 666.88"/><polygon points="1063.49 284.78 1063.49 380.31 1074.49 380.31 1074.49 284.78 1063.49 284.78 1063.49 189.26 1052.49 189.26 1052.49 284.78 1063.49 284.78"/><polygon points="1074.49 380.31 1074.49 475.83 1085.49 475.83 1085.49 571.36 1096.49 571.36 1096.49 475.83 1085.49 475.83 1085.49 380.31 1074.49 380.31"/><rect x="1096.49" y="571.36" width="11" height="95.53"/><polygon points="1118.49 762.41 1195.5 762.41 1195.5 666.88 1195.5 571.36 1195.5 475.83 1195.5 380.31 1195.5 380.31 1195.5 284.78 1195.5 189.26 1195.5 93.73 1184.5 93.73 1184.5 189.26 1173.5 189.26 1173.5 284.78 1162.5 284.78 1162.5 380.31 1151.5 380.31 1151.5 475.83 1140.5 475.83 1140.5 571.36 1129.5 571.36 1129.5 666.88 1118.49 666.88 1107.49 666.88 1107.49 762.41 1118.49 762.41"/><polygon points="752.7 571.36 782.03 571.36 782.03 666.88 811.37 666.88 811.37 762.41 822.37 762.41 954.38 762.41 954.38 730.57 822.37 730.57 822.37 666.88 815.04 666.88 815.04 571.36 807.7 571.36 807.7 475.83 800.37 475.83 800.37 443.99 954.38 443.99 954.38 412.15 800.37 412.15 800.37 380.31 807.7 380.31 807.7 284.78 815.04 284.78 815.04 189.26 822.37 189.26 822.37 125.57 954.38 125.57 954.38 93.73 822.37 93.73 811.37 93.73 811.37 189.26 782.03 189.26 782.03 284.78 752.7 284.78 752.7 380.31 723.37 380.31 723.37 475.83 752.7 475.83 752.7 571.36"/><polygon points="373.13 380.31 373.13 284.78 384.13 284.78 384.13 189.26 395.13 189.26 395.13 125.57 472.13 125.57 472.13 93.73 395.13 93.73 395.13 93.73 318.13 93.73 318.13 93.73 241.12 93.73 241.12 125.57 318.13 125.57 318.13 189.26 329.13 189.26 329.13 284.78 340.13 284.78 340.13 380.31 351.13 380.31 351.13 475.83 340.13 475.83 340.13 571.36 329.13 571.36 329.13 666.88 318.13 666.88 318.13 730.57 241.12 730.57 241.12 762.41 472.13 762.41 472.13 730.57 395.13 730.57 395.13 666.88 384.13 666.88 384.13 571.36 373.13 571.36 373.13 475.83 362.13 475.83 362.13 380.31 373.13 380.31"/><path d="M545.56,806.54v40.05h4V830H557c8.86,0,14.56-3.85,14.56-12,0-8.51-5.66-11.47-14.56-11.47Zm22,11.47c0,6.13-3.64,8.78-11.2,8.78h-6.87v-17h6.87C563.91,809.79,567.59,811.79,567.59,818Z" transform="translate(419.11 -38.16)"/><path d="M578.5,826.4c0,12.94,6.29,20.92,15.17,20.92s15.18-8,15.18-20.92-6.29-20.59-15.18-20.59S578.5,813.58,578.5,826.4Zm26.22,0c0,10.72-4.44,17.39-11.05,17.39s-11-6.67-11-17.39,4.44-17.06,11-17.06S604.72,815.8,604.72,826.4Z" transform="translate(419.11 -38.16)"/><path d="M644.12,817.48c0-8-5.58-10.94-13.61-10.94h-12v40.05h4V828.94h7.79l10.23,17.65h4.53l-10.59-18C640.32,827.47,644.12,823.78,644.12,817.48Zm-14.34,8.2h-7.25V809.79h7.25c6.65,0,10.33,2.05,10.33,7.69S636.43,825.68,629.78,825.68Z" transform="translate(419.11 -38.16)"/><polygon points="1087.85 808.43 1087.85 771.75 1101.45 771.75 1101.45 768.38 1070.29 768.38 1070.29 771.75 1083.89 771.75 1083.89 808.43 1087.85 808.43"/><path d="M690.13,806.54v25c0,11.8,5.91,15.79,13.21,15.79s13.14-4,13.14-15.79v-25h-3.8v24.89c0,9.26-4.19,12.36-9.34,12.36s-9.21-3.1-9.21-12.36V806.54Z" transform="translate(419.11 -38.16)"/><path d="M742.51,809.34a10.93,10.93,0,0,1,8.54,3.84l2.31-2.54a14.42,14.42,0,0,0-10.85-4.83c-10.36,0-17.53,7.88-17.53,20.71s7,20.8,17,20.8a16.15,16.15,0,0,0,11.79-4.59V826.37H741.46v3.29h8.59v11.46c-1.67,1.68-4.62,2.67-7.8,2.67-8.28,0-13.11-6.74-13.11-17.35S734.33,809.34,742.51,809.34Z" transform="translate(419.11 -38.16)"/><path d="M760.43,846.59h4l4.26-13h15.19l4.2,13h4.24l-13.8-40.05h-4.34ZM776.48,810c1.3,4.76,2.69,9.06,4.2,13.66l2.19,6.76H769.8l2.23-6.76c1.51-4.6,2.86-8.9,4.2-13.66Z" transform="translate(419.11 -38.16)"/><polygon points="1222.42 768.38 1222.42 808.43 1246.66 808.43 1246.66 805.05 1226.3 805.05 1226.3 768.38 1222.42 768.38"/><polygon points="1317.24 771.75 1317.24 768.38 1293.02 768.38 1293.02 771.75 1303.15 771.75 1303.15 805.05 1293.02 805.05 1293.02 808.43 1317.24 808.43 1317.24 805.05 1307.11 805.05 1307.11 771.75 1317.24 771.75"/><path d="M917,819.85l14.21,26.74h4.3V806.54h-3.77v22.68c0,4,.38,8.25.52,12.16h-.12l-4.06-8.1-14.22-26.74H909.6v40.05h3.76V823.7c0-4-.37-8-.51-12H913Z" transform="translate(419.11 -38.16)"/><polygon points="1380.2 808.43 1380.2 771.75 1393.8 771.75 1393.8 768.38 1362.64 768.38 1362.64 771.75 1376.24 771.75 1376.24 808.43 1380.2 808.43"/><polygon points="1428.08 771.75 1428.08 768.38 1403.83 768.38 1403.83 808.43 1428.68 808.43 1428.68 805.05 1407.8 805.05 1407.8 788.96 1424.9 788.96 1424.9 785.59 1407.8 785.59 1407.8 771.75 1428.08 771.75"/><path d="M1024.51,828.94h7.79l10.23,17.65h4.53l-10.58-18c5.83-1.11,9.62-4.8,9.62-11.1,0-8-5.58-10.94-13.61-10.94h-12v40.05h4Zm0-19.15h7.25c6.65,0,10.33,2.05,10.33,7.69s-3.68,8.2-10.33,8.2h-7.25Z" transform="translate(419.11 -38.16)"/><path d="M1081.92,831.53v-25h-3.81v24.89c0,9.26-4.18,12.36-9.33,12.36s-9.21-3.1-9.21-12.36V806.54h-4v25c0,11.8,5.91,15.79,13.21,15.79S1081.92,843.33,1081.92,831.53Z" transform="translate(419.11 -38.16)"/><path d="M1118.26,846.59V806.54h-3.77v22.68c0,4,.38,8.25.52,12.16h-.13l-4.05-8.1-14.22-26.74h-4.29v40.05h3.76V823.7c0-4-.37-8-.51-12h.12l4.06,8.11L1114,846.59Z" transform="translate(419.11 -38.16)"/><polygon points="1573.05 771.75 1573.05 768.38 1548.83 768.38 1548.83 771.75 1558.96 771.75 1558.96 805.05 1548.83 805.05 1548.83 808.43 1573.05 808.43 1573.05 805.05 1562.92 805.05 1562.92 771.75 1573.05 771.75"/><path d="M1189.54,806.54,1182.63,829c-1.42,4.81-2.48,8.58-4,13.32h-.25c-1.55-4.74-2.57-8.51-4-13.32l-6.91-22.49h-4.24l13,40.05h4.51l12.89-40.05Z" transform="translate(419.11 -38.16)"/><polygon points="1647.95 805.05 1627.06 805.05 1627.06 788.96 1644.16 788.96 1644.16 785.59 1627.06 785.59 1627.06 771.75 1647.34 771.75 1647.34 768.38 1623.1 768.38 1623.1 808.43 1647.95 808.43 1647.95 805.05"/><path d="M1239.77,806.54v40.05h4V828.94h7.78l10.24,17.65h4.52l-10.58-18c5.83-1.11,9.62-4.8,9.62-11.1,0-8-5.57-10.94-13.61-10.94Zm21.58,10.94c0,5.51-3.67,8.2-10.33,8.2h-7.24V809.79H1251C1257.68,809.79,1261.35,811.84,1261.35,817.48Z" transform="translate(419.11 -38.16)"/><path d="M1302.2,836.22c0-6-4.08-8.67-8.94-10.64l-5.83-2.61c-3.3-1.32-7.33-2.9-7.33-7.16,0-4,3.44-6.47,8.56-6.47a14,14,0,0,1,10,3.92l2.14-2.58a17,17,0,0,0-12-4.87c-7.33,0-12.68,4.28-12.68,10.24s4.81,8.58,8.66,10.14l5.94,2.65c4.13,1.75,7.46,3.14,7.46,7.81,0,4.18-3.61,7.14-9.58,7.14a16.8,16.8,0,0,1-12-5.18l-2.43,2.73a19.51,19.51,0,0,0,14.32,6C1296.88,847.32,1302.2,842.46,1302.2,836.22Z" transform="translate(419.11 -38.16)"/><polygon points="1755.77 805.05 1745.64 805.05 1745.64 771.75 1755.77 771.75 1755.77 768.38 1731.55 768.38 1731.55 771.75 1741.68 771.75 1741.68 805.05 1731.55 805.05 1731.55 808.43 1755.77 808.43 1755.77 805.05"/><polygon points="1782.18 808.43 1782.18 771.75 1795.78 771.75 1795.78 768.38 1764.63 768.38 1764.63 771.75 1778.22 771.75 1778.22 808.43 1782.18 808.43"/><path d="M1399.62,832.09l13.58-25.55h-4l-6.34,12.5c-1.61,3.13-3.26,6.22-5,9.41h-.24c-1.74-3.19-3.2-6.28-4.86-9.38l-6.55-12.53h-4.15l13.58,25.55v14.5h4Z" transform="translate(419.11 -38.16)"/><polygon points="1448.28 818.73 1448.28 815.36 1424.29 815.36 1424.29 855.41 1428.25 855.41 1428.25 836.83 1445.16 836.83 1445.16 833.46 1428.25 833.46 1428.25 818.73 1448.28 818.73"/><polygon points="1482.6 818.73 1482.6 815.36 1458.38 815.36 1458.38 818.73 1468.51 818.73 1468.51 852.04 1458.38 852.04 1458.38 855.41 1482.6 855.41 1482.6 852.04 1472.47 852.04 1472.47 818.73 1482.6 818.73"/><polygon points="1521.65 852.04 1501.29 852.04 1501.29 815.36 1497.41 815.36 1497.41 855.41 1521.65 855.41 1521.65 852.04"/><path d="M1134.29,893.57h3.8v-40h-5l-6.39,17.94-2.14,6.72h-.24l-2.22-6.72-6.31-17.94h-5v40h3.71V869.89c0-3.39-.38-8.75-.63-11.83h.12l2.34,7.34,6.53,17.53h2.92l6.64-17.53,2.23-7.34h.18c-.17,3.08-.6,8.44-.6,11.83Z" transform="translate(419.11 -38.16)"/><polygon points="1631.36 818.73 1631.36 815.36 1607.37 815.36 1607.37 855.41 1611.33 855.41 1611.33 836.83 1628.25 836.83 1628.25 833.46 1611.33 833.46 1611.33 818.73 1631.36 818.73"/><polygon points="1667.5 852.04 1646.61 852.04 1646.61 835.95 1663.71 835.95 1663.71 832.57 1646.61 832.57 1646.61 818.73 1666.89 818.73 1666.89 815.36 1642.64 815.36 1642.64 855.41 1667.5 855.41 1667.5 852.04"/><path d="M1271.58,890.77a16.82,16.82,0,0,1-12-5.18l-2.42,2.74a19.54,19.54,0,0,0,14.32,6c8.46,0,13.77-4.85,13.77-11.1,0-6-4.07-8.66-8.94-10.64l-5.82-2.6c-3.3-1.32-7.33-2.9-7.33-7.16,0-4,3.44-6.47,8.56-6.47a14,14,0,0,1,10,3.91l2.15-2.58a17,17,0,0,0-12-4.87c-7.32,0-12.67,4.29-12.67,10.25s4.8,8.58,8.65,10.14l5.94,2.64c4.13,1.75,7.46,3.15,7.46,7.81C1281.16,887.82,1277.55,890.77,1271.58,890.77Z" transform="translate(419.11 -38.16)"/><polygon points="1728.64 855.41 1728.64 818.73 1742.24 818.73 1742.24 815.36 1711.09 815.36 1711.09 818.73 1724.68 818.73 1724.68 855.41 1728.64 855.41"/><polygon points="1775.32 818.73 1775.32 815.36 1751.1 815.36 1751.1 818.73 1761.22 818.73 1761.22 852.04 1751.1 852.04 1751.1 855.41 1775.32 855.41 1775.32 852.04 1765.19 852.04 1765.19 818.73 1775.32 818.73"/><path d="M1383,893.57l12.89-40h-4L1384.9,876c-1.43,4.8-2.49,8.57-4,13.31h-.24c-1.55-4.74-2.57-8.51-4-13.31l-6.9-22.49h-4.24l13,40Z" transform="translate(419.11 -38.16)"/><path d="M1409.52,880.63h15.2l4.19,12.94h4.24l-13.79-40H1415l-13.8,40h4Zm3.3-10c1.51-4.6,2.86-8.9,4.21-13.66h.24c1.31,4.76,2.69,9.06,4.2,13.66l2.19,6.77H1410.6Z" transform="translate(419.11 -38.16)"/><polygon points="1863.21 815.36 1863.21 855.41 1887.45 855.41 1887.45 852.04 1867.09 852.04 1867.09 815.36 1863.21 815.36"/><path d="M-370.56,79.67a15.13,15.13,0,0,0,12.16-5.76l-2.3-2.42c-2.7,3-5.63,4.65-9.51,4.65-8.12,0-13.36-6.74-13.36-17.34s5.24-17.11,13.45-17.11a11.08,11.08,0,0,1,8.4,3.84l2.3-2.54a14.43,14.43,0,0,0-10.7-4.83c-10.35,0-17.57,7.93-17.57,20.71S-380.43,79.67-370.56,79.67Z" transform="translate(419.11 -38.16)"/><polygon points="94.18 37.41 84.05 37.41 84.05 4.1 94.18 4.1 94.18 0.73 69.96 0.73 69.96 4.1 80.09 4.1 80.09 37.41 69.96 37.41 69.96 40.78 94.18 40.78 94.18 37.41"/><path d="M-309.7,56.05c0-4-.37-8-.51-11.95h.12l4.06,8.1,14.21,26.74h4.3v-40h-3.77V61.58c0,4,.38,8.24.52,12.16h-.12l-4.06-8.11-14.21-26.74h-4.3V78.94h3.76Z" transform="translate(419.11 -38.16)"/><polygon points="169.08 37.41 148.19 37.41 148.19 21.31 165.29 21.31 165.29 17.94 148.19 17.94 148.19 4.1 168.47 4.1 168.47 0.73 144.23 0.73 144.23 40.78 169.08 40.78 169.08 37.41"/><path d="M-237.32,55.26c0-3.39-.37-8.75-.63-11.83h.12l2.34,7.33,6.54,17.54H-226l6.63-17.54,2.23-7.33h.19c-.18,3.08-.61,8.44-.61,11.83V78.94h3.81v-40h-5l-6.4,18-2.13,6.72h-.25l-2.21-6.72-6.32-18h-5V78.94h3.71Z" transform="translate(419.11 -38.16)"/><path d="M-198.52,66h15.19l4.19,12.94h4.24l-13.79-40H-193l-13.8,40.05h4.05Zm3.3-10c1.51-4.6,2.85-8.9,4.2-13.66h.24c1.31,4.76,2.69,9.06,4.21,13.66l2.19,6.76h-13.07Z" transform="translate(419.11 -38.16)"/><polygon points="150.38 51.09 150.38 47.72 126.14 47.72 126.14 87.77 150.99 87.77 150.99 84.39 130.1 84.39 130.1 68.3 147.2 68.3 147.2 64.93 130.1 64.93 130.1 51.09 150.38 51.09"/><path d="M-205.49,88.68a11,11,0,0,1,8.4,3.84l2.3-2.54a14.39,14.39,0,0,0-10.7-4.83c-10.35,0-17.58,7.92-17.58,20.71s7.27,20.8,17.14,20.8a15.16,15.16,0,0,0,12.16-5.77l-2.3-2.42c-2.7,3-5.63,4.66-9.51,4.66-8.12,0-13.36-6.74-13.36-17.35S-213.7,88.68-205.49,88.68Z" transform="translate(419.11 -38.16)"/><path d="M-187.58,105.74c0,12.94,6.29,20.92,15.17,20.92s15.18-8,15.18-20.92-6.3-20.59-15.18-20.59S-187.58,92.92-187.58,105.74Zm15.17-17.06c6.61,0,11,6.46,11,17.06s-4.44,17.39-11,17.39-11.05-6.67-11.05-17.39S-179,88.68-172.41,88.68Z" transform="translate(419.11 -38.16)"/><path d="M-145.07,103c0-4-.37-8-.51-12h.12l4.06,8.11,14.21,26.74h4.3V85.88h-3.77v22.68c0,4,.38,8.25.52,12.16h-.13l-4.06-8.1-14.21-26.74h-4.29v40.05h3.76Z" transform="translate(419.11 -38.16)"/><polygon points="310.62 68.34 328.96 68.34 328.96 87.77 332.96 87.77 332.96 47.72 328.96 47.72 328.96 64.85 310.62 64.85 310.62 47.72 306.61 47.72 306.61 87.77 310.62 87.77 310.62 68.34"/><polygon points="370.25 84.39 349.36 84.39 349.36 68.3 366.46 68.3 366.46 64.93 349.36 64.93 349.36 51.09 369.64 51.09 369.64 47.72 345.4 47.72 345.4 87.77 370.25 87.77 370.25 84.39"/><path d="M-23.22,126.66A15.16,15.16,0,0,0-11,120.89l-2.3-2.42c-2.7,3-5.63,4.66-9.51,4.66-8.13,0-13.36-6.74-13.36-17.35s5.23-17.1,13.45-17.1a11,11,0,0,1,8.39,3.84L-12.07,90a14.41,14.41,0,0,0-10.7-4.83c-10.35,0-17.58,7.92-17.58,20.71S-33.08,126.66-23.22,126.66Z" transform="translate(419.11 -38.16)"/><polygon points="441.53 84.39 431.4 84.39 431.4 51.09 441.53 51.09 441.53 47.72 417.31 47.72 417.31 51.09 427.44 51.09 427.44 84.39 417.31 84.39 417.31 87.77 441.53 87.77 441.53 84.39"/><path d="M36.94,102.24c0-3.38-.38-8.74-.63-11.82h.12l2.34,7.33,6.53,17.53h2.93l6.63-17.53,2.23-7.33h.19c-.18,3.08-.61,8.44-.61,11.82v23.69h3.81V85.88h-5l-6.39,17.94L47,110.54h-.25l-2.21-6.72L38.2,85.88h-5v40.05h3.71Z" transform="translate(419.11 -38.16)"/><polygon points="516.43 84.39 495.54 84.39 495.54 68.3 512.64 68.3 512.64 64.93 495.54 64.93 495.54 51.09 515.82 51.09 515.82 47.72 491.57 47.72 491.57 87.77 516.43 87.77 516.43 84.39"/><path d="M110.74,103c0-4-.38-8-.52-12h.12l4.06,8.11,14.21,26.74h4.3V85.88h-3.76v22.68c0,4,.37,8.25.51,12.16h-.12l-4.06-8.1L111.27,85.88H107v40.05h3.77Z" transform="translate(419.11 -38.16)"/><polygon points="573.61 87.77 577.57 87.77 577.57 51.09 591.17 51.09 591.17 47.72 560.01 47.72 560.01 51.09 573.61 51.09 573.61 87.77"/><path d="M193,126.66c8.88,0,15.17-8,15.17-20.92S201.91,85.15,193,85.15s-15.18,7.77-15.18,20.59S184.15,126.66,193,126.66Zm0-38c6.6,0,11.05,6.46,11.05,17.06s-4.45,17.39-11.05,17.39S182,116.46,182,105.74,186.42,88.68,193,88.68Z" transform="translate(419.11 -38.16)"/><rect x="0.36" width="22" height="22"/><rect x="0.36" y="834.14" width="22" height="22"/><rect x="1896.5" width="22" height="22"/><rect x="1896.5" y="834.14" width="22" height="22"/><polygon points="398.08 856.14 384.17 832.04 370.25 856.14 398.08 856.14"/><polygon points="698.99 856.14 685.08 832.04 671.16 856.14 698.99 856.14"/><polygon points="520.71 856.14 548.54 856.14 534.62 832.04 520.71 856.14"/><polygon points="1528.22 87.54 1572.91 87.54 1574.82 87.54 1619.51 87.54 1621.42 87.54 1668.02 87.54 1668.02 64.17 1619.51 64.17 1619.51 75.92 1572.91 75.92 1572.91 81.66 1526.31 81.66 1526.31 84.6 1479.71 84.6 1479.71 87.54 1526.31 87.54 1528.22 87.54"/><path d="M1270.91,126.66a7.14,7.14,0,0,0,7.11-7.11,6.74,6.74,0,0,0-2.09-5,6.91,6.91,0,0,0-5-2,7.07,7.07,0,0,0-5,12A6.74,6.74,0,0,0,1270.91,126.66Z" transform="translate(419.11 -38.16)"/><path d="M1329,126.52a7.27,7.27,0,0,0,5.34-2.2,7.14,7.14,0,0,0,2.21-5.25,7.37,7.37,0,0,0-2.24-5.38,7.33,7.33,0,0,0-10.61,0,7.38,7.38,0,0,0-2.25,5.38,7.17,7.17,0,0,0,2.21,5.25A7.3,7.3,0,0,0,1329,126.52Z" transform="translate(419.11 -38.16)"/><path d="M1381.43,126.52a7.28,7.28,0,0,0,5.34-2.2,7.17,7.17,0,0,0,2.21-5.25,7.38,7.38,0,0,0-2.25-5.38,7.33,7.33,0,0,0-10.61,0,7.41,7.41,0,0,0-2.24,5.38,7.14,7.14,0,0,0,2.21,5.25A7.27,7.27,0,0,0,1381.43,126.52Z" transform="translate(419.11 -38.16)"/><path d="M1416.34,126.52a7.27,7.27,0,0,0,5.34-2.2,7.14,7.14,0,0,0,2.21-5.25,7.37,7.37,0,0,0-2.24-5.38,7.33,7.33,0,0,0-10.61,0,7.38,7.38,0,0,0-2.25,5.38,7.17,7.17,0,0,0,2.21,5.25A7.3,7.3,0,0,0,1416.34,126.52Z" transform="translate(419.11 -38.16)"/><path d="M1468.68,126.52a7.27,7.27,0,0,0,5.34-2.2,7.17,7.17,0,0,0,2.21-5.25,7.41,7.41,0,0,0-2.24-5.38,7.33,7.33,0,0,0-10.61,0,7.38,7.38,0,0,0-2.25,5.38,7.17,7.17,0,0,0,2.21,5.25A7.3,7.3,0,0,0,1468.68,126.52Z" transform="translate(419.11 -38.16)"/><path d="M1486.59,113.69a7.32,7.32,0,0,0-2.3,5.38,7.51,7.51,0,0,0,7.49,7.45,7.38,7.38,0,0,0,5.36-2.23,7.13,7.13,0,0,0,2.25-5.22,7.43,7.43,0,0,0-2.22-5.38,7.13,7.13,0,0,0-5.26-2.27A7.33,7.33,0,0,0,1486.59,113.69Z" transform="translate(419.11 -38.16)"/><path d="M1445.45,126.52a7.34,7.34,0,0,0,5.36-2.23,7.14,7.14,0,0,0,2.26-5.22,7.79,7.79,0,0,0-7.62-7.65,7.15,7.15,0,0,0-5.26,2.27,7.43,7.43,0,0,0-2.22,5.38,7.49,7.49,0,0,0,7.48,7.45Z" transform="translate(419.11 -38.16)"/><polygon points="21.91 675.87 0.36 632.59 0.36 675.87 21.91 675.87"/><polygon points="21.91 719.14 0.36 675.87 0.36 719.14 21.91 719.14"/><polygon points="0.36 589.32 0.36 632.59 21.91 632.59 0.36 589.32"/><polygon points="21.91 762.41 0.36 719.14 0.36 762.41 21.91 762.41"/></svg>