<svg id="Layer_1" data-name="Layer 1" xmlns="http://www.w3.org/2000/svg" viewBox="0 0 4176 2575.99"><title>it_takes_logo</title><path d="M549.49,3096c-4.49-1.25-9.1-2.07-13.54-3.45-16.26-5-22.18-12.94-22.6-29.88-.07-2.66,0-5.33,0-8,0-53.33.14-106.66-.11-160-.05-11.62-.53-23.4-2.49-34.81-4.81-28.09-19.2-48.66-48.13-56.52a33.13,33.13,0,0,1-3.84-1.61c92.21-246.95,111.2-499,52.81-755.83-58.49-257.25-186.5-475.46-378.57-659h45.1a39.85,39.85,0,0,0,.67-4.66c.15-21.77-1.77-43.34-8.23-64.19-11.16-36-32.77-63.7-68.81-76.72C59.27,1226,17.87,1230.1-21,1254c-2.47,1.52-4.92,3.07-7.09,4.41-1.53-.78-2.47-1.15-3.3-1.7a1363.51,1363.51,0,0,0-127.13-75.42,25.76,25.76,0,0,1-8.65-7.84c-12.68-17.89-29.22-30.9-49.16-39.7-22-9.71-45.24-13.21-69.12-13.64-6.54-.12-13.07-1.2-19.14-1.8-1.13.82-2.29,2.3-3.67,2.54-5.24.92-10.58,1.24-15.82,2.15-30.21,5.26-57.34,16.5-79.26,39-35.24,36.13-38.78,115.94,25.11,145.56A244.38,244.38,0,0,0-326.3,1325c26,5.56,52.24,10.39,78.25,16.07,17.26,3.77,34.15,8.93,49.69,17.69,12.28,6.93,22.33,16.16,27,29.69,10.71,31.29,7.27,73.89-28.8,99.09A107.09,107.09,0,0,1-225.68,1501c-41,14.33-82,12.79-122-3.8-34.9-14.51-55.66-41.21-62.65-78.43-1-5.16-1.44-10.42-2.17-15.86h-30.11a28,28,0,0,0-.49,3.57,49.61,49.61,0,0,0,.35,6c6.82,50.07,32.14,86.7,78.64,107.76,26,11.75,53.58,15.76,81.76,16.18,27.94.42,55.28-3.53,80.69-15.77,40.74-19.62,65.17-51,67.28-97.33,2-42.81-14.37-73.37-53.15-92.45-16.85-8.29-34.64-13.81-52.89-17.73-26.36-5.66-52.9-10.48-79.24-16.2-16.95-3.67-33.5-8.8-48.54-17.83-11.83-7.1-21.07-16.53-25-30-8.12-27.83-3-52.77,17.61-73.76,9.5-9.68,21.12-16.17,33.88-20.57a157.39,157.39,0,0,1,88.64-4.65c41.6,9.77,68,35,74.72,78.44.14.88.95,1.66,1.77,3,9.58,0,19.34.8,30.78-.75l-11.72-43.15c18.54,6,114.61,65.68,122.7,76.25-21.79,23.91-30,36.06-37.19,58.41-13.91,43.26-13.79,86.77,1.44,129.53,15,42.21,44.67,69.52,88.63,80.16a157.36,157.36,0,0,0,55.58,3.36c49.13-5.74,82.27-31.57,99.15-78.12,1.09-3,2-6,3.6-10.63C305,1588.4,397.29,1749.06,452.49,1930.7c51.44,169.28,66,341.92,45.27,518.93-2.26-1.74-3.4-2.35-4.17-3.27-9.25-11.06-21.22-18.27-34.48-23.13-12.48-4.58-25.36-8.08-38-12.22-19.9-6.53-40-12.63-59.53-20.08-7.87-3-15.15-8.4-21.69-13.9-9.89-8.3-13-19.77-11.77-32.46,1.74-18.17,11.67-31,27.13-39.48,22.6-12.45,46.64-15,71.58-8.58,17.59,4.55,31.66,14,39.81,30.7,6.57,13.51,6.35,27.7,3.24,42-.81,3.76-1.71,7.5-2.87,12.57,6-5.85,26.31-48.84,31-64.27-36.06-44.26-99.57-49.6-139.44-32.85C334,2295,318.49,2313,315,2339.88c-3.81,29,4.44,53.37,28.46,71.34,12.42,9.3,26.41,15.42,41.1,20.05s29.41,8.62,43.82,13.75c13.13,4.68,26.05,10.1,38.7,16a54.39,54.39,0,0,1,22.63,19.17,14.08,14.08,0,0,1,2.44,11.27c-1.94,9.8-4.28,19.64-4.82,29.56-.75,13.92-8.2,22.79-19.15,29.62a114.45,114.45,0,0,1-15.82,8.46c-22.12,9.3-45.26,11.17-68.65,7.14-25.28-4.35-43.62-17.64-50.42-43.67-3.08-11.78-3.09-23.79-1.13-35.73,1.48-9,3.59-17.9,5.41-26.85l-1.67-.6L300.46,2537c17,20.17,37.29,34.4,61.86,41.48,40.37,11.64,79.33,8.74,115.25-15.24.47,1.24.73,1.58.68,1.85-1.08,5.22-2.12,10.44-3.31,15.63a1258.81,1258.81,0,0,1-71.89,218.94c-1.77,4.09-3.74,7.38-8.28,9.22-27.55,11.15-46.68,31.3-60.34,57.19-1.27,2.4-2.83,4.66-4.25,7l-1.35-.6v-79.93c0-26.34.05-52.67,0-79-.06-26.49.28-53-.21-79.29-2.41-.38-3.49-.89-4.35-.64-19.18,5.52-38.35,11.06-57.44,16.87-1.51.46-2.4,3-4.84,6.25,4.86-.36,7.4-.56,9.94-.73,4.31-.28,8.65-1,12.94-.75,9.3.44,14.39,4.07,16.36,13.2a114.46,114.46,0,0,1,2.29,23.75c.15,94,0,188,.23,282a33.21,33.21,0,0,1-6,19.46c-69.33,104.26-151.82,196.77-248.61,276.19q-315.3,258.72-722.46,286.76a1212.52,1212.52,0,0,1-175.82-1c-63.23-4.78-125.79-13.78-187.51-28.26-271.64-63.72-497.7-202.39-679.76-413.45-4.87-5.65-6.53-11-6.5-18.48.37-92.33.25-184.66.21-277,0-2.84-.46-5.69-.71-8.56H-1752v12.3q0,83,0,166a166.48,166.48,0,0,1-.92,19,79.75,79.75,0,0,1-16,40.31c-102.61-139.36-173.93-292.17-213.25-459.68-41.55-177-44.28-354.8-10-534.29h23.33v-10.86c0-25.66-.16-51.33.12-77a69.79,69.79,0,0,1,2.51-18.66,1254.72,1254.72,0,0,1,201.77-404.68c2.16-2.9,4.52-5.66,6.51-8.14a28,28,0,0,1,3.63,0c37.89,5.67,69.93-5.68,95.28-34.22,8.09-9.11,14-20.14,20.91-30.32,1.36-2,2.55-4.13,3.81-6.21l1.59.54v64.56c1.79.29,2.87.8,3.73.55,19.5-5.52,39-11,58.42-16.89,1.41-.42,2.12-3.22,4.41-7h-40.48c-.26-2.7-.5-4-.5-5.31,0-41.66,0-83.33-.13-125,0-4.8,1.64-8,5.13-11.15,31.76-28.53,64.62-55.7,99-81,1.92-1.41,4.21-2.31,7-3.81V1513c-2.2.75-4,1.53-5.89,2-9.4,2.23-18.82,4.3-28.21,6.56-3.28.79-6.86,1.66-4.89,7h103.33c2.2-5-1.12-6.13-4.51-6.94-7.44-1.78-15-3.32-22.39-5.13-4.08-1-8.08-2.32-12.31-3.55,0-22.81-.16-44.8.18-66.78,0-2.93,2-6.22,4-8.66,10-12.5,20.21-24.8,30.39-37.14,5.91-7.17,11.88-14.29,17.85-21.48,9.88,10.08,92.87,127.89,95,134.85-1.58.4-3.13.89-4.71,1.18-12.11,2.24-24.26,4.32-36.34,6.71-3.25.64-8.08.49-6.09,6.71h119.31c-1.65-5.68-1.6-5.85-4.9-6.74-7.07-1.91-14.12-4-21.3-5.34-7-1.34-11.7-4.79-15.85-10.69-28.93-41.17-58.23-82.08-87.41-123.08l-18.52-26a35.45,35.45,0,0,1,2.29-3.78c25.46-31.28,50.87-62.6,76.56-93.68,2.32-2.81,6.26-4.86,9.85-5.94,12.11-3.63,24.39-6.73,36.64-9.87,3.67-1,6.48-2.07,4.32-7.21H-1388c-2.28,6.06,1.81,6.31,5.48,7.07,15.94,3.34,31.86,6.72,48.53,10.25a48.29,48.29,0,0,1-3.06,4.76q-65.85,78.48-131.77,156.91c-.14.17-.6.13-.89.08a8,8,0,0,1-1.34-.59v-8.75c0-45.33.2-90.67-.19-136-.07-7.63,2.41-11.9,8.64-16.1a1293.52,1293.52,0,0,1,204.48-112.69,105.71,105.71,0,0,0,10.13-5.62,67.16,67.16,0,0,0-9.38,2.66,1291.18,1291.18,0,0,0-203.62,107.75c-2.9,1.88-5.93,3.54-10,6V1059h-8c-7.07,2.53-14.08,5.28-21.23,7.54-10.16,3.21-20.44,6-30.63,9.12-3.21,1-6.56,2.31-3.37,8h38c.27,2.74.56,4.36.57,6q0,86.5.13,173c0,5-2,7.83-5.86,10.54-34.7,24.28-68,50.37-100.18,77.93-1.34,1.15-3,1.87-5.63,3.41,0-12.61.21-23.9-.07-35.18-.22-9-.6-18-1.69-26.9-4.09-33.5-22.22-54.31-55-61.63-34-7.6-67.54-5.27-100.06,7.71a114.48,114.48,0,0,0-43.54,31.07c-2.86,3.22-4.35,6.18-2.81,10.73q10.93,32.16,21.28,64.5c1.82,5.65,5,6.2,9.61,4.42-1.45-10.49-3.79-20.62-4.08-30.81-.86-30.31,12-53.44,38.67-68.24,17-9.4,35.45-11.45,54.32-8.4,20.94,3.39,37.17,14.24,47.14,33.33,10.9,20.85,11.42,43.26,9.88,66.32-2.83.63-5.06,1.13-7.29,1.61-25.06,5.33-50.33,9.81-75.1,16.21s-47.85,16.53-67.86,32.83c-19.3,15.72-31,35.7-32.24,60.8-1.51,31.37,9.2,56.82,37.69,72.87,1.67.94,3.27,2,4.32,2.64-25.19,36.21-50.61,71.59-74.76,107.82s-45.29,74.58-65.09,113.52c-19.67,38.67-36.92,78.45-54.12,118.44-1.08-11.59-.64-22.88-1.16-34.13-1.77-38.49-25.7-68.55-62.82-78.6-42.82-11.59-102.37-1.74-136.25,44.28-1.19,1.6-2.88,2.83-6,5.84v-48.64c-8,0-14.95-.05-21.91,0-2.27,0-4.53.35-7.32.57v295.42H-2174v-12.15c0-58.66.16-117.33-.07-176-.09-23.41,8.09-43.22,25.19-58.78,30.64-27.87,66.77-36.38,106.75-26.81,22.44,5.37,36,20.68,41,43.17a105.54,105.54,0,0,1,2.23,21.79q.33,55,0,110a61.87,61.87,0,0,1-2.42,16.67,1299.28,1299.28,0,0,0-50.15,297.88,1310.12,1310.12,0,0,0,15,277,1280.32,1280.32,0,0,0,81.87,287.59,43.85,43.85,0,0,1,3.35,17.41q-.15,81.51,0,163c0,5.33-.11,10.69.42,16,3.09,30.77,17.68,54.06,45.45,68.37a103.17,103.17,0,0,0,41.21,11.06c20.42,1.28,40.55-.12,60-7.7,2.44,3.11,4.53,5.66,6.5,8.31,59.92,80.59,128,153.61,204.91,218.16q309,259.2,710.34,300.61a1218,1218,0,0,0,181.72,5.21c66.36-3.12,132.18-10.31,197.32-23.15a1287.74,1287.74,0,0,0,446.21-178.6,1302.59,1302.59,0,0,0,153-114c2.79-2.42,5.1-5.94,10.3-6.23v157.4q0,39.51,0,79c0,26.19-.17,52.39.14,78.84,4,.21,6.61.46,9.25.47,45,0,90,.18,135-.1a263.63,263.63,0,0,0,36.85-2.48c60-8.86,103.53-39.88,127.62-96.34,11.92-27.94,17-57.4,18.1-87.58,1.43-39.27-1.9-77.94-15.95-115-14.88-39.32-39.86-69.7-78.64-87.64-18.64-8.62-38.27-14-58.69-15.07-23.61-1.22-47.29-1-70.94-1.4-3.51-.06-7,0-12.4,0,2-2.79,2.67-3.84,3.48-4.72a1266,1266,0,0,0,90.4-109.38c2.71-3.69,5.72-4.87,10.06-4.8,11.66.21,23.33.07,35,.07h32.95c-.53-6-.5-6.12-3.8-7.08-5.42-1.57-11-2.61-16.32-4.54a30.19,30.19,0,0,1-15-45A1307.91,1307.91,0,0,0,446.75,2831c1-2.34,2.28-4.53,3.33-6.58a20.11,20.11,0,0,1,2.67.38,17.54,17.54,0,0,1,2.79,1.09c14.71,7.41,22.79,20,27.38,35.25s5.67,30.78,5.71,46.46q.17,74.5,0,149c0,2.66,0,5.34-.19,8-1.33,16-7.16,23.4-22.42,28.11-4.44,1.38-9.05,2.23-13.57,3.34-3.11.76-4.68,2.43-3,6.33H552.66C551.88,3096.86,551.92,3096.69,549.49,3096ZM28.27,1259.29a117.83,117.83,0,0,1,49.57-.25c19.28,4.06,35.29,13.64,47.4,29.26,17.07,22,22.15,47.82,23.9,76.11-8.62.11-16.54-.45-24.29.48-11.89,1.42-20.35-3.33-29.37-10.78-30.81-25.4-62.49-49.75-93.84-74.5-2.06-1.62-4.15-3.21-7.07-5.48A84.82,84.82,0,0,1,28.27,1259.29Zm-39.9,19.18a1211,1211,0,0,1,103.8,84.44c-8,2.2-128,2.79-143.43.78C-47.54,1330.84-37.58,1301.66-11.63,1278.47Zm181.48,164.19H149.43c-1.58,3.85-2.87,6.89-4.08,10-17.27,43.91-49.12,59.68-90.9,59.3a132.56,132.56,0,0,1-25.71-3c-25.66-5.35-45.84-19.11-59.89-41.33-15.24-24.1-20.42-50.88-20.6-79.74,2.89-.3,5.41-.79,7.92-.8q77.38-.06,154.77,0c3.61,0,7.12-.36,10.15,2.73,16.5,16.85,33.18,33.54,49.79,50.28C170.54,1440.93,170.19,1441.79,169.85,1442.66ZM-1638,1454.76c-11.56,19.41-25.72,36.43-44.88,48.75-18.22,11.71-37.86,17.49-61.8,13a1255,1255,0,0,1,110.87-122.91c.39,4.43.78,6.89.79,9.36.07,11-.29,22,.15,32.94C-1632.59,1442.92-1634.5,1448.88-1638,1454.76Zm-148.72,15.74c-5.18-27.34,2.74-50.9,23.33-69.42a144.78,144.78,0,0,1,28.57-19.79c31.47-16.79,66-23.9,101.78-30.25,0,8.94.56,17.25-.29,25.41-.31,3-3.54,6.11-6.08,8.5a1359.3,1359.3,0,0,0-94.93,98.31c-8,9.23-15.92,18.56-24.05,28C-1775,1502.07-1783.44,1487.85-1786.73,1470.5Zm-39.67,1613c-17.62,3.19-35.14,2.95-52.34-2.39-25.34-7.87-38.84-25.67-42.23-51.53a143.36,143.36,0,0,1-1-17.95q-.15-45.46,0-90.94c0-3.14.29-6.29.44-9.43l1.94-.5a1325.92,1325.92,0,0,0,101.21,170.38C-1821.66,3082.14-1824,3083.08-1826.4,3083.52Zm2093,165.74c58.94,2.72,101,31.94,120.69,88.09a209.39,209.39,0,0,1,8.46,31.78c7.59,41.77,7.51,83.53-2.87,124.87-7.81,31.1-22.32,58.39-48.15,78.57-23.43,18.31-50.67,27-79.78,27.9-41.27,1.24-82.61.45-123.91.49-.93,0-1.85-.48-3.88-1v-10.54q0-149.41-.15-298.83c0-7.27,1.71-12.54,7.34-17.32,7.35-6.23,14.09-13.21,20.81-20.14a13.3,13.3,0,0,1,10.51-4.44C206,3248.9,236.35,3247.87,266.6,3249.26Zm64.1-308.52c-2.95-4.32-1.61-8.31-1.84-12-2.57-41.5,19.16-70.33,49.52-94.57,2.78-2.22,6-3.85,9.08-5.75l1.68,1.78A1184.4,1184.4,0,0,1,330.7,2940.74Z" transform="translate(2843 -1059)"/><path d="M-2676.78,2697.6c-1.58,3.77-3,7.13-4.38,10.51q-77.87,191.52-155.78,383c-1.44,3.53-4,6.6-6.06,9.88v2h33.26q26.53-65.45,52.57-129.62h196.31c17.49,43.14,35,86.22,52.23,128.78h32.5q-83-203.53-165-404.56ZM-2746,2946.53c29-72.62,57.83-145,87.05-218.32q43.57,109.22,86.87,217.76C-2579.88,2948.11-2733.83,2948.56-2746,2946.53Z" transform="translate(2843 -1059)"/><path d="M1311.39,1764c-20.93-16.79-47.53-16.91-69.56-1.51-9.7,6.77-17.3,15.55-23.79,25.35-9.28,14-15.77,29.25-21,45.13a65.51,65.51,0,0,1-2.76,6.2l-1.57-.49V1760c-4.07.59-7.34.83-10.49,1.58-3.88.92-7.65,2.29-11.47,3.43-12.1,3.63-24.24,7.19-36.31,10.92-2.94.91-7.13,1.22-4.91,7.33,4.6-.56,9.43-1.28,14.29-1.7,13.48-1.16,20.85,4.47,23,17.85a110.1,110.1,0,0,1,1.51,16.89q.27,95.43.28,190.86c0,3.32-.35,6.65-.57,10-.93,13.61-8.12,22.14-21.13,25.85-4.8,1.37-9.61,2.71-14.48,3.78-3.44.75-4.43,2.45-3,6h104.44c-1.34-2.53-1.79-4.82-3-5.4-2.67-1.23-5.75-1.58-8.66-2.29-22.61-5.52-28.76-13.16-29.06-36.12,0-2,0-4,0-6,0-26,.35-52-.12-77.94a219.79,219.79,0,0,1,6-54.43c6.11-26,14.48-51.25,29.16-73.92,6-9.31,13.11-17.7,22.71-23.53,19.61-11.9,39.8-4.84,47.54,16.75,3.65,10.16,4.49,20.75,3.56,31.51-1.44,16.72-5.93,32.7-11.41,48.46a42.91,42.91,0,0,0-1.23,5.88,19.11,19.11,0,0,0,6.18-7.94q16.19-33.76,32.32-67.56c1.52-3.16,3.38-6.17,5.08-9.25v-4C1325.85,1779.26,1319.52,1770.5,1311.39,1764Z" transform="translate(2843 -1059)"/><path d="M-2409,2053.09V1643.77h-46.85l-149.42,367-2.37.28-154.31-367.21h-44.68c-2,14.35-1.32,401.94.81,409.43,9.29-.18,18.76.92,28.95-.78V1687.47c49.75,122.9,103.32,243.8,153.42,365.32h32.68l150.82-366.13,1,.11V2052.9A227.63,227.63,0,0,0-2409,2053.09Z" transform="translate(2843 -1059)"/><path d="M-2199.6,2697.59v116.14c0,8,.21,16-.06,24-.25,7.31,1.21,14.79-1.5,23.45-2.58-4-4.31-6.76-6.14-9.47-13.28-19.69-31-33.77-53.53-41.4-23.54-8-47.6-9.56-71.87-4.13-42.65,9.52-71.77,35.75-88,75.5-19.4,47.53-19.92,96.32-2.41,144.43,18.61,51.16,55.33,80.53,110.5,83.86,44.15,2.67,81.19-11.6,107.39-49,1.17-1.66,2.79-3,5.43-5.78.52,17-.22,32.12.47,47.42h27.79c2-12.85,1.48-397.65-.48-405Zm-9.68,327.09c-25.3,59.47-82.82,70.06-124.43,57.73-26.14-7.76-44-25.5-55.64-49.71-14.24-29.67-17.37-61.24-14.78-93.56,1.61-20,6-39.46,15.16-57.57,16.86-33.39,43.66-52.54,81.26-54.15,38.59-1.65,69.43,13.39,90,46.81,15.69,25.44,20.65,53.76,20.87,83.17C-2196.69,2980.63-2200.14,3003.21-2209.28,3024.68Z" transform="translate(2843 -1059)"/><path d="M-595.32,2139.14c8.46,1.73,17,3.36,25.25,5.8,9.24,2.73,14.15,9.61,15.18,19.1a141.08,141.08,0,0,1,.85,15q.07,176.51,0,353a146.55,146.55,0,0,1-.84,14.95c-.93,9.15-5.77,15.7-14.5,18.52-7.25,2.34-14.82,3.67-22.24,5.5-3.23.79-8.71-.73-8.17,4.69.45,4.53,5.38,2.76,8.38,2.76q126,.14,252,0a47.52,47.52,0,0,0,6.22-.65c7.86-30.65,15.41-60.13,23-89.69-6-2.17-6.55,1.39-7.75,4.47-4.21,10.85-7.94,21.94-13,32.41-11.7,24.34-31.25,36-58.51,35.61-37.66-.47-75.33-.11-113-.12a68.56,68.56,0,0,1-8-.17c-8.84-1-13.19-5.09-14.53-13.82a85.06,85.06,0,0,1-1-12.95q-.09-89.51,0-179c0-2.2.62-4.39,1.06-7.34h9.36c16,0,32,.09,48,0q36.69-.26,58.23,29.34c3.91,5.38,7.25,11.17,10.7,16.87,1.76,2.9,3.67,4.73,7.51,2.57-4.86-9.78-10.07-19.39-14.47-29.35-8.37-19-8.18-38.23.22-57.19,3.51-7.9,7.84-15.43,11.69-23.18a63.06,63.06,0,0,0,2.36-6.41c-5.89,1.39-5.76,1.49-8.24,5.13-5.06,7.42-9.75,15.18-15.55,22-11.3,13.27-26.09,21.11-43.46,21.8-21.63.85-43.31.2-65,.14-.56,0-1.11-.66-2.49-1.53V2318q0-69,0-138c0-3.66.16-7.33.44-11,1.13-14.46,5.39-18.69,20.11-18.78,30.33-.2,60.67-.1,91-.06,9.33,0,18.67.06,28,.44,18.27.76,32.85,8.92,42.62,24.13,6.07,9.44,10.43,20,15.17,30.25,2.23,4.81,3.59,10,5.27,15.08,1.11,3.36,3.27,3.44,7,2.35-7.66-29.92-15.21-59.39-22.91-89.45H-599.73C-600.47,2137.87-598.27,2138.54-595.32,2139.14Z" transform="translate(2843 -1059)"/><path d="M719.65,3588.67c-.15-2.66,0-5.33,0-8v-69c0-32.66.25-65.32-.08-98-.44-43.48-22.06-70.61-64.12-81.16-23.95-6-48.24-5.85-72.49-2.87-19.66,2.42-38.48,7.93-55.06,19.39-23.5,16.26-34.76,39.28-37.82,67.81h29.31a41.37,41.37,0,0,0,1.24-4.45c4.56-29.74,22.47-47.35,50.66-55.37,16.5-4.68,33.4-5.79,50.49-4.87,12,.66,23.87,2.31,35.08,7,16.06,6.78,26.7,18.39,31,35.44,3.06,12.1,3.18,24.41,2.08,36.73-.85,9.59-6.16,16.29-15.06,19.35a126.22,126.22,0,0,1-24.09,6.16c-23.1,3.09-46.32,5.29-69.45,8.16-19.22,2.38-38.12,6.19-56,14.08-26.15,11.57-41.94,31.1-45.51,59.78-5.49,44.19,14.38,77.2,56.4,90a120.4,120.4,0,0,0,23.43,4.76c49.18,4.77,92.62-6.44,125.55-46.12,1.29-1.56,3.08-2.69,5.9-5.1-.8,18.24.41,34.54,16.68,43.7,15.15,8.53,31.15,7.21,47.12,1.7v-20.83c-4,.76-7.16,1.54-10.4,2C728.17,3611.22,720.6,3605,719.65,3588.67Zm-72.08,5.19c-29.58,17.95-62.05,21.84-95.4,14-31.93-7.53-46.88-31.41-42.62-64.48,3-23.11,15.23-38.49,37.11-46.34,16.76-6,34.32-7.78,51.82-10.12,22.42-3,44.82-6.27,67.13-10,7.79-1.3,15.3-4.28,24.79-7v10.77c0,12.33-.18,24.66,0,37C691,3551.45,675.82,3576.71,647.57,3593.86Z" transform="translate(2843 -1059)"/><path d="M-1319.53,2056.39a163.64,163.64,0,0,0,66.44,2.68c49-7.89,82.83-40,95.92-87.56a42.45,42.45,0,0,0,.76-6.1h-27.25c-3.17,7.27-5.92,14.39-9.3,21.19-13,26.2-33.92,42.27-62.76,47.62a129.3,129.3,0,0,1-43.79.51c-31.86-5-56.41-21-72.33-49.4-8.06-14.4-12.85-29.91-15.4-46.18-1.53-9.78-2.91-19.55-1.63-30.47h234.29c.42-2.51.94-4.09.91-5.67-.41-23.71-1.95-47.36-10-69.9-14.68-41.12-42.12-69.12-85.53-78.79a153.19,153.19,0,0,0-39.64-3.21c-54.17,2.39-94.19,27.93-115.9,77.78-22.49,51.65-21.62,104.63.35,156.36C-1388.42,2022.82-1359.21,2046.43-1319.53,2056.39Zm-67.62-185.47a137.7,137.7,0,0,1,12.64-39.84c16.93-33.81,44.44-52.55,81.94-55.52a136.24,136.24,0,0,1,36.71,2.31c23.35,4.62,41.31,18,53.55,38.5,12.4,20.82,17.34,43.58,17.66,68.24h-204.29C-1388.32,1879.82-1387.87,1875.34-1387.15,1870.92Z" transform="translate(2843 -1059)"/><path d="M1016.94,1528.08a132,132,0,0,0,37.94,7.77c45.94,2.7,86.34-9.58,116.45-46.86,1.07-1.33,2.6-2.29,5.51-4.79,0,6.64-.25,11.24.06,15.79.69,10,4.32,18.78,12.35,25.25,12.39,10,36.8,11.3,50.73,2.91v-18.68c-6.58.6-12.49,1.67-18.37,1.55-8.87-.18-14.27-5-16-13.65a52.34,52.34,0,0,1-.62-9.95c-.06-16.65,0-33.31,0-50,0-40.31.27-80.63-.1-120.94s-21.25-67.21-60.06-78.16c-22.8-6.43-46.06-6.5-69.39-4.37-15.66,1.43-30.93,4.8-45.29,11.42-31.91,14.72-48.43,40.18-52.32,75.38h28.9a53.32,53.32,0,0,0,1.48-5.31c4.67-28.44,21.89-45.66,48.87-53.44a147.31,147.31,0,0,1,73.16-2.16c22.07,4.85,38.62,17,43.24,40.38,2.1,10.64,1.84,21.8,2,32.74.15,11.46-6.24,18.83-16.84,22.09a154.28,154.28,0,0,1-25.2,5.86c-23.1,3-46.32,5.17-69.43,8.12-17.87,2.28-35.37,6.22-51.94,13.68-25.4,11.45-40.71,30.55-44.22,58.41C962.94,1480.26,977.21,1513.25,1016.94,1528.08Zm-19.27-84.93c2.81-20.62,14.46-34.56,33.84-42.16,14.72-5.78,30.17-8.09,45.72-10,26.1-3.16,52.41-4.92,78-11.72,6.39-1.7,12.67-3.82,20.86-6.32-.53,23.16,2,45.21-1.69,66.93-3.52,20.91-15.1,37.76-32.19,50.09-32.66,23.56-69.25,29.1-107.4,18.24C1003.13,1499.24,993.35,1474.83,997.67,1443.15Z" transform="translate(2843 -1059)"/><path d="M592.16,1532a166,166,0,0,0,56.54,3.39c49.26-5.09,87-36.61,100.32-84.49.66-2.37.91-4.87,1.43-7.78H723.54c-2.37,5.7-4.49,11.28-7,16.69-12.89,28-34.15,45.85-64.89,50.34a152.07,152.07,0,0,1-38.78.51c-31.28-3.58-55.7-18.9-71.89-46.38-8.56-14.53-13.53-30.32-16.2-46.91-1.57-9.77-2.88-19.54-1.67-30.09H751.9c3.48-36-5.95-83.07-27.69-110-16.67-20.69-37.22-35.27-63.43-40.55a179,179,0,0,0-34.62-3.57c-57.27-.13-103.29,31.56-122.48,85.48-16.21,45.53-15.77,91.69,1.45,136.9C520.53,1495.89,549.87,1521.7,592.16,1532ZM525,1349.43c4-22,11.7-42.32,26.28-59.57,17-20.14,39.2-30.66,65.15-32.55a147.23,147.23,0,0,1,33.74,1.62c24.8,4,43.46,17.72,56.08,39.33,11.68,20,16.12,42,16.81,66H523.12C523.78,1359,524.15,1354.16,525,1349.43Z" transform="translate(2843 -1059)"/><path d="M-1143.92,2543.91c-1.28,11.87-7.84,19.55-19.12,23.12-5.06,1.6-10.24,2.91-15.43,4-3.51.77-5.51,2.11-3.94,6.72h104.86c-1.91-3-2.59-5.31-4.09-6.11-2.26-1.22-5.1-1.34-7.68-2-24.17-6.24-29.34-12.87-29.35-37.7,0-55.32.13-110.65-.11-166a192.21,192.21,0,0,0-2.54-31.8c-5.58-32.08-25.09-52.24-54.91-56.78a115.21,115.21,0,0,0-49.53,2.81c-32.76,9.39-55.3,30.87-71.24,60.16-1.48,2.72-3.07,5.37-4.61,8l-1.85-.6V2108.46c-4.63.86-8.24,1.22-11.66,2.22-15,4.36-30,8.9-45,13.39-1.92.57-4.18.72-5.63,1.88s-1.76,3.21-3.13,6c7-.48,12.3-1,17.55-1.14,14.69-.31,20.57,4.77,22.15,19.58a219.83,219.83,0,0,1,1.09,23q.09,178.47,0,356.94c0,4.66-.33,9.32-.61,14-.67,11.28-6.69,18.63-17.15,22.19-6,2-12.25,3.1-18.28,5-1.56.49-2.7,2.37-4,3.61a52.1,52.1,0,0,0,5,3.39c.78.41,2,.09,3,.09q45,0,90,0a49,49,0,0,0,6.59-.86c-1.25-5.54-1.24-5.56-4.6-6.51-5.76-1.62-11.63-2.92-17.26-4.91-11.32-4-16.87-12.45-17.5-24.28-.13-2.32-.1-4.66-.1-7,0-48.33-.09-96.65.11-145a53.32,53.32,0,0,1,2.54-16.62,126.94,126.94,0,0,1,44.8-62.32c15.72-11.82,33.18-17.66,53.2-16.25,28,2,45.7,15.66,53.6,42.76,4.13,14.2,5.36,28.8,5.39,43.49q.13,76,0,152A105.44,105.44,0,0,1-1143.92,2543.91Z" transform="translate(2843 -1059)"/><path d="M1224.37,3335.27c-6.41-1.08-12.37-.54-18.2-1.2-11.45-1.29-19.82,2.79-28.33,10.7C1130,3389.22,1081.53,3433,1033.26,3477c-2.31,2.1-4.88,3.92-9.13,7.31V3222.49H995.54V3627h28.86v-12c0-29.67.09-59.33-.08-89,0-5.32,1.17-9.34,5.37-13.1,18.39-16.42,36.46-33.21,54.67-49.84,1.16-1.06,2.54-1.9,4.3-3.2,2.26,3,4.3,5.54,6.2,8.2q18,25.26,35.87,50.54,36.12,51,72.34,101.87c2,2.75,5,6.31,7.84,6.56,9.44.82,19,.31,30.7.31-44.69-63.41-88.12-125-131.81-187.06C1148.54,3405.06,1186.93,3370.93,1224.37,3335.27Z" transform="translate(2843 -1059)"/><path d="M552,1609.4c-.22,4.68,2.85,4.84,5.81,5.49,8.44,1.86,17,3.47,25.18,6,8.39,2.62,13.07,9,14,17.78a181.61,181.61,0,0,1,1,18.94q.09,173,0,346c0,4.66-.11,9.34-.48,14-1.24,15.45-6,21.39-20.83,25.31-6.74,1.78-13.68,2.84-20.57,4-3.21.55-4.93,1.77-3.55,5.77h119c1.18-4.29-.79-5.24-3.9-5.85-8.48-1.67-17-3.27-25.31-5.59-9.69-2.7-15-9.45-15.65-19.63-.29-4.65-.66-9.31-.66-14q-.07-86.49,0-173v-11.23c3.59-.3,6.17-.7,8.75-.71,16.66,0,33.33.13,50-.06,25-.28,44.34,10.2,58.67,30.33,3.47,4.88,6.47,10.09,9.64,15.18,1.61,2.58,3.08,5.31,7.78,3.06l-4.26-8.64c-3.7-7.45-7.87-14.71-11-22.4a68.14,68.14,0,0,1,.17-53.54c3.44-8.28,8-16.1,12-24.15,1.09-2.18,2-4.45,3-6.65-4.61-2-6,.6-7.69,3.28-3.68,5.93-7.26,12-11.42,17.58-12.17,16.38-28.45,26.56-48.89,27.54-21.57,1-43.23.23-66.73.23v-10.61q0-70.48,0-141a97.77,97.77,0,0,1,.48-10c1.28-12.7,5.82-17.36,18.44-17.43,38.67-.2,77.33-.29,116,0,22.47.18,39.94,10.13,50.69,30,5.83,10.78,10,22.44,14.89,33.74.92,2.13,1.39,4.45,2.2,6.63,1.22,3.3,3.38,3.43,6.75,1.64-7.62-29.68-15.19-59.18-23-89.67-85.25,0-171.18,0-257.11.06C554.22,1607.92,553.07,1608.9,552,1609.4Z" transform="translate(2843 -1059)"/><path d="M-962.21,2059.89c18.76-2,36.63-7,52.73-17.16,24.22-15.19,38.09-36.8,39.33-65.72,1.31-30.85-10.57-54.54-38.88-68.49a169.63,169.63,0,0,0-28.68-11.4c-18.88-5.33-38.1-9.46-57.12-14.31-17.73-4.51-35.67-8.63-51.61-18.16-16.86-10.07-23.48-26-19.37-45.22,4.3-20.07,17.83-31.59,36.17-37.84a119.84,119.84,0,0,1,72.82-1.56c26.64,7.62,43.64,24.65,48.34,52.7.1.55.7,1,1.27,1.83h28c-6.28-38.81-26.42-65.33-63.89-77.41-21.95-7.08-44.58-7.85-67.26-5.36-20.45,2.25-39.52,8.71-56.6,20.71-38.57,27.09-43.82,90.91,7.37,116.29a257.35,257.35,0,0,0,41.83,16c21.06,6.19,42.73,10.28,63.78,16.45a195.57,195.57,0,0,1,34.91,14.43c10.88,5.67,16.89,15.52,18.51,28,3.84,29.85-9.71,54.25-38.14,65.06-31.13,11.83-62.72,11.45-93.57-1.33-24-9.93-38-28.46-42.87-53.88-.62-3.16-1.33-6.3-2-9.31h-28.78a16,16,0,0,0-.76,3.33,34.43,34.43,0,0,0,.49,5c6.08,38.25,27.61,64.19,63.3,78.37C-1016.87,2061.25-989.73,2062.85-962.21,2059.89Z" transform="translate(2843 -1059)"/><path d="M-2177.45,1166.86c11-19.81,21.93-39.63,32.54-59.64,2.54-4.79,5.52-6.46,10.93-6.43,41.32.23,82.64.11,124,.16a51.08,51.08,0,0,1,6.5.84v406.09c-3.74,1.25-6.88,2.32-10,3.36l-30.34,10c-3.44,1.13-6.3,2.63-4.28,7.07,14.83,1.8,112.18,1.1,119.32-.88,0-.93.3-2.63,0-2.76-15.21-6.06-30.47-12-45.28-17.75V1101.36h138.35c11.69,21.33,23.2,42.36,34.73,63.38,1.45,2.63,2.62,5.53,4.59,7.69,1.14,1.25,3.62,1.28,5.62,1.9.33-1.82.68-2.51.54-3.08-7.41-29-14.86-57.93-22.45-87.46h-351.86l-23.07,90.27C-2180.13,1174.79-2179.25,1170.11-2177.45,1166.86Z" transform="translate(2843 -1059)"/><path d="M-1483.54,3078.94c-29.6,10.59-59.63,10.28-89-1.14-25.32-9.87-39.92-29.08-44.6-55.84-.39-2.24-1-4.45-1.57-7.18h-28.29a9.8,9.8,0,0,0-.64,1.78,18.54,18.54,0,0,0,0,3c4.5,38.23,24.87,65,60.14,79.38,38.54,15.69,78.07,15.53,117.2,1.68,19-6.72,34.54-18.56,45.22-36.11,24.3-39.94,10-88.22-32.39-107.55a223.29,223.29,0,0,0-33.84-11.89c-23.43-6.39-47.23-11.46-70.58-18.11-10.11-2.88-19.84-7.7-29.11-12.8-8.75-4.81-14.22-12.76-16.44-22.83-5.11-23.16,5.85-45,29.57-54.85,29.95-12.38,60.51-12.26,90.37.62,18.6,8,30,22.65,34.49,42.58.5,2.22,1.22,4.39,2,7.2,9.31-.41,18.4,1.07,28-1-6.56-39-27.06-65.44-64.83-76.62-29.78-8.81-59.91-8.47-89.71.36a96.32,96.32,0,0,0-41.74,24.58c-25.31,25.44-29.1,79.29,13.4,103.11,8.1,4.54,16.49,9,25.29,11.73,19,5.93,38.39,10.93,57.71,15.91s38.88,9.28,56.74,18.72c14.94,7.9,22.3,20.34,22.83,37.14C-1442.46,3047.74-1456.72,3069.34-1483.54,3078.94Z" transform="translate(2843 -1059)"/><path d="M-990.39,2678.55c-5,19.66-10.49,39.22-15.66,58.86-.87,3.28-1.19,6.71-1.78,10.13,6.43,1.14,6.41-2.87,7.6-5.79,4.79-11.69,8.85-23.76,14.68-34.91,11.34-21.71,29.65-32.33,54.48-32,29,.37,58,.08,87,.09a64.52,64.52,0,0,1,8,.26c6.25.78,10.66,4,11.66,10.48a98.79,98.79,0,0,1,1.22,14.88q.09,177,0,353.95c0,5.32-.21,10.66-.62,16-.86,10.93-6.83,17.81-17.35,20.58-6.1,1.61-12.32,2.79-18.48,4.15-2.6.57-5.42.71-7.72,1.87-1.16.59-1.41,3-2.4,5.37h120c1.5-6.46-3-5.95-5.84-6.63-7.44-1.76-15-2.9-22.41-4.88-11-3-16.49-10.64-16.94-21.94-.16-4-.22-8-.22-12q0-178.48,0-356.95c0-2.67-.06-5.34,0-8,.5-12.48,4.78-17,17-17.07,31.66-.14,63.33-.24,95,.05,18.47.18,34,7.54,44.21,23.09,6.35,9.65,11,20.45,16,30.95,2.4,5.08,3.68,10.69,5.67,16,1.19,3.18,3.35,3.79,6.59,1.25-7.53-29.4-15.1-58.93-22.76-88.83h-353C-987.81,2664.85-988.66,2671.81-990.39,2678.55Z" transform="translate(2843 -1059)"/><path d="M62.28,2675c31.66-.12,63.32-.24,95,.07,18.48.19,33.94,7.66,44.14,23.22,6.33,9.65,10.92,20.48,15.87,31,2.39,5.09,3.56,10.75,5.79,15.93.62,1.44,3.06,2.08,4.66,3.09l1.86-1.4q-11.37-44.58-22.79-89.31H-145c-7.79,30.36-15.36,59.81-22.89,89.17,6.25,2.49,6.45-1.49,7.7-4.44,5.42-12.85,10-26.18,16.67-38.35,10.84-19.77,28.44-29.15,51.09-29,20.33.12,40.66,0,61,0,10.66,0,21.33-.16,32,.07s15,4.41,16.15,15a57,57,0,0,1,.18,6q0,183,0,365.9a84.69,84.69,0,0,1-1.31,12.88c-1.12,7.23-5.52,12-12.17,14.63a88.76,88.76,0,0,1-12.36,3.82c-5.5,1.3-11.1,2.18-16.66,3.24-3.58.68-4.1,2.75-2.5,6.05H90.18c2.23-5.57-1.66-5.84-4.88-6.55-7.8-1.7-15.69-3-23.39-5.07-10.63-2.84-16-10.33-16.66-21.13-.35-5.31-.4-10.65-.41-16q0-176,0-351.91c0-3.33,0-6.67.16-10C45.68,2679.39,50,2675,62.28,2675Z" transform="translate(2843 -1059)"/><path d="M927,2150.47c32.65-.28,65.3-.27,97.94.23,19,.28,34.28,9.13,43.83,25.41,7,12,11.88,25.19,17.62,37.89,1,2.11,1.33,4.48,2.25,6.61,1.38,3.17,3.56,3.39,6.56,1.08q-11.34-44.19-22.73-88.51H720.67l-23,89.07c6.05,2.29,6.5-1.24,7.84-4.43,5.67-13.46,10.77-27.26,17.67-40.07,7.4-13.73,19.48-22.7,35.08-25.86a93.68,93.68,0,0,1,17.86-1.63c28.32-.16,56.64-.09,85-.05,3,0,6,.26,9,.55,6.46.62,10.49,4.18,11.49,10.55a89.72,89.72,0,0,1,1.11,13.89q.07,178.9,0,357.83c0,3,.06,6-.17,9-1.22,15.64-5.58,21.16-20.77,25.24-6.73,1.81-13.68,2.78-20.53,4.1-3.5.67-5.68,2.09-3.48,6.52H955.94c1.67-5.38-1.49-6-5-6.72-8.44-1.76-17-3.38-25.23-5.74-9-2.57-13.55-9.37-14.46-18.43a168.41,168.41,0,0,1-.57-17q0-176.42,0-352.83c0-3.33,0-6.67.12-10C911.42,2154.93,915,2150.58,927,2150.47Z" transform="translate(2843 -1059)"/><path d="M-1403.19,2219.86c1.38,4.16,3.56,4.15,7,2-7.57-29.44-15.09-58.69-22.71-88.29-9.23-1.82-345.91-1.49-353.31.51-1.43,7.5-2.48,15.09-4.37,22.47-4.87,19-10.15,37.93-15.17,56.91-.8,3-1.12,6.16-1.64,9.15,7,1.75,6.54-3.26,7.87-6.23,5.8-13,10.58-26.63,17.46-39.07,7.92-14.35,20.85-23.23,37.29-25.94a120.61,120.61,0,0,1,18.93-1.12c26-.11,52-.07,78,0,22.19,0,24.85,2.66,24.85,24.55q0,171.95,0,343.87c0,7.33.13,14.67-.06,22-.42,16.47-5.14,22.38-21.24,26.87-2.56.71-5.16,1.29-7.77,1.78-4.26.8-8.54,1.44-12.79,2.22-3.76.69-5.1,2.65-2.94,6.62h118.23c1.69-5.85-1.68-6.22-5.11-6.94-8.44-1.78-16.94-3.42-25.22-5.78-8.1-2.32-12.87-8.2-13.95-16.57a132.77,132.77,0,0,1-1.11-16.91q-.09-178.42,0-356.86c0-2.66,0-5.34.16-8,.81-12.15,4.53-16.5,16.55-16.59,33-.24,66-.22,98.94.35,17,.29,30.89,8.21,40.56,22.14,5.46,7.86,9.77,16.62,13.83,25.33C-1407.75,2205.18-1405.6,2212.6-1403.19,2219.86Z" transform="translate(2843 -1059)"/><path d="M-1862,1757.61h-29.6v10.55q0,99.46,0,198.95c0,4,0,8,.39,12,3.13,33.75,19.83,58,50.87,72,12.62,5.7,26,8.43,39.69,9.24,41.47,2.47,76.85-9.81,103.15-43.5,1.71-2.18,3.74-4.12,5.62-6.17l1.81.63v41.5h29V1757.42h-29.35v12.2q0,87.48,0,175c-.06,33.72-14.46,59.93-43.17,77.39-26.52,16.13-55.37,18.2-84.8,9.56-25.85-7.58-39.32-26.09-42.6-52.34a161.93,161.93,0,0,1-1-20q-.1-95,0-190Z" transform="translate(2843 -1059)"/><path d="M-1225.56,1469.75c24.89,42.47,62.07,64.74,111.57,65.63,44.5.79,80-17,106.85-52.33,11.57-15.26,20-32.21,26.38-50.22a59.81,59.81,0,0,0,1.5-6.46c-6.22-2.27-9.1.08-11.36,5.19A188.57,188.57,0,0,1-1017,1475c-12,14.68-26,27.08-43.78,33.92-43.77,16.82-83.58,8.41-117.71-22.69-34.58-31.5-47.93-72.64-48.36-118.55,0-1.2.68-2.4,1.24-4.2h226.38c.6-40.37-7.26-76.27-35.07-105.41A96.6,96.6,0,0,0-1089,1229c-45-7.73-83,6.2-114.25,38.56C-1253.84,1320-1263.17,1405.55-1225.56,1469.75Zm6.68-144.72c13.7-39.45,39.36-66.58,80.73-77a96.24,96.24,0,0,1,48.41,0c34.43,9,52.59,33.17,60.26,66.36,2.22,9.61,2.6,19.64,4,30.59H-1224C-1222.14,1337.74-1221,1331.2-1218.88,1325Z" transform="translate(2843 -1059)"/><path d="M855.72,2015.09c52.94,61.47,160.91,63.52,210.11-15.48,18.24-29.28,27.36-61.14,28.08-95.52.53-23.95-5.49-52.36-16.38-75.48-21.43-45.46-56.3-72.64-107.16-76.73-40.14-3.23-75.83,8-105.19,36.23C803.75,1847.23,800.1,1950.51,855.72,2015.09Zm183.84-199.68c22.32,31.87,30.36,67.69,28.43,106-1.29,25.68-7.9,50-21.8,71.85-16.31,25.69-38.62,43.39-69.41,47.41-29.28,3.82-56.3-3.47-80.07-21.2-31.21-23.28-48.28-55.3-55.52-92.92-1.88-9.76-2.27-19.81-3.35-29.72.75-30.95,9-59.24,27.73-84.09C908.11,1756.45,996.23,1753.51,1039.56,1815.41Z" transform="translate(2843 -1059)"/><path d="M-609.71,3063c52.57,63.57,163.11,65.44,212.33-16.27,17.6-29.21,26.42-60.84,27.79-95.05-1.87-13.15-3-26.44-5.74-39.41a154.25,154.25,0,0,0-25.83-59c-23.94-33.28-56.57-50.53-97.43-52.38-39.18-1.78-73.7,9.55-101.75,37.53C-657,2895-668.26,2992.24-609.71,3063ZM-472,2826.72c23.14,9.37,40.18,25.71,53,46.79a160.59,160.59,0,0,1,22.69,82.11c.21,33.29-5.88,60.31-20.76,84.9-16.56,27.37-39.87,45.72-72.28,49.64-29.41,3.55-56.19-4.59-79.71-22.47-28.28-21.48-44.87-50.59-52.71-84.77-8.31-36.28-5.41-71.52,12.45-104.75C-582.19,2827.52-523.86,2805.76-472,2826.72Z" transform="translate(2843 -1059)"/><path d="M1206.85,2276.19c-53.4-.23-88.11,14.25-114.86,45.39-51.82,60.34-56.21,150.21-2.78,215.88,52.27,64.25,161,66.16,210.08-11,36.17-56.88,40.44-117,11-177.79C1287.24,2301,1247.86,2276.63,1206.85,2276.19Zm80.07,231.89c-14.46,27.82-35.47,48.31-66.87,55.67-28,6.56-54.28.89-78.75-13.42-21.56-12.62-37.66-30.71-48.89-52.85-21.93-43.21-26.3-87.88-7.21-133.09,15.33-36.32,42.1-60.59,81.72-67.79,41-7.45,75.83,4.61,102.71,36.89,21,25.19,30.44,55.06,33.26,87.29.43,5,.06,10,.06,15C1303.6,2461.17,1298.67,2485.48,1286.92,2508.08Z" transform="translate(2843 -1059)"/><path d="M254.69,2411.13c1.15-22.49-1.74-43.06-9.23-62.9-13-34.6-36.33-59.33-72.7-68.27-47.42-11.65-89,1.67-121.83,37.16C5.86,2365.91-4.59,2423.88,14.76,2486.4c17.08,55.21,53.46,90.65,113,97.49,33.71,3.87,65-3.46,92.36-24.29,27.51-21,44-49.46,54.69-81.76.2-.62-.46-1.52-1.2-3.69-2.08,4-3.61,6.82-5.05,9.69-9,18-20,34.59-34.56,48.66-49.45,47.82-123.48,44.65-168.57-7.33-20.94-24.14-32.31-52.56-36.46-84-1.28-9.75-3.19-19.59-.73-30ZM39.11,2364.22c16.25-36.91,43.23-61.39,83.65-68.14,30.75-5.14,59.2.48,81.24,24.87,13.89,15.37,20.22,34.18,22.9,54.36.82,6.17,1,12.42,1.56,19.21H30.92C31.7,2383.42,35,2373.63,39.11,2364.22Z" transform="translate(2843 -1059)"/><path d="M-838.28,2558.55c26.39-21.11,42.68-48.92,53.14-80.56.18-.53-.19-1.24-.79-4.45-2.58,4.81-4.35,7.89-5.92,11.06-8.93,18.07-20.16,34.46-34.74,48.5-48.39,46.6-121.82,43.84-166.5-6.35-22-24.7-33.86-53.93-38-86.46-1.19-9.43-3-18.94-.73-29.42h226.69c.83-39.57-7.46-74.9-35-103.73A95.08,95.08,0,0,0-890.9,2279c-43.81-8.84-82,3-113.9,33.7-59.56,57.31-65.67,158.8-14.62,224C-973.38,2595.43-887.18,2597.64-838.28,2558.55Zm-182.59-194.19c16.21-36.91,43.18-61,83.53-68.35a95.69,95.69,0,0,1,44.52,2c32.43,9.55,49.83,32.87,57.39,64.43,2.44,10.19,3,20.84,4.46,32h-198C-1028.27,2383.56-1025,2373.77-1020.87,2364.36Z" transform="translate(2843 -1059)"/><path d="M852.8,3003.5c.29-.86,0-1.92,0-3.83-1.27.73-2.08.91-2.35,1.39-1.3,2.32-2.46,4.71-3.65,7.08-8.81,17.72-19.58,34-33.75,48C762.9,3105.64,687,3102,641.85,3047.75c-20.19-24.27-31.17-52.49-34.92-83.63-1.09-9.08-2.93-18.24-.71-28.52H832.34a41.94,41.94,0,0,0,.75-4.83c.38-20.88-2.48-41.29-10.46-60.64-16.49-40-45.73-64.25-89.25-68.82-36-3.78-67.84,7.42-95,31.22-30.11,26.4-47.18,60.18-52.39,99.49-6.09,46,3,88.9,30.94,126.82C663.71,3122.29,756.87,3123.1,806,3078,828.5,3057.41,843,3032,852.8,3003.5ZM611,2907.77c12-43.28,37.61-73.59,82.11-85.59a97.27,97.27,0,0,1,48.47-.62c21.78,5.21,38.6,17.44,50,36.87,10.73,18.32,14.36,38.38,14.84,60.47H608.72C609.55,2914.72,610,2911.18,611,2907.77Z" transform="translate(2843 -1059)"/><path d="M-227.86,2295.33c2.26-.52,4.59-.82,6.89-1.18,5.92-.91,11.84-1.85,17.78-2.66,3.25-.45,4.94-1.8,3.55-5.94H-320c1.53,2.51,2.14,4.84,3.34,5.22a56.72,56.72,0,0,0,10.8,1.94c19.53,2.09,32,12.32,39,30.9,10.39,27.74,21.86,55.08,32.87,82.59q32.87,82.08,65.72,164.16c1.57,3.93,3.42,7.5,1.65,12.31-10.44,28.3-23,55.48-43,78.41a129.14,129.14,0,0,1-24,20.9c-10.75,7.43-22.89,8-35.33,3.35-13.5-5.07-24.25-13.69-33.5-24.49-1.71-2-3.64-3.81-5.47-5.7,4,10.06,10.39,18,17.78,25.12,26.25,25.26,58.61,25.71,84.34,0,10-10,18.56-21.85,26.17-33.87,16.09-25.42,27.72-53.13,38.35-81.18,30.45-80.33,61-160.63,90.77-241.2,7.3-19.73,20.34-29.54,40.68-31.11a131.17,131.17,0,0,0,15.84-2c1.33-.27,2.22-2.68,4.14-5.18-3.89-.36-5.84-.7-7.79-.71q-53,0-106,0c-2,0-4.14-.11-5.83.66-1,.46-1.22,2.57-2.27,5.08l10.58.73c8,.58,16,.73,23.91,1.86,10.47,1.51,14.59,7.38,12.76,17.42a71.33,71.33,0,0,1-3.33,11.48q-37.79,104.23-75.68,208.43c-1.92,5.29-4,10.52-6.66,17.51-2-4.49-3.37-7.42-4.56-10.42q-26.34-66.39-52.64-132.79C-218.54,2376.42-230,2348-241,2319.43-246.3,2305.66-242.14,2298.65-227.86,2295.33Z" transform="translate(2843 -1059)"/><path d="M352.4,1528.7l111.33-289.38H433.51L333.73,1502q-47.33-131-94.83-262.41H207.55c36.38,97.12,72.41,193.28,108.33,289.16Z" transform="translate(2843 -1059)"/><path d="M-804.32,1528c25.14-7.66,43.11-24.65,52.47-49.79,4.12-11.07,5.28-22.59,5.51-34.34.64-32.77-14.27-55.37-44.25-68-10.1-4.23-20.61-7.54-31.07-10.83-19.67-6.18-39.7-11.34-59.07-18.33a129.59,129.59,0,0,1-30.67-16.3c-12.78-9.06-16.86-22.57-14.44-38,2.51-16,11.53-27.41,25-35.54,21-12.68,44-15.48,67.51-11,39.51,7.54,57.68,36.68,48.51,76-.74,3.17-1.4,6.36-2.11,9.65,6,2.66,8.87.81,10.8-4.82,5.59-16.38,11.08-32.83,17.62-48.84,3.07-7.53,1.48-12-4.15-17.22-29.94-27.6-65.31-37.73-105.11-32.4a117.33,117.33,0,0,0-32.4,9.42c-50.87,23.08-50.73,92-15.5,120.61,14.51,11.76,31,19.19,48.64,24.72,17.14,5.4,34.52,10.15,51.33,16.4a206.21,206.21,0,0,1,35.94,17.1c26.36,16.16,25.06,43.37,15,62-6.91,12.77-17.39,21.9-30.2,28.2-25.75,12.68-52.91,15.66-80.74,9.18-30.88-7.18-47-28.58-47.55-60.52-.24-15.52,2.91-30.39,7.54-45.69h-8.61c-8.85,23.39-17.35,46.83-26.68,69.94-2.77,6.85-1.21,11,3.61,15.65C-906.27,1535-857.92,1544.33-804.32,1528Z" transform="translate(2843 -1059)"/><path d="M-1552,1667.78V1757h-47.69v23.62H-1552v13.45q0,100.92,0,201.84c0,6.32.21,12.67.81,19,1.91,19.85,13.19,33.34,32.38,38.47,14.44,3.86,29,3.3,43.47-.17a66.62,66.62,0,0,0,7.46-2.63v-23.82c-3.79,1.06-6.59,2.28-9.48,2.55-8.23.76-16.55,2-24.73,1.46-11.25-.77-17.39-7.28-19.09-18.38a85.87,85.87,0,0,1-.81-12.93q-.07-103.42,0-206.85v-12.15h56V1756.5h-56.32v-88.72Z" transform="translate(2843 -1059)"/><path d="M-2812.27,1089.88c2.05,1.55,4.82,2.14,7.3,3.1,12,4.63,24.1,9.24,35.56,13.63v401.3l-10.18,3.36q-15.15,5-30.3,10c-3.42,1.14-6.21,2.69-3.89,7.25h118.48c1.94-5.74-1.89-6.57-5.46-7.74-12.93-4.25-25.84-8.56-39.44-13.08V1107c3.31-1.36,6.33-2.68,9.41-3.86,10.24-3.94,20.48-7.91,30.77-11.72,3.79-1.4,6.82-2.91,4.48-7.85h-120.11C-2814.23,1086.36-2813.74,1088.77-2812.27,1089.88Z" transform="translate(2843 -1059)"/><path d="M-1288,2832.66h54.6V2809h-55.45v-87.52H-1318v87.9H-1365v23.44h47V2847q0,101.47,0,202.95a112.76,112.76,0,0,0,1.09,17.92c2.54,15.61,10.8,27.27,25.89,32.85,18.5,6.83,37.11,5.64,56-.51v-23.3c-7.45,1.42-14.21,3.4-21.08,3.9-23.68,1.71-32.55-6.67-32.56-30.3q-.07-104,0-207.94C-1288.65,2839.69-1288.3,2836.79-1288,2832.66Z" transform="translate(2843 -1059)"/><path d="M-2622.83,1250.92v122.72c0,27.33-.11,54.66,0,82,.09,16.74,1.89,33.29,8.08,49s16.85,26.64,33.78,29.48c26.43,4.43,49.58-2.06,67.59-23,7.93-9.22,13.32-19.89,17.35-31.28a42,42,0,0,0,1.23-6.2c-5.79-2-8.66-.49-10.79,4.61-5.29,12.72-12.12,24.54-23.5,33-25,18.55-55.61,8.49-64.14-21.08a46.07,46.07,0,0,1-2-8.75c-1.07-12.59-2.66-25.21-2.72-37.82-.28-60.32-.12-120.65-.12-181v-11.93h80.5v-15.48H-2598v-98.86h-8.8a56,56,0,0,0-1.69,6.18q-6.21,41.49-12.31,83c-1.45,9.92-1.38,9.92-11.05,11.72-10.48,1.94-20.94,4-31.42,5.86-3.89.71-7.47,1.48-4.84,7.8Z" transform="translate(2843 -1059)"/><path d="M-2045.51,2809.79h-29.15v12.26q0,154.9,0,309.8c0,4.33.07,8.68-.32,13-1.56,17.12-11.1,26.5-28.23,28-3.57.3-7.16.39-11.12.59v23.4c12,.68,23.1.07,34.12-3,18.11-5.1,29-17,32.95-35.15a99.44,99.44,0,0,0,2.17-20.79q.19-158.91.07-317.8C-2045,2816.75-2045.33,2813.51-2045.51,2809.79Z" transform="translate(2843 -1059)"/><path d="M1321.81,1525.47q.14-194.34.17-388.68c0-2.32-.31-4.63-.53-7,0-.27-.38-.52-.6-.77s-.46-.46-.91-.9h-26.42v400.48h27.33A12.79,12.79,0,0,0,1321.81,1525.47Z" transform="translate(2843 -1059)"/><path d="M838,3389.57l-1.8-1V3335H807.35v291.88h29v-11.27q0-76.5,0-153c0-5.32.09-10.67.51-16,3.32-41.94,35.46-77.62,76.7-84.81,7.45-1.3,15.13-1.28,23.31-1.93v-27.1C891.8,3331.36,860.09,3351.84,838,3389.57Z" transform="translate(2843 -1059)"/><path d="M843.6,1516.19q0-72.5.06-145a199.27,199.27,0,0,1,1.3-23.94c5.55-45.21,41.21-76.52,75.79-80.85,7.52-.94,15.08-1.5,23.65-2.33,0-5.84.06-11.44,0-17,0-2.92-.35-5.85-.59-9.68-44.59-1-76.52,18.91-98.36,56.94l-1.87-1.21v-54.18c-7.06,0-13-.05-18.91,0-2.92,0-5.84.27-9.16.43v289.13H843.6Z" transform="translate(2843 -1059)"/><path d="M-2316.77,1757.51V2052.9h28.57c2-17.73,1.24-288.24-.67-295.39Z" transform="translate(2843 -1059)"/><path d="M1292.69,3626.78h35.6v-43.65h-35.6Z" transform="translate(2843 -1059)"/><path d="M-2288.09,1688.82v-45h-29.24v45Z" transform="translate(2843 -1059)"/><path d="M-2074.32,2697.83v44.46h28.5v-44.46Z" transform="translate(2843 -1059)"/><path d="M-1245.89,1134.46l-1.26.4.15.17-.15-.17-.8.46,1-.26Z" transform="translate(2843 -1059)"/><path d="M-1234.22,1128l-11.67,6.43c3.6-1.13,7.22-2.21,10.72-3.58C-1234.57,1130.65-1234.48,1129.13-1234.22,1128Z" transform="translate(2843 -1059)"/><path d="M-1234.15,1127.72a2.38,2.38,0,0,0-.07.31l.21-.12Z" transform="translate(2843 -1059)"/><path d="M-1208.78,1120.28l-.48-1.18-6.24,2.62.48,1.18Z" transform="translate(2843 -1059)"/><path d="M-1224,1125.07l-9.67,2.76C-1229.33,1128.51-1229.16,1128.42-1224,1125.07Z" transform="translate(2843 -1059)"/><path d="M-1233.71,1127.83l-.4-.07s.1.15.1.15Z" transform="translate(2843 -1059)"/></svg>