<?xml version="1.0" standalone="no"?>
<!DOCTYPE svg PUBLIC "-//W3C//DTD SVG 20010904//EN"
 "http://www.w3.org/TR/2001/REC-SVG-20010904/DTD/svg10.dtd">
<svg version="1.0" xmlns="http://www.w3.org/2000/svg"
 width="422.000000pt" height="422.000000pt" viewBox="0 0 422.000000 422.000000"
 preserveAspectRatio="xMidYMid meet">
<metadata>
Created by potrace 1.11, written by Peter Selinger 2001-2013
</metadata>
<g transform="translate(0.000000,422.000000) scale(0.100000,-0.100000)"
fill="#000000" stroke="none">
<path d="M1985 4210 c-191 -12 -377 -47 -540 -103 -410 -142 -788 -419 -1037
-762 -198 -273 -327 -593 -379 -939 -18 -121 -20 -170 -16 -346 6 -218 24
-346 72 -518 68 -243 195 -500 344 -698 318 -421 824 -728 1336 -811 999 -161
1961 394 2318 1337 90 238 130 465 129 740 0 203 -13 320 -54 494 -92 394
-316 772 -628 1062 -330 307 -801 511 -1245 539 -49 3 -110 7 -135 9 -25 1
-99 0 -165 -4z"/>
</g>
</svg>
