<svg id="Layer_1" data-name="Layer 1" xmlns="http://www.w3.org/2000/svg" viewBox="0 0 1141.6 184.06"><title>420</title><path d="M337.86,275.83c.16,0,.26,0,.29-.09A11,11,0,0,1,341,270.8a6.13,6.13,0,0,1,4.31-1.88h.72a2.76,2.76,0,0,1,1.44.27,1.19,1.19,0,0,1,.4,1.07,8.4,8.4,0,0,1-.13,1.35l-3.64,20.79a6.84,6.84,0,0,1-.65,2,1.91,1.91,0,0,1-1.19.88,9.76,9.76,0,0,1-2.42.22c-.09,0-.14.09-.14.27s0,.27.14.27c1,0,1.78,0,2.38,0l3.23-.05,3.37.05c.57,0,1.34,0,2.33,0q.09,0,.09-.27t-.09-.27a7.05,7.05,0,0,1-2.69-.34,1.35,1.35,0,0,1-.72-1.37,11.54,11.54,0,0,1,.18-1.39l3.64-20.7a5,5,0,0,1,.72-2.24,2.26,2.26,0,0,1,1.79-.54h.72a4.29,4.29,0,0,1,3.35,1.32,5.25,5.25,0,0,1,1.19,3.62,17.15,17.15,0,0,1-.18,1.75c0,.12,0,.18.22.2s.28,0,.31-.16c.09-.75.36-2.15.81-4.22s.81-3.56,1.08-4.49c0-.12,0-.19-.18-.2a.29.29,0,0,0-.31.11,1.49,1.49,0,0,1-1,.9,6.82,6.82,0,0,1-2,.22l-2.83,0q-2.78.09-5.07.09-4.89,0-8.22-.14c-1.26,0-1.84-.31-1.75-.94,0-.09,0-.14-.22-.16s-.29,0-.32.12c-.21,1.07-.55,2.59-1,4.55s-.82,3.33-1,4.11C337.63,275.74,337.69,275.8,337.86,275.83Z" transform="translate(286.25 -262)"/><path d="M356.79,293.26a3.63,3.63,0,0,0,.76,2.53,2.76,2.76,0,0,0,2.15.83,7.22,7.22,0,0,0,4.74-2.2,18.66,18.66,0,0,0,4.25-6l-.63,3.59a10.08,10.08,0,0,0-.18,1.89,3,3,0,0,0,.49,1.91,1.87,1.87,0,0,0,1.53.6,4,4,0,0,0,2.33-.87,16.21,16.21,0,0,0,2.7-2.63c.06-.06.06-.14,0-.25a.27.27,0,0,0-.23-.15.17.17,0,0,0-.13,0c-1.17,1.17-2,1.75-2.61,1.75a.54.54,0,0,1-.49-.31,1.7,1.7,0,0,1-.18-.85,6,6,0,0,1,.14-1.13l2.6-14.19s0-.06-.09-.11a.68.68,0,0,0-.27-.07.26.26,0,0,0-.18.09,5.36,5.36,0,0,1-1.3,1.53,3.75,3.75,0,0,0-1.42-.88,5.12,5.12,0,0,0-1.68-.29,8.74,8.74,0,0,0-5.5,2.45,20.9,20.9,0,0,0-4.85,6A14,14,0,0,0,356.79,293.26Zm3.72-4.4a16.35,16.35,0,0,1,1.37-4.47,9.65,9.65,0,0,1,2.31-3.15A4.29,4.29,0,0,1,367,280.1a2.41,2.41,0,0,1,1.93.78,3.25,3.25,0,0,1,.67,2.18,11,11,0,0,1-1.16,4.4,16.09,16.09,0,0,1-2.9,4.4,4.81,4.81,0,0,1-3.35,1.85c-1.22,0-1.84-.93-1.84-2.79A12.39,12.39,0,0,1,360.51,288.86Z" transform="translate(286.25 -262)"/><path d="M380,296.44a4,4,0,0,0,2.38-.85,16.75,16.75,0,0,0,2.7-2.65.22.22,0,0,0,0-.29.25.25,0,0,0-.22-.16.26.26,0,0,0-.18.09c-1.17,1.17-2,1.75-2.56,1.75s-.72-.37-.72-1.12a6,6,0,0,1,.13-1.17l5.08-28.2c0-.06,0-.13-.11-.22a.53.53,0,0,0-.34-.14h-.09l-6.56,3.24c-.12,0-.16.12-.13.27s.1.22.22.22h.09a5.45,5.45,0,0,1,2-.63q.9,0,.9,1.26a7.71,7.71,0,0,1-.14,1.3L378.25,292a13.45,13.45,0,0,0-.22,2,2.81,2.81,0,0,0,.47,1.8A1.8,1.8,0,0,0,380,296.44Z" transform="translate(286.25 -262)"/><path d="M389.52,296.4q1.94,0,2.16-.81L393,288a1.09,1.09,0,0,1,.72.22,4.17,4.17,0,0,1,.68.85l2.6,4.41a8.84,8.84,0,0,0,1.87,2.35,3.07,3.07,0,0,0,2,.65c1.17,0,2.74-1.13,4.72-3.41.09-.06.1-.14,0-.25a.29.29,0,0,0-.27-.15.17.17,0,0,0-.13,0,4.44,4.44,0,0,1-2.61,1.39,2,2,0,0,1-1.32-.49,8.06,8.06,0,0,1-1.5-2l-2.92-4.76a17.77,17.77,0,0,0,5.52-3,4.69,4.69,0,0,0,2-3.46,2.24,2.24,0,0,0-.65-1.61,3,3,0,0,0-2.22-.68,8.88,8.88,0,0,0-3.82.92,13.39,13.39,0,0,0-3.55,2.5l3.15-17.7c0-.06,0-.13-.12-.22a.49.49,0,0,0-.33-.14h-.09l-6.56,3.24c-.12,0-.16.12-.11.27s.11.22.2.22h.09a5.45,5.45,0,0,1,2-.63.82.82,0,0,1,.71.32,1.68,1.68,0,0,1,.23,1,7.62,7.62,0,0,1-.14,1.26l-4.35,23.58c0,.18-.2,1-.5,2.38l-.17,1C388.18,296.29,388.62,296.4,389.52,296.4Zm3.73-9.61a10.59,10.59,0,0,1,2.18-5,4.62,4.62,0,0,1,3.57-1.89c1,0,1.4.69,1.25,2.07a4.47,4.47,0,0,1-1.88,3.17,14.72,14.72,0,0,1-5.21,2.08Z" transform="translate(286.25 -262)"/><path d="M419.11,268.51a2.48,2.48,0,0,1,1.76.74,7.76,7.76,0,0,1,1.48,2.45l4.58,10.82-1.66,9.88a6.16,6.16,0,0,1-.61,2,1.89,1.89,0,0,1-1.1.88,8,8,0,0,1-2.2.22q-.18,0-.18.27t.18.27c.9,0,1.6,0,2.11,0l3.14-.05,3.1.05c.51,0,1.22,0,2.11,0,.09,0,.14-.09.14-.27s0-.27-.14-.27a5.38,5.38,0,0,1-2.33-.34,1.35,1.35,0,0,1-.63-1.32,14.17,14.17,0,0,1,.18-1.44l1.84-10.33,6.06-8.89c2.1-3.11,4.1-4.67,6-4.67q.18,0,.18-.27T443,268l-1.44,0c-.6.06-1.12.09-1.57.09-.75,0-1.72,0-2.92-.09L435,268q-.18,0-.18.27t.18.27a2.35,2.35,0,0,1,1.48.43,1.42,1.42,0,0,1,.54,1.19,4.56,4.56,0,0,1-.9,2.33l-5.57,8.4-4.36-10.55a2.58,2.58,0,0,1-.22-.85.75.75,0,0,1,.52-.72,4.49,4.49,0,0,1,1.68-.23c.12,0,.18-.1.18-.31s0-.23-.13-.23l-2.07,0c-1.32.06-2.35.09-3.1.09-.45,0-1.12,0-2-.09l-1.89,0q-.18,0-.18.27T419.11,268.51Z" transform="translate(286.25 -262)"/><path d="M446.33,278.12a8.64,8.64,0,0,0-4.36,1.19,10.52,10.52,0,0,0-3.48,3.3,12.72,12.72,0,0,0-1.91,4.76,12,12,0,0,0-.27,2.52,7.46,7.46,0,0,0,1.55,4.89,5.41,5.41,0,0,0,4.43,1.89,8.71,8.71,0,0,0,4.15-1.1,10.87,10.87,0,0,0,3.59-3.21,12.11,12.11,0,0,0,2.09-5,13,13,0,0,0,.27-2.56,7.22,7.22,0,0,0-1.57-4.85A5.61,5.61,0,0,0,446.33,278.12Zm2,11.23a11,11,0,0,1-1.75,4.53,3.46,3.46,0,0,1-2.79,1.67,3.07,3.07,0,0,1-2.76-2,10.78,10.78,0,0,1-1-5,19.84,19.84,0,0,1,.31-3.19,10.73,10.73,0,0,1,1.78-4.62,3.48,3.48,0,0,1,2.76-1.62,3.06,3.06,0,0,1,2.76,2,10.68,10.68,0,0,1,1,4.94A16,16,0,0,1,448.35,289.35Z" transform="translate(286.25 -262)"/><path d="M463.64,294.33a20,20,0,0,0,3.66-6.42l-.77,4.54a9.72,9.72,0,0,0-.18,1.75,2.65,2.65,0,0,0,.45,1.71,1.8,1.8,0,0,0,1.44.53,4.54,4.54,0,0,0,2.54-.85,16.13,16.13,0,0,0,2.9-2.69.32.32,0,0,0,0-.3.28.28,0,0,0-.23-.15.17.17,0,0,0-.13,0q-1.8,1.89-2.79,1.89c-.54,0-.81-.43-.81-1.3a5,5,0,0,1,.09-1l1.84-10c0-.18.2-1,.5-2.38l.18-1c0-.21-.45-.31-1.35-.31-1.29,0-2,.27-2.15.81l-.05.31a43.45,43.45,0,0,1-2.09,8,18.27,18.27,0,0,1-2.72,5.12,3.84,3.84,0,0,1-2.78,1.75c-1.08,0-1.62-.77-1.62-2.33a10.55,10.55,0,0,1,.27-2.16l1.44-7.14a11.89,11.89,0,0,0,.23-2q0-2.43-2-2.43a4,4,0,0,0-2.36.83,17.38,17.38,0,0,0-2.71,2.67.23.23,0,0,0,0,.3.27.27,0,0,0,.23.15.26.26,0,0,0,.17-.09,13.26,13.26,0,0,1,1.49-1.3,2,2,0,0,1,1.07-.45c.51,0,.77.39.77,1.17a6,6,0,0,1-.14,1.12l-1.61,8a11.8,11.8,0,0,0-.23,2.33c0,2.4,1,3.59,3.06,3.59A6,6,0,0,0,463.64,294.33Z" transform="translate(286.25 -262)"/><path d="M489.89,279.11a3.23,3.23,0,0,0-2.07-.81q-1.76,0-3.32,2.7a32.91,32.91,0,0,0-2.88,7l.9-5.12a13.79,13.79,0,0,0,.23-2.11,3,3,0,0,0-.48-1.86,1.76,1.76,0,0,0-1.5-.61,4.49,4.49,0,0,0-2.49.81,14.76,14.76,0,0,0-2.81,2.6.27.27,0,0,0,0,.3.27.27,0,0,0,.23.15.17.17,0,0,0,.13,0c1.11-1.17,2-1.75,2.65-1.75s.9.48.9,1.43a13.56,13.56,0,0,1-.18,1.49l-1.71,9.43c-.09.57-.18,1-.27,1.46s-.16.72-.22,1l-.23.94c0,.21.45.32,1.35.32a4.07,4.07,0,0,0,1.5-.23.93.93,0,0,0,.66-.58,45.9,45.9,0,0,1,1.52-6,40.91,40.91,0,0,1,2.29-5.88c.81-1.63,1.5-2.45,2.07-2.45a1,1,0,0,1,.58.18c.18.12.36.26.54.4a2.33,2.33,0,0,0,1.62.81,1.62,1.62,0,0,0,1.21-.51,2.08,2.08,0,0,0,.58-1.15A1.89,1.89,0,0,0,489.89,279.11Z" transform="translate(286.25 -262)"/><path d="M521.05,268.56a13.42,13.42,0,0,0-5.16-1.08,11.22,11.22,0,0,0-6.27,1.8,7.66,7.66,0,0,0-3.43,5.16,6.62,6.62,0,0,0-.14,1.3,5.51,5.51,0,0,0,.67,2.72,8,8,0,0,0,1.64,2c.65.57,1.54,1.29,2.68,2.16a19.7,19.7,0,0,1,3.59,3.25,5.78,5.78,0,0,1,1.26,3.75c0,.21,0,.59-.09,1.13a5.78,5.78,0,0,1-1.78,3.59,5,5,0,0,1-3.48,1.26q-5,0-6.28-7.64c0-.15-.09-.22-.25-.22s-.25.07-.25.22l-1.17,6.2a.68.68,0,0,0,.27.85,12.94,12.94,0,0,0,3.24,1.19,15.17,15.17,0,0,0,3.27.34,11.56,11.56,0,0,0,7.26-2.16A8.59,8.59,0,0,0,520,288.9a6.77,6.77,0,0,0-1.28-5.19,23.72,23.72,0,0,0-4-3.57c-1.13-.86-2-1.56-2.6-2.09a7.25,7.25,0,0,1-1.53-1.88,4.83,4.83,0,0,1-.63-2.45,6.4,6.4,0,0,1,.52-2.42,5,5,0,0,1,1.59-2.11,4.29,4.29,0,0,1,2.74-.86,4.35,4.35,0,0,1,3.57,1.8,10.59,10.59,0,0,1,2,4.76c0,.09.12.13.27.13s.24,0,.27-.13l.62-5.57C521.63,269,521.47,268.77,521.05,268.56Z" transform="translate(286.25 -262)"/><path d="M526.75,295.59l.18-1A41.42,41.42,0,0,1,529,287a17.6,17.6,0,0,1,2.67-4.88,3.84,3.84,0,0,1,2.72-1.66c1,0,1.57.78,1.57,2.34a10.48,10.48,0,0,1-.23,2.15l-1.3,7.14a13.47,13.47,0,0,0-.22,2.07,2.77,2.77,0,0,0,.47,1.75,1.75,1.75,0,0,0,1.46.58,4,4,0,0,0,2.42-.85,16.75,16.75,0,0,0,2.7-2.65.22.22,0,0,0,0-.29.25.25,0,0,0-.22-.16.26.26,0,0,0-.18.09c-1.17,1.17-2,1.75-2.56,1.75s-.76-.38-.76-1.16a5.92,5.92,0,0,1,.13-1.13l1.48-8a15.76,15.76,0,0,0,.23-2.29c0-2.43-1-3.64-3-3.64a6.07,6.07,0,0,0-4.43,2.25,19.52,19.52,0,0,0-3.65,6.33l4.08-22.86c0-.06,0-.13-.11-.22a.53.53,0,0,0-.34-.14h-.09l-6.55,3.24q-.18,0-.12.27c0,.15.12.22.21.22h.09a5.36,5.36,0,0,1,2-.63.83.83,0,0,1,.72.32,1.68,1.68,0,0,1,.23,1,7.62,7.62,0,0,1-.14,1.26l-4.36,23.58c0,.18-.19,1-.49,2.38l-.18,1c0,.21.45.32,1.35.32C525.89,296.4,526.6,296.13,526.75,295.59Z" transform="translate(286.25 -262)"/><path d="M552.17,292.69a.25.25,0,0,0-.22-.15.26.26,0,0,0-.18.09c-1.23,1.14-2.1,1.7-2.61,1.7s-.76-.38-.76-1.16a5.92,5.92,0,0,1,.13-1.13l1.84-9.74a9.76,9.76,0,0,0,.23-1.8c0-1.46-.66-2.2-2-2.2a4.48,4.48,0,0,0-2.49.86,15.42,15.42,0,0,0-2.9,2.69.26.26,0,0,0,0,.29.29.29,0,0,0,.27.16.2.2,0,0,0,.14-.05c1.1-1.25,2-1.88,2.74-1.88.56,0,.85.42.85,1.26a6,6,0,0,1-.13,1.07L545.25,292a9.79,9.79,0,0,0-.27,2.07c0,1.56.66,2.33,2,2.33a4.24,4.24,0,0,0,2.43-.83,14.94,14.94,0,0,0,2.73-2.62A.23.23,0,0,0,552.17,292.69Z" transform="translate(286.25 -262)"/><path d="M549.92,273.41a2.17,2.17,0,0,0,1.67-.63,2.51,2.51,0,0,0,.58-1.75,2.26,2.26,0,0,0-.58-1.6,2.23,2.23,0,0,0-1.67-.6,2.44,2.44,0,0,0-1.72.6,2.08,2.08,0,0,0-.66,1.6,2.18,2.18,0,0,0,2.38,2.38Z" transform="translate(286.25 -262)"/><path d="M558.82,296.58a6.5,6.5,0,0,0,3.07-.83,18.67,18.67,0,0,0,3.62-2.76.17.17,0,0,0,0-.27.45.45,0,0,0-.32-.14h0a6.45,6.45,0,0,1-3.95,1.8c-1.53,0-2.29-.7-2.29-2.11a4.88,4.88,0,0,1,.13-1.12L561,280.32a22.9,22.9,0,0,1,3,.27c.93.15,1.45.23,1.57.23a1.3,1.3,0,0,0,.94-.65,2,2,0,0,0,.5-1c0-.27-.11-.41-.32-.41a15.72,15.72,0,0,0-1.7.14l-1.66.11c-.63,0-1.34.08-2.11.11l.62-3.59s0-.07-.13-.11a.92.92,0,0,0-.36-.07c-.18,0-.28,0-.31.09a7.28,7.28,0,0,1-2.07,2.76,4.87,4.87,0,0,1-3.14,1.06c-.09,0-.14.12-.14.35s.05.27.14.27a2.59,2.59,0,0,1,1.32.23,1,1,0,0,1,.34.9,8.39,8.39,0,0,1-.14,1.3l-1.79,9.83a7.37,7.37,0,0,0-.14,1.35Q555.4,296.59,558.82,296.58Z" transform="translate(286.25 -262)"/><path d="M583.43,266.84a15.35,15.35,0,0,1,3.05-4.53s0-.07,0-.13a.16.16,0,0,0-.13-.07h0a12.3,12.3,0,0,0-4.62,4.37,17.84,17.84,0,0,0-2.58,6.65,19.52,19.52,0,0,0-.29,3.16,11.57,11.57,0,0,0,.9,4.73,6.87,6.87,0,0,0,2.71,3.13s.08,0,.12,0a.17.17,0,0,0,.07-.14v0a14.83,14.83,0,0,1-1.39-6.55,28.91,28.91,0,0,1,2.19-10.55Z" transform="translate(286.25 -262)"/><path d="M600.69,266.45,598.83,279a4.33,4.33,0,0,1-.31,1.17,1,1,0,0,1-.55.51,3.65,3.65,0,0,1-1.15.13c-.05,0-.08.05-.08.16s0,.16.08.16c.49,0,.87,0,1.15,0l1.65,0,1.7,0c.28,0,.65,0,1.13,0,0,0,.07-.06.07-.16s0-.16-.07-.16a2.46,2.46,0,0,1-1.18-.19.89.89,0,0,1-.32-.8A5.48,5.48,0,0,1,601,279l1.81-12.17a2.13,2.13,0,0,1,.6-1.4,2.21,2.21,0,0,1,1.36-.35s.05-.05.05-.16,0-.16-.05-.16a5.93,5.93,0,0,0-.7,0l-1,0-.94,0a4.44,4.44,0,0,0-.55,0,1,1,0,0,0-.94.66l-6,12.12-2.41-11.42a3.88,3.88,0,0,0-.35-1.09.52.52,0,0,0-.46-.27,4.44,4.44,0,0,0-.55,0l-1.31,0-.91,0a5.89,5.89,0,0,0-.68,0s-.06.06-.06.16,0,.16.06.16a1.93,1.93,0,0,1,1.8.91l-2.22,12a4.63,4.63,0,0,1-.89,2.11,2,2,0,0,1-1.52.74c-.05,0-.08.05-.08.16s0,.16.08.16c.43,0,.77,0,1,0l1.18,0,1.34,0c.21,0,.5,0,.89,0,0,0,.07-.06.07-.16s0-.16-.07-.16a1.31,1.31,0,0,1-1.08-.47,2.26,2.26,0,0,1-.36-1.39,9.41,9.41,0,0,1,.1-1l2-10.82,2.94,13.83a.18.18,0,0,0,.18.13.18.18,0,0,0,.18-.11Z" transform="translate(286.25 -262)"/><path d="M612.17,279.59a.19.19,0,0,0-.14-.08h0a3.71,3.71,0,0,1-1.2.62,4.46,4.46,0,0,1-1.26.2,2.25,2.25,0,0,1-2-1,4.28,4.28,0,0,1-.68-2.55,10.79,10.79,0,0,1,.1-1.23,13.18,13.18,0,0,0,4.26-1.47c1.17-.68,1.76-1.42,1.76-2.22a1,1,0,0,0-.52-.93,2.76,2.76,0,0,0-1.47-.33,5.46,5.46,0,0,0-2.86.81,7.14,7.14,0,0,0-2.23,2.11,7.29,7.29,0,0,0-1.14,2.68,8.51,8.51,0,0,0-.13,1.34,4.19,4.19,0,0,0,.89,2.75,3.22,3.22,0,0,0,2.62,1.07,5.77,5.77,0,0,0,4-1.68S612.22,279.65,612.17,279.59Zm-4.11-7.17a2,2,0,0,1,1.66-1.07,1.12,1.12,0,0,1,.71.23.85.85,0,0,1,.29.68,2.71,2.71,0,0,1-.05.34q-.31,1.86-3.62,2.6A7.73,7.73,0,0,1,608.06,272.42Z" transform="translate(286.25 -262)"/><path d="M623.63,271.11c0-.24,0-.36-.14-.36a6.21,6.21,0,0,0-2.56.62,2.89,2.89,0,0,0-1.81-.55,4.44,4.44,0,0,0-2.93,1.09,4.65,4.65,0,0,0-1.6,2.74,6,6,0,0,0-.1.94,3.29,3.29,0,0,0,.46,1.77,2.36,2.36,0,0,0,1.35,1,6.83,6.83,0,0,0-1.18,1.14,1.7,1.7,0,0,0-.4,1.08c0,.46.32.91.95,1.37a13.41,13.41,0,0,0-2.48,1.67,3.37,3.37,0,0,0-1.11,1.76,1.79,1.79,0,0,0,0,.39,2.25,2.25,0,0,0,1.09,1.9,5.22,5.22,0,0,0,3,.74,7.73,7.73,0,0,0,2.83-.51A5.06,5.06,0,0,0,621,286.5a3,3,0,0,0,.79-2,2.24,2.24,0,0,0-.43-1.37,3.73,3.73,0,0,0-1-1,17.19,17.19,0,0,0-1.61-.85,10.74,10.74,0,0,1-1.69-1,1.28,1.28,0,0,1-.56-1,1.56,1.56,0,0,1,.23-.78,5.44,5.44,0,0,0,.55,0,4.26,4.26,0,0,0,2-.48,4.93,4.93,0,0,0,1.65-1.37,4.57,4.57,0,0,0,.93-2,4.23,4.23,0,0,0,.11-1,2.94,2.94,0,0,0-.58-1.89,3.58,3.58,0,0,1,2,.53c.06.05.14-.07.22-.37A3.27,3.27,0,0,0,623.63,271.11Zm-6.5,11.68a10.64,10.64,0,0,1,2.12,1.28,2,2,0,0,1,.1,3,2.79,2.79,0,0,1-1.93.59,3.74,3.74,0,0,1-2.36-.74,2.25,2.25,0,0,1-.94-1.85,2.57,2.57,0,0,1,.51-1.6,5.94,5.94,0,0,1,1.35-1.28ZM619.8,275a4.82,4.82,0,0,1-.68,2.13,1.46,1.46,0,0,1-1.18.8,1.19,1.19,0,0,1-1-.76,4.07,4.07,0,0,1-.41-1.94,6.43,6.43,0,0,1,.08-1,4.82,4.82,0,0,1,.68-2.11,1.51,1.51,0,0,1,1.21-.85,1.12,1.12,0,0,1,1,.82,4.93,4.93,0,0,1,.36,2C619.86,274.36,619.84,274.65,619.8,275Z" transform="translate(286.25 -262)"/><path d="M634.05,279.28s0-.08,0-.14-.08-.1-.14-.1a.08.08,0,0,0-.07,0c-.68.68-1.19,1-1.52,1a.33.33,0,0,1-.29-.18,1,1,0,0,1-.1-.5,3.52,3.52,0,0,1,.07-.65l1.52-8.28s0,0,0-.06a.32.32,0,0,0-.16,0,.16.16,0,0,0-.1.05,3.17,3.17,0,0,1-.76.89,2.07,2.07,0,0,0-.83-.51,3,3,0,0,0-1-.17,5.13,5.13,0,0,0-3.21,1.43,12.25,12.25,0,0,0-2.82,3.51,8.12,8.12,0,0,0-1.14,3.88,2.15,2.15,0,0,0,.44,1.48,1.65,1.65,0,0,0,1.26.49,4.21,4.21,0,0,0,2.76-1.29,10.87,10.87,0,0,0,2.48-3.48l-.37,2.1a5.77,5.77,0,0,0-.1,1.1,1.78,1.78,0,0,0,.28,1.11,1.11,1.11,0,0,0,.89.35,2.33,2.33,0,0,0,1.36-.51A9.16,9.16,0,0,0,634.05,279.28Zm-3.8-3.19a9.34,9.34,0,0,1-1.69,2.56,2.77,2.77,0,0,1-1.95,1.07c-.72,0-1.07-.54-1.07-1.62a7.28,7.28,0,0,1,.1-1.2,9.48,9.48,0,0,1,.8-2.61,5.62,5.62,0,0,1,1.35-1.83,2.45,2.45,0,0,1,1.62-.67,1.42,1.42,0,0,1,1.13.46,1.91,1.91,0,0,1,.39,1.27A6.48,6.48,0,0,1,630.25,276.09Z" transform="translate(286.25 -262)"/><path d="M635.28,273.08a.08.08,0,0,0,.07,0c.68-.73,1.22-1.1,1.6-1.1s.47.25.47.76a3.28,3.28,0,0,1,0,.6l-1.07,5.84-.29,1.39-.11.57c0,.12.27.18.79.18.75,0,1.17-.15,1.26-.47l.07-.41a25.17,25.17,0,0,1,1.21-4.55,10.57,10.57,0,0,1,1.56-2.89,2.22,2.22,0,0,1,1.61-1c.61,0,.91.45.91,1.36a5.9,5.9,0,0,1-.13,1.25l-.76,4.17a8.84,8.84,0,0,0-.13,1.2,1.57,1.57,0,0,0,.28,1,1,1,0,0,0,.85.34,2.29,2.29,0,0,0,1.41-.5,9.21,9.21,0,0,0,1.57-1.54.12.12,0,0,0,0-.17.2.2,0,0,0-.15-.09s0,0-.08.05c-.68.68-1.17,1-1.49,1s-.44-.23-.44-.68a3.52,3.52,0,0,1,.07-.65l.87-4.66a8.82,8.82,0,0,0,.13-1.34c0-1.41-.59-2.12-1.76-2.12A3.56,3.56,0,0,0,641,272a11.41,11.41,0,0,0-2.14,3.73l.47-2.61a10,10,0,0,0,.1-1,1.58,1.58,0,0,0-.27-1,1.05,1.05,0,0,0-.85-.32,2.66,2.66,0,0,0-1.48.49,8.92,8.92,0,0,0-1.67,1.57.12.12,0,0,0,0,.17C635.18,273,635.22,273.08,635.28,273.08Z" transform="translate(286.25 -262)"/><path d="M673.08,272c.63,0,.94.46.94,1.38a7.55,7.55,0,0,1-.13,1.23l-.76,4.17A8.84,8.84,0,0,0,673,280a1.57,1.57,0,0,0,.28,1,1,1,0,0,0,.85.34,2.3,2.3,0,0,0,1.39-.5,10.44,10.44,0,0,0,1.59-1.54.14.14,0,0,0,0-.17A.15.15,0,0,0,677,279s0,0-.08.05c-.68.68-1.18,1-1.52,1s-.41-.22-.41-.65a3.9,3.9,0,0,1,.07-.68l.87-4.66a10.35,10.35,0,0,0,.13-1.34,2.4,2.4,0,0,0-.45-1.61,1.66,1.66,0,0,0-1.33-.51,3.51,3.51,0,0,0-2.55,1.31,11.18,11.18,0,0,0-2.14,3.69L672,262.11s0,0-.05-.07a.32.32,0,0,0-.16,0c-.09,0-.13,0-.13.05a4.77,4.77,0,0,1-2,2,6.68,6.68,0,0,1-2.84.62c-1,.07-2.46.1-4.48.1s-3.5,0-4.79-.08c-.73,0-1.07-.18-1-.55,0-.05,0-.08-.13-.09s-.17,0-.19.07c-.12.63-.31,1.51-.59,2.65s-.47,1.95-.61,2.4c0,.05,0,.09.12.1s.15,0,.17-.05a6.43,6.43,0,0,1,1.67-2.88,3.61,3.61,0,0,1,2.52-1.1h.42a1.74,1.74,0,0,1,.85.16.7.7,0,0,1,.24.63,3.21,3.21,0,0,1-.1.78L658.76,279a4,4,0,0,1-.38,1.17,1.14,1.14,0,0,1-.69.51,5.63,5.63,0,0,1-1.42.13s-.08.05-.08.16,0,.16.08.16c.58,0,1,0,1.39,0l1.89,0,2,0c.33,0,.78,0,1.36,0,0,0,0-.06,0-.16s0-.16,0-.16a4.16,4.16,0,0,1-1.56-.19.81.81,0,0,1-.4-.8A5.32,5.32,0,0,1,661,279l2.13-12.06a3.19,3.19,0,0,1,.43-1.33,1.32,1.32,0,0,1,1-.3h4.69c.17,0,.26.06.26.19l0,.13L667,279.15l-.29,1.39-.11.57c0,.12.27.18.79.18.75,0,1.17-.15,1.26-.47l.1-.55a24.91,24.91,0,0,1,1.2-4.47,10.46,10.46,0,0,1,1.55-2.86A2.19,2.19,0,0,1,673.08,272Z" transform="translate(286.25 -262)"/><path d="M685.92,279.59a.19.19,0,0,0-.14-.08h0a3.71,3.71,0,0,1-1.2.62,4.46,4.46,0,0,1-1.26.2,2.24,2.24,0,0,1-2-1,4.28,4.28,0,0,1-.68-2.55,10.79,10.79,0,0,1,.1-1.23,13.18,13.18,0,0,0,4.26-1.47c1.17-.68,1.76-1.42,1.76-2.22a1,1,0,0,0-.52-.93,2.76,2.76,0,0,0-1.47-.33,5.44,5.44,0,0,0-2.86.81,7,7,0,0,0-2.23,2.11,7.29,7.29,0,0,0-1.14,2.68,7.46,7.46,0,0,0-.13,1.34,4.19,4.19,0,0,0,.89,2.75,3.22,3.22,0,0,0,2.62,1.07,5.74,5.74,0,0,0,4-1.68S686,279.65,685.92,279.59Zm-4.11-7.17a2,2,0,0,1,1.66-1.07,1.12,1.12,0,0,1,.71.23.85.85,0,0,1,.29.68,2.71,2.71,0,0,1-.05.34q-.31,1.86-3.62,2.6A7.73,7.73,0,0,1,681.81,272.42Z" transform="translate(286.25 -262)"/><path d="M691.14,281.4a5.77,5.77,0,0,0,4-1.68s0-.07,0-.13a.22.22,0,0,0-.15-.08h0a3.76,3.76,0,0,1-1.21.62,4.34,4.34,0,0,1-1.25.2,2.27,2.27,0,0,1-2-1,4.35,4.35,0,0,1-.68-2.55,11.42,11.42,0,0,1,.11-1.23,13.21,13.21,0,0,0,4.25-1.47q1.77-1,1.77-2.22a1,1,0,0,0-.53-.93,2.72,2.72,0,0,0-1.46-.33,5.47,5.47,0,0,0-2.87.81,7.36,7.36,0,0,0-3.36,4.79,7.46,7.46,0,0,0-.13,1.34,4.13,4.13,0,0,0,.89,2.75A3.2,3.2,0,0,0,691.14,281.4Zm-.11-9a2,2,0,0,1,1.66-1.07,1.09,1.09,0,0,1,.7.23.82.82,0,0,1,.29.68,1.57,1.57,0,0,1,0,.34q-.32,1.86-3.61,2.6A7.55,7.55,0,0,1,691,272.42Z" transform="translate(286.25 -262)"/><path d="M713.55,276.22a3.51,3.51,0,0,0-.79-2.32,13.86,13.86,0,0,0-2.32-2.08c-.67-.51-1.17-.91-1.52-1.22a4,4,0,0,1-.89-1.1,2.87,2.87,0,0,1-.37-1.43,3.73,3.73,0,0,1,.3-1.41,3.05,3.05,0,0,1,.93-1.23,2.67,2.67,0,0,1,3.68.55,6.22,6.22,0,0,1,1.14,2.77c0,.06.07.08.16.08s.14,0,.16-.08l.36-3.24c.05-.18,0-.32-.29-.45a7.76,7.76,0,0,0-3-.62,6.52,6.52,0,0,0-3.65,1,4.49,4.49,0,0,0-2,3,4.09,4.09,0,0,0-.08.76,3.2,3.2,0,0,0,.39,1.59,4.48,4.48,0,0,0,1,1.19c.37.33.89.75,1.56,1.25a11.81,11.81,0,0,1,2.09,1.9,3.35,3.35,0,0,1,.73,2.19,5.33,5.33,0,0,1-.05.65,3.39,3.39,0,0,1-1,2.1,2.94,2.94,0,0,1-2,.73q-2.91,0-3.67-4.45c0-.09,0-.13-.14-.13s-.15,0-.15.13l-.68,3.61a.41.41,0,0,0,.16.5,7.62,7.62,0,0,0,1.89.69,9.09,9.09,0,0,0,1.91.2,6.72,6.72,0,0,0,4.22-1.26,5,5,0,0,0,2-3.22A3.12,3.12,0,0,0,713.55,276.22Z" transform="translate(286.25 -262)"/><path d="M717.82,281.4a3.85,3.85,0,0,0,1.7-.43,9,9,0,0,0,2-1.4s0-.08,0-.13a.24.24,0,0,0-.17-.08h0a3.64,3.64,0,0,1-2,.76c-.89,0-1.34-.41-1.34-1.23a3.13,3.13,0,0,1,.08-.66l1.13-6.31a18,18,0,0,1,3.61.53.72.72,0,0,0,.5-.21,2.37,2.37,0,0,0,.44-.55,1,1,0,0,0,.19-.47c0-.16-.06-.24-.19-.24-1.71.14-3.18.22-4.42.24l.36-2.1s0,0-.07-.06a.52.52,0,0,0-.21,0c-.11,0-.17,0-.19.05a4.18,4.18,0,0,1-1.2,1.61,2.83,2.83,0,0,1-1.83.61c-.06,0-.08.07-.08.21s0,.16.08.16a1.74,1.74,0,0,1,.78.12.54.54,0,0,1,.21.51,6.55,6.55,0,0,1-.1.79l-1.05,5.73a4.49,4.49,0,0,0-.08.78C715.83,280.8,716.49,281.4,717.82,281.4Z" transform="translate(286.25 -262)"/><path d="M722.61,279.46a2.1,2.1,0,0,0,.45,1.48,1.61,1.61,0,0,0,1.25.49,4.25,4.25,0,0,0,2.77-1.29,10.85,10.85,0,0,0,2.47-3.48l-.37,2.1a5.77,5.77,0,0,0-.1,1.1,1.78,1.78,0,0,0,.29,1.11,1.1,1.1,0,0,0,.89.35,2.35,2.35,0,0,0,1.36-.51,9.53,9.53,0,0,0,1.57-1.53s0-.08,0-.14-.08-.1-.13-.1a.1.1,0,0,0-.08,0c-.68.68-1.19,1-1.52,1a.33.33,0,0,1-.29-.18,1,1,0,0,1-.1-.5,3.66,3.66,0,0,1,.08-.65l1.52-8.28s0,0-.06-.06a.28.28,0,0,0-.15,0,.18.18,0,0,0-.11.05,3.17,3.17,0,0,1-.76.89,2,2,0,0,0-.82-.51,3.06,3.06,0,0,0-1-.17,5.08,5.08,0,0,0-3.21,1.43,12.11,12.11,0,0,0-2.83,3.51A8.12,8.12,0,0,0,722.61,279.46Zm2.18-2.56a9.48,9.48,0,0,1,.79-2.61,5.62,5.62,0,0,1,1.35-1.83,2.49,2.49,0,0,1,1.63-.67,1.42,1.42,0,0,1,1.12.46,1.91,1.91,0,0,1,.39,1.27,6.31,6.31,0,0,1-.68,2.57,9.12,9.12,0,0,1-1.69,2.56,2.77,2.77,0,0,1-2,1.07c-.71,0-1.07-.54-1.07-1.62A7.33,7.33,0,0,1,724.79,276.9Z" transform="translate(286.25 -262)"/><path d="M736.15,281.32a2.26,2.26,0,0,0,1.38-.5,9.59,9.59,0,0,0,1.58-1.54.12.12,0,0,0,0-.17A.15.15,0,0,0,739,279a.16.16,0,0,0-.1.05q-1,1-1.5,1c-.28,0-.42-.22-.42-.65a3.75,3.75,0,0,1,.08-.68l3-16.45s0-.07-.06-.13a.32.32,0,0,0-.2-.07h0L735.89,264c-.08,0-.1.07-.08.16a.13.13,0,0,0,.13.13h0a3.08,3.08,0,0,1,1.15-.37c.35,0,.53.25.53.73a4.68,4.68,0,0,1-.08.76l-2.46,13.36a7.4,7.4,0,0,0-.13,1.17,1.67,1.67,0,0,0,.27,1.05A1.06,1.06,0,0,0,736.15,281.32Z" transform="translate(286.25 -262)"/><path d="M742.53,281.32a2.26,2.26,0,0,0,1.39-.5,9.21,9.21,0,0,0,1.57-1.54.13.13,0,0,0,0-.17c0-.06-.08-.09-.13-.09a.18.18,0,0,0-.11.05c-.68.68-1.17,1-1.49,1s-.42-.22-.42-.65a3.75,3.75,0,0,1,.08-.68l3-16.45s0-.07-.07-.13a.28.28,0,0,0-.19-.07h0L742.27,264c-.07,0-.09.07-.08.16a.15.15,0,0,0,.14.13h0a3,3,0,0,1,1.15-.37c.35,0,.52.25.52.73a3.78,3.78,0,0,1-.08.76l-2.46,13.36a8.84,8.84,0,0,0-.13,1.17,1.61,1.61,0,0,0,.28,1.05A1,1,0,0,0,742.53,281.32Z" transform="translate(286.25 -262)"/><path d="M751,267.89a1.24,1.24,0,0,0,1-.37,1.46,1.46,0,0,0,.34-1,1.33,1.33,0,0,0-.34-.93,1.31,1.31,0,0,0-1-.35,1.44,1.44,0,0,0-1,.35,1.24,1.24,0,0,0-.38.93,1.28,1.28,0,0,0,1.39,1.39Z" transform="translate(286.25 -262)"/><path d="M750.7,280.84a9.13,9.13,0,0,0,1.6-1.53.14.14,0,0,0,0-.17c0-.07-.08-.1-.14-.1s-.06,0-.1.06c-.72.66-1.22,1-1.52,1s-.44-.23-.44-.68a2.92,2.92,0,0,1,.08-.65l1.07-5.68a5.47,5.47,0,0,0,.13-1.05c0-.86-.38-1.28-1.15-1.28a2.6,2.6,0,0,0-1.45.49,8.94,8.94,0,0,0-1.69,1.57.14.14,0,0,0,0,.17.16.16,0,0,0,.15.1.1.1,0,0,0,.08,0c.65-.73,1.18-1.1,1.6-1.1s.5.24.5.73a3.19,3.19,0,0,1-.08.63l-1.08,5.45a5.92,5.92,0,0,0-.15,1.2c0,.91.38,1.36,1.15,1.36A2.49,2.49,0,0,0,750.7,280.84Z" transform="translate(286.25 -262)"/><path d="M762.8,276a8,8,0,0,0,.16-1.49,4.22,4.22,0,0,0-.92-2.83,3.26,3.26,0,0,0-2.62-1.07,5,5,0,0,0-2.54.69,6.22,6.22,0,0,0-2,1.93,7.28,7.28,0,0,0-1.11,2.77,7.35,7.35,0,0,0-.16,1.47,4.29,4.29,0,0,0,.91,2.85,3.12,3.12,0,0,0,2.57,1.1,5,5,0,0,0,2.43-.64,6.35,6.35,0,0,0,2.09-1.87A7.06,7.06,0,0,0,762.8,276Zm-2.2,1.15a6.56,6.56,0,0,1-1,2.65,2,2,0,0,1-1.63,1,1.77,1.77,0,0,1-1.6-1.14,6.17,6.17,0,0,1-.59-2.89,11.76,11.76,0,0,1,.18-1.86,6.27,6.27,0,0,1,1-2.7,2,2,0,0,1,1.61-.94,1.78,1.78,0,0,1,1.61,1.15,6.21,6.21,0,0,1,.59,2.88A9.45,9.45,0,0,1,760.6,277.18Z" transform="translate(286.25 -262)"/><path d="M764.26,273.08a.1.1,0,0,0,.08,0c.68-.73,1.22-1.1,1.6-1.1s.47.25.47.76a3.28,3.28,0,0,1,0,.6l-1.08,5.84c0,.1-.11.57-.28,1.39l-.11.57c0,.12.26.18.79.18.75,0,1.17-.15,1.25-.47l.08-.41a25.17,25.17,0,0,1,1.21-4.55,10.58,10.58,0,0,1,1.55-2.89,2.24,2.24,0,0,1,1.62-1c.61,0,.91.45.91,1.36a5.9,5.9,0,0,1-.13,1.25l-.76,4.17a7.46,7.46,0,0,0-.13,1.2,1.57,1.57,0,0,0,.28,1,1,1,0,0,0,.85.34,2.32,2.32,0,0,0,1.41-.5,9.59,9.59,0,0,0,1.57-1.54.12.12,0,0,0,0-.17.17.17,0,0,0-.14-.09s0,0-.08.05c-.68.68-1.18,1-1.49,1s-.45-.23-.45-.68a3.66,3.66,0,0,1,.08-.65l.87-4.66a10.35,10.35,0,0,0,.13-1.34c0-1.41-.59-2.12-1.76-2.12A3.56,3.56,0,0,0,770,272a11.42,11.42,0,0,0-2.15,3.73l.48-2.61a10,10,0,0,0,.1-1,1.58,1.58,0,0,0-.27-1,1.06,1.06,0,0,0-.86-.32,2.63,2.63,0,0,0-1.47.49,8.62,8.62,0,0,0-1.67,1.57.12.12,0,0,0,0,.17A.19.19,0,0,0,764.26,273.08Z" transform="translate(286.25 -262)"/><path d="M788.51,280.93c0-.11,0-.16-.11-.16a2.84,2.84,0,0,1-1.22-.18.75.75,0,0,1-.32-.71,4.52,4.52,0,0,1,.1-.92l1-5.88.47,0a7.08,7.08,0,0,0,1.55-.16,37.55,37.55,0,0,0,2.48,6.06c.77,1.39,1.35,2.09,1.76,2.09h3.56c.07,0,.1-.06.1-.16s0-.16-.1-.16A2.63,2.63,0,0,1,796,280a10,10,0,0,1-1.84-2.61c-.66-1.22-1.42-2.88-2.3-5a7.12,7.12,0,0,0,2.3-1.72,5.08,5.08,0,0,0,1.24-3.2q0-2.81-4.29-2.81a13.29,13.29,0,0,0-1.34.08l-.67.06-.8,0c-.43,0-1,0-1.7-.05l-1.2,0c-.07,0-.11.06-.11.16s0,.16.11.16a2.74,2.74,0,0,1,1.23.19.8.8,0,0,1,.34.75,8.33,8.33,0,0,1-.11.86L784.74,279a4.26,4.26,0,0,1-.37,1.16,1.15,1.15,0,0,1-.63.51,4.23,4.23,0,0,1-1.23.14c-.07,0-.1.05-.1.16s0,.16.1.16c.53,0,.93,0,1.23,0l1.73,0,1.7,0q.45,0,1.26,0C788.48,281.09,788.51,281,788.51,280.93Zm.6-14a5.89,5.89,0,0,1,.31-1.22.76.76,0,0,1,.43-.45,3.41,3.41,0,0,1,.93-.09,2.26,2.26,0,0,1,1.63.6,2.52,2.52,0,0,1,.63,1.89,9.22,9.22,0,0,1-.13,1.26,4.64,4.64,0,0,1-1.23,2.72,3.86,3.86,0,0,1-2.68.84,5.19,5.19,0,0,1-.86-.08Z" transform="translate(286.25 -262)"/><path d="M802.15,281.4a5.74,5.74,0,0,0,4-1.68s0-.07,0-.13a.19.19,0,0,0-.14-.08h0a3.81,3.81,0,0,1-1.2.62,4.46,4.46,0,0,1-1.26.2,2.27,2.27,0,0,1-2-1,4.35,4.35,0,0,1-.68-2.55,11.42,11.42,0,0,1,.11-1.23,13.12,13.12,0,0,0,4.25-1.47q1.77-1,1.77-2.22a1,1,0,0,0-.52-.93,2.76,2.76,0,0,0-1.47-.33,5.5,5.5,0,0,0-2.87.81,7.36,7.36,0,0,0-3.36,4.79,7.46,7.46,0,0,0-.13,1.34,4.13,4.13,0,0,0,.89,2.75A3.21,3.21,0,0,0,802.15,281.4Zm-.12-9a2,2,0,0,1,1.66-1.07,1.12,1.12,0,0,1,.71.23.85.85,0,0,1,.29.68,1.84,1.84,0,0,1-.06.34q-.32,1.86-3.61,2.6A7.73,7.73,0,0,1,802,272.42Z" transform="translate(286.25 -262)"/><path d="M814.84,272c.6,0,.89.46.89,1.38a7.68,7.68,0,0,1-.13,1.21l-.86,4.58c0,.36-.13.76-.22,1.18s-.16.68-.17.78.26.18.78.18c.79,0,1.21-.15,1.26-.47l.16-.86a23.79,23.79,0,0,1,1.17-4.32,10.31,10.31,0,0,1,1.48-2.74,2.09,2.09,0,0,1,1.46-.92c.55,0,.83.45.83,1.36a8.33,8.33,0,0,1-.13,1.25l-.78,4.17a6.67,6.67,0,0,0-.11,1.15,1.79,1.79,0,0,0,.26,1.07,1,1,0,0,0,.87.34,2.3,2.3,0,0,0,1.39-.5,10,10,0,0,0,1.57-1.54.12.12,0,0,0,0-.17.15.15,0,0,0-.13-.09.16.16,0,0,0-.1.05q-1,1-1.47,1c-.3,0-.44-.23-.44-.68a3.52,3.52,0,0,1,.07-.65l.84-4.66a7,7,0,0,0,.16-1.42q0-2-1.68-2a3.35,3.35,0,0,0-2.42,1.26,11.41,11.41,0,0,0-2.08,3.56l.26-1.39a6.75,6.75,0,0,0,.13-1.36q0-2.07-1.65-2.07a3.38,3.38,0,0,0-2.47,1.26,11,11,0,0,0-2.06,3.58l.42-2.4c.07-.53.11-.86.11-1a1.52,1.52,0,0,0-.28-1,1,1,0,0,0-.85-.32,2.66,2.66,0,0,0-1.48.49,8.91,8.91,0,0,0-1.66,1.57.12.12,0,0,0,0,.17.19.19,0,0,0,.14.1.1.1,0,0,0,.08,0c.68-.73,1.21-1.1,1.6-1.1s.47.25.47.76a3.28,3.28,0,0,1-.05.6L809,279.2l-.26,1.28-.13.63c0,.12.26.18.79.18.75,0,1.17-.15,1.25-.47l.16-.81a24.85,24.85,0,0,1,1.14-4.28,10.19,10.19,0,0,1,1.48-2.79A2.09,2.09,0,0,1,814.84,272Z" transform="translate(286.25 -262)"/><path d="M830.79,279a.15.15,0,0,0-.11.06c-.71.66-1.22,1-1.52,1s-.44-.23-.44-.68a3.66,3.66,0,0,1,.08-.65l1.07-5.68A5.47,5.47,0,0,0,830,272c0-.86-.38-1.28-1.15-1.28a2.6,2.6,0,0,0-1.45.49,9.25,9.25,0,0,0-1.69,1.57.14.14,0,0,0,0,.17.18.18,0,0,0,.16.1.08.08,0,0,0,.07,0c.65-.73,1.18-1.1,1.6-1.1s.5.24.5.73a3.19,3.19,0,0,1-.08.63l-1.07,5.45a5.36,5.36,0,0,0-.16,1.2c0,.91.38,1.36,1.15,1.36a2.55,2.55,0,0,0,1.42-.48,9.12,9.12,0,0,0,1.59-1.53.14.14,0,0,0,0-.17C830.88,279.07,830.84,279,830.79,279Z" transform="translate(286.25 -262)"/><path d="M829.61,267.89a1.24,1.24,0,0,0,1-.37,1.41,1.41,0,0,0,.34-1,1.29,1.29,0,0,0-.34-.93,1.31,1.31,0,0,0-1-.35,1.44,1.44,0,0,0-1,.35,1.24,1.24,0,0,0-.38.93,1.28,1.28,0,0,0,1.39,1.39Z" transform="translate(286.25 -262)"/><path d="M832.91,281.35a1.4,1.4,0,0,0,1-.36,7.76,7.76,0,0,0,1.13-1.53l1.41-2.22.74,2.33a3.72,3.72,0,0,0,.71,1.4,1.39,1.39,0,0,0,1,.38,2.5,2.5,0,0,0,1.39-.49,9.94,9.94,0,0,0,1.7-1.5.11.11,0,0,0,0-.15.18.18,0,0,0-.16-.09.11.11,0,0,0-.08,0,4.26,4.26,0,0,1-.76.63,1.3,1.3,0,0,1-.7.21,1.1,1.1,0,0,1-.7-.24,2.06,2.06,0,0,1-.53-1L838,275.12l1.36-2q.45-.63.81-.63a.64.64,0,0,1,.34.09,1.63,1.63,0,0,1,.29.23,3.13,3.13,0,0,0,.41.29,1.14,1.14,0,0,0,.48.1,1,1,0,0,0,.71-.25,1,1,0,0,0,.34-.61,1.23,1.23,0,0,0-.43-1.09,1.62,1.62,0,0,0-1.14-.48,1.36,1.36,0,0,0-1,.35,7.76,7.76,0,0,0-1.13,1.53l-1.25,2-.63-2a3.78,3.78,0,0,0-.73-1.44,1.43,1.43,0,0,0-1-.39,2.61,2.61,0,0,0-1.38.48,10.33,10.33,0,0,0-1.71,1.5.09.09,0,0,0,0,.15.17.17,0,0,0,.14.09.11.11,0,0,0,.08,0,2.32,2.32,0,0,1,1.49-.83,1.1,1.1,0,0,1,.7.27,2.33,2.33,0,0,1,.56,1.06l1,3.27L834.74,279q-.45.6-.84.6a.81.81,0,0,1-.57-.28,2.34,2.34,0,0,0-.42-.28,1.15,1.15,0,0,0-.5-.09,1,1,0,0,0-.68.25.92.92,0,0,0-.34.59,1.16,1.16,0,0,0,.39,1.08A1.56,1.56,0,0,0,832.91,281.35Z" transform="translate(286.25 -262)"/><path d="M845,279.41a15.35,15.35,0,0,1-3,4.53.1.1,0,0,0,0,.13.17.17,0,0,0,.13.08h0a12.38,12.38,0,0,0,4.62-4.37,17.9,17.9,0,0,0,2.58-6.65,19.63,19.63,0,0,0,.29-3.17,11.44,11.44,0,0,0-.91-4.73,6.73,6.73,0,0,0-2.71-3.12s-.07,0-.11,0a.21.21,0,0,0-.07.15v0a14.86,14.86,0,0,1,1.39,6.55A28.82,28.82,0,0,1,845,279.41Z" transform="translate(286.25 -262)"/><path d="M335.37,332c.89,0,1.58,0,2.06,0l2.79-.05,3,.05c.48,0,1.12,0,1.93,0q.09,0,.09-.27t-.09-.27a4.57,4.57,0,0,1-2-.31,1.3,1.3,0,0,1-.56-1.26,7.44,7.44,0,0,1,.17-1.53l3.69-20.7a7,7,0,0,1,.56-2,1.91,1.91,0,0,1,1-.92,5.23,5.23,0,0,1,1.94-.27c.09,0,.13-.09.13-.27s0-.27-.13-.27l-1.89,0c-1.14.06-2.16.09-3.05.09-.69,0-1.61,0-2.74-.09l-2.07,0c-.09,0-.13.09-.13.27s0,.27.13.27a4.34,4.34,0,0,1,2,.34,1.4,1.4,0,0,1,.56,1.32c0,.18-.06.66-.17,1.44l-3.69,20.79a6.93,6.93,0,0,1-.56,2,1.72,1.72,0,0,1-1,.88,6.2,6.2,0,0,1-1.93.22c-.09,0-.14.09-.14.27S335.28,332,335.37,332Z" transform="translate(286.25 -262)"/><path d="M373.49,304.24c0,.18.05.27.14.27a1.68,1.68,0,0,1,1.46.68,8.16,8.16,0,0,1,.92,2.51L378.39,318l-4.45,8.76-4.54-19.49a4.09,4.09,0,0,1-.13-1,1.58,1.58,0,0,1,.54-1.32,2.29,2.29,0,0,1,1.44-.43c.11,0,.18-.09.18-.27s-.07-.27-.18-.27l-1.62,0c-1,.06-2,.09-2.83.09-.45,0-1.12,0-2-.09l-2,0c-.09,0-.13.09-.13.27s0,.27.13.27a2.13,2.13,0,0,1,1.73.72,6,6,0,0,1,1,2.47l5.71,24.3c0,.11.2.17.53.17a.77.77,0,0,0,.59-.17l6.42-12.4,2.87,12.4c0,.11.23.17.59.17s.51-.06.54-.17l12.08-23.13a9.83,9.83,0,0,1,2.51-3.5,4.38,4.38,0,0,1,2.65-.86q.18,0,.18-.27T400,304l-1.84,0c-.78.06-1.42.09-1.93.09q-1.17,0-2.61-.09l-1.7,0c-.09,0-.14.09-.14.27s.05.27.14.27a2.56,2.56,0,0,1,1.75.52,1.77,1.77,0,0,1,.58,1.41,5.07,5.07,0,0,1-.67,2.25l-9.21,18.1-2.69-11.5,3.32-6.42a11.89,11.89,0,0,1,2.43-3.5,3.49,3.49,0,0,1,2.29-.86c.09,0,.13-.09.13-.27s0-.27-.13-.27l-1.62,0c-.66.06-1.21.09-1.66.09s-1.17,0-1.89-.09l-1.21,0q-.09,0-.09.27t.09.27c1,0,1.48.39,1.48,1.17a7.33,7.33,0,0,1-1,3l-2.52,4.89-1.48-6.33a14.51,14.51,0,0,1-.31-1.93c0-.33.07-.55.22-.65a1.54,1.54,0,0,1,.81-.16c.15,0,.23-.09.23-.27s-.08-.27-.23-.27l-1.21,0q-1.08.09-2.07.09c-.39,0-1,0-1.84-.09l-1.79,0C373.54,304,373.49,304.06,373.49,304.24Z" transform="translate(286.25 -262)"/><path d="M396,322.59a13.93,13.93,0,0,0-2,6.67,3.68,3.68,0,0,0,.76,2.53,2.77,2.77,0,0,0,2.16.83,7.22,7.22,0,0,0,4.74-2.2,18.64,18.64,0,0,0,4.24-6l-.63,3.59a10.08,10.08,0,0,0-.18,1.89,3,3,0,0,0,.5,1.91,1.86,1.86,0,0,0,1.52.6,4,4,0,0,0,2.34-.87,15.83,15.83,0,0,0,2.69-2.63c.06-.06.06-.14,0-.25a.25.25,0,0,0-.22-.15.2.2,0,0,0-.14,0c-1.16,1.17-2,1.75-2.6,1.75a.54.54,0,0,1-.49-.31,1.7,1.7,0,0,1-.18-.85,5.92,5.92,0,0,1,.13-1.13l2.61-14.19s0-.06-.09-.11a.68.68,0,0,0-.27-.07.26.26,0,0,0-.18.09,5.41,5.41,0,0,1-1.31,1.53,3.71,3.71,0,0,0-1.41-.88,5.16,5.16,0,0,0-1.68-.29,8.78,8.78,0,0,0-5.51,2.45A20.87,20.87,0,0,0,396,322.59Zm8.24-6.49a2.42,2.42,0,0,1,1.93.78,3.25,3.25,0,0,1,.67,2.18,10.91,10.91,0,0,1-1.17,4.4,16.07,16.07,0,0,1-2.89,4.4,4.82,4.82,0,0,1-3.35,1.85c-1.23,0-1.84-.93-1.84-2.79a12.39,12.39,0,0,1,.18-2.06,16,16,0,0,1,1.37-4.47,9.37,9.37,0,0,1,2.31-3.15A4.29,4.29,0,0,1,404.21,316.1Z" transform="translate(286.25 -262)"/><path d="M433.13,328.49a.26.26,0,0,0-.14.09c-1.17,1.17-2,1.75-2.56,1.75s-.76-.38-.76-1.16a5.92,5.92,0,0,1,.13-1.13l1.48-8a15.76,15.76,0,0,0,.23-2.29q0-3.64-3-3.64a6.11,6.11,0,0,0-4.45,2.27,19.73,19.73,0,0,0-3.68,6.4l.81-4.49q.18-1.35.18-1.71a2.69,2.69,0,0,0-.47-1.73,1.82,1.82,0,0,0-1.46-.56,4.55,4.55,0,0,0-2.54.86,14.5,14.5,0,0,0-2.85,2.69.2.2,0,0,0,0,.29.3.3,0,0,0,.25.16.19.19,0,0,0,.13-.05c1.17-1.25,2.08-1.88,2.74-1.88s.81.43.81,1.3a4.85,4.85,0,0,1-.09,1l-1.84,10c0,.18-.2,1-.5,2.38l-.18,1c0,.21.45.32,1.35.32,1.29,0,2-.27,2.16-.81l.13-.72a42.5,42.5,0,0,1,2.07-7.79,17.7,17.7,0,0,1,2.67-5,3.81,3.81,0,0,1,2.76-1.71c1,0,1.57.78,1.57,2.34a10.46,10.46,0,0,1-.22,2.15L426.52,328a13.47,13.47,0,0,0-.22,2.07,2.77,2.77,0,0,0,.47,1.75,1.77,1.77,0,0,0,1.46.58,4.06,4.06,0,0,0,2.43-.85,17.18,17.18,0,0,0,2.69-2.65.2.2,0,0,0,0-.29A.29.29,0,0,0,433.13,328.49Z" transform="translate(286.25 -262)"/><path d="M447.67,314.75a15.72,15.72,0,0,0-1.7.14l-1.66.11c-.63,0-1.34.08-2.11.11l.62-3.59s0-.07-.13-.11a.92.92,0,0,0-.36-.07c-.18,0-.28,0-.31.09a7.28,7.28,0,0,1-2.07,2.76,4.87,4.87,0,0,1-3.14,1.06c-.09,0-.14.12-.14.35s.05.27.14.27a2.59,2.59,0,0,1,1.32.23,1,1,0,0,1,.34.9,8.39,8.39,0,0,1-.14,1.3l-1.79,9.83a7.37,7.37,0,0,0-.14,1.35q0,3.11,3.42,3.1a6.5,6.5,0,0,0,3.07-.83,18.67,18.67,0,0,0,3.62-2.76.17.17,0,0,0,0-.27.45.45,0,0,0-.32-.14h0a6.45,6.45,0,0,1-3.95,1.8c-1.53,0-2.29-.7-2.29-2.11a4.88,4.88,0,0,1,.13-1.12L442,316.32a22.9,22.9,0,0,1,3,.27c.93.15,1.45.23,1.57.23a1.3,1.3,0,0,0,.94-.65,2,2,0,0,0,.5-1C448,314.89,447.88,314.75,447.67,314.75Z" transform="translate(286.25 -262)"/><path d="M473.68,304l-1.89,0q-1.71.09-3.06.09c-.68,0-1.6,0-2.73-.09l-2.07,0c-.09,0-.13.09-.13.27s0,.27.13.27a4.34,4.34,0,0,1,2,.34,1.4,1.4,0,0,1,.56,1.32,14.17,14.17,0,0,1-.18,1.44l-3.68,20.79a6.93,6.93,0,0,1-.56,2,1.75,1.75,0,0,1-1,.88,6.2,6.2,0,0,1-1.93.22c-.09,0-.14.09-.14.27s.05.27.14.27c.89,0,1.58,0,2.06,0l2.78-.05,3,.05c.48,0,1.12,0,1.93,0q.09,0,.09-.27t-.09-.27a4.57,4.57,0,0,1-2-.31,1.31,1.31,0,0,1-.57-1.26,7.51,7.51,0,0,1,.18-1.53l3.69-20.7a7,7,0,0,1,.56-2,1.91,1.91,0,0,1,1-.92,5.23,5.23,0,0,1,1.94-.27c.09,0,.13-.09.13-.27S473.77,304,473.68,304Z" transform="translate(286.25 -262)"/><path d="M486.29,314.75a15.72,15.72,0,0,0-1.7.14l-1.66.11c-.63,0-1.34.08-2.12.11l.63-3.59s0-.07-.13-.11a.92.92,0,0,0-.36-.07c-.18,0-.29,0-.31.09a7.28,7.28,0,0,1-2.07,2.76,4.87,4.87,0,0,1-3.14,1.06c-.09,0-.14.12-.14.35s0,.27.14.27a2.61,2.61,0,0,1,1.32.23,1,1,0,0,1,.34.9,8.39,8.39,0,0,1-.14,1.3l-1.79,9.83a7.37,7.37,0,0,0-.14,1.35q0,3.11,3.41,3.1a6.51,6.51,0,0,0,3.08-.83,19,19,0,0,0,3.62-2.76.17.17,0,0,0,0-.27.45.45,0,0,0-.32-.14h0a6.45,6.45,0,0,1-4,1.8c-1.52,0-2.29-.7-2.29-2.11a4.91,4.91,0,0,1,.14-1.12l1.93-10.83a22.9,22.9,0,0,1,3,.27c.93.15,1.45.23,1.57.23.3,0,.61-.22.94-.65a2,2,0,0,0,.5-1C486.61,314.89,486.5,314.75,486.29,314.75Z" transform="translate(286.25 -262)"/><path d="M512.29,304l-1.88,0q-1.71.09-3.06.09c-.68,0-1.6,0-2.74-.09l-2.06,0c-.09,0-.14.09-.14.27s0,.27.14.27a4.34,4.34,0,0,1,2,.34,1.4,1.4,0,0,1,.56,1.32,14.17,14.17,0,0,1-.18,1.44l-3.68,20.79a6.93,6.93,0,0,1-.56,2,1.75,1.75,0,0,1-1,.88,6.23,6.23,0,0,1-1.94.22c-.09,0-.13.09-.13.27s0,.27.13.27c.9,0,1.59,0,2.07,0l2.78-.05,3,.05c.48,0,1.12,0,1.93,0q.09,0,.09-.27t-.09-.27a4.57,4.57,0,0,1-2-.31,1.31,1.31,0,0,1-.57-1.26,7.51,7.51,0,0,1,.18-1.53l3.69-20.7a7,7,0,0,1,.56-2,1.91,1.91,0,0,1,1-.92,5.21,5.21,0,0,1,1.93-.27c.09,0,.14-.09.14-.27S512.38,304,512.29,304Z" transform="translate(286.25 -262)"/><path d="M548.94,304.87a10,10,0,0,0-2.9-1,18.29,18.29,0,0,0-3.7-.38,18,18,0,0,0-14.2,6.92,16.91,16.91,0,0,0-3.32,7.45,19.12,19.12,0,0,0-.27,3.14,12.34,12.34,0,0,0,1.42,6,10,10,0,0,0,4.17,4.09,14,14,0,0,0,6.67,1.48,38.57,38.57,0,0,0,9-1.26,1,1,0,0,0,.36-.18.68.68,0,0,0,.14-.36,5.5,5.5,0,0,0,.11-1.19,20.41,20.41,0,0,1,.34-2.76c.27-1.86.47-3.09.6-3.7a2.79,2.79,0,0,1,.52-1.26,1.22,1.22,0,0,1,1-.29c.12,0,.17-.11.16-.32s-.07-.31-.16-.31c-1.47.09-2.87.13-4.22.13s-3.14-.07-5.3-.22a.21.21,0,0,0-.16.11.54.54,0,0,0-.06.25.48.48,0,0,0,.06.24c0,.08.1.12.16.12a15.13,15.13,0,0,1,2.49.15,1.89,1.89,0,0,1,1.19.63,2.41,2.41,0,0,1,.36,1.46,16.47,16.47,0,0,1-.27,2.56,10.62,10.62,0,0,1-.83,3.26,3.23,3.23,0,0,1-1.52,1.59,6.24,6.24,0,0,1-2.59.45,8.13,8.13,0,0,1-6.73-3.1c-1.65-2.06-2.47-4.88-2.47-8.44a24.49,24.49,0,0,1,.31-3.95,15.9,15.9,0,0,1,3.84-8.51,9.63,9.63,0,0,1,7.3-3.12,7.15,7.15,0,0,1,5.1,1.84,9.27,9.27,0,0,1,2.58,5.21c0,.09.07.13.22.13s.24,0,.27-.13l.63-5.71a2.38,2.38,0,0,0,0-.67A.67.67,0,0,0,548.94,304.87Z" transform="translate(286.25 -262)"/><path d="M561.47,314.12a8.64,8.64,0,0,0-4.36,1.19,10.52,10.52,0,0,0-3.48,3.3,12.72,12.72,0,0,0-1.91,4.76,12,12,0,0,0-.27,2.52,7.46,7.46,0,0,0,1.55,4.89,5.39,5.39,0,0,0,4.42,1.89,8.72,8.72,0,0,0,4.16-1.1,10.87,10.87,0,0,0,3.59-3.21,12.11,12.11,0,0,0,2.09-5,13,13,0,0,0,.27-2.56A7.27,7.27,0,0,0,566,316,5.61,5.61,0,0,0,561.47,314.12Zm2,11.23a11,11,0,0,1-1.76,4.53,3.43,3.43,0,0,1-2.78,1.67,3.07,3.07,0,0,1-2.76-2,10.78,10.78,0,0,1-1-5,19.84,19.84,0,0,1,.31-3.19,10.6,10.6,0,0,1,1.78-4.62A3.48,3.48,0,0,1,560,315.2a3.06,3.06,0,0,1,2.76,2,10.8,10.8,0,0,1,1,4.94A16.78,16.78,0,0,1,563.49,325.35Z" transform="translate(286.25 -262)"/><path d="M582,314.75a15.86,15.86,0,0,0-1.71.14l-1.66.11c-.63,0-1.33.08-2.11.11l.63-3.59s0-.07-.14-.11a.92.92,0,0,0-.36-.07c-.18,0-.28,0-.31.09a7.28,7.28,0,0,1-2.07,2.76,4.85,4.85,0,0,1-3.14,1.06c-.09,0-.14.12-.14.35s0,.27.14.27a2.59,2.59,0,0,1,1.32.23,1,1,0,0,1,.34.9,8.17,8.17,0,0,1-.13,1.3l-1.8,9.83a7.32,7.32,0,0,0-.13,1.35c0,2.07,1.13,3.1,3.41,3.1a6.47,6.47,0,0,0,3.07-.83,18.67,18.67,0,0,0,3.62-2.76.17.17,0,0,0,0-.27.44.44,0,0,0-.31-.14h0a6.42,6.42,0,0,1-4,1.8c-1.53,0-2.29-.7-2.29-2.11a4.88,4.88,0,0,1,.13-1.12l1.93-10.83a22.9,22.9,0,0,1,3,.27c.93.15,1.45.23,1.57.23a1.33,1.33,0,0,0,.95-.65,2,2,0,0,0,.49-1C582.3,314.89,582.2,314.75,582,314.75Z" transform="translate(286.25 -262)"/><path d="M608,304l-1.89,0c-1.14.06-2.15.09-3.05.09-.69,0-1.6,0-2.74-.09l-2.07,0c-.09,0-.13.09-.13.27s0,.27.13.27a4.42,4.42,0,0,1,2,.34,1.42,1.42,0,0,1,.56,1.32,14.17,14.17,0,0,1-.18,1.44L597,328.4a6.62,6.62,0,0,1-.56,2,1.72,1.72,0,0,1-1,.88,6.2,6.2,0,0,1-1.93.22c-.09,0-.14.09-.14.27s.05.27.14.27c.9,0,1.58,0,2.06,0l2.79-.05,3,.05c.48,0,1.12,0,1.93,0q.09,0,.09-.27t-.09-.27a4.57,4.57,0,0,1-2-.31,1.3,1.3,0,0,1-.56-1.26,7.51,7.51,0,0,1,.18-1.53l3.68-20.7a7.37,7.37,0,0,1,.56-2,1.93,1.93,0,0,1,1-.92,5.14,5.14,0,0,1,1.93-.27c.09,0,.13-.09.13-.27S608.08,304,608,304Z" transform="translate(286.25 -262)"/><path d="M620.61,314.75a15.86,15.86,0,0,0-1.71.14l-1.66.11c-.63,0-1.33.08-2.11.11l.63-3.59s0-.07-.14-.11a.92.92,0,0,0-.36-.07c-.18,0-.28,0-.31.09a7.28,7.28,0,0,1-2.07,2.76,4.85,4.85,0,0,1-3.14,1.06c-.09,0-.14.12-.14.35s0,.27.14.27a2.59,2.59,0,0,1,1.32.23,1,1,0,0,1,.34.9,8.17,8.17,0,0,1-.13,1.3l-1.8,9.83a7.37,7.37,0,0,0-.14,1.35q0,3.11,3.42,3.1a6.47,6.47,0,0,0,3.07-.83,18.67,18.67,0,0,0,3.62-2.76.17.17,0,0,0,0-.27.45.45,0,0,0-.32-.14h0a6.45,6.45,0,0,1-4,1.8c-1.53,0-2.29-.7-2.29-2.11a4.88,4.88,0,0,1,.13-1.12l1.93-10.83a22.9,22.9,0,0,1,3,.27c.93.15,1.45.23,1.57.23a1.33,1.33,0,0,0,.95-.65,2,2,0,0,0,.49-1C620.92,314.89,620.81,314.75,620.61,314.75Z" transform="translate(286.25 -262)"/><path d="M637.36,302.84a15.35,15.35,0,0,1,3-4.53s0-.07,0-.13a.16.16,0,0,0-.13-.07h0a12.3,12.3,0,0,0-4.62,4.37,17.84,17.84,0,0,0-2.58,6.65,19.52,19.52,0,0,0-.29,3.16,11.41,11.41,0,0,0,.91,4.73,6.75,6.75,0,0,0,2.71,3.13s.07,0,.11,0a.17.17,0,0,0,.07-.14v0a14.83,14.83,0,0,1-1.39-6.55,25.35,25.35,0,0,1,.39-4.26A25.65,25.65,0,0,1,637.36,302.84Z" transform="translate(286.25 -262)"/><path d="M653.55,316.77a2.37,2.37,0,0,1-1-.17.91.91,0,0,1-.46-.52,7.31,7.31,0,0,1-.29-1.19l-2.67-14.38a.15.15,0,0,0-.11-.07l-.15,0a.23.23,0,0,0-.21.08l-7.36,13.14a8.49,8.49,0,0,1-1.84,2.36,2.84,2.84,0,0,1-1.69.78c-.07,0-.11.05-.11.16s0,.16.11.16c.26,0,.63,0,1.12-.06s.92,0,1.29,0,1,0,1.75,0,1.06.06,1.28.06.11-.06.12-.16,0-.16-.09-.16a3.12,3.12,0,0,1-1.44-.25.87.87,0,0,1-.47-.85,4.5,4.5,0,0,1,.73-2l1.65-3h5l.78,4.22a7.08,7.08,0,0,1,.11.81.94.94,0,0,1-.37.84,2.39,2.39,0,0,1-1.2.23c-.07,0-.11.05-.11.16s0,.16.11.16q.39,0,1.23-.06c.59,0,1.08,0,1.46,0s.92,0,1.55,0,1,.06,1.28.06c.07,0,.1-.06.1-.16S653.62,316.77,653.55,316.77Zm-9.5-6.75,3.37-6.15,1.16,6.15Z" transform="translate(286.25 -262)"/><path d="M663.31,307.22a1.83,1.83,0,0,0-1.2-.47c-.68,0-1.33.52-1.94,1.57a18.72,18.72,0,0,0-1.67,4.08l.52-3a7.76,7.76,0,0,0,.13-1.24,1.77,1.77,0,0,0-.27-1.08,1,1,0,0,0-.88-.35,2.57,2.57,0,0,0-1.45.47,8.57,8.57,0,0,0-1.64,1.51.17.17,0,0,0,0,.17c0,.07.08.1.13.1a.1.1,0,0,0,.08,0c.65-.68,1.16-1,1.55-1s.52.28.52.84a8.33,8.33,0,0,1-.11.86l-1,5.5c-.05.33-.11.61-.16.85s-.09.42-.13.56l-.13.55c0,.12.26.18.79.18a2.35,2.35,0,0,0,.87-.13c.22-.08.35-.2.38-.34a28.8,28.8,0,0,1,.89-3.52,24.87,24.87,0,0,1,1.34-3.43c.47-.95.87-1.42,1.2-1.42a.59.59,0,0,1,.34.1,3.33,3.33,0,0,1,.32.24,1.35,1.35,0,0,0,.94.47,1,1,0,0,0,.71-.3,1.27,1.27,0,0,0,.34-.67A1.09,1.09,0,0,0,663.31,307.22Z" transform="translate(286.25 -262)"/><path d="M669.1,303.52a1.41,1.41,0,0,0,.34-1,1.29,1.29,0,0,0-.34-.93,1.31,1.31,0,0,0-1-.35,1.46,1.46,0,0,0-1,.35,1.24,1.24,0,0,0-.38.93,1.38,1.38,0,0,0,.37,1,1.36,1.36,0,0,0,1,.37A1.24,1.24,0,0,0,669.1,303.52Z" transform="translate(286.25 -262)"/><path d="M669.31,315a.12.12,0,0,0-.1.06c-.72.66-1.23,1-1.52,1s-.45-.23-.45-.68a3.66,3.66,0,0,1,.08-.65l1.07-5.68a5.47,5.47,0,0,0,.13-1.05c0-.86-.38-1.28-1.15-1.28a2.62,2.62,0,0,0-1.45.49,9.25,9.25,0,0,0-1.69,1.57.17.17,0,0,0,0,.17.19.19,0,0,0,.16.1.11.11,0,0,0,.08,0c.64-.73,1.17-1.1,1.59-1.1s.5.24.5.73a2.58,2.58,0,0,1-.08.63l-1.07,5.45a6,6,0,0,0-.16,1.2c0,.91.39,1.36,1.15,1.36a2.5,2.5,0,0,0,1.42-.48,9.49,9.49,0,0,0,1.6-1.53.13.13,0,0,0,0-.17A.14.14,0,0,0,669.31,315Z" transform="translate(286.25 -262)"/><path d="M680.88,315.07c-.68.68-1.19,1-1.52,1a.3.3,0,0,1-.28-.18,1,1,0,0,1-.11-.5,3.66,3.66,0,0,1,.08-.65l1.52-8.28s0,0-.05-.06a.34.34,0,0,0-.16,0,.18.18,0,0,0-.11.05,3,3,0,0,1-.76.89,2,2,0,0,0-.82-.51,3,3,0,0,0-1-.17,5.13,5.13,0,0,0-3.21,1.43,12.11,12.11,0,0,0-2.83,3.51,8.1,8.1,0,0,0-1.13,3.88,2.1,2.1,0,0,0,.44,1.48,1.65,1.65,0,0,0,1.26.49,4.21,4.21,0,0,0,2.76-1.29,10.85,10.85,0,0,0,2.47-3.48l-.36,2.1a5.78,5.78,0,0,0-.11,1.1,1.78,1.78,0,0,0,.29,1.11,1.1,1.1,0,0,0,.89.35,2.33,2.33,0,0,0,1.36-.51,9.15,9.15,0,0,0,1.57-1.53s0-.08,0-.14a.14.14,0,0,0-.13-.1A.11.11,0,0,0,680.88,315.07Zm-3.58-3a9.57,9.57,0,0,1-1.69,2.56,2.81,2.81,0,0,1-2,1.07q-1.08,0-1.08-1.62a7.33,7.33,0,0,1,.11-1.2,9.48,9.48,0,0,1,.8-2.61,5.47,5.47,0,0,1,1.34-1.83,2.49,2.49,0,0,1,1.63-.67,1.4,1.4,0,0,1,1.12.46,1.86,1.86,0,0,1,.4,1.27A6.48,6.48,0,0,1,677.3,312.09Z" transform="translate(286.25 -262)"/><path d="M693.32,315a.15.15,0,0,0-.08.05c-.68.68-1.18,1-1.49,1s-.45-.23-.45-.68a3.66,3.66,0,0,1,.08-.65l.86-4.66a8.82,8.82,0,0,0,.13-1.34c0-1.41-.58-2.12-1.75-2.12A3.55,3.55,0,0,0,688,308a11.42,11.42,0,0,0-2.15,3.73l.47-2.61c.07-.53.11-.86.11-1a1.52,1.52,0,0,0-.28-1,1,1,0,0,0-.85-.32,2.66,2.66,0,0,0-1.48.49,8.91,8.91,0,0,0-1.66,1.57.12.12,0,0,0,0,.17.19.19,0,0,0,.14.1.1.1,0,0,0,.08,0c.68-.73,1.21-1.1,1.6-1.1s.47.25.47.76a3.28,3.28,0,0,1-.05.6l-1.08,5.84c0,.1-.11.57-.29,1.39l-.1.57c0,.12.26.18.79.18.75,0,1.16-.15,1.25-.47l.08-.41a25.22,25.22,0,0,1,1.2-4.55,10.57,10.57,0,0,1,1.56-2.89,2.24,2.24,0,0,1,1.61-1c.61,0,.92.45.92,1.36a6.63,6.63,0,0,1-.13,1.25l-.76,4.17a7.46,7.46,0,0,0-.13,1.2,1.63,1.63,0,0,0,.27,1,1,1,0,0,0,.85.34,2.34,2.34,0,0,0,1.42-.5,10,10,0,0,0,1.57-1.54.12.12,0,0,0,0-.17A.17.17,0,0,0,693.32,315Z" transform="translate(286.25 -262)"/><path d="M704.78,315.07c-.68.68-1.18,1-1.51,1a.32.32,0,0,1-.29-.18,1,1,0,0,1-.11-.5,3.66,3.66,0,0,1,.08-.65l1.52-8.28s0,0-.05-.06a.32.32,0,0,0-.16,0,.16.16,0,0,0-.1.05,3.17,3.17,0,0,1-.76.89,2.15,2.15,0,0,0-.83-.51,3,3,0,0,0-1-.17,5.13,5.13,0,0,0-3.21,1.43,12.08,12.08,0,0,0-2.82,3.51,8.12,8.12,0,0,0-1.14,3.88,2.1,2.1,0,0,0,.44,1.48,1.65,1.65,0,0,0,1.26.49,4.21,4.21,0,0,0,2.76-1.29,10.7,10.7,0,0,0,2.47-3.48l-.36,2.1a5.78,5.78,0,0,0-.11,1.1,1.78,1.78,0,0,0,.29,1.11,1.1,1.1,0,0,0,.89.35,2.33,2.33,0,0,0,1.36-.51,9.15,9.15,0,0,0,1.57-1.53s0-.08,0-.14a.13.13,0,0,0-.13-.1A.11.11,0,0,0,704.78,315.07Zm-3.58-3a9.57,9.57,0,0,1-1.69,2.56,2.77,2.77,0,0,1-2,1.07c-.72,0-1.07-.54-1.07-1.62a7.28,7.28,0,0,1,.1-1.2,9.48,9.48,0,0,1,.8-2.61,5.35,5.35,0,0,1,1.35-1.83,2.45,2.45,0,0,1,1.62-.67,1.44,1.44,0,0,1,1.13.46,1.91,1.91,0,0,1,.39,1.27A6.48,6.48,0,0,1,701.2,312.09Z" transform="translate(286.25 -262)"/><path d="M727.35,301.25a5.6,5.6,0,0,0-1.69-.59,10.48,10.48,0,0,0-10.43,3.81,9.78,9.78,0,0,0-1.94,4.34,11.7,11.7,0,0,0-.15,1.84,7.21,7.21,0,0,0,.82,3.5,5.83,5.83,0,0,0,2.43,2.39,8.22,8.22,0,0,0,3.89.86,22.49,22.49,0,0,0,5.24-.73.66.66,0,0,0,.21-.11.43.43,0,0,0,.08-.21,3.48,3.48,0,0,0,.06-.69,12.93,12.93,0,0,1,.2-1.61c.15-1.08.27-1.8.35-2.16a1.63,1.63,0,0,1,.3-.73.74.74,0,0,1,.6-.17c.07,0,.11-.07.1-.19s0-.18-.1-.18c-.85.05-1.67.08-2.46.08s-1.83-.05-3.09-.13a.12.12,0,0,0-.09.06.37.37,0,0,0,0,.15.33.33,0,0,0,0,.14s.06.07.09.07a8.74,8.74,0,0,1,1.46.09,1.09,1.09,0,0,1,.69.36,1.42,1.42,0,0,1,.21.85,9.12,9.12,0,0,1-.16,1.5,6.13,6.13,0,0,1-.48,1.9,1.9,1.9,0,0,1-.89.92,3.55,3.55,0,0,1-1.51.27,4.76,4.76,0,0,1-3.92-1.81,7.67,7.67,0,0,1-1.44-4.92,14.6,14.6,0,0,1,.18-2.31,9.32,9.32,0,0,1,2.24-5,5.61,5.61,0,0,1,4.25-1.82,4.13,4.13,0,0,1,3,1.08,5.36,5.36,0,0,1,1.51,3c0,.06,0,.08.13.08s.14,0,.16-.08l.36-3.32a1.21,1.21,0,0,0,0-.39Q727.52,301.36,727.35,301.25Z" transform="translate(286.25 -262)"/><path d="M737.56,308.29a1.1,1.1,0,0,0-.47-1.07,1.83,1.83,0,0,0-1.2-.47c-.68,0-1.33.52-1.94,1.57a19.2,19.2,0,0,0-1.68,4.08l.53-3a9.14,9.14,0,0,0,.13-1.24,1.7,1.7,0,0,0-.28-1.08,1,1,0,0,0-.87-.35,2.6,2.6,0,0,0-1.46.47,8.56,8.56,0,0,0-1.63,1.51.14.14,0,0,0,0,.17.14.14,0,0,0,.13.1.11.11,0,0,0,.08,0c.64-.68,1.16-1,1.54-1s.52.28.52.84a7.29,7.29,0,0,1-.1.86l-1,5.5c-.05.33-.1.61-.15.85s-.1.42-.13.56l-.13.55q0,.18.78.18a2.37,2.37,0,0,0,.88-.13.55.55,0,0,0,.38-.34,27.07,27.07,0,0,1,.89-3.52,24.93,24.93,0,0,1,1.33-3.43c.47-.95.88-1.42,1.21-1.42a.61.61,0,0,1,.34.1,3.24,3.24,0,0,1,.31.24,1.39,1.39,0,0,0,.94.47.94.94,0,0,0,.71-.3A1.2,1.2,0,0,0,737.56,308.29Z" transform="translate(286.25 -262)"/><path d="M747.59,315.07c-.68.68-1.19,1-1.52,1a.33.33,0,0,1-.29-.18,1,1,0,0,1-.1-.5,2.92,2.92,0,0,1,.08-.65l1.51-8.28s0,0,0-.06a.29.29,0,0,0-.16,0,.16.16,0,0,0-.1.05,3.17,3.17,0,0,1-.76.89,2.11,2.11,0,0,0-.82-.51,3.08,3.08,0,0,0-1-.17,5.08,5.08,0,0,0-3.2,1.43,12.11,12.11,0,0,0-2.83,3.51,8.12,8.12,0,0,0-1.14,3.88,2.1,2.1,0,0,0,.45,1.48,1.61,1.61,0,0,0,1.25.49,4.21,4.21,0,0,0,2.76-1.29,10.72,10.72,0,0,0,2.48-3.48l-.37,2.1a5.77,5.77,0,0,0-.1,1.1A1.78,1.78,0,0,0,744,317a1.12,1.12,0,0,0,.9.35,2.35,2.35,0,0,0,1.36-.51,9.53,9.53,0,0,0,1.57-1.53s0-.08,0-.14-.08-.1-.13-.1A.1.1,0,0,0,747.59,315.07Zm-3.59-3a9.34,9.34,0,0,1-1.69,2.56,2.77,2.77,0,0,1-1.95,1.07c-.71,0-1.07-.54-1.07-1.62a7.28,7.28,0,0,1,.1-1.2,9.84,9.84,0,0,1,.8-2.61,5.62,5.62,0,0,1,1.35-1.83,2.45,2.45,0,0,1,1.62-.67,1.42,1.42,0,0,1,1.13.46,1.91,1.91,0,0,1,.39,1.27A6.31,6.31,0,0,1,744,312.09Z" transform="translate(286.25 -262)"/><path d="M760,315l-.07.05q-1,1-1.5,1c-.29,0-.44-.23-.44-.68a2.92,2.92,0,0,1,.08-.65l.86-4.66a8.82,8.82,0,0,0,.13-1.34c0-1.41-.58-2.12-1.75-2.12a3.55,3.55,0,0,0-2.59,1.32,11.42,11.42,0,0,0-2.15,3.73l.47-2.61c.07-.53.11-.86.11-1a1.58,1.58,0,0,0-.28-1,1,1,0,0,0-.85-.32,2.66,2.66,0,0,0-1.48.49,8.61,8.61,0,0,0-1.66,1.57.13.13,0,0,0,0,.17.22.22,0,0,0,.15.1.11.11,0,0,0,.08,0c.68-.73,1.21-1.1,1.59-1.1s.48.25.48.76a2.52,2.52,0,0,1-.06.6l-1.07,5.84c0,.1-.11.57-.29,1.39l-.1.57q0,.18.78.18c.75,0,1.17-.15,1.26-.47l.08-.41a24.41,24.41,0,0,1,1.2-4.55,10.57,10.57,0,0,1,1.56-2.89,2.24,2.24,0,0,1,1.61-1c.61,0,.92.45.92,1.36a5.91,5.91,0,0,1-.14,1.25l-.75,4.17a7.46,7.46,0,0,0-.13,1.2,1.63,1.63,0,0,0,.27,1,1,1,0,0,0,.85.34,2.29,2.29,0,0,0,1.41-.5,9.59,9.59,0,0,0,1.58-1.54.12.12,0,0,0,0-.17A.19.19,0,0,0,760,315Z" transform="translate(286.25 -262)"/><path d="M772.93,298.31s0-.07,0-.13a.26.26,0,0,0-.19-.07h-.05L768.79,300c-.07,0-.09.07-.07.16a.13.13,0,0,0,.13.13h0a3.08,3.08,0,0,1,1.15-.37.49.49,0,0,1,.42.18,1,1,0,0,1,.13.58,4.59,4.59,0,0,1-.08.73l-1,5.45a3.13,3.13,0,0,0-1.12-.21,5.42,5.42,0,0,0-3,1,9.55,9.55,0,0,0-2.65,2.65,9,9,0,0,0-1.46,3.51,6.16,6.16,0,0,0-.08,1,2.7,2.7,0,0,0,.64,2,2.21,2.21,0,0,0,1.61.64,3.7,3.7,0,0,0,2.57-1.25,12.91,12.91,0,0,0,2.35-3.47l-.37,2.05a7.84,7.84,0,0,0-.13,1.15c0,.94.39,1.41,1.16,1.41a2.26,2.26,0,0,0,1.38-.5,10,10,0,0,0,1.6-1.54.12.12,0,0,0,0-.17.17.17,0,0,0-.14-.09s0,0-.08.05a6.34,6.34,0,0,1-.89.77,1.13,1.13,0,0,1-.63.25c-.28,0-.42-.22-.42-.65a4.07,4.07,0,0,1,.08-.68Zm-4,11.79,0,.15a9.8,9.8,0,0,1-.86,2.36,9.08,9.08,0,0,1-1.55,2.24,2.55,2.55,0,0,1-1.83.93,1.23,1.23,0,0,1-1-.51,2.67,2.67,0,0,1-.36-1.54,7.46,7.46,0,0,1,.1-1.23,7.68,7.68,0,0,1,1.35-3.48,3,3,0,0,1,2.4-1.23,2,2,0,0,1,1.36.47,1.71,1.71,0,0,1,.52,1.34C769,309.69,768.93,309.85,768.9,310.1Z" transform="translate(286.25 -262)"/><path d="M780.86,307a2.75,2.75,0,0,0-1.46-.33,5.47,5.47,0,0,0-2.87.81,7.36,7.36,0,0,0-3.36,4.79,7.54,7.54,0,0,0-.14,1.34,4.14,4.14,0,0,0,.9,2.75,3.2,3.2,0,0,0,2.61,1.07,5.77,5.77,0,0,0,4-1.68s0-.07,0-.13a.22.22,0,0,0-.15-.08h0a3.76,3.76,0,0,1-1.21.62,4.41,4.41,0,0,1-1.26.2,2.25,2.25,0,0,1-2-1,4.35,4.35,0,0,1-.68-2.55c0-.26,0-.67.1-1.23a13.18,13.18,0,0,0,4.26-1.47q1.77-1,1.77-2.22A1,1,0,0,0,780.86,307ZM779,308.6q-.31,1.86-3.61,2.6a7.55,7.55,0,0,1,1-2.78,2,2,0,0,1,1.66-1.07,1.09,1.09,0,0,1,.7.23.82.82,0,0,1,.29.68A2.71,2.71,0,0,1,779,308.6Z" transform="translate(286.25 -262)"/><path d="M803.54,316.77a2.63,2.63,0,0,1-1.81-.8,10.26,10.26,0,0,1-1.85-2.61q-1-1.83-2.29-5a7.08,7.08,0,0,0,2.29-1.72,5,5,0,0,0,1.25-3.2q0-2.81-4.3-2.81a13.27,13.27,0,0,0-1.33.08l-.67.06-.8,0c-.43,0-1,0-1.7-.05l-1.2,0c-.07,0-.11.06-.11.16s0,.16.11.16a2.74,2.74,0,0,1,1.23.19.8.8,0,0,1,.34.75,8.33,8.33,0,0,1-.11.86L790.44,315a4,4,0,0,1-.36,1.16,1.15,1.15,0,0,1-.63.51,4.23,4.23,0,0,1-1.23.14c-.07,0-.11.05-.11.16s0,.16.11.16q.78,0,1.23,0l1.73,0,1.7,0q.45,0,1.26,0c.05,0,.08-.06.08-.16s0-.16-.11-.16a2.84,2.84,0,0,1-1.22-.18.73.73,0,0,1-.32-.71,4.52,4.52,0,0,1,.1-.92l1.05-5.88.47,0a7,7,0,0,0,1.54-.16,37.42,37.42,0,0,0,2.49,6.06c.77,1.39,1.35,2.09,1.75,2.09h3.57c.06,0,.1-.06.1-.16S803.6,316.77,803.54,316.77Zm-8.83-8.32a5.1,5.1,0,0,1-.86-.08l1-5.47a5.89,5.89,0,0,1,.31-1.22.76.76,0,0,1,.43-.45,3.41,3.41,0,0,1,.93-.09,2.26,2.26,0,0,1,1.63.6,2.56,2.56,0,0,1,.62,1.89,7.86,7.86,0,0,1-.13,1.26,4.64,4.64,0,0,1-1.23,2.72A3.82,3.82,0,0,1,794.71,308.45Z" transform="translate(286.25 -262)"/><path d="M812.17,307a2.7,2.7,0,0,0-1.46-.33,5.5,5.5,0,0,0-2.87.81,7.36,7.36,0,0,0-3.36,4.79,7.46,7.46,0,0,0-.13,1.34,4.13,4.13,0,0,0,.89,2.75,3.2,3.2,0,0,0,2.61,1.07,5.75,5.75,0,0,0,4-1.68s0-.07,0-.13a.21.21,0,0,0-.15-.08h0a3.76,3.76,0,0,1-1.21.62,4.34,4.34,0,0,1-1.25.2,2.27,2.27,0,0,1-2-1,4.35,4.35,0,0,1-.68-2.55,11.42,11.42,0,0,1,.11-1.23,13.21,13.21,0,0,0,4.25-1.47q1.77-1,1.77-2.22A1,1,0,0,0,812.17,307Zm-1.83,1.63q-.32,1.86-3.61,2.6a7.55,7.55,0,0,1,1-2.78,2,2,0,0,1,1.66-1.07,1.14,1.14,0,0,1,.71.23.84.84,0,0,1,.28.68A1.57,1.57,0,0,1,810.34,308.6Z" transform="translate(286.25 -262)"/><path d="M830.16,315a.16.16,0,0,0-.1.05q-1,1-1.47,1c-.3,0-.45-.23-.45-.68a3.66,3.66,0,0,1,.08-.65l.84-4.66a7,7,0,0,0,.16-1.42q0-2-1.68-2a3.33,3.33,0,0,0-2.42,1.26,11.22,11.22,0,0,0-2.08,3.56l.26-1.39a6.75,6.75,0,0,0,.13-1.36q0-2.07-1.65-2.07a3.38,3.38,0,0,0-2.47,1.26,11,11,0,0,0-2.06,3.58l.42-2.4c.07-.53.11-.86.11-1a1.52,1.52,0,0,0-.28-1,1,1,0,0,0-.85-.32,2.66,2.66,0,0,0-1.48.49,8.91,8.91,0,0,0-1.66,1.57.12.12,0,0,0,0,.17.19.19,0,0,0,.14.1.1.1,0,0,0,.08,0c.68-.73,1.21-1.1,1.6-1.1s.47.25.47.76a3.28,3.28,0,0,1,0,.6l-1.08,5.89-.26,1.28-.13.63c0,.12.26.18.79.18.75,0,1.16-.15,1.25-.47l.16-.81a24,24,0,0,1,1.14-4.28,10.19,10.19,0,0,1,1.48-2.79,2.09,2.09,0,0,1,1.46-1c.6,0,.89.46.89,1.38a7.68,7.68,0,0,1-.13,1.21l-.86,4.58c-.06.36-.13.76-.23,1.18s-.15.68-.16.78.26.18.78.18c.79,0,1.2-.15,1.26-.47l.15-.86a24.58,24.58,0,0,1,1.18-4.32,10.31,10.31,0,0,1,1.48-2.74,2.09,2.09,0,0,1,1.45-.92c.56,0,.84.45.84,1.36a8.33,8.33,0,0,1-.13,1.25l-.78,4.17a6.67,6.67,0,0,0-.11,1.15,1.79,1.79,0,0,0,.26,1.07,1,1,0,0,0,.87.34,2.26,2.26,0,0,0,1.38-.5,9.59,9.59,0,0,0,1.58-1.54.12.12,0,0,0,0-.17A.15.15,0,0,0,830.16,315Z" transform="translate(286.25 -262)"/><path d="M836.5,315a.15.15,0,0,0-.11.06c-.71.66-1.22,1-1.52,1s-.44-.23-.44-.68a2.92,2.92,0,0,1,.08-.65l1.07-5.68a5.47,5.47,0,0,0,.13-1.05c0-.86-.38-1.28-1.15-1.28a2.6,2.6,0,0,0-1.45.49,9.25,9.25,0,0,0-1.69,1.57.14.14,0,0,0,0,.17.16.16,0,0,0,.15.1s.07,0,.08,0c.65-.73,1.18-1.1,1.6-1.1s.5.24.5.73a3.19,3.19,0,0,1-.08.63l-1.07,5.45a5.36,5.36,0,0,0-.16,1.2c0,.91.38,1.36,1.15,1.36a2.49,2.49,0,0,0,1.41-.48,9.13,9.13,0,0,0,1.6-1.53.14.14,0,0,0,0-.17C836.59,315.07,836.55,315,836.5,315Z" transform="translate(286.25 -262)"/><path d="M835.32,301.22a1.44,1.44,0,0,0-1,.35,1.24,1.24,0,0,0-.38.93,1.28,1.28,0,0,0,1.39,1.39,1.24,1.24,0,0,0,1-.37,1.46,1.46,0,0,0,.34-1,1.33,1.33,0,0,0-.34-.93A1.31,1.31,0,0,0,835.32,301.22Z" transform="translate(286.25 -262)"/><path d="M847.73,315.21a.18.18,0,0,0-.16-.09.11.11,0,0,0-.08,0,4.26,4.26,0,0,1-.76.63,1.3,1.3,0,0,1-.7.21,1.08,1.08,0,0,1-.7-.24,2.06,2.06,0,0,1-.53-1l-1.13-3.61,1.36-2q.45-.63.81-.63a.67.67,0,0,1,.34.09,1.63,1.63,0,0,1,.29.23,3.13,3.13,0,0,0,.41.29,1.14,1.14,0,0,0,.48.1,1,1,0,0,0,.71-.25,1,1,0,0,0,.34-.61,1.23,1.23,0,0,0-.43-1.09,1.62,1.62,0,0,0-1.14-.48,1.36,1.36,0,0,0-1,.35,7.76,7.76,0,0,0-1.13,1.53l-1.25,2-.63-2a3.63,3.63,0,0,0-.74-1.44,1.41,1.41,0,0,0-1-.39,2.61,2.61,0,0,0-1.38.48,9.94,9.94,0,0,0-1.71,1.5.1.1,0,0,0,0,.15.2.2,0,0,0,.15.09.11.11,0,0,0,.08,0,2.32,2.32,0,0,1,1.49-.83,1.06,1.06,0,0,1,.69.27,2.24,2.24,0,0,1,.57,1.06l1,3.27L840.45,315q-.45.6-.84.6a.81.81,0,0,1-.57-.28,2.34,2.34,0,0,0-.42-.28,1.18,1.18,0,0,0-.5-.09,1,1,0,0,0-.68.25.92.92,0,0,0-.34.59,1.16,1.16,0,0,0,.39,1.08,1.56,1.56,0,0,0,1.13.49,1.4,1.4,0,0,0,1-.36,7.76,7.76,0,0,0,1.13-1.53l1.41-2.22.73,2.33a3.86,3.86,0,0,0,.72,1.4,1.39,1.39,0,0,0,1,.38,2.5,2.5,0,0,0,1.39-.49,9.94,9.94,0,0,0,1.7-1.5A.11.11,0,0,0,847.73,315.21Z" transform="translate(286.25 -262)"/><path d="M854.44,301.23a6.73,6.73,0,0,0-2.71-3.12s-.07,0-.12,0a.24.24,0,0,0-.06.15v0a15,15,0,0,1,1.39,6.55,24.43,24.43,0,0,1-.4,4.27,25.58,25.58,0,0,1-1.79,6.28,15.35,15.35,0,0,1-3,4.53.1.1,0,0,0,0,.13.16.16,0,0,0,.13.08h0a12.53,12.53,0,0,0,4.62-4.37,17.9,17.9,0,0,0,2.58-6.65,19.63,19.63,0,0,0,.29-3.17A11.6,11.6,0,0,0,854.44,301.23Z" transform="translate(286.25 -262)"/><path d="M260.42,263.44a12.62,12.62,0,0,0-6.11-1.44,16.1,16.1,0,0,0-7.43,1.8,14.7,14.7,0,0,0-5.68,5,13.58,13.58,0,0,0-.23,14.33,12.51,12.51,0,0,0,5.12,4.53,15.44,15.44,0,0,0,6.87,1.55,18,18,0,0,0,5.26-.74,15.59,15.59,0,0,0,5-2.67q.09,0,0-.18c-.06-.09-.12-.13-.18-.13h-.09a15.58,15.58,0,0,1-4.11,1.72,18.36,18.36,0,0,1-4.38.48,13.11,13.11,0,0,1-6.33-1.53,11.35,11.35,0,0,1-4.49-4.42,13.42,13.42,0,0,1-1.66-6.81,14.07,14.07,0,0,1,1.26-6,10.07,10.07,0,0,1,3.72-4.31,10.5,10.5,0,0,1,5.84-1.6,10.37,10.37,0,0,1,9.19,5.35,11,11,0,0,1,1.37,5.43,8.46,8.46,0,0,1-1,4.13,6.73,6.73,0,0,1-2.56,2.67,6.6,6.6,0,0,1-3.39.92,6,6,0,0,1-5-2,8.09,8.09,0,0,1-1.62-5.19,9.35,9.35,0,0,1,.61-3.9,2.23,2.23,0,0,1,2.22-1.26,2.07,2.07,0,0,1,1.44.45,5.48,5.48,0,0,1,1,1.35,4.49,4.49,0,0,0,.83,1.1,1.57,1.57,0,0,0,1.06.38,1.56,1.56,0,0,0,1.71-1.71,2.16,2.16,0,0,0-1.44-1.88,7.34,7.34,0,0,0-3.23-.68,8.24,8.24,0,0,0-3.75.92,7.56,7.56,0,0,0-2.95,2.63,7.61,7.61,0,0,0-.29,7.43,6.47,6.47,0,0,0,2.67,2.61,9.59,9.59,0,0,0,4.63,1,12.29,12.29,0,0,0,6-1.44,11.05,11.05,0,0,0,4.16-3.82,9.34,9.34,0,0,0,1.5-5.07,9.81,9.81,0,0,0-1.44-5.17A10.58,10.58,0,0,0,260.42,263.44Z" transform="translate(286.25 -262)"/><polygon points="0 92.03 92.03 92.03 92.03 0 0 92.03"/><polygon points="184.06 92.03 184.06 0 92.03 92.03 92.03 184.06 184.06 184.06 184.06 184.06 184.06 92.03 184.06 92.03"/><path d="M173.91,262a92,92,0,0,0-92,92V262h-92l-92,92h92l-92,92h92l92-92h0a92,92,0,1,0,92-92Z" transform="translate(286.25 -262)"/><path d="M300.59,262a4.65,4.65,0,0,0-4.65,4.65V441.42a4.65,4.65,0,0,0,9.29,0V266.65A4.65,4.65,0,0,0,300.59,262Z" transform="translate(286.25 -262)"/><path d="M395.3,378.23c-7.33,0-13.88,4.79-18.22,12.32-4.33-7.53-10.88-12.32-18.22-12.32-13.05,0-23.63,15.18-23.63,33.92s10.58,33.91,23.63,33.91c7.34,0,13.89-4.79,18.22-12.32,4.34,7.53,10.89,12.32,18.22,12.32,13.05,0,23.63-15.18,23.63-33.91S408.35,378.23,395.3,378.23Zm-22.66,46.08a8.29,8.29,0,0,1-5.87,2.63c-5.69,0-10.31-6.62-10.31-14.79s4.62-14.8,10.31-14.8a8.29,8.29,0,0,1,5.87,2.63c2.69,2.68,4.44,7.13,4.44,12.17S375.33,421.63,372.64,424.31Zm40.89-12.16c0,8.17-4.62,14.79-10.31,14.79s-10.31-6.62-10.31-14.79,4.61-14.8,10.31-14.8S413.53,404,413.53,412.15Z" transform="translate(286.25 -262)"/></svg>