<svg id="Layer_1" data-name="Layer 1" xmlns="http://www.w3.org/2000/svg" viewBox="0 0 1303.37 353.73"><title>title</title><path d="M204.3,745.72a6.77,6.77,0,1,0,5,11.63,6.77,6.77,0,0,0-5-11.63Z" transform="translate(-197.32 -418.13)"/><path d="M254.45,734.39h-13v36.93h4.44V756.88h8.55a13,13,0,0,0,9-3l.06-.06a11.54,11.54,0,0,0-.06-16.32A13,13,0,0,0,254.45,734.39ZM260.13,751c-1.37,1.11-3.48,1.72-6.36,1.72H245.9V738.59h7.86c2.88,0,5,.59,6.36,1.76a7.91,7.91,0,0,1,0,10.57Z" transform="translate(-197.32 -418.13)"/><path d="M299.49,736.16a18.85,18.85,0,0,0-18.11,0,15.28,15.28,0,0,0-6,6.6,25.29,25.29,0,0,0,0,20.18,15.34,15.34,0,0,0,6,6.6,18.9,18.9,0,0,0,18.11,0,15.46,15.46,0,0,0,6-6.6,25.37,25.37,0,0,0,0-20.18A15.46,15.46,0,0,0,299.49,736.16Zm0,27.57a12.53,12.53,0,0,1-18.15,0Q278,759.8,278,752.85T281.34,742h0a12.46,12.46,0,0,1,18.18,0q3.33,4,3.33,10.87T299.49,763.73Z" transform="translate(-197.32 -418.13)"/><path d="M341.54,751.79a10.15,10.15,0,0,0,2.23-6.6,9.87,9.87,0,0,0-3.41-7.89,13.56,13.56,0,0,0-9.06-2.91h-14V771.3h4.44V756h8.89l10,15.32H346l-10.39-15.82A11.1,11.1,0,0,0,341.54,751.79Zm-19.77,0,.05-13.2h9.41q7.77,0,7.77,6.6t-7.77,6.6Z" transform="translate(-197.32 -418.13)"/><polygon points="151.85 320.46 164.73 320.46 164.73 353.17 169.18 353.17 169.18 320.46 182.04 320.46 182.04 316.26 151.85 316.26 151.85 320.46"/><path d="M411.24,734.39v22q0,5.8-2.43,8.52c-1.62,1.81-4.15,2.71-7.57,2.71s-6-.91-7.58-2.71-2.43-4.64-2.43-8.52v-22h-4.45v23.15q0,7.05,3.73,10.69t10.76,3.63q7,0,10.76-3.61t3.72-10.71l-.06-23.15Z" transform="translate(-197.32 -418.13)"/><path d="M441.67,756.82h11.74v1.29a8.52,8.52,0,0,1-3.05,7,12.13,12.13,0,0,1-7.85,2.46q-6.11,0-9.34-3.88t-3.24-10.93a18.44,18.44,0,0,1,1.56-7.92,11.54,11.54,0,0,1,11-6.9,12.55,12.55,0,0,1,6.67,1.68,9.53,9.53,0,0,1,4,4.8l4.08-2.22a14.92,14.92,0,0,0-5.73-6.38,17.83,17.83,0,0,0-9-2.07,17.35,17.35,0,0,0-9,2.33,15.5,15.5,0,0,0-6,6.66,22.3,22.3,0,0,0-2.15,10.07,22.53,22.53,0,0,0,2.1,10.09,15.38,15.38,0,0,0,5.95,6.6,17.35,17.35,0,0,0,9.06,2.32,16.1,16.1,0,0,0,7.07-1.42,10.6,10.6,0,0,0,4.56-4.11l.17,5h3.33V752.68l-15.79-.06Z" transform="translate(-197.32 -418.13)"/><path d="M477.7,734.39,463.33,771.3H468l3.91-10.23h16.72l3.92,10.23h4.75L483,734.39Zm-4.15,22.49,5-13.26,1.62-5h.11l1.74,5.14,5,13.09Z" transform="translate(-197.32 -418.13)"/><polygon points="311.94 316.26 307.49 316.26 307.49 353.17 333.11 353.17 333.11 348.97 311.94 348.97 311.94 316.26"/><rect x="358.51" y="316.26" width="4.44" height="36.91"/><polygon points="399.75 342.32 399.97 348.25 399.92 348.25 395.94 340.86 380.57 316.26 375.02 316.26 375.02 353.17 379.26 353.17 379.26 327.11 379.04 321.18 379.09 321.18 383 328.46 398.44 353.17 404 353.17 404 316.26 399.75 316.26 399.75 342.32"/><polygon points="411.82 320.46 424.71 320.46 424.71 353.17 429.15 353.17 429.15 320.46 442.06 320.46 442.06 316.26 411.82 316.26 411.82 320.46"/><polygon points="454.28 336.56 470.94 336.56 470.94 332.37 454.28 332.37 454.28 320.46 475.71 320.46 475.71 316.26 449.83 316.26 449.83 353.17 476.57 353.17 476.57 348.97 454.28 348.97 454.28 336.56"/><path d="M707.05,751.79a10.14,10.14,0,0,0,2.22-6.6,9.84,9.84,0,0,0-3.41-7.89,13.58,13.58,0,0,0-9.06-2.91h-14V771.3h4.44V756h8.88l10,15.32h5.31l-10.39-15.82A11.13,11.13,0,0,0,707.05,751.79Zm-19.8,0v-13.2h9.44q7.83,0,7.83,6.6t-7.83,6.6Z" transform="translate(-197.32 -418.13)"/><path d="M744.07,734.39v22c0,3.88-.81,6.71-2.43,8.52s-4.15,2.71-7.57,2.71-6-.91-7.58-2.71-2.43-4.64-2.43-8.52v-22h-4.44v23.15q0,7.05,3.72,10.69t10.76,3.63q7,0,10.76-3.61t3.71-10.71l-.05-23.15Z" transform="translate(-197.32 -418.13)"/><polygon points="587.58 316.26 587.58 342.32 587.8 348.25 583.83 340.86 568.46 316.26 562.91 316.26 562.91 353.17 567.16 353.17 567.16 327.11 566.94 321.18 567 321.18 570.9 328.46 586.36 353.17 591.91 353.17 591.83 316.26 587.58 316.26"/><rect x="604.02" y="316.26" width="4.44" height="36.91"/><polygon points="634.98 341.86 632.63 349.13 630.28 341.81 620.89 316.26 616.06 316.26 630.1 353.17 635.18 353.17 649.18 316.32 644.37 316.32 634.98 341.86"/><polygon points="661.23 336.56 677.89 336.56 677.89 332.37 661.23 332.37 661.23 320.46 682.64 320.46 682.64 316.26 656.76 316.26 656.76 353.17 683.49 353.17 683.49 348.97 661.23 348.97 661.23 336.56"/><path d="M914,751.79a10.08,10.08,0,0,0,2.22-6.6,9.81,9.81,0,0,0-3.41-7.89,13.57,13.57,0,0,0-9-2.91h-14V771.3h4.44V756h8.83l10,15.32h5.31L908,755.48A11.12,11.12,0,0,0,914,751.79Zm-19.75,0,.06-13.2h9.45q7.77,0,7.78,6.6t-7.78,6.6Z" transform="translate(-197.32 -418.13)"/><path d="M950.33,754.53q-3-2.46-10.38-3.7a32.44,32.44,0,0,1-6.12-1.53,7.42,7.42,0,0,1-3.15-2,4.56,4.56,0,0,1-1-3,5.36,5.36,0,0,1,2.46-4.5,11.19,11.19,0,0,1,6.66-1.75,11.35,11.35,0,0,1,6.34,1.53,12,12,0,0,1,4,5.23l3.86-3.13q-4.37-7.83-14.19-7.83a16.86,16.86,0,0,0-7.27,1.49,11.52,11.52,0,0,0-4.81,4,9.78,9.78,0,0,0-1.68,5.49,8,8,0,0,0,3.08,6.67q3.09,2.4,10.45,3.68,5.71,1,7.94,2.46a4.44,4.44,0,0,1,2.22,3.92,5,5,0,0,1-2.57,4.5,13.1,13.1,0,0,1-6.94,1.59,13.84,13.84,0,0,1-7.39-1.81,11.46,11.46,0,0,1-4.45-5.12l-3.86,3.13a15.25,15.25,0,0,0,6,5.82,19.36,19.36,0,0,0,9.53,2.22,20,20,0,0,0,7.49-1.31,11.28,11.28,0,0,0,5-3.7,8.92,8.92,0,0,0,1.76-5.5A8.26,8.26,0,0,0,950.33,754.53Z" transform="translate(-197.32 -418.13)"/><rect x="765.48" y="316.26" width="4.44" height="36.91"/><polygon points="777.75 320.46 790.64 320.46 790.64 353.17 795.08 353.17 795.08 320.46 807.95 320.46 807.95 316.26 777.75 316.26 777.75 320.46"/><polygon points="825.74 334.15 815.62 316.26 810.31 316.26 823.51 338.74 823.51 353.18 827.95 353.18 827.95 338.74 841.17 316.26 835.86 316.26 825.74 334.15"/><polygon points="864.49 353.17 868.94 353.17 868.94 336.56 885.6 336.56 885.6 332.37 868.94 332.37 868.94 320.46 890.33 320.46 890.33 316.26 864.49 316.26 864.49 353.17"/><rect x="898.57" y="316.26" width="4.44" height="36.91"/><polygon points="919.56 316.26 915.12 316.26 915.12 353.17 940.78 353.17 940.78 348.97 919.56 348.97 919.56 316.26"/><polygon points="969.29 338.74 966.45 347.91 966.34 347.91 963.54 338.69 955.43 316.26 948.55 316.26 948.55 353.17 952.91 353.17 952.91 329.97 952.41 320.24 964.54 353.17 968.35 353.17 980.48 320.24 979.98 329.97 979.98 353.17 984.22 353.17 984.22 316.26 977.34 316.26 969.29 338.74"/><polygon points="1015.4 353.17 1019.84 353.17 1019.84 336.56 1036.5 336.56 1036.5 332.37 1019.84 332.37 1019.84 320.46 1041.19 320.46 1041.19 316.26 1015.4 316.26 1015.4 353.17"/><polygon points="1053.94 336.56 1070.6 336.56 1070.6 332.37 1053.94 332.37 1053.94 320.46 1075.36 320.46 1075.36 316.26 1049.46 316.26 1049.46 353.17 1076.19 353.17 1076.19 348.97 1053.94 348.97 1053.94 336.56"/><path d="M1305.87,754.53q-3-2.46-10.36-3.7a32.35,32.35,0,0,1-6.13-1.53,7.45,7.45,0,0,1-3.16-2,4.55,4.55,0,0,1-1-3,5.35,5.35,0,0,1,2.43-4.5,11.19,11.19,0,0,1,6.66-1.75,11.39,11.39,0,0,1,6.35,1.53,12.07,12.07,0,0,1,4,5.23l3.85-3.13q-4.35-7.83-14.27-7.83a16.91,16.91,0,0,0-7.28,1.49,11.34,11.34,0,0,0-4.8,4,9.7,9.7,0,0,0-1.67,5.49,8.06,8.06,0,0,0,3.06,6.67q3.08,2.4,10.46,3.68c3.81.68,6.45,1.5,7.94,2.46a4.48,4.48,0,0,1,2.22,3.92,5,5,0,0,1-2.58,4.5,13.09,13.09,0,0,1-6.93,1.59,13.89,13.89,0,0,1-7.29-1.81,11.55,11.55,0,0,1-4.44-5.12l-3.85,3.13a15.2,15.2,0,0,0,6,5.82,19.41,19.41,0,0,0,9.53,2.22,20.2,20.2,0,0,0,7.5-1.31,11.43,11.43,0,0,0,5-3.7,8.91,8.91,0,0,0,1.77-5.5A8.28,8.28,0,0,0,1305.87,754.53Z" transform="translate(-197.32 -418.13)"/><polygon points="1115.05 320.46 1127.94 320.46 1127.94 353.17 1132.38 353.17 1132.38 320.46 1145.24 320.46 1145.24 316.26 1115.05 316.26 1115.05 320.46"/><rect x="1153.1" y="316.26" width="4.44" height="36.91"/><polygon points="1193.44 316.32 1184.04 341.86 1181.7 349.13 1179.34 341.81 1169.96 316.26 1165.15 316.26 1179.18 353.17 1184.26 353.17 1198.25 316.32 1193.44 316.32"/><path d="M1409.65,734.39l-14.38,36.91h4.7l3.92-10.23h16.66l4,10.23h4.75L1415,734.39Zm-4.19,22.49,5-13.26,1.62-5h.11l1.74,5.14,5,13.09Z" transform="translate(-197.32 -418.13)"/><polygon points="1243.83 316.26 1239.39 316.26 1239.39 353.17 1265 353.17 1265 348.97 1243.83 348.97 1243.83 316.26"/><path d="M1493.72,745.75a6.77,6.77,0,0,0-5,11.6,7.56,7.56,0,0,0,10,0,7,7,0,0,0,0-9.73A7,7,0,0,0,1493.72,745.75Z" transform="translate(-197.32 -418.13)"/><rect x="0.3" y="301.84" width="1303.07" height="4.75" rx="2.23"/><path d="M218.48,647.9a28.81,28.81,0,0,1,14.64-3.65q15.82,0,20.38,16.51c.06.2.28.28.64.25s.54-.15.54-.35l-1.18-11.77a14.3,14.3,0,0,0-.3-1.48c-.07-.2-.33-.43-.79-.69a34.25,34.25,0,0,0-8.51-3.07,52.41,52.41,0,0,0-10.48-.89,41.5,41.5,0,0,0-18.35,4,31,31,0,0,0-12.81,11.12,29.61,29.61,0,0,0-4.64,16.47,31.79,31.79,0,0,0,4.55,17,30.73,30.73,0,0,0,12.7,11.53,40.82,40.82,0,0,0,18.55,4.1,48.52,48.52,0,0,0,10.34-1,44.66,44.66,0,0,0,9.64-3.46,2.86,2.86,0,0,0,.79-.69,4,4,0,0,0,.3-1.49l1-10.88c0-.19-.24-.29-.7-.29s-.49.07-.49.2q-2.67,8.1-7.72,12.06t-13.15,4a25.64,25.64,0,0,1-14.09-4.15A29.75,29.75,0,0,1,209,689.89a33.09,33.09,0,0,1-3.81-15.77,34.19,34.19,0,0,1,3.46-15.78A24.77,24.77,0,0,1,218.48,647.9Z" transform="translate(-197.32 -418.13)"/><path d="M273.13,702.06a3.46,3.46,0,0,1-2.37,1.92,21.41,21.41,0,0,1-5.49.5c-.2,0-.3.2-.3.59s.1.6.3.6c2,0,3.66,0,4.84-.1l6.83-.1,7,.1c1.19.06,2.77.1,4.75.1.19,0,.29-.2.29-.6s-.1-.59-.29-.59a21.31,21.31,0,0,1-5.49-.5,3.31,3.31,0,0,1-2.33-1.92,12.42,12.42,0,0,1-.59-4.41V652.06a11.3,11.3,0,0,1,.64-4.4,3.79,3.79,0,0,1,2.38-2,17.79,17.79,0,0,1,5.39-.59c.19,0,.29-.2.29-.6s-.1-.59-.29-.59l-4.65.1q-4.15.19-7.12.2-2.67,0-6.83-.2l-4.84-.1c-.2,0-.3.2-.3.59s.1.6.3.6a20.18,20.18,0,0,1,5.49.54,3.66,3.66,0,0,1,2.37,1.93,10.92,10.92,0,0,1,.64,4.35v45.79A11.39,11.39,0,0,1,273.13,702.06Z" transform="translate(-197.32 -418.13)"/><path d="M314.82,649c-.79-1-1.59-2.07-2.38-3.26a12.41,12.41,0,0,0-1.13-1.53,1.6,1.6,0,0,0-1.14-.35c-.53,0-1.26,0-2.18.1s-2.11.1-3.56.1-2.47,0-3.26-.1l-3.66-.1c-.2,0-.3.2-.3.59s.1.6.3.6c2.63,0,5.24,1.18,7.81,3.56v46.29c0,3.42-.59,5.88-1.78,7.36s-3.2,2.23-6,2.23c-.13,0-.2.2-.2.59s.07.6.2.6c1.78,0,3.13,0,4.05-.1l5.05-.1,4.94.1c.86.06,2.11.1,3.76.1q.3,0,.3-.6c0-.39-.1-.59-.3-.59q-4.05,0-5.88-2.23c-1.22-1.48-1.83-3.94-1.83-7.36V651l.89,1L354,707.05c.13.13.36.16.7.1s.49-.17.49-.3V654.73q0-5.15,1.88-7.42c1.25-1.52,3.26-2.27,6-2.27q.3,0,.3-.6c0-.39-.1-.59-.3-.59L359,644c-2.11.13-3.76.2-4.95.2s-2.87-.07-4.84-.2l-3.86-.1c-.13,0-.2.2-.2.59s.07.6.2.6c2.7,0,4.63.75,5.78,2.27s1.74,4,1.74,7.42v41Z" transform="translate(-197.32 -418.13)"/><path d="M377.47,702.06A3.46,3.46,0,0,1,375.1,704a21.41,21.41,0,0,1-5.49.5c-.13,0-.2.2-.2.59s.07.6.2.6h41.44a1.75,1.75,0,0,0,1.24-.35,1.57,1.57,0,0,0,.34-1.14,92.68,92.68,0,0,1,.89-13,.33.33,0,0,0-.24-.3,1.42,1.42,0,0,0-.55-.1c-.26,0-.39.07-.39.2a18,18,0,0,1-4.26,9.3,10.41,10.41,0,0,1-7.91,3.36h-7.91a18,18,0,0,1-4.95-.5,3.32,3.32,0,0,1-2.17-1.78,10.11,10.11,0,0,1-.6-4V674.51h11.77q4.95,0,7.08,1.88t2.12,6.23c0,.13.2.2.6.2s.59-.07.59-.2l-.1-4.75c-.07-1-.1-2.43-.1-4.35l.1-8c0-.13-.2-.2-.59-.2s-.6.07-.6.2q0,3.76-2,5.34c-1.36,1.06-3.61,1.58-6.78,1.58H384.54V652.36a9.6,9.6,0,0,1,.65-4,3.64,3.64,0,0,1,2.27-1.88,17.59,17.59,0,0,1,5.1-.54h6a10.2,10.2,0,0,1,7.61,2.91c1.92,1.95,3,4.67,3.17,8.16.06.2.26.29.59.25s.5-.15.5-.34l-.2-12.17a.79.79,0,0,0-.89-.89H369.61c-.13,0-.2.2-.2.59s.07.6.2.6a20.18,20.18,0,0,1,5.49.54,3.66,3.66,0,0,1,2.37,1.93,10.88,10.88,0,0,1,.65,4.35v45.79A11.36,11.36,0,0,1,377.47,702.06Z" transform="translate(-197.32 -418.13)"/><path d="M428.31,702.25c-1.22,1.49-3.22,2.23-6,2.23-.14,0-.2.2-.2.59s.06.6.2.6c1.71,0,3,0,3.95-.1l5.14-.1,5.35.1c1,.06,2.4.1,4.25.1.13,0,.2-.2.2-.6s-.07-.59-.2-.59q-4.75,0-6.63-2.18c-1.25-1.45-1.85-3.92-1.78-7.41l.89-41.64L457.83,705a1.22,1.22,0,0,0,.89.4.78.78,0,0,0,.79-.4l22.55-52.32,1.78,45a10.78,10.78,0,0,1-.34,4.36,3.32,3.32,0,0,1-2.18,1.93,17.06,17.06,0,0,1-5,.54c-.14,0-.2.2-.2.59s.06.6.2.6c1.91,0,3.39,0,4.45-.1l6.33-.1,6.82.1c1.19.06,2.8.1,4.85.1q.3,0,.3-.6c0-.39-.1-.59-.3-.59a20.71,20.71,0,0,1-5.44-.5,3.43,3.43,0,0,1-2.32-1.87,12.34,12.34,0,0,1-.75-4.46l-2-45.79c-.07-2.64.6-4.43,2-5.39s3.78-1.43,7.07-1.43q.3,0,.3-.6c0-.39-.1-.59-.3-.59-1.45,0-2.53,0-3.26.1l-4.65.1c-1.05,0-1.89,0-2.52-.1a13.66,13.66,0,0,0-1.43-.1c-1.26,0-2.25.82-3,2.47L461,695.48,438.94,649a21.46,21.46,0,0,0-2.42-4.2,2.72,2.72,0,0,0-2.13-.94c-.46,0-1.1,0-1.93.1s-1.83.1-3,.1-2.11,0-2.77-.1l-3.66-.1c-.14,0-.2.2-.2.59s.06.6.2.6a9.6,9.6,0,0,1,8.11,4l-.89,45.9C430.17,698.31,429.53,700.77,428.31,702.25Z" transform="translate(-197.32 -418.13)"/><path d="M553.67,703.79a15.11,15.11,0,0,1-5.34.69c-.26,0-.39.2-.39.59s.13.6.39.6c1.12,0,2.74-.07,4.85-.2s4.09-.2,5.54-.2c1.18,0,3.09.07,5.73.2s4.58.2,5.84.2q.39,0,.39-.6c0-.39-.13-.59-.39-.59a7.48,7.48,0,0,1-5.64-2.52q-2.37-2.52-5.74-9.84L535.57,643c-.06-.2-.26-.3-.59-.3a.76.76,0,0,0-.69.3l-20.87,49.26a48.67,48.67,0,0,1-3.81,7.56,10.59,10.59,0,0,1-3.66,3.66,9.83,9.83,0,0,1-4.7,1c-.33,0-.49.2-.49.59s.16.6.49.6c1.32,0,3-.07,4.95-.2q3.36-.19,5.93-.2c1.85,0,4,.07,6.53.2,2.24.13,4,.2,5.14.2.33,0,.5-.2.5-.6s-.17-.59-.5-.59q-4.84,0-7.27-1.44a4.85,4.85,0,0,1-2.42-4.5,15.31,15.31,0,0,1,1.38-5.44l6.24-14.63h23.54l8.8,18.69a12,12,0,0,1,1.28,4.25A2.42,2.42,0,0,1,553.67,703.79Zm-31.15-27.3,10.28-24.43,11.57,24.43Z" transform="translate(-197.32 -418.13)"/><path d="M629,702.06a3.46,3.46,0,0,1-2.38,1.92,21.31,21.31,0,0,1-5.49.5c-.13,0-.19.2-.19.59s.06.6.19.6h41.45a1.72,1.72,0,0,0,1.23-.35,1.57,1.57,0,0,0,.35-1.14,91.21,91.21,0,0,1,.89-13c0-.13-.08-.23-.25-.3a1.37,1.37,0,0,0-.54-.1c-.27,0-.4.07-.4.2a17.89,17.89,0,0,1-4.25,9.3,10.42,10.42,0,0,1-7.91,3.36h-7.92a17.87,17.87,0,0,1-4.94-.5,3.34,3.34,0,0,1-2.18-1.78,10.33,10.33,0,0,1-.59-4V674.51h11.77c3.3,0,5.65.63,7.07,1.88s2.13,3.33,2.13,6.23c0,.13.19.2.59.2s.59-.07.59-.2l-.09-4.75c-.07-1-.1-2.43-.1-4.35l.1-8c0-.13-.2-.2-.6-.2s-.59.07-.59.2q0,3.76-2,5.34c-1.35,1.06-3.61,1.58-6.77,1.58H636.06V652.36a9.62,9.62,0,0,1,.64-4,3.66,3.66,0,0,1,2.28-1.88,17.46,17.46,0,0,1,5.09-.54h6a10.21,10.21,0,0,1,7.62,2.91,12.17,12.17,0,0,1,3.16,8.16c.07.2.27.29.6.25s.49-.15.49-.34l-.2-12.17a.79.79,0,0,0-.89-.89H621.12c-.13,0-.19.2-.19.59s.06.6.19.6a20.08,20.08,0,0,1,5.49.54,3.66,3.66,0,0,1,2.38,1.93,10.92,10.92,0,0,1,.64,4.35v45.79A11.39,11.39,0,0,1,629,702.06Z" transform="translate(-197.32 -418.13)"/><path d="M742,647.9a28.81,28.81,0,0,1,14.64-3.65q15.82,0,20.38,16.51c.06.2.28.28.64.25s.54-.15.54-.35L777,648.89a14.3,14.3,0,0,0-.3-1.48c-.07-.2-.33-.43-.79-.69a34.25,34.25,0,0,0-8.51-3.07,52.41,52.41,0,0,0-10.48-.89,41.5,41.5,0,0,0-18.35,4,31,31,0,0,0-12.81,11.12,29.61,29.61,0,0,0-4.64,16.47,31.79,31.79,0,0,0,4.55,17,30.79,30.79,0,0,0,12.7,11.53,40.82,40.82,0,0,0,18.55,4.1,48.52,48.52,0,0,0,10.34-1,44.48,44.48,0,0,0,9.64-3.46,2.86,2.86,0,0,0,.79-.69,4,4,0,0,0,.3-1.49l1-10.88c0-.19-.24-.29-.7-.29s-.49.07-.49.2q-2.67,8.1-7.72,12.06t-13.15,4a25.64,25.64,0,0,1-14.09-4.15,29.75,29.75,0,0,1-10.29-11.33,33.09,33.09,0,0,1-3.81-15.77,34.19,34.19,0,0,1,3.46-15.78A24.77,24.77,0,0,1,742,647.9Z" transform="translate(-197.32 -418.13)"/><path d="M804,702.55a31.18,31.18,0,0,0,16.37,4.3,35.45,35.45,0,0,0,17.26-4.35,34.21,34.21,0,0,0,12.71-11.87A30.33,30.33,0,0,0,855,674.12a32.54,32.54,0,0,0-3.8-15.34,30,30,0,0,0-10.93-11.62,30.83,30.83,0,0,0-16.52-4.4,39.43,39.43,0,0,0-16.47,3.66,32.16,32.16,0,0,0-13.2,10.93A29.46,29.46,0,0,0,789,674.81a33.83,33.83,0,0,0,3.91,16.07A29.47,29.47,0,0,0,804,702.55Zm-1.34-50.49q6.14-7,17-7a26.5,26.5,0,0,1,14.69,4.05,26.87,26.87,0,0,1,9.74,11.28,37.71,37.71,0,0,1,3.47,16.51,33.67,33.67,0,0,1-3.12,15,22.43,22.43,0,0,1-8.5,9.59,22.94,22.94,0,0,1-12.12,3.27,23.85,23.85,0,0,1-14.14-4.41,28.94,28.94,0,0,1-9.7-12.06,40.72,40.72,0,0,1-3.46-17Q796.48,659.08,802.61,652.06Z" transform="translate(-197.32 -418.13)"/><path d="M881.24,649c-.79-1-1.58-2.07-2.37-3.26a12.14,12.14,0,0,0-1.14-1.53,1.57,1.57,0,0,0-1.14-.35c-.52,0-1.25,0-2.17.1s-2.11.1-3.56.1-2.48,0-3.27-.1l-3.66-.1c-.19,0-.29.2-.29.59s.1.6.29.6c2.64,0,5.25,1.18,7.82,3.56v46.29c0,3.42-.6,5.88-1.78,7.36s-3.2,2.23-6,2.23c-.13,0-.19.2-.19.59s.06.6.19.6c1.78,0,3.13,0,4.06-.1l5-.1,5,.1c.85.06,2.11.1,3.76.1.19,0,.29-.2.29-.6s-.1-.59-.29-.59q-4.07,0-5.89-2.23c-1.22-1.48-1.83-3.94-1.83-7.36V651l.89,1,45.5,55.09a.77.77,0,0,0,.69.1c.33-.07.5-.17.5-.3V654.73c0-3.43.62-5.9,1.88-7.42s3.26-2.27,6-2.27q.3,0,.3-.6c0-.39-.1-.59-.3-.59l-4.06.1c-2.11.13-3.76.2-4.94.2s-2.87-.07-4.85-.2l-3.86-.1c-.13,0-.19.2-.19.59s.06.6.19.6c2.71,0,4.64.75,5.79,2.27s1.73,4,1.73,7.42v41Z" transform="translate(-197.32 -418.13)"/><path d="M943.3,702.06a3.48,3.48,0,0,1-2.47,1.92,22.59,22.59,0,0,1-5.59.5c-.13,0-.19.2-.19.59s.06.6.19.6c2.11,0,3.76,0,5-.1l6.82-.1,7.13.1c1.18.06,2.8.1,4.84.1.13,0,.2-.2.2-.6s-.07-.59-.2-.59a22.56,22.56,0,0,1-5.64-.5,3.49,3.49,0,0,1-2.42-1.92,11.39,11.39,0,0,1-.64-4.41V674.51h38v23.14a11.36,11.36,0,0,1-.65,4.41,3.45,3.45,0,0,1-2.42,1.92,22.51,22.51,0,0,1-5.64.5c-.19,0-.29.2-.29.59s.1.6.29.6c2,0,3.53,0,4.65-.1l7.32-.1,6.83.1c1.18.06,2.8.1,4.84.1q.3,0,.3-.6c0-.39-.1-.59-.3-.59a22,22,0,0,1-5.54-.5,3.49,3.49,0,0,1-2.42-1.92,11.39,11.39,0,0,1-.64-4.41V651.86a10.92,10.92,0,0,1,.64-4.35,3.69,3.69,0,0,1,2.42-1.93,20.75,20.75,0,0,1,5.54-.54q.3,0,.3-.6c0-.39-.1-.59-.3-.59l-4.84.1q-4.15.19-6.83.2-3,0-7.32-.2l-4.65-.1c-.19,0-.29.2-.29.59s.1.6.29.6a19.25,19.25,0,0,1,5.64.59,3.76,3.76,0,0,1,2.42,2,11.27,11.27,0,0,1,.65,4.4v20.37h-38V652.06a11.3,11.3,0,0,1,.64-4.4,3.81,3.81,0,0,1,2.47-2A19.36,19.36,0,0,1,959,645c.13,0,.2-.2.2-.6s-.07-.59-.2-.59l-4.75.1c-2.9.13-5.3.2-7.22.2q-2.46,0-6.62-.2l-5-.1c-.13,0-.19.2-.19.59s.06.6.19.6a20.7,20.7,0,0,1,5.54.54,3.64,3.64,0,0,1,2.42,1.93,10.88,10.88,0,0,1,.65,4.35v45.79A11.36,11.36,0,0,1,943.3,702.06Z" transform="translate(-197.32 -418.13)"/><path d="M1019,702.06a3.46,3.46,0,0,1-2.38,1.92,21.31,21.31,0,0,1-5.49.5c-.13,0-.19.2-.19.59s.06.6.19.6h41.45a1.72,1.72,0,0,0,1.23-.35,1.57,1.57,0,0,0,.35-1.14,91.21,91.21,0,0,1,.89-13c0-.13-.09-.23-.25-.3a1.37,1.37,0,0,0-.54-.1c-.27,0-.4.07-.4.2a18,18,0,0,1-4.25,9.3,10.42,10.42,0,0,1-7.91,3.36h-7.92a17.87,17.87,0,0,1-4.94-.5,3.34,3.34,0,0,1-2.18-1.78,10.33,10.33,0,0,1-.59-4V674.51h11.77q4.93,0,7.07,1.88t2.13,6.23c0,.13.19.2.59.2s.59-.07.59-.2l-.1-4.75c-.06-1-.09-2.43-.09-4.35l.09-8c0-.13-.19-.2-.59-.2s-.59.07-.59.2q0,3.76-2,5.34c-1.35,1.06-3.61,1.58-6.77,1.58H1026V652.36a9.62,9.62,0,0,1,.64-4,3.66,3.66,0,0,1,2.28-1.88,17.46,17.46,0,0,1,5.09-.54h6a10.21,10.21,0,0,1,7.62,2.91,12.17,12.17,0,0,1,3.16,8.16c.07.2.27.29.6.25s.49-.15.49-.34l-.2-12.17a.79.79,0,0,0-.89-.89H1011.1c-.13,0-.19.2-.19.59s.06.6.19.6a20.08,20.08,0,0,1,5.49.54,3.66,3.66,0,0,1,2.38,1.93,11.1,11.1,0,0,1,.64,4.35v45.79A11.59,11.59,0,0,1,1019,702.06Z" transform="translate(-197.32 -418.13)"/><path d="M1085.68,647.9a28.81,28.81,0,0,1,14.64-3.65q15.81,0,20.37,16.51c.07.2.28.28.64.25s.55-.15.55-.35l-1.19-11.77a11.91,11.91,0,0,0-.3-1.48c-.06-.2-.33-.43-.79-.69a34.18,34.18,0,0,0-8.5-3.07,52.52,52.52,0,0,0-10.49-.89,41.45,41.45,0,0,0-18.34,4,31,31,0,0,0-12.81,11.12,29.62,29.62,0,0,0-4.65,16.47,31.79,31.79,0,0,0,4.55,17,30.75,30.75,0,0,0,12.71,11.53,40.77,40.77,0,0,0,18.54,4.1,48.45,48.45,0,0,0,10.34-1,44.48,44.48,0,0,0,9.64-3.46,2.71,2.71,0,0,0,.79-.69,4,4,0,0,0,.3-1.49l1-10.88c0-.19-.23-.29-.69-.29s-.5.07-.5.2q-2.67,8.1-7.71,12.06t-13.16,4a25.66,25.66,0,0,1-14.09-4.15,29.75,29.75,0,0,1-10.29-11.33,33.09,33.09,0,0,1-3.81-15.77,34.2,34.2,0,0,1,3.47-15.78A24.71,24.71,0,0,1,1085.68,647.9Z" transform="translate(-197.32 -418.13)"/><path d="M1140.32,702.06A3.46,3.46,0,0,1,1138,704a21.41,21.41,0,0,1-5.49.5c-.2,0-.3.2-.3.59s.1.6.3.6c2,0,3.66,0,4.85-.1l6.82-.1,7,.1c1.19.06,2.77.1,4.75.1q.3,0,.3-.6c0-.39-.1-.59-.3-.59a21.31,21.31,0,0,1-5.49-.5,3.29,3.29,0,0,1-2.32-1.92,12.15,12.15,0,0,1-.6-4.41V652.06a11.27,11.27,0,0,1,.65-4.4,3.74,3.74,0,0,1,2.37-2,17.79,17.79,0,0,1,5.39-.59q.3,0,.3-.6c0-.39-.1-.59-.3-.59l-4.65.1q-4.15.19-7.12.2-2.67,0-6.82-.2l-4.85-.1c-.2,0-.3.2-.3.59s.1.6.3.6a20.18,20.18,0,0,1,5.49.54,3.66,3.66,0,0,1,2.37,1.93,10.92,10.92,0,0,1,.64,4.35v45.79A11.39,11.39,0,0,1,1140.32,702.06Z" transform="translate(-197.32 -418.13)"/><path d="M1170.49,702.25q-1.83,2.24-6,2.23c-.13,0-.19.2-.19.59s.06.6.19.6c1.72,0,3,0,4-.1l5.14-.1,5.34.1c1,.06,2.41.1,4.26.1.13,0,.19-.2.19-.6s-.06-.59-.19-.59q-4.76,0-6.63-2.18c-1.25-1.45-1.85-3.92-1.78-7.41l.89-41.64L1200,705a1.2,1.2,0,0,0,.89.4.78.78,0,0,0,.79-.4l22.55-52.32,1.78,45a11,11,0,0,1-.34,4.36,3.34,3.34,0,0,1-2.18,1.93,17.06,17.06,0,0,1-5,.54c-.14,0-.2.2-.2.59s.06.6.2.6c1.91,0,3.39,0,4.45-.1l6.33-.1,6.82.1c1.19.06,2.8.1,4.85.1.2,0,.29-.2.29-.6s-.09-.59-.29-.59a20.71,20.71,0,0,1-5.44-.5,3.47,3.47,0,0,1-2.33-1.87,12.38,12.38,0,0,1-.74-4.46l-2-45.79c-.06-2.64.61-4.43,2-5.39s3.77-1.43,7.07-1.43q.3,0,.3-.6c0-.39-.1-.59-.3-.59-1.45,0-2.54,0-3.26.1l-4.65.1c-1.06,0-1.9,0-2.52-.1a13.82,13.82,0,0,0-1.44-.1c-1.25,0-2.24.82-3,2.47l-21.56,49.16L1181.12,649a22,22,0,0,0-2.42-4.2,2.72,2.72,0,0,0-2.13-.94c-.46,0-1.11,0-1.93.1s-1.83.1-3,.1-2.11,0-2.76-.1l-3.66-.1c-.14,0-.2.2-.2.59s.06.6.2.6a9.62,9.62,0,0,1,8.11,4l-.89,45.9C1172.35,698.31,1171.71,700.77,1170.49,702.25Z" transform="translate(-197.32 -418.13)"/><path d="M1255.45,702.06a3.46,3.46,0,0,1-2.38,1.92,21.31,21.31,0,0,1-5.49.5c-.13,0-.19.2-.19.59s.06.6.19.6H1289a1.72,1.72,0,0,0,1.23-.35,1.57,1.57,0,0,0,.35-1.14,92.68,92.68,0,0,1,.89-13c0-.13-.09-.23-.25-.3a1.33,1.33,0,0,0-.54-.1c-.27,0-.4.07-.4.2a17.89,17.89,0,0,1-4.25,9.3,10.42,10.42,0,0,1-7.91,3.36h-7.92a17.87,17.87,0,0,1-4.94-.5,3.34,3.34,0,0,1-2.18-1.78,10.33,10.33,0,0,1-.59-4V674.51h11.77c3.3,0,5.65.63,7.07,1.88s2.13,3.33,2.13,6.23c0,.13.19.2.59.2s.59-.07.59-.2l-.09-4.75c-.07-1-.1-2.43-.1-4.35l.1-8c0-.13-.2-.2-.6-.2s-.59.07-.59.2q0,3.76-2,5.34c-1.35,1.06-3.61,1.58-6.77,1.58h-12.07V652.36a9.62,9.62,0,0,1,.64-4,3.66,3.66,0,0,1,2.28-1.88,17.46,17.46,0,0,1,5.09-.54h6a10.21,10.21,0,0,1,7.62,2.91,12.17,12.17,0,0,1,3.16,8.16c.07.2.27.29.6.25s.49-.15.49-.34l-.2-12.17a.79.79,0,0,0-.89-.89h-39.76c-.13,0-.19.2-.19.59s.06.6.19.6a20.08,20.08,0,0,1,5.49.54,3.66,3.66,0,0,1,2.38,1.93,10.92,10.92,0,0,1,.64,4.35v45.79A11.39,11.39,0,0,1,1255.45,702.06Z" transform="translate(-197.32 -418.13)"/><path d="M1317.81,649c-.8-1-1.59-2.07-2.38-3.26a11.2,11.2,0,0,0-1.14-1.53,1.56,1.56,0,0,0-1.13-.35c-.53,0-1.26,0-2.18.1s-2.11.1-3.56.1-2.47,0-3.26-.1l-3.66-.1c-.2,0-.3.2-.3.59s.1.6.3.6c2.63,0,5.24,1.18,7.81,3.56v46.29c0,3.42-.59,5.88-1.78,7.36s-3.2,2.23-6,2.23c-.14,0-.2.2-.2.59s.06.6.2.6c1.78,0,3.13,0,4-.1l5-.1,4.94.1c.86.06,2.11.1,3.76.1q.3,0,.3-.6c0-.39-.1-.59-.3-.59-2.7,0-4.67-.74-5.88-2.23s-1.83-3.94-1.83-7.36V651l.89,1L1357,707.05c.13.13.36.16.7.1s.49-.17.49-.3V654.73q0-5.15,1.88-7.42c1.25-1.52,3.26-2.27,6-2.27q.3,0,.3-.6c0-.39-.1-.59-.3-.59l-4,.1c-2.11.13-3.76.2-5,.2s-2.87-.07-4.84-.2l-3.86-.1c-.13,0-.2.2-.2.59s.07.6.2.6c2.7,0,4.63.75,5.78,2.27s1.73,4,1.73,7.42v41Z" transform="translate(-197.32 -418.13)"/><path d="M1403.85,647.71a3.52,3.52,0,0,1,2.58-1.68,34.07,34.07,0,0,1,6.32-.4q6.63,0,9.5,3.12t3.16,10.83c0,.13.2.19.6.19s.59-.06.59-.19q0-3.66.3-9.5c.2-3.89.39-6.79.59-8.7,0-.27-.16-.4-.49-.4a.54.54,0,0,0-.6.4,3,3,0,0,1-2.22,2,20.87,20.87,0,0,1-5.29.49l-6.73.1q-6.53.19-12.36.2-11.47,0-19.88-.3-5.34,0-5.34-2.18c0-.33-.19-.49-.55-.49s-.54.16-.54.49c0,1.92-.17,4.78-.5,8.61s-.62,6.92-.89,9.3c0,.13.19.19.55.19s.54-.06.54-.19q1.39-7.62,4.5-10.78t9.35-3.17a39.66,39.66,0,0,1,6.33.35,3.46,3.46,0,0,1,2.57,1.58,9.52,9.52,0,0,1,.69,4.3v45.79a10,10,0,0,1-.74,4.41,3.89,3.89,0,0,1-2.72,1.92,27.53,27.53,0,0,1-6.23.5c-.13,0-.2.2-.2.59s.07.6.2.6c2.31,0,4.12,0,5.44-.1l7.42-.1,7.71.1c1.32.06,3.07.1,5.24.1q.3,0,.3-.6c0-.39-.1-.59-.3-.59a27.53,27.53,0,0,1-6.23-.5,3.76,3.76,0,0,1-2.67-1.87,10.65,10.65,0,0,1-.69-4.46V652.06A9.86,9.86,0,0,1,1403.85,647.71Z" transform="translate(-197.32 -418.13)"/><path d="M1449.6,702.55a31.16,31.16,0,0,0,16.37,4.3,35.45,35.45,0,0,0,17.26-4.35,34.11,34.11,0,0,0,12.7-11.87,30.25,30.25,0,0,0,4.75-16.51,32.43,32.43,0,0,0-3.81-15.34A29.86,29.86,0,0,0,1486,647.16a30.83,30.83,0,0,0-16.52-4.4,39.43,39.43,0,0,0-16.47,3.66,32.16,32.16,0,0,0-13.2,10.93,29.46,29.46,0,0,0-5.15,17.46,33.71,33.71,0,0,0,3.91,16.07A29.47,29.47,0,0,0,1449.6,702.55Zm-1.34-50.49q6.13-7,17-7a26.5,26.5,0,0,1,14.69,4.05,26.87,26.87,0,0,1,9.74,11.28,37.71,37.71,0,0,1,3.47,16.51,33.67,33.67,0,0,1-3.12,15,22.39,22.39,0,0,1-8.51,9.59,22.88,22.88,0,0,1-12.11,3.27,23.91,23.91,0,0,1-14.15-4.41,29,29,0,0,1-9.69-12.06,40.72,40.72,0,0,1-3.46-17Q1442.13,659.08,1448.26,652.06Z" transform="translate(-197.32 -418.13)"/><path d="M1498.45,623.43H492.14a31.53,31.53,0,0,1-31.54-31.52h0a31.53,31.53,0,0,1-31.53,31.53H199.85a2.23,2.23,0,0,0-2.23,2.23V626a2.23,2.23,0,0,0,2.23,2.24H429.23a31.52,31.52,0,0,1,31.37,31.52h0A31.53,31.53,0,0,1,492,628.19H1498.45a2.23,2.23,0,0,0,2.23-2.24v-.29A2.23,2.23,0,0,0,1498.45,623.43Z" transform="translate(-197.32 -418.13)"/><path d="M810.26,608.51c5.11,0,8.93-.1,11.5-.3l14.44-.29,14.15.29q3.81.3,10.9.3c.58,0,.88-.59.88-1.77s-.3-1.77-.88-1.77q-12.39,0-17.39-6.05t-5-21.07V468.45a10.91,10.91,0,0,1,19.36-6.9L977.07,607.29a2.22,2.22,0,0,0,2.07.3c1-.2,1.47-.49,1.47-.89L981,444.56q.64-11.69,4.9-16.84,5-6,17.39-6.05c.59,0,.89-.58.89-1.77s-.3-1.77-.89-1.77q-7.08,0-10.9.3l-2.84.06-1.48,0-9.83.2-14.44-.29q-3.84-.3-11.5-.3c-.39,0-.58.59-.58,1.77s.19,1.77.58,1.77q12.69,0,17.39,5.89a17.53,17.53,0,0,1,2.93,5.94,53.8,53.8,0,0,1,1.78,15.29l0,7.5-.25,123L857.7,434.63a93.32,93.32,0,0,1-7.08-10,14.67,14.67,0,0,0-3.09-4.28,5.39,5.39,0,0,0-3.38-1q-1.77,0-5,.3c-2.21.2-4.92.29-8.26.29-3.94,0-7-.09-9.13-.29l-10.62-.3c-.58,0-.88.59-.88,1.77s.3,1.77.88,1.77h.22a21.47,21.47,0,0,1,21,21.63V577.85q0,15.35-4.71,21.22T810.26,605c-.4,0-.59.58-.59,1.77S809.86,608.51,810.26,608.51Z" transform="translate(-197.32 -418.13)"/><path d="M1011.93,563.12a87.81,87.81,0,0,0,33,34.77q21.39,12.83,48.78,12.82a105.48,105.48,0,0,0,51.43-13A101.66,101.66,0,0,0,1183,562.37a90.42,90.42,0,0,0,14.15-49.23,93.17,93.17,0,0,0-11.35-45.68c-14.56-26.39-41.29-39.49-46-41.33,123.67,7.28,127.35,180.75,127.35,180.75a3.81,3.81,0,0,0,3.25,1.1c2,0,3-.42,3.23-1.2l64.59-164.33q4.9-11.85,11.48-16.18t16.58-4.42c.6,0,.89-.6.88-1.78s-.33-1.73-.89-1.73l-12.37.42q-7.67.66-13.85.73-7.66.06-17.69-.42l-11.79-.18c-.58,0-.88.6-.87,1.78s.32,1.77.91,1.76q12.38-.12,17.85,2.21c3.66,1.56,5.53,4.08,5.53,7.62a23.22,23.22,0,0,1-2,8.56l-50,127.91s-11.13-120.65-115.83-144.17a219.18,219.18,0,0,0-62.19-4.78,117.5,117.5,0,0,0-49.07,10.9,96.06,96.06,0,0,0-39.35,32.57q-15.33,21.6-15.33,52A100.63,100.63,0,0,0,1011.93,563.12Zm26.37-115.69q19.15-21.23,53.36-21.23,25.9,0,45.52,12.08A81,81,0,0,1,1167.56,472q10.76,21.66,10.75,49.36,0,26.24-9.72,45.1t-26.53,28.59a73.87,73.87,0,0,1-37.72,9.73q-24.77,0-44.23-13.27t-30.2-36.11q-10.77-22.83-10.76-50.24Q1019.15,468.65,1038.3,447.43Z" transform="translate(-197.32 -418.13)"/><path d="M373.76,422.92c7.74,0,12.8,2.22,26.84,20.31.28.37.54.76.82,1.11l55.75,69.52,51.14,63.47a19.21,19.21,0,0,1,3.75,16.74,16.81,16.81,0,0,1-.91,2.7c-1.32,2.92-3.83,5-7.56,6.19s-9.53,1.83-17.41,1.83c-.4,0-.6.6-.6,1.81s.2,1.82.6,1.82l14.23-.31q12.7-.6,21.18-.6,7.56,0,20.27.6l20.36.31c.6,0,.9-.61.9-1.82s-.3-1.81-.9-1.81c-7.74,0-13.16-3.19-26.85-20.32L427.66,450.38a19.21,19.21,0,0,1-3.75-16.74,17,17,0,0,1,.91-2.69c1.32-2.93,3.83-5,7.57-6.2S442,423,449.84,423c.41,0,.84-1.7.6-2.88-.34-1.73-35.94.07-41.59.07q-7.52,0-20.27-.61l-14.82-.3c-.61,0-.91.61-.91,1.81S373.15,422.92,373.76,422.92Z" transform="translate(-197.32 -418.13)"/><path d="M1469.14,482.36h0a31.55,31.55,0,0,1,31.54-31.54,31.54,31.54,0,0,1-31.54-31.52h0a31.53,31.53,0,0,1-31.53,31.53A31.53,31.53,0,0,1,1469.14,482.36Z" transform="translate(-197.32 -418.13)"/><path d="M468.33,423.34l.64,0c3.2,0,7.19-.11,13.54,4.43a12.15,12.15,0,0,1,1.06,1,52.5,52.5,0,0,1,13.21,52.07,233,233,0,0,1-12,31.83l4.6,5.73A237,237,0,0,0,504,479.86a12.31,12.31,0,0,1,21.31-4.4l109.1,131.87a2.29,2.29,0,0,0,2.07.3c1-.19,1.47-.5,1.47-.89V464.32s-.09-1.44,0-3.77v-1.38a35.54,35.54,0,0,1,1.52-10.24c2.73-11.72,10.1-25.95,29.87-26.48,0,0,18.41-1.51,17.64,16l0,0a15.33,15.33,0,0,1-1.2,6.22L660,505.59l-9.33,22.08a2,2,0,0,0,2.08,2.73c3.84-.53,9.3-1.15,15.48-1.41,9.14-.39,19.87,0,29.34,2.59A59.44,59.44,0,0,1,713.17,538a36.27,36.27,0,0,1,9.8,8.84c7.43,9.78,9.27,23.71,5.4,41.55-4,18.3-21.44,15.88-24.61,15.88-.4,0-.59.58-.59,1.77s.19,1.76.59,1.76H793a5.16,5.16,0,0,0,3.7-1,4.67,4.67,0,0,0,1-3.39,271.48,271.48,0,0,1,2.66-38.32c0-.58-.59-.93-1.77-1s-1.77.15-1.77.73q-2.36,16.8-10.76,27.12t-20.18,10.32h-9.2A12.67,12.67,0,0,1,744,589.61a12.35,12.35,0,0,1,.19-2.27c3.58-20.59.59-37.29-9-49.89a54.42,54.42,0,0,0-22.06-16.73,82.14,82.14,0,0,0-15.62-4.92c-2.32-.5-4.61-.89-6.85-1.22l71,.13c12.81.38,20.22,1.2,30.88,12.79.27.29.84.1,1.76-.63s1.26-1.26,1-1.56l-6.17-7.49-2.64-3.19c-.76-.84-1.68-1.88-2.71-3.11q-2.26-2.68-5.39-6.65l-14.21-18.45c-.25-.3-.84-.09-1.76.64s-1.26,1.25-1,1.56a46.45,46.45,0,0,1,6,11.73,6.21,6.21,0,0,1-3.72,8.13,16.9,16.9,0,0,1-3.88.48l-70.28,0c-.25,0-.5,0-.75,0a8,8,0,0,1-7.36-11.11l20.68-48.9a39.65,39.65,0,0,1,36.51-24.2h20.57q12.95,0,20.91,8.84t8,23.87c0,.6.55.89,1.63.89s1.61-.29,1.61-.89l-.58-35.65a2.36,2.36,0,0,0-2-2.66,2.5,2.5,0,0,0-.67,0h-.15a103.74,103.74,0,0,0-13-.8H666.47a94.74,94.74,0,0,0-31,5c-12.26,4.22-21.45,10.27-25.34,18.79a1.49,1.49,0,0,0,.57,1.9c.38.22.78.42,1.11.59a1.24,1.24,0,0,0,1.54-.38,43.6,43.6,0,0,1,10.79-9.84,4.7,4.7,0,0,1,6.5,1.3,4.77,4.77,0,0,1,.75,2v.08a2.29,2.29,0,0,1,0,.37V579.33L515,434.61a90,90,0,0,1-7.08-10,14.32,14.32,0,0,0-3.09-4.27,5.2,5.2,0,0,0-3.11-1h-.28c-1.18,0-2.85.1-5,.29l-1.11.08c-2,.15-4.32.21-7.11.21-3.94,0-7-.09-9.13-.29l-10.74-.16c-.59,0-.76.45-.76,1.64S467.74,423.34,468.33,423.34Z" transform="translate(-197.32 -418.13)"/><path d="M275.79,610h0l.41.07a256,256,0,0,0,33.19,3.19c40.35,1.51,107.83-4,149.8-50.7h0A158.83,158.83,0,0,0,474.34,544L470,538.64A149.88,149.88,0,0,1,446.1,566a138.35,138.35,0,0,1-23.86,17.1c-18.6,10.55-38.48,16.07-57.41,18.6-3.51.47-7,.85-10.44,1.12-1.58.13-3.16.23-4.73.32-127.41,8-132-70.88-132-70.88h0a73.74,73.74,0,0,1-1.06-11.69c-.39-32.55,12.55-54.76,26.77-69.3a89,89,0,0,1,57.36-26.51c1.13-.08,2.18-.13,3.11-.13a86.12,86.12,0,0,1,11.5.75q16.68,2.28,28,11.48,15,12.23,21.52,36.7c.2.58.84.84,1.92.74a3.59,3.59,0,0,0,.51-.09c.73-.15,1.11-.46,1.11-.95l-3.54-33.6a15.43,15.43,0,0,0-.73-4.57,7.78,7.78,0,0,0-2.21-1.91c-.61-.28-1.2-.53-1.81-.8a111.74,111.74,0,0,0-24.75-9.13q-12.4-2.81-31.9-2.81-30.42,0-54.5,11.67a94.59,94.59,0,0,0-24.43,16.81h0v0A87.57,87.57,0,0,0,211.31,465a86.17,86.17,0,0,0-13,38.25h0S182.92,591.73,275.79,610Z" transform="translate(-197.32 -418.13)"/><path d="M1499.5,603.82a22.65,22.65,0,0,1-11.94-3.1q-5.16-3.11-10.46-10.9T1465,567l-68.39-146.79c-.2-.59-.74-.88-1.63-.88a2.1,2.1,0,0,0-1.91.88L1332.6,565.8l-1.11,2.65c-.88,2.11-1.74,4.1-2.6,6a109.86,109.86,0,0,1-8.45,15.83q-5.16,7.66-10.91,10.6a30.39,30.39,0,0,1-14,3q-1.47,0-1.47,1.77t1.47,1.77q5.6,0,14.44-.59,10-.6,17.39-.6,8.25,0,19.46.6,10,.59,15.32.59,1.47,0,1.47-1.77t-1.47-1.77q-15,0-22.11-3.84c-4.72-2.54-7.08-6.63-7.08-12.37a33.8,33.8,0,0,1,1.4-8.66,18,18,0,0,1,9.74-11.57l75.81-35.22a10.51,10.51,0,0,1,13.95,5.09l21.15,45.4q3.23,7.36,3.24,11.49,0,5.29-5.31,7.51t-17.39,2.21c-.78,0-1.18.59-1.18,1.77s.4,1.77,1.18,1.77q4.71,0,14.15-.58,10-.6,16.21-.6,5.31,0,16.51.6,11.77.57,17.09.58c.79,0,1.18-.58,1.18-1.77S1500.29,603.82,1499.5,603.82Zm-82.29-77.34-67.67,31.44a3.71,3.71,0,0,1-5-4.79l45.59-109.69,32.18,69.07A10.51,10.51,0,0,1,1417.21,526.48Z" transform="translate(-197.32 -418.13)"/></svg>