<svg id="Layer_1" data-name="Layer 1" xmlns="http://www.w3.org/2000/svg" viewBox="0 0 341.49 103.57"><title>cine_logo</title><path d="M0,103.56H160V0H0Zm153.4-6.62H24.76L80.52,79.33H153.4Zm0-24.23H83.32V30.85H153.4Zm0-66.09V24.24H80.52L24.76,6.62ZM6.62,7.82,76.7,30V73.59L6.62,95.74Z" transform="translate(0 0.01)"/><path d="M176.1,3.65a10.67,10.67,0,0,1,5.3-1.33,9.78,9.78,0,0,1,7.26,2.91l1.64-1.65A10.45,10.45,0,0,0,186.38.91a14.39,14.39,0,0,0-11.65.7,11.86,11.86,0,0,0-4.61,4.47,12.51,12.51,0,0,0-1.66,6.4,12.52,12.52,0,0,0,1.66,6.41,11.83,11.83,0,0,0,4.6,4.47,14.11,14.11,0,0,0,11.64.71,10.55,10.55,0,0,0,3.94-2.68l-1.64-1.65a9.66,9.66,0,0,1-7.26,2.94,10.67,10.67,0,0,1-5.3-1.33,9.73,9.73,0,0,1-3.73-3.64,10.2,10.2,0,0,1-1.35-5.2,10.16,10.16,0,0,1,1.35-5.19A9.81,9.81,0,0,1,176.1,3.65Z" transform="translate(0 0.01)"/><rect x="193.22" y="0.22" width="2.59" height="24.55"/><polygon points="219.13 20.14 203.31 0.22 201.18 0.22 201.18 24.77 203.77 24.77 203.77 4.85 219.55 24.77 221.69 24.77 221.69 0.22 219.13 0.22 219.13 20.14"/><polygon points="229.65 13.41 242.35 13.41 242.35 11.2 229.65 11.2 229.65 2.47 243.89 2.47 243.89 0.22 227.06 0.22 227.06 24.77 244.41 24.77 244.41 22.52 229.65 22.52 229.65 13.41"/><polygon points="265.84 20.14 250.03 0.22 247.89 0.22 247.89 24.77 250.48 24.77 250.48 4.85 266.26 24.77 268.4 24.77 268.4 0.22 265.84 0.22 265.84 20.14"/><path d="M291.07,1.61a14.21,14.21,0,0,0-13.18,0,11.91,11.91,0,0,0-4.63,4.47,12.42,12.42,0,0,0-1.67,6.38,12.46,12.46,0,0,0,1.67,6.39,11.91,11.91,0,0,0,4.63,4.47,14.21,14.21,0,0,0,13.18,0,12,12,0,0,0,4.62-4.47,12.44,12.44,0,0,0,1.68-6.41A12.38,12.38,0,0,0,295.69,6,12,12,0,0,0,291.07,1.61Zm2.37,16.08a9.49,9.49,0,0,1-3.68,3.65,11.24,11.24,0,0,1-10.54,0,9.59,9.59,0,0,1-3.72-3.65,10.11,10.11,0,0,1-1.35-5.21,10.2,10.2,0,0,1,1.35-5.2,9.59,9.59,0,0,1,3.72-3.65,11.24,11.24,0,0,1,10.54,0,9.49,9.49,0,0,1,3.68,3.65,10.18,10.18,0,0,1,1.33,5.2A10.24,10.24,0,0,1,293.44,17.69Z" transform="translate(0 0.01)"/><polygon points="317.6 0.22 308.13 21.54 298.74 0.22 295.93 0.22 306.8 24.77 309.36 24.77 320.23 0.22 317.6 0.22"/><path d="M330.26.21H327.7L316.48,24.76h2.7l2.95-6.56H335.8l2.95,6.56h2.74ZM323.07,16.1,329,2.91l5.89,13.19Z" transform="translate(0 0.01)"/></svg>