<svg id="Layer_1" data-name="Layer 1" xmlns="http://www.w3.org/2000/svg" viewBox="0 0 862.77 566.18"><defs><style>.cls-1{opacity:0.3;}.cls-10,.cls-11,.cls-12,.cls-13,.cls-14,.cls-15,.cls-16,.cls-17,.cls-2,.cls-3,.cls-4,.cls-5,.cls-6,.cls-7,.cls-8,.cls-9{fill:none;stroke:#000;stroke-miterlimit:10;stroke-width:0.5px;}.cls-3{stroke-dasharray:3.01 3.01;}.cls-4{stroke-dasharray:3.01 3.01;}.cls-5{stroke-dasharray:3.01 3.01;}.cls-6{stroke-dasharray:3.01 3.01;}.cls-7{stroke-dasharray:2.99 2.99;}.cls-8{stroke-dasharray:3 3;}.cls-9{stroke-dasharray:3 3;}.cls-10{stroke-dasharray:2.99 2.99;}.cls-11{stroke-dasharray:3 3;}.cls-12{stroke-dasharray:3.01 3.01;}.cls-13{stroke-dasharray:2.99 2.99;}.cls-14{stroke-dasharray:3.01 3.01;}.cls-15{stroke-dasharray:3 3;}.cls-16{stroke-dasharray:3.01 3.01;}.cls-17{stroke-dasharray:3;}</style></defs><g class="cls-1"><polygon points="421.63 353.8 421.63 424.51 421.63 495.22 492.34 495.22 492.34 424.51 563.05 424.51 563.05 353.8 492.34 353.8 421.63 353.8"/><polygon points="492.34 212.38 421.63 212.38 421.63 283.09 492.34 283.09 563.05 283.09 563.05 212.38 492.34 212.38"/><rect x="563.05" y="283.09" width="70.71" height="70.71"/><polygon points="189.49 363.81 189.49 293.1 189.49 222.39 189.49 151.68 118.78 151.68 118.78 222.39 118.78 293.1 118.78 363.81 118.78 434.52 189.49 434.52 260.19 434.52 330.9 434.52 330.9 363.81 260.19 363.81 189.49 363.81"/><polygon points="270.2 70.96 199.49 70.96 199.49 141.67 199.49 212.38 199.49 283.09 199.49 353.8 270.2 353.8 340.91 353.8 340.91 283.09 270.2 283.09 270.2 212.38 270.2 141.67 340.91 141.67 411.62 141.67 411.62 70.96 340.91 70.96 270.2 70.96"/><rect x="340.91" y="212.38" width="70.71" height="70.71"/></g><line class="cls-2" x1="199.49" y1="0.25" x2="199.49" y2="1.75"/><line class="cls-3" x1="199.49" y1="4.76" x2="199.49" y2="562.92"/><line class="cls-2" x1="199.49" y1="564.43" x2="199.49" y2="565.93"/><line class="cls-2" x1="189.48" y1="0.25" x2="189.48" y2="1.75"/><line class="cls-3" x1="189.48" y1="4.76" x2="189.48" y2="562.92"/><line class="cls-2" x1="189.48" y1="564.43" x2="189.48" y2="565.93"/><line class="cls-2" x1="118.77" y1="0.25" x2="118.77" y2="1.75"/><line class="cls-3" x1="118.77" y1="4.76" x2="118.77" y2="562.92"/><line class="cls-2" x1="118.77" y1="564.43" x2="118.77" y2="565.93"/><line class="cls-2" x1="48.06" y1="0.25" x2="48.06" y2="1.75"/><line class="cls-3" x1="48.06" y1="4.76" x2="48.06" y2="562.92"/><line class="cls-2" x1="48.06" y1="564.43" x2="48.06" y2="565.93"/><line class="cls-2" x1="270.2" y1="0.25" x2="270.2" y2="1.75"/><line class="cls-3" x1="270.2" y1="4.76" x2="270.2" y2="562.92"/><line class="cls-2" x1="270.2" y1="564.43" x2="270.2" y2="565.93"/><line class="cls-2" x1="340.91" y1="0.25" x2="340.91" y2="1.75"/><line class="cls-3" x1="340.91" y1="4.76" x2="340.91" y2="562.92"/><line class="cls-2" x1="340.91" y1="564.43" x2="340.91" y2="565.93"/><line class="cls-2" x1="330.9" y1="0.25" x2="330.9" y2="1.75"/><line class="cls-3" x1="330.9" y1="4.76" x2="330.9" y2="562.92"/><line class="cls-2" x1="330.9" y1="564.43" x2="330.9" y2="565.93"/><line class="cls-2" x1="411.62" y1="0.25" x2="411.62" y2="1.75"/><line class="cls-3" x1="411.62" y1="4.76" x2="411.62" y2="562.92"/><line class="cls-2" x1="411.62" y1="564.43" x2="411.62" y2="565.93"/><line class="cls-2" x1="421.63" y1="0.25" x2="421.63" y2="1.75"/><line class="cls-3" x1="421.63" y1="4.76" x2="421.63" y2="562.92"/><line class="cls-2" x1="421.63" y1="564.43" x2="421.63" y2="565.93"/><line class="cls-2" x1="492.34" y1="0.25" x2="492.34" y2="1.75"/><line class="cls-3" x1="492.34" y1="4.76" x2="492.34" y2="562.92"/><line class="cls-2" x1="492.34" y1="564.43" x2="492.34" y2="565.93"/><line class="cls-2" x1="563.05" y1="0.25" x2="563.05" y2="1.75"/><line class="cls-3" x1="563.05" y1="4.76" x2="563.05" y2="562.92"/><line class="cls-2" x1="563.05" y1="564.43" x2="563.05" y2="565.93"/><line class="cls-2" x1="633.76" y1="0.25" x2="633.76" y2="1.75"/><line class="cls-3" x1="633.76" y1="4.76" x2="633.76" y2="562.92"/><line class="cls-2" x1="633.76" y1="564.43" x2="633.76" y2="565.93"/><line class="cls-2" x1="704.47" y1="0.25" x2="704.47" y2="1.75"/><line class="cls-3" x1="704.47" y1="4.76" x2="704.47" y2="562.92"/><line class="cls-2" x1="704.47" y1="564.43" x2="704.47" y2="565.93"/><line class="cls-2" x1="48.06" y1="283.09" x2="49.56" y2="283.09"/><line class="cls-4" x1="52.58" y1="283.09" x2="755.91" y2="283.09"/><line class="cls-2" x1="757.41" y1="283.09" x2="758.91" y2="283.09"/><line class="cls-2" x1="48.06" y1="353.8" x2="49.56" y2="353.8"/><line class="cls-5" x1="52.57" y1="353.8" x2="730.45" y2="353.8"/><line class="cls-2" x1="731.95" y1="353.8" x2="733.45" y2="353.8"/><line class="cls-2" x1="48.06" y1="434.52" x2="49.56" y2="434.52"/><line class="cls-6" x1="52.58" y1="434.52" x2="701.46" y2="434.52"/><line class="cls-2" x1="702.97" y1="434.52" x2="704.47" y2="434.52"/><line class="cls-2" x1="48.06" y1="363.81" x2="49.56" y2="363.81"/><line class="cls-7" x1="52.56" y1="363.81" x2="727.21" y2="363.81"/><line class="cls-2" x1="728.71" y1="363.81" x2="730.21" y2="363.81"/><line class="cls-2" x1="48.06" y1="424.51" x2="49.56" y2="424.51"/><line class="cls-8" x1="52.57" y1="424.51" x2="705.11" y2="424.51"/><line class="cls-2" x1="706.61" y1="424.51" x2="708.11" y2="424.51"/><line class="cls-2" x1="48.06" y1="212.38" x2="49.56" y2="212.38"/><line class="cls-9" x1="52.56" y1="212.38" x2="782.32" y2="212.38"/><line class="cls-2" x1="783.82" y1="212.38" x2="785.32" y2="212.38"/><line class="cls-2" x1="48.06" y1="151.68" x2="49.56" y2="151.68"/><line class="cls-10" x1="52.55" y1="151.68" x2="804.42" y2="151.68"/><line class="cls-2" x1="805.92" y1="151.68" x2="807.42" y2="151.68"/><line class="cls-2" x1="48.06" y1="141.67" x2="49.56" y2="141.67"/><line class="cls-11" x1="52.57" y1="141.67" x2="808.06" y2="141.67"/><line class="cls-2" x1="809.56" y1="141.67" x2="811.06" y2="141.67"/><line class="cls-2" x1="48.06" y1="70.96" x2="49.56" y2="70.96"/><line class="cls-12" x1="52.58" y1="70.96" x2="833.79" y2="70.96"/><line class="cls-2" x1="835.29" y1="70.96" x2="836.79" y2="70.96"/><line class="cls-2" x1="48.06" y1="0.25" x2="49.56" y2="0.25"/><line class="cls-13" x1="52.56" y1="0.25" x2="859.53" y2="0.25"/><line class="cls-2" x1="861.03" y1="0.25" x2="862.53" y2="0.25"/><line class="cls-2" x1="357.55" y1="0.25" x2="357.04" y2="1.66"/><line class="cls-14" x1="356.01" y1="4.49" x2="152.69" y2="563.11"/><line class="cls-2" x1="152.18" y1="564.52" x2="151.66" y2="565.93"/><line class="cls-2" x1="347.55" y1="0.25" x2="347.03" y2="1.66"/><line class="cls-14" x1="346" y1="4.49" x2="142.68" y2="563.11"/><line class="cls-2" x1="142.17" y1="564.52" x2="141.65" y2="565.93"/><line class="cls-2" x1="276.84" y1="0.25" x2="276.32" y2="1.66"/><line class="cls-14" x1="275.29" y1="4.49" x2="71.97" y2="563.11"/><line class="cls-2" x1="71.46" y1="564.52" x2="70.94" y2="565.93"/><line class="cls-2" x1="206.13" y1="0.25" x2="205.61" y2="1.66"/><line class="cls-14" x1="204.58" y1="4.49" x2="1.26" y2="563.11"/><line class="cls-2" x1="0.75" y1="564.52" x2="0.23" y2="565.93"/><line class="cls-2" x1="428.26" y1="0.25" x2="427.75" y2="1.66"/><line class="cls-14" x1="426.72" y1="4.49" x2="223.4" y2="563.11"/><line class="cls-2" x1="222.89" y1="564.52" x2="222.37" y2="565.93"/><line class="cls-2" x1="498.97" y1="0.25" x2="498.46" y2="1.66"/><line class="cls-14" x1="497.43" y1="4.49" x2="294.11" y2="563.11"/><line class="cls-2" x1="293.6" y1="564.52" x2="293.08" y2="565.93"/><line class="cls-2" x1="569.68" y1="0.25" x2="569.17" y2="1.66"/><line class="cls-14" x1="568.14" y1="4.49" x2="364.82" y2="563.11"/><line class="cls-2" x1="364.31" y1="564.52" x2="363.79" y2="565.93"/><line class="cls-2" x1="579.69" y1="0.25" x2="579.18" y2="1.66"/><line class="cls-14" x1="578.15" y1="4.49" x2="374.83" y2="563.11"/><line class="cls-2" x1="374.31" y1="564.52" x2="373.8" y2="565.93"/><line class="cls-2" x1="650.4" y1="0.25" x2="649.89" y2="1.66"/><line class="cls-14" x1="648.86" y1="4.49" x2="445.54" y2="563.11"/><line class="cls-2" x1="445.02" y1="564.52" x2="444.51" y2="565.93"/><line class="cls-2" x1="721.11" y1="0.25" x2="720.6" y2="1.66"/><line class="cls-14" x1="719.57" y1="4.49" x2="516.25" y2="563.11"/><line class="cls-2" x1="515.73" y1="564.52" x2="515.22" y2="565.93"/><line class="cls-2" x1="791.82" y1="0.25" x2="791.31" y2="1.66"/><line class="cls-14" x1="790.28" y1="4.49" x2="586.96" y2="563.11"/><line class="cls-2" x1="586.44" y1="564.52" x2="585.93" y2="565.93"/><line class="cls-2" x1="862.53" y1="0.25" x2="862.02" y2="1.66"/><line class="cls-14" x1="860.99" y1="4.49" x2="657.67" y2="563.11"/><line class="cls-2" x1="657.15" y1="564.52" x2="656.64" y2="565.93"/><line class="cls-2" x1="25.97" y1="495.22" x2="27.47" y2="495.22"/><line class="cls-15" x1="30.47" y1="495.22" x2="701.47" y2="495.22"/><line class="cls-2" x1="702.97" y1="495.22" x2="704.47" y2="495.22"/><line class="cls-2" x1="0.23" y1="565.93" x2="1.73" y2="565.93"/><line class="cls-16" x1="4.74" y1="565.93" x2="701.47" y2="565.93"/><line class="cls-2" x1="702.97" y1="565.93" x2="704.47" y2="565.93"/><line class="cls-17" x1="283.07" y1="565.93" x2="488.96" y2="0.25"/><path class="cls-17" d="M-1075.43,876.25a13.27,13.27,0,0,0-8.74-12.47" transform="translate(1088.94 -310.32)"/><path d="M-631.35,664.12a9.43,9.43,0,0,0-8.84,6.19l-23.48,64.52-21.15,58.1A9.4,9.4,0,0,0-676,805.54h50.7a9.4,9.4,0,0,0,8.83-6.18L-595.21,741a9.41,9.41,0,0,1,8.83-6.19h57.54a9.4,9.4,0,0,0,8.84-6.18l18.89-51.91a9.4,9.4,0,0,0-8.83-12.62H-631.35Z" transform="translate(1088.94 -310.32)"/><path d="M-515.75,522.7h-64.13a9.41,9.41,0,0,0-8.83,6.19l-18.9,51.91a9.4,9.4,0,0,0,8.84,12.61h121.41a9.4,9.4,0,0,0,8.83-6.18l18.89-51.91a9.4,9.4,0,0,0-8.83-12.62Z" transform="translate(1088.94 -310.32)"/><path d="M-473,599.6l-18.89,51.91a9.4,9.4,0,0,0,8.83,12.61h50.7a9.42,9.42,0,0,0,8.84-6.18L-404.66,606a9.41,9.41,0,0,0-8.84-12.62h-50.7A9.41,9.41,0,0,0-473,599.6Z" transform="translate(1088.94 -310.32)"/><path d="M-860.3,674.13a9.4,9.4,0,0,1-8.83-12.62L-848,603.42l25.74-70.71,21.14-58.09A9.4,9.4,0,0,0-809.94,462h-50.7a9.41,9.41,0,0,0-8.84,6.19L-893,532.71l-25.74,70.71-25.73,70.71-21.15,58.09a9.4,9.4,0,0,0,8.84,12.62h192.12a9.4,9.4,0,0,0,8.83-6.18l18.89-51.91a9.4,9.4,0,0,0-8.83-12.62H-860.3Z" transform="translate(1088.94 -310.32)"/><path d="M-686.42,381.28h-64.12a9.41,9.41,0,0,0-8.84,6.19L-782.86,452-808.6,522.7l-25.74,70.71-21.14,58.1a9.4,9.4,0,0,0,8.83,12.61h121.41a9.4,9.4,0,0,0,8.84-6.18L-697.51,606a9.4,9.4,0,0,0-8.83-12.62H-750.2A9.39,9.39,0,0,1-759,580.8l21.14-58.1,23.48-64.52a9.43,9.43,0,0,1,8.84-6.19h128.25a9.4,9.4,0,0,0,8.84-6.18l18.89-51.91a9.41,9.41,0,0,0-8.84-12.62h-128Z" transform="translate(1088.94 -310.32)"/><path d="M-609.9,522.7h-50.7a9.41,9.41,0,0,0-8.83,6.19l-18.89,51.91a9.39,9.39,0,0,0,8.83,12.61h50.7a9.4,9.4,0,0,0,8.83-6.18l18.9-51.91A9.41,9.41,0,0,0-609.9,522.7Z" transform="translate(1088.94 -310.32)"/></svg>