<svg id="Layer_1" data-name="Layer 1" xmlns="http://www.w3.org/2000/svg" viewBox="0 0 2211.91 617.75"><path d="M-485.32,717.83V328.2q0-16.59,4-22.43t15.67-7.07l50.39-3.07v-9.22H-572.58v9.22l36.87,3.07q12.29,1.24,16.29,7.07t4,22.43V688.94q0,16-3.68,21.82t-15.37,7.07l-38.1,3.68v9.22h189.73v-13c-2.52,0-5.11.09-7.83.09Z" transform="translate(684.82 -286.41)"/><path d="M33.35,676.34c-1.07,2.78-2.2,5.38-3.39,7.83l16.6,43.64L56.71,630H46.88Q40.1,658.84,33.35,676.34Z" transform="translate(684.82 -286.41)"/><path d="M-179.89,306.08q3.67,6.15,3.68,22.12V635.74c9,13.15,13.85,30,13.85,49.87,0,18-3.94,33.1-11.68,45.12H12.32l-7.4-20.16a57.7,57.7,0,0,1-12.74,4.18q-14.74,3.09-36.26,3.08h-102V509.49H-66.2q24,0,35.64,4.31A27.85,27.85,0,0,1-14,529.46Q-9,540.84-5.36,564.19H4.47V441.28l-9.83.61q-4.3,24-9.22,35.65T-29.64,492.9q-10.14,3.69-32.87,3.69h-83.58V299.32h83.58a343.21,343.21,0,0,1,39,1.84Q-7.81,303,2,310.38T20.14,334q8.3,16.29,17.52,45.78l9.83-.61-18.44-92.8H-233.36v9.22l36.87,3.07Q-183.57,299.94-179.89,306.08Z" transform="translate(684.82 -286.41)"/><path d="M-206,718.86l-27.39,2.65v9.22h16.1A41.69,41.69,0,0,0-206,718.86Z" transform="translate(684.82 -286.41)"/><polygon points="934.49 435.1 930.83 434.85 934.49 440.44 934.49 435.1"/><path d="M450.63,306.08q4.9,6.15,4.91,21.51V603.1h15.37V328.2q0-16.59,4.3-22.74t16-7.37l37.48-2.46v-9.22h-129v9.22l32.57,3.07Q445.71,299.94,450.63,306.08Z" transform="translate(684.82 -286.41)"/><path d="M198.05,712a20.41,20.41,0,0,1-3.09-7.75l-3.91-5.93c-4.27-6.46-8.92-13.81-13.28-20.84v12.09q0,16-4.61,22.43a15,15,0,0,1-6.51,5,22.51,22.51,0,0,1-3.82,1.21,33.79,33.79,0,0,1-6,.81l-20.13,1.37-3.82.26-12.31.83v9.22h91.87l-9.79-14.82A13.84,13.84,0,0,1,198.05,712Z" transform="translate(684.82 -286.41)"/><path d="M858.68,721.51v9.22h36.73a41.78,41.78,0,0,0,10.71-15.15,31.82,31.82,0,0,1-9.34,2.25Z" transform="translate(684.82 -286.41)"/><path d="M687.83,710.14q-3.69-6.45-3.68-20V508.88H915.83V621.45a81.12,81.12,0,0,1,8.95,8.11C937.44,643,944.53,660.19,946,680.69V329.43q0-17.82,3.68-24T965,298.7l38.72-3.07v-9.22h-145v9.22l36.87,3.07q12.29,1.24,16.29,7.38t4,22.12V496H684.15V329.43q0-18.44,4-24T702,299.32l38.71-3.69v-9.22H596.27v9.22l38.1,3.07q12.28,1.24,16,7.38T654,328.2V688.94q0,16-3.68,21.82c-2.09,3.31-6.12,5.49-12.05,6.58-1,.19-2.14.36-3.32.49l-.45,0-28.17,2.68-3.81.36-6.28.6v9.22H735.12V721l-31.92-3.14Q691.51,716.6,687.83,710.14Z" transform="translate(684.82 -286.41)"/><polygon points="2099.67 434.82 2099.67 434.49 2096.07 434.02 2098.13 437.22 2099.67 434.82"/><path d="M1135.84,578.94h161L1304,603.1h30.58l-101-316.69h-18.44L1112.26,603.17a123.29,123.29,0,0,1,15.18,1.39Zm80.5-253.81h.62l75,240.9H1139.52Z" transform="translate(684.82 -286.41)"/><path d="M1311.35,627.92l18.07,61q4.29,13.53,2.77,20.59t-13.83,8.3L1287,721.51v9.22h92.48Z" transform="translate(684.82 -286.41)"/><path d="M1117.21,635.77a108.43,108.43,0,0,0-15-1H1102l-17.79,54.78q-5.52,16.59-9.83,21.81t-14.75,6.46l-24.58,3.68v9.22H1146.9v-9.22l-35-3.68q-12.9-1.23-14.75-8.61t2.46-19.66Z" transform="translate(684.82 -286.41)"/><path d="M-481.5,649.48c10.38,10.62,17.8,24.57,21.35,41.84H-432c-6.19-34.5-23.91-59.4-49.49-74.17Z" transform="translate(684.82 -286.41)"/><path d="M-548.22,772.87h93.78v10.19c0,50.57-28.95,97.05-96.23,97.05-69.32,0-105.61-55.46-105.61-127.22,0-70.54,34.25-128,109.28-128a111.17,111.17,0,0,1,27.76,3.41V603.63A154.27,154.27,0,0,0-547,601.2c-88.48,0-137.82,65.65-137.82,151.69,0,87.26,48.52,151.28,133.74,151.28,53.83,0,82.37-28.55,97.46-52.2h1.22l5.71,46.49h19.16V748.81H-548.22Z" transform="translate(684.82 -286.41)"/><path d="M-173.11,834.44c-2-45.26-11.83-67.28-42-77.47v-1.23c14.55-4.61,25.7-11.7,33.66-21.19,1-1.23,2-2.51,2.91-3.82,8.33-11.81,12.36-26.88,12.36-45.12,0-16.38-3.45-30.65-10-42.4a65.14,65.14,0,0,0-3.81-6c-13.72-19.32-37.25-30.28-68.93-30.28H-379V898.46h27.32V768.38h88.89c42.41,0,59.94,14.28,62.39,64.84,2.44,49.75,4.07,60.75,10.6,65.24h29.36v-1.63C-165.77,893.16-171.08,881.33-173.11,834.44Zm-85.23-89.3h-93.37V631h46.4c1-3.46,2.07-7,3.15-10.7l.8-2.74h17.11l-2,13.44h31.54c44,0,60.35,20.79,60.35,57.09,0,10-1.7,18.78-5,26.32-.6,1.38-1.23,2.73-1.94,4a45,45,0,0,1-9.84,12.33,49.37,49.37,0,0,1-5,3.82C-226.52,741.45-240.58,745.14-258.34,745.14Z" transform="translate(684.82 -286.41)"/><path d="M-301.33,631c-.39,1.29-.77,2.55-1.14,3.81-4.89,16.24-9.2,29.51-12.92,39.72q-7.08,19.35-16,28.88a38.47,38.47,0,0,1-16.53,10.44v16.91h43.26l14-96,.55-3.81,1.41-9.63h-9.83C-299.46,624.67-300.4,627.85-301.33,631Z" transform="translate(684.82 -286.41)"/><path d="M43.6,730.73l-16-42-1.8-4.75-29.31-77h-31L-74.94,714h26.8l14.46-38.6c6.52-17.53,14.27-42.4,14.27-42.4h.81S-10,659.1-3.92,675.41L7,705.18l1.33,3.64,8.05,21.91,1.4,3.82L36,784.29H-74.46l18.63-49.74H-82.7l-61.89,163.91h27.73l34.25-91.75H44.2L78,898.46H107.4L45.05,734.55Z" transform="translate(684.82 -286.41)"/><path d="M330.42,859.72h-.82s-14.27-26.09-28.94-48.11l-50.51-77.06-2.5-3.82-6.42-9.8-2.63-4-41-62.63-3.82-5.82-16-24.38L174,618.28l-7.45-11.37H136.74V716.6l19.87-1.35a28.89,28.89,0,0,0,6.22-.94V646.87h.82S168,654.16,174,664c1.21,2,2.49,4.08,3.82,6.23,5.09,8.28,10.88,17.51,16.14,25.5l.32.49,4.3,6.5L205.32,713l3.44,5.21,8.3,12.55,2.52,3.82L328,898.46h28.54V606.91h-26.1Z" transform="translate(684.82 -286.41)"/><rect x="821.56" y="448.13" width="26.1" height="163.91"/><path d="M607.81,734.55q.68,9.27.68,19.15c0,73.81-30.18,120.7-99.9,120.7H436V708.68L408.68,665V898.46H509.4c86,0,127.63-58.31,127.63-144.76,0-6.54-.25-12.92-.7-19.15Z" transform="translate(684.82 -286.41)"/><path d="M474.72,606.91H418.07L436,635.28V631h75.44c57.3,0,85.95,33.06,94.34,85.8L634,714.09c-10.66-64.71-49.54-107.18-121.71-107.18Z" transform="translate(684.82 -286.41)"/><path d="M436,701.49l3.82,6.09,14.49,23.15h16.6v-96H455.54v37.57h-.61l-15.11-23.9-3.82-6-22.44-35.5-2.41-3.81L211,286.41H120.61v9.22l36.88,3.07q13.5,1.24,16.9,7.07t3.38,21.2V617.14l16,24.38v-325H195l209.9,335.23,3.81,6.1Z" transform="translate(684.82 -286.41)"/><path d="M922,632.19a79.35,79.35,0,0,0-6.19-5.85c-1.23-1-2.51-2-3.81-3-14.39-10.67-33-16.43-58.5-16.43H738.94V898.46h27.32V771.65h83.59c40.44,0,67.85-12.85,81.8-37.1.71-1.25,1.38-2.52,2-3.82,5.79-11.73,8.73-25.85,8.73-42.27C942.41,664.41,935.07,646.06,922,632.19ZM896.78,734.55c-10.83,9-26.87,13.85-49,13.85H766.26V631h84c33.67,0,54.72,13.39,61.77,38a73.7,73.7,0,0,1,2.66,20.3,76.89,76.89,0,0,1-2.89,22,47.92,47.92,0,0,1-10.94,19.5A46.15,46.15,0,0,1,896.78,734.55Z" transform="translate(684.82 -286.41)"/><path d="M1183.78,834.44c-2-45.26-11.82-67.28-42-77.47v-1.23c33.44-10.6,48.94-34.25,48.94-70.13,0-41.26-21.83-69.24-60.69-76.69-1.25-.24-2.52-.47-3.8-.67A117.93,117.93,0,0,0,1111,607c-1,0-2-.06-3.09-.06H977.86V715.14l27.32,2.68V631h98.05a108.79,108.79,0,0,1,15.19,1.1c1.3.2,2.56.42,3.8.66,29.08,5.71,40.36,25.16,40.36,55.32,0,15.54-4,28.22-11.87,37.66v8.83h-9.93c-10.4,6.9-24.46,10.59-42.22,10.59h-93.38V734.55H977.86V898.46h27.32V768.38h88.9c42.4,0,59.94,14.28,62.38,64.84,2.45,49.75,4.08,60.75,10.6,65.24h29.36v-1.63C1191.12,893.16,1185.82,881.33,1183.78,834.44Z" transform="translate(684.82 -286.41)"/><path d="M1003.71,730.73v-9.22L977.86,719l-3.81-.37-7.83-.77q-11.67-1.23-16-7.07c-2.41-3.26-3.79-8.64-4.18-16.08q-.93,20.57-8,36.05h65.64Z" transform="translate(684.82 -286.41)"/><rect x="1921.19" y="320.5" width="27.32" height="291.55"/><polygon points="2113.23 463.62 2207.42 320.5 2177.25 320.5 2103.48 435.93 2099.67 441.9 2098.55 443.64 2097.74 443.64 2091.12 433.39 2088.41 429.2 2030.87 340.09 2022.96 327.83 2018.22 320.5 1989.95 320.5 1986.83 320.5 1992.48 329.03 2068.9 444.32 2071.43 448.13 2081.43 463.21 1981.12 612.05 2012.11 612.05 2096.1 483.19 2096.92 483.19 2179.69 612.05 2211.91 612.05 2113.23 463.62"/></svg>