<svg id="Layer_1" data-name="Layer 1" xmlns="http://www.w3.org/2000/svg" viewBox="0 0 1578.32 315.65"><title>collab</title><path d="M705.94,512a150.77,150.77,0,0,1-35.36-3.46c-17.51-3.86-33.65-10.83-47.63-22.25a102,102,0,0,1-25.27-30.62,126.05,126.05,0,0,1-12.46-34.31,166.13,166.13,0,0,1-3.41-31.93,176.31,176.31,0,0,1,2.58-34.88C588.75,331,598,309.71,615,292.47c13-13.18,28.7-22,46.58-27.09s36.09-6.62,54.56-5.66a222.25,222.25,0,0,1,39.09,5.51q9.67,2.25,19.29,4.69c3.13.8,3.28,1.32,2.67,4.46-1.94,9.91-3.81,19.83-5.72,29.75-1,5-2.05,10-3,15.06-.34,1.86-1.44,1.43-2.59,1.12-6.32-1.72-12.6-3.66-19-5.14-13.65-3.18-27.49-5-41.49-3.35-20.6,2.36-35.18,13.12-43.48,32.24-4.55,10.47-6.4,21.51-7.25,32.81a128.09,128.09,0,0,0,1.87,32.84c1.77,9.67,4.87,18.93,10.45,27.15a49.65,49.65,0,0,0,32.15,21.54c11.56,2.39,23.09,1.71,34.65.15,10.67-1.44,21-4.29,31.26-7.37,3.28-1,3.12-.73,3.62,2.06,1.61,8.93,3.38,17.82,5.11,26.73,1.12,5.76,2.28,11.51,3.44,17.26.62,3.08.54,3.39-2.51,4.11-11.48,2.69-22.91,5.68-34.5,7.83A171.85,171.85,0,0,1,705.94,512Z" transform="translate(505.67 -196.4)"/><path d="M883.46,196.51v2.92q0,30.85,0,61.71c0,3.08,0,3.07,3.08,3.08q18.45,0,36.9,0c2.69,0,2.77.13,2.77,2.76,0,15.52-.06,31,0,46.55,0,2.09-.63,2.69-2.68,2.68-12.43-.08-24.87,0-37.31,0-2.66,0-2.79.11-2.79,2.76q0,60.69,0,121.37A22.09,22.09,0,0,0,886.84,453c3.55,5.32,8.88,7.59,14.93,8.2a81.2,81.2,0,0,0,20.82-1c.54-.09,1.08-.15,1.62-.25,1.39-.25,2,.22,2,1.72q0,22.35,0,44.7c0,1.8-1,2.17-2.44,2.32-6.24.69-12.46,1.71-18.72,2-12.14.6-24.3,1.15-36.44,1.05A63.16,63.16,0,0,1,840,504.89c-10.29-5.28-17.1-13.51-21-24.3a81.62,81.62,0,0,1-4.56-24.24c-.28-5.93-.32-11.88-.33-17.82q0-101.08-.07-202.16c0-2.93.85-4.46,3.52-5.82,13.44-6.85,26.76-14,40.13-21q11.88-6.22,23.79-12.41A15.87,15.87,0,0,1,883.46,196.51Z" transform="translate(505.67 -196.4)"/><path d="M1029.91,196.4v3.16q0,30.75,0,61.51c0,3.15,0,3.18,3.23,3.18q18.24,0,36.5,0c2.95,0,3,0,3,3,0,15.59,0,31.17,0,46.75,0,1.88-.7,2.3-2.41,2.3-12.44-.05-24.88,0-37.32,0-2.93,0-3,0-3,2.94q0,60.38,0,120.77c0,4.92.86,9.52,3.74,13.58A17.51,17.51,0,0,0,1047.8,461a189.56,189.56,0,0,0,21-.9c3.83-.3,3.81-.61,3.8,3.16q0,20.59,0,41.21c0,3.88,0,3.76-3.84,4.29a378.16,378.16,0,0,1-40.21,3.16c-11.31.33-22.58,0-33.48-3.46q-24.24-7.62-31.13-32.21a102.67,102.67,0,0,1-3.35-27.74q0-106.43,0-212.84c0-2.45.72-3.75,2.92-4.89,21.28-11,42.5-22.22,63.74-33.34C1027.92,197.12,1028.69,196.89,1029.91,196.4Z" transform="translate(505.67 -196.4)"/><polygon points="588.54 11.39 588.54 69.97 529.97 69.97 529.97 128.54 471.39 128.54 471.39 187.11 412.82 187.11 412.82 128.54 412.82 69.97 412.82 11.39 354.24 11.39 354.24 69.97 354.24 128.54 354.24 187.11 354.24 245.69 354.24 304.26 412.82 304.26 412.82 245.69 471.39 245.69 529.97 245.69 529.97 187.11 588.54 187.11 588.54 245.69 588.54 304.26 647.11 304.26 647.11 245.69 647.11 187.11 647.11 128.54 647.11 69.97 647.11 11.39 588.54 11.39"/><path d="M-359.23,207.8A146.43,146.43,0,0,0-505.67,354.23,146.44,146.44,0,0,0-359.23,500.67,146.44,146.44,0,0,0-212.8,354.23,146.43,146.43,0,0,0-359.23,207.8Zm0,234.29a87.85,87.85,0,0,1-87.86-87.86,87.86,87.86,0,0,1,87.86-87.86,87.86,87.86,0,0,1,87.86,87.86A87.86,87.86,0,0,1-359.23,442.09Z" transform="translate(505.67 -196.4)"/><path d="M369.9,354.23l74.62-74.62a5.86,5.86,0,0,0-8.29-8.28l-74.62,74.61L287,271.33a5.85,5.85,0,0,0-8.28,8.28l74.61,74.62L278.7,428.85a5.86,5.86,0,0,0,8.29,8.29l74.62-74.62,74.62,74.61a5.87,5.87,0,0,0,8.29,0,5.88,5.88,0,0,0,0-8.29Z" transform="translate(505.67 -196.4)"/></svg>